<svg xmlns="http://www.w3.org/2000/svg" xmlns:xlink="http://www.w3.org/1999/xlink" width="1600" height="900" viewBox="0 0 1600 900">
  <defs>
    <clipPath id="clip-adviser-graphic-black">
      <rect width="1600" height="900"/>
    </clipPath>
  </defs>
  <g id="adviser-graphic-black" clip-path="url(#clip-adviser-graphic-black)">
    <path id="Path_1328" data-name="Path 1328" d="M1501.819,436.616h274.166v171.01H1606.757l-57.667,38.952V607.626h-47.271Zm-28.365-28.5V636.128h47.271v64.6l95.485-64.6h187.357V408.114Z" transform="matrix(0.978, 0.208, -0.208, 0.978, -290.688, -601.984)" fill="#8967aa"/>
    <path id="Path_1328_-_Outline" data-name="Path 1328 - Outline" d="M1472.954,407.614h331.114V636.628h-187.7l-96.139,65.046V636.628h-47.271Zm330.114,1H1473.954V635.628h47.271V699.79l94.832-64.162h187.01Zm-301.748,27.5h275.166v172.01H1606.91l-58.32,39.393V608.126h-47.271Zm274.166,1H1502.319v170.01h47.271v38.511l57.014-38.511h168.882Z" transform="matrix(0.978, 0.208, -0.208, 0.978, -290.688, -601.984)" fill="rgba(0,0,0,0)"/>
    <rect id="Rectangle_881" data-name="Rectangle 881" width="28.362" height="28.502" transform="matrix(0.978, 0.208, -0.208, 0.978, 1147.685, 218.108)" fill="#8967aa"/>
    <path id="Rectangle_881_-_Outline" data-name="Rectangle 881 - Outline" d="M-.5-.5H28.862V29H-.5ZM27.862.5H.5V28H27.862Z" transform="matrix(0.978, 0.208, -0.208, 0.978, 1147.685, 218.108)" fill="rgba(0,0,0,0)"/>
    <rect id="Rectangle_882" data-name="Rectangle 882" width="28.362" height="28.502" transform="matrix(0.978, 0.208, -0.208, 0.978, 1193.919, 227.935)" fill="#8967aa"/>
    <path id="Rectangle_882_-_Outline" data-name="Rectangle 882 - Outline" d="M-.5-.5H28.862V29H-.5ZM27.862.5H.5V28H27.862Z" transform="matrix(0.978, 0.208, -0.208, 0.978, 1193.919, 227.935)" fill="rgba(0,0,0,0)"/>
    <rect id="Rectangle_883" data-name="Rectangle 883" width="28.362" height="28.502" transform="matrix(0.978, 0.208, -0.208, 0.978, 1240.163, 237.765)" fill="#8967aa"/>
    <path id="Rectangle_883_-_Outline" data-name="Rectangle 883 - Outline" d="M-.5-.5H28.862V29H-.5ZM27.862.5H.5V28H27.862Z" transform="matrix(0.978, 0.208, -0.208, 0.978, 1240.163, 237.765)" fill="rgba(0,0,0,0)"/>
    <path id="Path_1329" data-name="Path 1329" d="M1262.092,659.923a107.861,107.861,0,0,1-38.379,19.294,12.117,12.117,0,0,0-1.4.279l4.2,2.237,14.847,8.112,21.008,11.742,21.008-11.742,14.568-8.112a25.085,25.085,0,0,0,2.8-2.516,111.573,111.573,0,0,1-38.658-19.294m0,0a107.861,107.861,0,0,1-38.379,19.294,12.117,12.117,0,0,0-1.4.279l4.2,2.237,14.847,8.112,21.008,11.742,21.008-11.742,14.568-8.112a25.085,25.085,0,0,0,2.8-2.516,111.573,111.573,0,0,1-38.658-19.294m0,0a107.861,107.861,0,0,1-38.379,19.294,12.117,12.117,0,0,0-1.4.279l4.2,2.237,14.847,8.112,21.008,11.742,21.008-11.742,14.568-8.112a25.085,25.085,0,0,0,2.8-2.516,111.573,111.573,0,0,1-38.658-19.294m0,0a107.861,107.861,0,0,1-38.379,19.294,12.117,12.117,0,0,0-1.4.279l4.2,2.237,14.847,8.112,21.008,11.742,21.008-11.742,14.568-8.112a25.085,25.085,0,0,0,2.8-2.516,111.573,111.573,0,0,1-38.658-19.294m45.661,20.971h-.283a37.03,37.03,0,0,1-5.318-1.4,2.105,2.105,0,0,1-1.4-.279,111.573,111.573,0,0,1-38.658-19.294,24.215,24.215,0,0,1-2.8-2.238c-3.082-2.793-5.885-5.313-8.683-8.107l-47.9-26.566h-14.567a148.663,148.663,0,0,0,34.179,54.807c.278.56.839.838,1.4,1.4a12.117,12.117,0,0,0-1.4.279l4.2,2.237,14.847,8.112,21.008,11.742,5.044,2.795,25.492,13.98a145.444,145.444,0,0,0,36.973,4.757,154.144,154.144,0,0,0,42.863-6.151Zm-66.39,8.951,21.008,11.742,21.008-11.742,14.568-8.112a25.085,25.085,0,0,0,2.8-2.516,111.573,111.573,0,0,1-38.658-19.294,107.861,107.861,0,0,1-38.379,19.294,12.117,12.117,0,0,0-1.4.279l4.2,2.237ZM1006.9,879.428V767.577l114.568-63.195,45.1-24.886a108.711,108.711,0,0,1-43.141-21.811l-36.7,20.134L966.84,744.09V919.131h455.206v-39.7Zm255.193-219.5a107.861,107.861,0,0,1-38.379,19.294,12.117,12.117,0,0,0-1.4.279l4.2,2.237,14.847,8.112,21.008,11.742,21.008-11.742,14.568-8.112a25.085,25.085,0,0,0,2.8-2.516,111.573,111.573,0,0,1-38.658-19.294m0,0a107.861,107.861,0,0,1-38.379,19.294,12.117,12.117,0,0,0-1.4.279l4.2,2.237,14.847,8.112,21.008,11.742,21.008-11.742,14.568-8.112a25.085,25.085,0,0,0,2.8-2.516,111.573,111.573,0,0,1-38.658-19.294m0,0a107.861,107.861,0,0,1-38.379,19.294,12.117,12.117,0,0,0-1.4.279l4.2,2.237,14.847,8.112,21.008,11.742,21.008-11.742,14.568-8.112a25.085,25.085,0,0,0,2.8-2.516,111.573,111.573,0,0,1-38.658-19.294m0,0a107.861,107.861,0,0,1-38.379,19.294,12.117,12.117,0,0,0-1.4.279l4.2,2.237,14.847,8.112,21.008,11.742,21.008-11.742,14.568-8.112a25.085,25.085,0,0,0,2.8-2.516,111.573,111.573,0,0,1-38.658-19.294" transform="translate(-565.291 33.187) rotate(-9)" fill="#1d1d1d"/>
    <path id="Path_1329_-_Outline" data-name="Path 1329 - Outline" d="M1422.546,919.631H966.34V743.8l.258-.143,119.891-66.271,37-20.3.261.214a112.059,112.059,0,0,0,20.219,13.257,105.688,105.688,0,0,0,22.724,8.454l1.244.3-46.224,25.5L1007.4,767.872V878.928h415.148Zm-455.206-1h454.206v-38.7H1006.4V767.281l.259-.143,114.568-63.195,43.992-24.273a106.785,106.785,0,0,1-21.706-8.224,112.992,112.992,0,0,1-20.138-13.162l-36.4,19.971L967.34,744.385Zm362.54-195.013a145.941,145.941,0,0,1-37.1-4.773l-.06-.016-.054-.03-25.492-13.98-4.8-2.661h0l-.243-.136-.785-.435,0,0-20.228-11.305-14.839-8.107-4.2-2.237.235-.441,0-.5a2.14,2.14,0,0,0,.3-.074,2.852,2.852,0,0,1-.705-.805,149.165,149.165,0,0,1-34.242-54.939l-.234-.666h15.4l.113.063,47.964,26.6.05.049c2.594,2.59,5.231,4.979,8.023,7.508l.66.6a17.156,17.156,0,0,0,2.1,1.712l.338.249.006-.005.309.239.514.384-.007.006a111.085,111.085,0,0,0,37.7,18.742l.148-.148.353.355c.131.132.683.132,1.048.132h.081l.077.026a37,37,0,0,0,5.2,1.372h.371l.113.063,66.039,36.655-1.151.335a155.867,155.867,0,0,1-20.972,4.558A152.967,152.967,0,0,1,1329.88,723.618Zm-36.786-5.725a144.946,144.946,0,0,0,36.786,4.725,151.97,151.97,0,0,0,21.887-1.6,154.975,154.975,0,0,0,19.679-4.2l-63.823-35.425h-.194l-.041-.007a37.555,37.555,0,0,1-5.318-1.391,3.541,3.541,0,0,1-1.243-.15,23.562,23.562,0,0,1-2.581,2.288l-.027.02-.029.016-14.568,8.112-20.224,11.3,4.258,2.359Zm-69.3-38.179,2.965,1.58,14.847,8.112,20.769,11.608,20.765-11.606,14.539-8.1a20.98,20.98,0,0,0,2.112-1.844,112.1,112.1,0,0,1-37.691-18.91,102.817,102.817,0,0,1-17.919,11.348,114.789,114.789,0,0,1-20.331,7.793Zm-34.945-56.2a148.164,148.164,0,0,0,33.828,53.956l.056.057.036.071a2.416,2.416,0,0,0,.682.718c.126.1.264.217.405.345a113.715,113.715,0,0,0,19.88-7.648,101.89,101.89,0,0,0,17.538-11.074l-.119-.088a18.221,18.221,0,0,1-2.206-1.8l-.633-.574c-2.783-2.521-5.414-4.9-8.009-7.492l-47.729-26.47Z" transform="translate(-565.291 33.187) rotate(-9)" fill="rgba(0,0,0,0)"/>
    <path id="Path_1330" data-name="Path 1330" d="M1164.229,832.108c-1.958.56-3.639.838-5.318,1.4h-.284a119.274,119.274,0,0,1-22.41,2.238,101.894,101.894,0,0,1-27.729-3.636,108.659,108.659,0,0,1-43.14-21.81,111.321,111.321,0,0,1-40.059-85.283c0-60.958,49.862-110.73,110.929-110.73a114.437,114.437,0,0,1,67.793,23.209,106.307,106.307,0,0,1,38.658-19.016A144.357,144.357,0,0,0,1204.29,590.8a149.862,149.862,0,0,0-68.073-16.218c-83.2,0-150.988,67.384-150.988,150.435a148.953,148.953,0,0,0,43.419,105.416A147,147,0,0,0,1063.384,857a144.052,144.052,0,0,0,30.253,12.582,152.167,152.167,0,0,0,42.58,6.151,156.357,156.357,0,0,0,68.073-16.218q2.519-1.258,5.043-2.516a163.249,163.249,0,0,0,30.533-22.653,25.189,25.189,0,0,0,2.8-2.515,111.454,111.454,0,0,1-38.658-19.294,107.9,107.9,0,0,1-38.38,19.294" transform="translate(-531.801 -126.633) rotate(-9)" fill="#1d1d1d"/>
    <path id="Path_1330_-_Outline" data-name="Path 1330 - Outline" d="M1136.217,876.23a152.843,152.843,0,0,1-42.719-6.171,145.249,145.249,0,0,1-30.353-12.624,139.851,139.851,0,0,1-18.48-12.068,155.03,155.03,0,0,1-16.374-14.588,151.988,151.988,0,0,1-18.3-22.361A148.844,148.844,0,0,1,987.7,754.955a151.79,151.79,0,0,1,.112-60.35,149.8,149.8,0,0,1,22.838-53.967,151.435,151.435,0,0,1,193.858-50.289,144.563,144.563,0,0,1,38.512,27.774l.623.622-.853.217a103.224,103.224,0,0,0-20.388,7.583,108.266,108.266,0,0,0-18.088,11.344l-.311.241-.307-.245a99.533,99.533,0,0,0-18.048-11.443,105.5,105.5,0,0,0-20.146-7.48l-.015,0a103.913,103.913,0,0,0-29.272-4.172,109.9,109.9,0,0,0-61.655,18.877,111.547,111.547,0,0,0-29.863,29.81,110.47,110.47,0,0,0-10.206,18.721,109.687,109.687,0,0,0,2.135,90.386,109.162,109.162,0,0,0,49.255,50.592,105.694,105.694,0,0,0,22.724,8.453l.016,0a95.218,95.218,0,0,0,13.583,2.748,110.368,110.368,0,0,0,14.011.869,118.789,118.789,0,0,0,22.316-2.229l.047-.009h.251c.945-.31,1.881-.533,2.87-.769.764-.182,1.553-.37,2.391-.61l.275.961c-.859.246-1.66.437-2.434.621-.994.237-1.933.461-2.863.771l-.077.026h-.317a119.755,119.755,0,0,1-22.458,2.238,111.378,111.378,0,0,1-14.138-.877,96.22,96.22,0,0,1-13.718-2.775,106.694,106.694,0,0,1-22.931-8.53,111.553,111.553,0,0,1-49.7-51.05,110.571,110.571,0,0,1,8.144-110.1,112.238,112.238,0,0,1,49.055-40.356,110.73,110.73,0,0,1,43.29-8.769,104.919,104.919,0,0,1,29.546,4.21,106.508,106.508,0,0,1,20.33,7.549,100.6,100.6,0,0,1,17.922,11.314,109.25,109.25,0,0,1,17.944-11.209,104.379,104.379,0,0,1,19.734-7.436,143.313,143.313,0,0,0-37.623-26.966l-.006,0a150.388,150.388,0,0,0-151.9,9.451A151.393,151.393,0,0,0,1011.48,641.2a149.748,149.748,0,0,0-22.8,113.557,147.843,147.843,0,0,0,22.135,53.105A150.985,150.985,0,0,0,1029,830.078a154.018,154.018,0,0,0,16.27,14.5,138.847,138.847,0,0,0,18.349,11.983l0,0a144.243,144.243,0,0,0,30.148,12.538,151.848,151.848,0,0,0,42.441,6.132,141.391,141.391,0,0,0,37.963-5.016l.016,0a142.675,142.675,0,0,0,29.87-11.144q2.513-1.254,5.03-2.509a162.226,162.226,0,0,0,15.939-10.449,166.71,166.71,0,0,0,14.488-12.128l.02-.019.022-.017a21.011,21.011,0,0,0,2.139-1.864,111.974,111.974,0,0,1-37.69-18.91,102.852,102.852,0,0,1-17.92,11.348,114.822,114.822,0,0,1-20.33,7.793l-.269-.963a113.815,113.815,0,0,0,20.153-7.725,101.739,101.739,0,0,0,18.05-11.479l.307-.245.311.241a110.957,110.957,0,0,0,38.484,19.207l.831.228-.61.609a25.768,25.768,0,0,1-2.835,2.545,167.7,167.7,0,0,1-14.555,12.182,163.234,163.234,0,0,1-16.05,10.521l-.026.014q-2.525,1.258-5.043,2.515a156.854,156.854,0,0,1-68.3,16.27Z" transform="translate(-531.801 -126.633) rotate(-9)" fill="rgba(0,0,0,0)"/>
    <path id="Path_1331" data-name="Path 1331" d="M1197.772,653.107a25.176,25.176,0,0,1-2.8,2.516l4.2-2.237a2.1,2.1,0,0,1-1.4-.279m136.981-1.4-36.7-20.411a109.132,109.132,0,0,1-43.14,22.088l45.1,24.886,114.85,63.195V853.317H1039.5V741.466l89.921-49.493,24.934-13.7,5.041-2.794,21.009-11.743,14.568-8.112,4.2-2.237a2.1,2.1,0,0,1-1.4-.279,111.545,111.545,0,0,1-38.658-19.294,24.9,24.9,0,0,1-2.8-2.238l-17.366,9.511-19.607,10.623c.277.56.839.839,1.4,1.4a12.044,12.044,0,0,0-1.4.279l-2.38.6-2.943.8h-.278l-64.991,36.073-49.3,27.124V893.022h455.485V717.981Zm-136.981,1.4a25.176,25.176,0,0,1-2.8,2.516l4.2-2.237a2.1,2.1,0,0,1-1.4-.279" transform="translate(-459.5 42.857) rotate(-9)" fill="#1d1d1d"/>
    <path id="Path_1331_-_Outline" data-name="Path 1331 - Outline" d="M1455.428,893.522H998.943V717.685l.259-.143,49.3-27.124,65.1-36.135h.341l2.888-.786,2.44-.612h.062a2.19,2.19,0,0,0,.3-.074,2.747,2.747,0,0,1-.744-.881l-.214-.432,20.031-10.853,17.691-9.689.265.263a17.367,17.367,0,0,0,2.082,1.7c.214.157.434.319.669.5l.006,0a111.048,111.048,0,0,0,38.2,19.13l.148-.148.259.26.7.192-.026.026c.16.007.326.007.465.007h2l-5.97,3.176-14.563,8.109-21.008,11.742-5.043,2.795-24.936,13.7L1040,741.762V852.817h374.371V741.762l-114.591-63.052-46.2-25.494,1.218-.314a110.879,110.879,0,0,0,22.938-8.7,107.77,107.77,0,0,0,20.005-13.289l.264-.221,37,20.578,120.432,66.413Zm-455.485-1h454.485V718.276l-119.916-66.129-36.4-20.245a108.778,108.778,0,0,1-19.927,13.192,111.738,111.738,0,0,1-21.936,8.457l44.01,24.283,115.109,63.337V853.817H1039V741.171l.259-.143,89.921-49.493,24.934-13.7,5.04-2.793,21.007-11.742,14.538-8.1a21.057,21.057,0,0,0,2.113-1.845,112.058,112.058,0,0,1-38-19.147c-.23-.172-.448-.333-.659-.488a20.793,20.793,0,0,1-1.923-1.533l-17.044,9.334-19.1,10.349c.111.108.242.215.386.334a8.169,8.169,0,0,1,.618.546l.853.853h-1.207a2.967,2.967,0,0,0-.788.155,2.709,2.709,0,0,1-.537.121l-2.324.583-3,.818h-.215l-64.878,36.01-49.046,26.982Z" transform="translate(-459.5 42.857) rotate(-9)" fill="rgba(0,0,0,0)"/>
    <path id="Path_1332" data-name="Path 1332" d="M1089.335,802.19a110.7,110.7,0,0,1,11.484-164.7,102.969,102.969,0,0,0-38.378-19.016A149.431,149.431,0,0,0,1017.9,725.015a145.887,145.887,0,0,0,8.965,50.609,148.753,148.753,0,0,0,34.175,54.807c.283.56.841.839,1.4,1.4a107.918,107.918,0,0,0,38.378-19.294,24.322,24.322,0,0,1-2.8-2.238c-3.082-2.794-5.885-5.313-8.683-8.107m0,0a110.7,110.7,0,0,1,11.484-164.7,102.969,102.969,0,0,0-38.378-19.016A149.431,149.431,0,0,0,1017.9,725.015a145.887,145.887,0,0,0,8.965,50.609,148.753,148.753,0,0,0,34.175,54.807c.283.56.841.839,1.4,1.4a107.918,107.918,0,0,0,38.378-19.294,24.322,24.322,0,0,1-2.8-2.238c-3.082-2.794-5.885-5.313-8.683-8.107m0,0a110.7,110.7,0,0,1,11.484-164.7,102.969,102.969,0,0,0-38.378-19.016A149.431,149.431,0,0,0,1017.9,725.015a145.887,145.887,0,0,0,8.965,50.609,148.753,148.753,0,0,0,34.175,54.807c.283.56.841.839,1.4,1.4a107.918,107.918,0,0,0,38.378-19.294,24.322,24.322,0,0,1-2.8-2.238c-3.082-2.794-5.885-5.313-8.683-8.107m0,0a110.7,110.7,0,0,1,11.484-164.7,102.969,102.969,0,0,0-38.378-19.016A149.431,149.431,0,0,0,1017.9,725.015a145.887,145.887,0,0,0,8.965,50.609,148.753,148.753,0,0,0,34.175,54.807c.283.56.841.839,1.4,1.4a107.918,107.918,0,0,0,38.378-19.294,24.322,24.322,0,0,1-2.8-2.238c-3.082-2.794-5.885-5.313-8.683-8.107m150.426,7.829a109.145,109.145,0,0,1-43.141,22.088,103.913,103.913,0,0,1-28.011,3.64,116.379,116.379,0,0,1-22.132-2.242h-.279a37.106,37.106,0,0,1-5.322-1.4,2.1,2.1,0,0,1-1.4-.279,111.477,111.477,0,0,1-38.659-19.294,24.322,24.322,0,0,1-2.8-2.238c-3.082-2.794-5.885-5.313-8.683-8.107a110.7,110.7,0,0,1,11.484-164.7,106.4,106.4,0,0,1,38.659-19.016,100.585,100.585,0,0,1,29.131-4.193,110.727,110.727,0,0,1,71.152,195.734M1168.609,574.58A144.111,144.111,0,0,0,1101.1,590.8a145.821,145.821,0,0,0-38.657,27.679A149.431,149.431,0,0,0,1017.9,725.015a145.887,145.887,0,0,0,8.965,50.609,148.753,148.753,0,0,0,34.175,54.807c.283.56.841.839,1.4,1.4a25.01,25.01,0,0,0,2.8,2.515A136.76,136.76,0,0,0,1096.054,857a42.988,42.988,0,0,0,5.044,2.516,129.317,129.317,0,0,0,30.536,11.46,145.4,145.4,0,0,0,36.975,4.757,154.145,154.145,0,0,0,42.858-6.151A181.8,181.8,0,0,0,1241.725,857a161.126,161.126,0,0,0,34.73-26.566A149.861,149.861,0,0,0,1319.6,725.015c0-83.051-67.788-150.435-150.987-150.435m-79.274,227.61a110.7,110.7,0,0,1,11.484-164.7,102.969,102.969,0,0,0-38.378-19.016A149.431,149.431,0,0,0,1017.9,725.015a145.887,145.887,0,0,0,8.965,50.609,148.753,148.753,0,0,0,34.175,54.807c.283.56.841.839,1.4,1.4a107.918,107.918,0,0,0,38.378-19.294,24.322,24.322,0,0,1-2.8-2.238c-3.082-2.794-5.885-5.313-8.683-8.107m0,0a110.7,110.7,0,0,1,11.484-164.7,102.969,102.969,0,0,0-38.378-19.016A149.431,149.431,0,0,0,1017.9,725.015a145.887,145.887,0,0,0,8.965,50.609,148.753,148.753,0,0,0,34.175,54.807c.283.56.841.839,1.4,1.4a107.918,107.918,0,0,0,38.378-19.294,24.322,24.322,0,0,1-2.8-2.238c-3.082-2.794-5.885-5.313-8.683-8.107m0,0a110.7,110.7,0,0,1,11.484-164.7,102.969,102.969,0,0,0-38.378-19.016A149.431,149.431,0,0,0,1017.9,725.015a145.887,145.887,0,0,0,8.965,50.609,148.753,148.753,0,0,0,34.175,54.807c.283.56.841.839,1.4,1.4a107.918,107.918,0,0,0,38.378-19.294,24.322,24.322,0,0,1-2.8-2.238c-3.082-2.794-5.885-5.313-8.683-8.107m0,0a110.7,110.7,0,0,1,11.484-164.7,102.969,102.969,0,0,0-38.378-19.016A149.431,149.431,0,0,0,1017.9,725.015a145.887,145.887,0,0,0,8.965,50.609,148.753,148.753,0,0,0,34.175,54.807c.283.56.841.839,1.4,1.4a107.918,107.918,0,0,0,38.378-19.294,24.322,24.322,0,0,1-2.8-2.238c-3.082-2.794-5.885-5.313-8.683-8.107m0,0a110.7,110.7,0,0,1,11.484-164.7,102.969,102.969,0,0,0-38.378-19.016A149.431,149.431,0,0,0,1017.9,725.015a145.887,145.887,0,0,0,8.965,50.609,148.753,148.753,0,0,0,34.175,54.807c.283.56.841.839,1.4,1.4a107.918,107.918,0,0,0,38.378-19.294,24.322,24.322,0,0,1-2.8-2.238c-3.082-2.794-5.885-5.313-8.683-8.107" transform="translate(-429.874 -142.777) rotate(-9)" fill="#1d1d1d"/>
    <path id="Path_1332_-_Outline" data-name="Path 1332 - Outline" d="M1168.609,876.23a145.9,145.9,0,0,1-37.1-4.772,129.815,129.815,0,0,1-30.614-11.485,21.611,21.611,0,0,1-3.4-1.633c-.55-.3-1.119-.619-1.674-.9l-.013-.007a136.878,136.878,0,0,1-30.9-22.712,24.122,24.122,0,0,1-2.625-2.336l-.1-.1-.107-.107h0c-.182-.181-.368-.334-.548-.482a3.43,3.43,0,0,1-.908-.972,149.256,149.256,0,0,1-34.239-54.937,146.2,146.2,0,0,1-8.994-50.778,150.18,150.18,0,0,1,44.687-106.889l0,0a148.337,148.337,0,0,1,18.235-15.464,143.69,143.69,0,0,1,20.549-12.307,139.376,139.376,0,0,1,32.29-12.135,151.8,151.8,0,0,1,175,88.058,149.7,149.7,0,0,1,11.932,58.738,152.077,152.077,0,0,1-2.969,29.94,149.857,149.857,0,0,1-22.169,53.463,152.8,152.8,0,0,1-18.147,22.364,170.008,170.008,0,0,1-16.472,14.482,156.733,156.733,0,0,1-18.369,12.169l-.012.007a183.167,183.167,0,0,1-30.341,12.617l-.011,0a155.932,155.932,0,0,1-20.971,4.558A152.913,152.913,0,0,1,1168.609,876.23Zm-72.326-19.678c.572.285,1.149.6,1.706.913a20.62,20.62,0,0,0,3.267,1.573l.039.013.036.019a128.816,128.816,0,0,0,30.418,11.416l.012,0a144.894,144.894,0,0,0,36.848,4.741,151.907,151.907,0,0,0,21.882-1.6,154.919,154.919,0,0,0,20.832-4.527,182.158,182.158,0,0,0,30.163-12.542,155.754,155.754,0,0,0,18.245-12.087,169.018,169.018,0,0,0,16.371-14.393,151.79,151.79,0,0,0,18.024-22.213,149.3,149.3,0,0,0-.779-166.664A151.114,151.114,0,0,0,1133.4,579.19a138.383,138.383,0,0,0-32.065,12.05l-.013.007a142.7,142.7,0,0,0-20.412,12.225,147.376,147.376,0,0,0-17.492,14.745,106.408,106.408,0,0,1,19.488,7.328,100.667,100.667,0,0,1,17.922,11.314,109.408,109.408,0,0,1,17.945-11.207A104.242,104.242,0,0,1,1139.343,618a101.077,101.077,0,0,1,29.266-4.211,112.282,112.282,0,0,1,22.48,2.268,110.859,110.859,0,0,1,39.857,16.78,111.773,111.773,0,0,1,40.345,48.968,110.56,110.56,0,0,1,8.745,43.213,111.84,111.84,0,0,1-2.8,24.914,110.681,110.681,0,0,1-20.584,43.3,112.756,112.756,0,0,1-16.571,17.172,108.708,108.708,0,0,1-20.192,13.413,111.941,111.941,0,0,1-23.141,8.775,104.144,104.144,0,0,1-28.14,3.657,116.824,116.824,0,0,1-22.179-2.242h-.273l-.041-.007a37.679,37.679,0,0,1-5.322-1.391,2.558,2.558,0,0,1-1.557-.326,111.99,111.99,0,0,1-38.414-19.112,102.909,102.909,0,0,1-17.92,11.348,114.584,114.584,0,0,1-19.5,7.559,20.56,20.56,0,0,0,2.142,1.867l.026.019.023.022A135.9,135.9,0,0,0,1096.283,856.552Zm49.956-23.547h.286l.047.009a115.886,115.886,0,0,0,22.037,2.233,103.136,103.136,0,0,0,27.875-3.621l.01,0a110.943,110.943,0,0,0,22.938-8.7,107.7,107.7,0,0,0,20.006-13.289,111.76,111.76,0,0,0,16.424-17.02,110.258,110.258,0,0,0-87.255-177.832,100.076,100.076,0,0,0-28.987,4.171l-.021.006a103.233,103.233,0,0,0-20.387,7.585,108.421,108.421,0,0,0-18.089,11.342h0a112.731,112.731,0,0,0-17.605,17.212,111.359,111.359,0,0,0-13.452,20.712,109.522,109.522,0,0,0-11.608,49.2,111.407,111.407,0,0,0,2.136,21.752,108.935,108.935,0,0,0,15.984,38.8,111.5,111.5,0,0,0,13.113,16.268c2.6,2.594,5.24,4.987,8.037,7.521l.644.585a17.094,17.094,0,0,0,2.088,1.7l.348.256.006,0,.311.241a110.978,110.978,0,0,0,38.485,19.207l.127.035.094.093c.133.133.682.133,1.045.133h.081l.077.026A37.143,37.143,0,0,0,1146.24,833.005ZM1018.4,725.015a145.216,145.216,0,0,0,8.934,50.436l0,.007a148.258,148.258,0,0,0,34.06,54.622l.055.055.035.069a2.472,2.472,0,0,0,.69.724c.125.1.262.216.4.343a113.73,113.73,0,0,0,19.878-7.648A101.981,101.981,0,0,0,1100,812.548l-.13-.1a18.156,18.156,0,0,1-2.194-1.793l-.618-.56c-2.807-2.542-5.458-4.944-8.074-7.556l0-.005a112.493,112.493,0,0,1-13.234-16.418,109.935,109.935,0,0,1-16.13-39.159,112.419,112.419,0,0,1-2.155-21.948,111.016,111.016,0,0,1,25.287-70.547,113.74,113.74,0,0,1,17.268-16.976,99.69,99.69,0,0,0-17.554-11.051,105.446,105.446,0,0,0-19.869-7.408,149.742,149.742,0,0,0-32.255,47.456,148.657,148.657,0,0,0-11.937,58.525Z" transform="translate(-429.874 -142.777) rotate(-9)" fill="rgba(0,0,0,0)"/>
  </g>
</svg>
