<?xml version="1.0" encoding="UTF-8"?>
<svg width="903px" height="688px" viewBox="0 0 903 688" version="1.1" xmlns="http://www.w3.org/2000/svg" xmlns:xlink="http://www.w3.org/1999/xlink">
    <title>NOBKGD:_Get_an_adviser</title>
    <g id="Page-1" stroke="none" stroke-width="1" fill="none" fill-rule="evenodd">
        <g id="adviser-graphic" transform="translate(-486.000000, -103.000000)" fill-rule="nonzero">
            <g id="NOBKGD:_Get_an_adviser" transform="translate(486.534239, 103.036924)">
                <path d="M573.247186,60.2228424 L847.378639,60.2228424 L847.378639,231.211294 L678.171963,231.211294 L620.51223,270.158385 L620.51223,231.211294 L573.247186,231.211294 L573.247186,60.2228424 Z M544.88576,31.7244338 L544.88576,259.709702 L592.150804,259.709702 L592.150804,324.301562 L687.623772,259.709702 L874.957163,259.709702 L874.957163,31.7244338 L544.88576,31.7244338 Z" id="Path_1328" fill="#FBBA20" transform="translate(709.921462, 178.012998) rotate(12.006708) translate(-709.921462, -178.012998) "></path>
                <path d="M544.339428,31.2197229 L875.411705,31.2197229 L875.411705,260.204865 L687.735357,260.204865 L591.608471,325.242669 L591.608471,260.204865 L544.343428,260.204865 L544.339428,31.2197229 Z M874.411831,32.2195969 L545.339302,32.2195969 L545.339302,259.204991 L592.604346,259.204991 L592.604346,323.358906 L687.424396,259.204991 L874.411831,259.204991 L874.411831,32.2195969 Z M572.700854,59.7161317 L847.833181,59.7161317 L847.833181,231.704457 L678.278549,231.704457 L619.965898,271.092493 L619.965898,231.706457 L572.700854,231.706457 L572.700854,59.7161317 Z M846.833307,60.7160057 L573.700728,60.7160057 L573.700728,230.704583 L620.965772,230.704583 L620.965772,269.21073 L677.972587,230.704583 L846.833307,230.704583 L846.833307,60.7160057 Z" id="Path_1328_-_Outline" fill-opacity="0" fill="#000000" transform="translate(709.875567, 178.231196) rotate(12.006708) translate(-709.875567, -178.231196) "></path>
                <rect id="Rectangle_881" fill="#FBBA20" transform="translate(672.055571, 131.958202) rotate(12.006708) translate(-672.055571, -131.958202) " x="657.876358" y="117.708998" width="28.3584262" height="28.4984085"></rect>
                <path d="M657.376629,117.209083 L686.734929,117.209083 L686.734929,146.705365 L657.376629,146.705365 L657.376629,117.209083 Z M685.735055,118.208957 L658.376503,118.208957 L658.376503,145.705491 L685.735055,145.705491 L685.735055,118.208957 Z" id="Rectangle_881_-_Outline" fill-opacity="0" fill="#000000" transform="translate(672.055779, 131.957224) rotate(12.006708) translate(-672.055779, -131.957224) "></path>
                <rect id="Rectangle_882" fill="#FBBA20" transform="translate(718.289571, 141.785202) rotate(12.006708) translate(-718.289571, -141.785202) " x="704.110358" y="127.535998" width="28.3584262" height="28.4984085"></rect>
                <path d="M703.610629,127.036083 L732.968929,127.036083 L732.968929,156.532365 L703.610629,156.532365 L703.610629,127.036083 Z M731.969055,128.035957 L704.610503,128.035957 L704.610503,155.532491 L731.969055,155.532491 L731.969055,128.035957 Z" id="Rectangle_882_-_Outline" fill-opacity="0" fill="#000000" transform="translate(718.289779, 141.784224) rotate(12.006708) translate(-718.289779, -141.784224) "></path>
                <rect id="Rectangle_883" fill="#FBBA20" transform="translate(764.533571, 151.615202) rotate(12.006708) translate(-764.533571, -151.615202) " x="750.354358" y="137.365998" width="28.3584262" height="28.4984085"></rect>
                <path d="M749.854629,136.866083 L779.212929,136.866083 L779.212929,166.362365 L749.854629,166.362365 L749.854629,136.866083 Z M778.213055,137.865957 L750.854503,137.865957 L750.854503,165.362491 L778.213055,165.362491 L778.213055,137.865957 Z" id="Rectangle_883_-_Outline" fill-opacity="0" fill="#000000" transform="translate(764.533779, 151.614224) rotate(12.006708) translate(-764.533779, -151.614224) "></path>
                <path d="M316.183187,393.727867 C304.813178,402.667336 291.761393,409.228767 277.804187,413.021867 C277.332442,413.087273 276.864965,413.180434 276.404187,413.300867 L280.604187,415.537867 L295.451187,423.649867 L316.459187,435.391867 L337.467187,423.649867 L352.035187,415.537867 C353.030218,414.770512 353.966186,413.929478 354.835187,413.021867 C340.81515,409.170773 327.682977,402.616575 316.177187,393.727867 M316.177187,393.727867 C304.807178,402.667336 291.755393,409.228767 277.798187,413.021867 C277.326442,413.087273 276.858965,413.180434 276.398187,413.300867 L280.598187,415.537867 L295.445187,423.649867 L316.453187,435.391867 L337.461187,423.649867 L352.029187,415.537867 C353.024218,414.770512 353.960186,413.929478 354.829187,413.021867 C340.80915,409.170773 327.676977,402.616575 316.171187,393.727867 M316.171187,393.727867 C304.801178,402.667336 291.749393,409.228767 277.792187,413.021867 C277.320442,413.087273 276.852965,413.180434 276.392187,413.300867 L280.592187,415.537867 L295.439187,423.649867 L316.447187,435.391867 L337.455187,423.649867 L352.023187,415.537867 C353.018218,414.770512 353.954186,413.929478 354.823187,413.021867 C340.80315,409.170773 327.670977,402.616575 316.165187,393.727867 M316.165187,393.727867 C304.795178,402.667336 291.743393,409.228767 277.786187,413.021867 C277.314442,413.087273 276.846965,413.180434 276.386187,413.300867 L280.586187,415.537867 L295.433187,423.649867 L316.441187,435.391867 L337.449187,423.649867 L352.017187,415.537867 C353.012218,414.770512 353.948186,413.929478 354.817187,413.021867 C340.79715,409.170773 327.664977,402.616575 316.159187,393.727867 M361.820187,414.698867 L361.537187,414.698867 C359.732271,414.364653 357.954704,413.896697 356.219187,413.298867 C355.734268,413.371774 355.239111,413.273096 354.819187,413.019867 C340.79915,409.168773 327.666977,402.614575 316.161187,393.725867 C315.173845,393.050066 314.237948,392.302017 313.361187,391.487867 C310.279187,388.694867 307.476187,386.174867 304.678187,383.380867 L256.778187,356.814867 L242.211187,356.814867 C249.449779,377.368009 261.118152,396.078578 276.390187,411.621867 C276.668187,412.181867 277.229187,412.459867 277.790187,413.021867 C277.318442,413.087273 276.850965,413.180434 276.390187,413.300867 L280.590187,415.537867 L295.437187,423.649867 L316.445187,435.391867 L321.489187,438.186867 L346.981187,452.166867 C359.050453,455.331891 371.476826,456.930686 383.954187,456.923889 C398.460103,456.900588 412.890118,454.829828 426.817187,450.772867 L361.820187,414.698867 Z M295.430187,423.649867 L316.438187,435.391867 L337.446187,423.649867 L352.014187,415.537867 C353.009218,414.770512 353.945186,413.929478 354.814187,413.021867 C340.79415,409.170773 327.661977,402.616575 316.156187,393.727867 C304.786178,402.667336 291.734393,409.228767 277.777187,413.021867 C277.305442,413.087273 276.837965,413.180434 276.377187,413.300867 L280.577187,415.537867 L295.430187,423.649867 Z M60.9911866,613.232867 L60.9911866,501.381867 L175.559187,438.186867 L220.659187,413.300867 C204.824149,409.36049 190.07931,401.905872 177.518187,391.489867 L140.818187,411.623867 L20.9311866,477.894867 L20.9311866,652.935867 L476.137187,652.935867 L476.137187,613.235867 L60.9911866,613.232867 Z M316.184187,393.732867 C304.814178,402.672336 291.762393,409.233767 277.805187,413.026867 C277.333442,413.092273 276.865965,413.185434 276.405187,413.305867 L280.605187,415.542867 L295.452187,423.654867 L316.460187,435.396867 L337.468187,423.654867 L352.036187,415.542867 C353.031218,414.775512 353.967186,413.934478 354.836187,413.026867 C340.81615,409.175773 327.683977,402.621575 316.178187,393.732867 M316.178187,393.732867 C304.808178,402.672336 291.756393,409.233767 277.799187,413.026867 C277.327442,413.092273 276.859965,413.185434 276.399187,413.305867 L280.599187,415.542867 L295.446187,423.654867 L316.454187,435.396867 L337.462187,423.654867 L352.030187,415.542867 C353.025218,414.775512 353.961186,413.934478 354.830187,413.026867 C340.81015,409.175773 327.677977,402.621575 316.172187,393.732867 M316.172187,393.732867 C304.802178,402.672336 291.750393,409.233767 277.793187,413.026867 C277.321442,413.092273 276.853965,413.185434 276.393187,413.305867 L280.593187,415.542867 L295.440187,423.654867 L316.448187,435.396867 L337.456187,423.654867 L352.024187,415.542867 C353.019218,414.775512 353.955186,413.934478 354.824187,413.026867 C340.80415,409.175773 327.671977,402.621575 316.166187,393.732867 M316.166187,393.732867 C304.796178,402.672336 291.744393,409.233767 277.787187,413.026867 C277.315442,413.092273 276.847965,413.185434 276.387187,413.305867 L280.587187,415.542867 L295.434187,423.654867 L316.442187,435.396867 L337.450187,423.654867 L352.018187,415.542867 C353.013218,414.775512 353.949186,413.934478 354.818187,413.026867 C340.79815,409.175773 327.665977,402.621575 316.160187,393.732867" id="Path_1329" fill="#FFFFFF" transform="translate(248.534187, 504.875367) rotate(-9.000000) translate(-248.534187, -504.875367) "></path>
                <path d="M476.639409,653.435692 L20.4314089,653.435692 L20.4314089,477.604692 L20.6894089,477.461692 L140.580409,411.190692 L177.580409,390.890692 L177.841409,391.104692 C184.08324,396.239955 190.862354,400.68482 198.060409,404.361692 C205.28569,408.042081 212.910517,410.878742 220.784409,412.815692 L222.028409,413.115692 L175.804409,438.615692 L61.4914089,501.676692 L61.4914089,612.732692 L476.639409,612.732692 L476.639409,653.435692 Z M21.4314089,652.435692 L475.637409,652.435692 L475.637409,613.735692 L60.4914089,613.735692 L60.4914089,501.085692 L60.7504089,500.942692 L175.318409,437.747692 L219.310409,413.474692 C211.797744,411.530206 204.519423,408.772586 197.604409,405.250692 C190.442473,401.592513 183.691551,397.180177 177.466409,392.088692 L141.066409,412.059692 L21.4314089,478.189692 L21.4314089,652.435692 Z M383.971409,457.422715 C371.451202,457.429674 358.982142,455.825501 346.871409,452.649692 L346.811409,452.633692 L346.757409,452.603692 L321.265409,438.623692 L316.465409,435.962692 L316.465409,435.962692 L316.222409,435.826692 L315.437409,435.391692 L315.437409,435.391692 L295.209409,424.086692 L280.370409,415.979692 L276.170409,413.742692 L276.405409,413.301692 L276.405409,412.801692 C276.507061,412.784286 276.607323,412.759555 276.705409,412.727692 C276.421724,412.506243 276.182514,412.233103 276.000409,411.922692 C260.702268,396.337157 249.013021,377.582542 241.758409,356.983692 L241.524409,356.317692 L256.924409,356.317692 L257.037409,356.380692 L305.001409,382.980692 L305.051409,383.029692 C307.645409,385.619692 310.282409,388.008692 313.074409,390.537692 L313.734409,391.137692 C314.388182,391.762828 315.090371,392.335279 315.834409,392.849692 L316.172409,393.098692 L316.178409,393.093692 L316.487409,393.332692 L317.001409,393.716692 L316.994409,393.722692 C328.251476,402.316091 341.047928,408.677659 354.694409,412.464692 L354.842409,412.316692 L355.195409,412.671692 C355.326409,412.803692 355.878409,412.803692 356.243409,412.803692 L356.324409,412.803692 L356.401409,412.829692 C358.099167,413.412557 359.83709,413.871101 361.601409,414.201692 L361.972409,414.201692 L362.085409,414.264692 L428.124409,450.919692 L426.973409,451.254692 C420.09577,453.254071 413.088496,454.777013 406.001409,455.812692 C398.706469,456.879547 391.343946,457.417616 383.971409,457.422715 L383.971409,457.422715 Z M347.185409,451.697692 C359.194484,454.841442 371.557667,456.429439 383.971409,456.422713 C391.296101,456.417514 398.610834,455.882786 405.858409,454.822692 C412.502134,453.850479 419.075654,452.447522 425.537409,450.622692 L361.714409,415.197692 L361.520409,415.197692 L361.479409,415.190692 C359.675143,414.857554 357.897717,414.392643 356.161409,413.799692 C355.741455,413.82392 355.320544,413.773126 354.918409,413.649692 C354.115128,414.474389 353.252484,415.239104 352.337409,415.937692 L352.310409,415.957692 L352.281409,415.973692 L337.713409,424.085692 L317.489409,435.385692 L321.747409,437.744692 L347.185409,451.697692 Z M277.885409,413.518692 L280.850409,415.098692 L295.697409,423.210692 L316.466409,434.818692 L337.231409,423.212692 L351.770409,415.112692 C352.514739,414.545806 353.220314,413.929764 353.882409,413.268692 C340.235627,409.40643 327.445714,402.989587 316.191409,394.358692 C310.625586,398.748975 304.620643,402.551871 298.272409,405.706692 C291.757639,408.94268 284.950022,411.552082 277.941409,413.499692 L277.885409,413.518692 Z M242.940409,357.318692 C250.17222,377.543377 261.714808,395.95392 276.768409,411.274692 L276.824409,411.331692 L276.860409,411.402692 C277.035728,411.686548 277.267939,411.931016 277.542409,412.120692 C277.668409,412.220692 277.806409,412.337692 277.947409,412.465692 C284.798768,410.543974 291.454626,407.98341 297.827409,404.817692 C304.034887,401.73255 309.911327,398.021996 315.365409,393.743692 L315.246409,393.655692 C314.465252,393.114149 313.727667,392.512312 313.040409,391.855692 L312.407409,391.281692 C309.624409,388.760692 306.993409,386.381692 304.398409,383.789692 L256.669409,357.319692 L242.940409,357.318692 Z" id="Path_1329_-_Outline" fill-opacity="0" fill="#000000" transform="translate(248.535409, 504.876692) rotate(-9.000000) translate(-248.535409, -504.876692) "></path>
                <path d="M245.618809,419.250193 C243.660809,419.810193 241.979809,420.088193 240.300809,420.650193 L240.016809,420.650193 C232.634118,422.101349 225.130677,422.850689 217.606809,422.888193 C208.240625,422.956424 198.90976,421.732903 189.877809,419.252193 C174.042588,415.313652 159.297753,407.859205 146.737809,397.442193 C121.419335,376.345584 106.749766,345.115027 106.678809,312.159193 C106.678809,251.201193 156.540809,201.429193 217.607809,201.429193 C242.107343,201.708757 265.870357,209.844048 285.400809,224.638193 C296.853888,215.72751 310.010004,209.255972 324.058809,205.622193 C312.875415,194.347324 299.908243,184.995039 285.679809,177.942193 C264.586618,167.239913 241.259711,161.682412 217.606809,161.723959 C134.406809,161.723959 66.6185092,229.108193 66.6185092,312.159193 C66.5395704,351.665388 82.1579376,389.584865 110.037809,417.575193 C120.227112,428.113226 131.935304,437.067957 144.773809,444.142193 C154.346801,449.473133 164.496774,453.694432 175.026809,456.724193 C188.857209,460.780736 203.193796,462.851764 217.606809,462.875193 C241.231672,462.68156 264.505498,457.136705 285.679809,446.657193 C287.359143,445.818526 289.040143,444.97986 290.722809,444.141193 C301.748009,437.805137 311.995148,430.202594 321.255809,421.488193 C322.250555,420.720858 323.1865,419.880179 324.055809,418.973193 C310.034673,415.124974 296.901963,408.570509 285.397809,399.679193 C274.026931,408.61788 260.974986,415.17922 247.017809,418.973193" id="Path_1330" fill="#FFFFFF" transform="translate(195.338659, 312.299576) rotate(-9.000000) translate(-195.338659, -312.299576) "></path>
                <path d="M217.597979,463.335781 C203.138095,463.30988 188.755047,461.232167 174.878979,457.164781 C164.316189,454.118971 154.133322,449.883854 144.525979,444.540781 C138.057672,441.011243 131.878433,436.976013 126.045979,432.472781 C120.250465,428.002726 114.778779,423.127867 109.671979,417.884781 C102.875698,411.029184 96.7480139,403.541691 91.3719786,395.523781 C80.5122831,379.334472 72.9385619,361.169569 69.0809786,342.060781 C65.0785374,322.139394 65.1166234,301.617175 69.1929786,281.710781 C73.178526,262.393682 80.9396679,244.05383 92.0309786,227.743781 C134.758755,164.544024 217.82722,142.995107 285.888979,177.454781 C300.169373,184.526854 313.182196,193.911413 324.400979,205.228781 L325.023979,205.850781 L324.170979,206.067781 C317.126874,207.870329 310.292938,210.412105 303.782979,213.650781 C297.394607,216.826909 291.335819,220.626715 285.694979,224.994781 L285.383979,225.235781 L285.076979,224.990781 C279.48907,220.539807 273.438204,216.703367 267.028979,213.547781 C260.585752,210.375225 253.835408,207.868892 246.882979,206.067781 L246.867979,206.067781 C237.359391,203.288932 227.502295,201.884046 217.595979,201.895781 C195.619164,201.88197 174.14294,208.457376 155.940979,220.772781 C144.180796,228.719084 134.045159,238.836733 126.077979,250.582781 C122.080292,256.479431 118.662376,262.748961 115.871979,269.303781 C103.55609,298.338265 104.333948,331.269179 118.006979,359.689781 C128.367312,381.54464 145.692366,399.339972 167.261979,410.281781 C174.487325,413.961777 182.112145,416.798099 189.985979,418.734781 L190.001979,418.734781 C194.456889,419.979484 198.996575,420.897916 203.584979,421.482781 C208.23214,422.069469 212.911937,422.359723 217.595979,422.351781 C225.088294,422.314215 232.560253,421.56789 239.911979,420.122781 L239.958979,420.113781 L240.209979,420.113781 C241.154979,419.803781 242.090979,419.580781 243.079979,419.344781 C243.843979,419.162781 244.632979,418.974781 245.470979,418.734781 L245.745979,419.695781 C244.886979,419.941781 244.085979,420.132781 243.311979,420.316781 C242.317979,420.553781 241.378979,420.777781 240.448979,421.087781 L240.371979,421.113781 L240.054979,421.113781 C232.656124,422.565103 225.136739,423.314429 217.596979,423.351781 C212.870477,423.359728 208.148263,423.066803 203.458979,422.474781 C198.825012,421.884011 194.240219,420.956558 189.740979,419.699781 C181.795516,417.745143 174.101275,414.882996 166.809979,411.169781 C145.108443,400.043279 127.65101,382.11165 117.109979,360.119781 C99.997908,324.593166 103.100999,282.641994 125.253979,250.019781 C137.378468,232.124741 154.412428,218.111441 174.308979,209.663781 C188.003655,203.863238 202.726512,200.880916 217.598979,200.894781 C227.59794,200.883051 237.547238,202.300724 247.144979,205.104781 C254.16084,206.922857 260.972808,209.452299 267.474979,212.653781 C273.830695,215.783536 279.838025,219.57591 285.396979,223.967781 C291.001586,219.659713 297.011092,215.905782 303.340979,212.758781 C309.651076,209.620264 316.262812,207.128885 323.074979,205.322781 C312.078053,194.354803 299.371345,185.247366 285.451979,178.356781 L285.445979,178.356781 C236.838026,153.762955 178.730462,157.378324 133.545979,187.807781 C117.525659,198.588891 103.715778,212.335298 92.8609786,228.305781 C70.3375447,261.567845 62.1222846,302.484524 70.0609786,341.862781 C73.8905662,360.843153 81.4112793,378.886409 92.1959786,394.967781 C97.5382278,402.933922 103.627415,410.372877 110.380979,417.183781 C115.455119,422.395234 120.89206,427.240695 126.650979,431.683781 C132.442039,436.155322 138.577478,440.162133 144.999979,443.666781 L144.999979,443.666781 C154.542374,448.973707 164.656489,453.179981 175.147979,456.204781 C188.933689,460.246095 203.223139,462.310677 217.588979,462.336781 C230.412224,462.394033 243.183656,460.706561 255.551979,457.320781 L255.567979,457.320781 C265.909708,454.733695 275.928909,450.995698 285.437979,446.176781 C287.113312,445.340781 288.789979,444.504447 290.467979,443.667781 C295.98116,440.500152 301.303342,437.011132 306.406979,433.218781 C311.461702,429.453253 316.298802,425.404085 320.894979,421.090781 L320.914979,421.071781 L320.936979,421.054781 C321.691163,420.482352 322.405792,419.859599 323.075979,419.190781 C309.428437,415.331264 296.638354,408.914165 285.385979,400.280781 C279.819696,404.670918 273.814437,408.473802 267.465979,411.628781 C260.951449,414.864527 254.144187,417.473921 247.135979,419.421781 L246.866979,418.458781 C253.81418,416.527971 260.562179,413.941344 267.019979,410.733781 C273.423295,407.552345 279.473393,403.704751 285.069979,399.254781 L285.376979,399.009781 L285.687979,399.250781 C297.140429,408.101919 310.214007,414.626817 324.171979,418.457781 L325.002979,418.685781 L324.392979,419.294781 C323.512071,420.211906 322.564482,421.062564 321.557979,421.839781 C316.940179,426.171966 312.080731,430.239145 307.002979,434.021781 C301.863941,437.840511 296.504682,441.35358 290.952979,444.542781 L290.926979,444.556781 C289.243645,445.395447 287.562645,446.233781 285.883979,447.071781 C264.639178,457.58632 241.287563,463.148996 217.583979,463.341781 L217.597979,463.335781 Z" id="Path_1330_-_Outline" fill-opacity="0" fill="#000000" transform="translate(195.565574, 312.225268) rotate(-9.000000) translate(-195.565574, -312.225268) "></path>
                <path d="M355.85692,391.568432 C354.987682,392.475797 354.051733,393.316814 353.05692,394.084432 L357.25692,391.847432 C356.771992,391.920766 356.27669,391.822059 355.85692,391.568432 M492.83792,390.168432 L456.13792,369.757432 C443.595245,380.260495 428.851709,387.809294 412.99792,391.845432 L458.09792,416.731432 L572.94792,479.926432 L572.94792,591.778432 L197.58492,591.778432 L197.58492,479.927432 L287.50592,430.434432 L312.43992,416.734432 L317.48092,413.940432 L338.48992,402.197432 L353.05792,394.085432 L357.25792,391.848432 C356.772992,391.921766 356.27769,391.823059 355.85792,391.569432 C341.837625,387.719013 328.705326,381.164753 317.19992,372.275432 C316.214034,371.597667 315.278276,370.84973 314.39992,370.037432 L297.03392,379.548432 L277.42692,390.171432 C277.70392,390.731432 278.26592,391.010432 278.82692,391.571432 C278.355148,391.636669 277.88766,391.729833 277.42692,391.850432 L275.04692,392.450432 L272.10392,393.250432 L271.82592,393.250432 L206.83492,429.323432 L157.53492,456.447432 L157.53492,631.483432 L613.01992,631.483432 L613.01992,456.442432 L492.83792,390.168432 Z M355.85692,391.568432 C354.987682,392.475797 354.051733,393.316814 353.05692,394.084432 L357.25692,391.847432 C356.771992,391.920766 356.27669,391.822059 355.85692,391.568432" id="Path_1331" fill="#FFFFFF" transform="translate(385.277420, 500.620432) rotate(-9.000000) translate(-385.277420, -500.620432) "></path>
                <path d="M613.504816,631.984463 L157.019816,631.984463 L157.019816,456.147463 L157.278816,456.004463 L206.578816,428.880463 L271.678816,392.745463 L272.019816,392.745463 L274.907816,391.959463 L277.347816,391.347463 L277.409816,391.347463 C277.511434,391.329891 277.611683,391.305162 277.709816,391.273463 C277.402278,391.035742 277.148692,390.735461 276.965816,390.392463 L276.751816,389.960463 L296.782816,379.107463 L314.473816,369.418463 L314.738816,369.681463 C315.387857,370.301065 316.083941,370.869433 316.820816,371.381463 C317.034816,371.538463 317.254816,371.700463 317.489816,371.881463 L317.495816,371.881463 C328.870953,380.670492 341.844329,387.167369 355.695816,391.011463 L355.843816,390.863463 L356.102816,391.123463 L356.802816,391.315463 L356.776816,391.341463 C356.936816,391.348463 357.102816,391.348463 357.241816,391.348463 L359.241816,391.348463 L353.271816,394.524463 L338.708816,402.633463 L317.700816,414.375463 L312.657816,417.170463 L287.721816,430.870463 L198.076816,480.224463 L198.076816,591.279463 L572.447816,591.279463 L572.447816,480.224463 L457.856816,417.172463 L411.656816,391.678463 L412.874816,391.364463 C420.819085,389.32185 428.512161,386.403995 435.812816,382.664463 C442.955441,378.993973 449.665429,374.536636 455.817816,369.375463 L456.081816,369.154463 L493.081816,389.732463 L613.513816,456.145463 L613.504816,631.984463 Z M158.019816,630.984463 L612.504816,630.984463 L612.504816,456.738463 L492.588816,390.609463 L456.188816,370.364463 C450.051145,375.480309 443.368493,379.904334 436.261816,383.556463 C429.267545,387.138985 421.914858,389.973671 414.325816,392.013463 L458.335816,416.296463 L573.444816,479.633463 L573.444816,592.279463 L197.076816,592.279463 L197.076816,479.633463 L197.335816,479.490463 L287.256816,429.997463 L312.190816,416.297463 L317.230816,413.504463 L338.237816,401.762463 L352.775816,393.662463 C353.520376,393.095113 354.226276,392.478746 354.888816,391.817463 C341.115518,387.920706 328.216339,381.421217 316.888816,372.670463 C316.658816,372.498463 316.440816,372.337463 316.229816,372.182463 C315.559132,371.709851 314.917009,371.197956 314.306816,370.649463 L297.262816,379.983463 L278.162816,390.332463 C278.273816,390.440463 278.404816,390.547463 278.548816,390.666463 C278.763877,390.837943 278.97014,391.020175 279.166816,391.212463 L280.019816,392.065463 L278.812816,392.065463 C278.544339,392.081178 278.279244,392.133322 278.024816,392.220463 C277.850389,392.278925 277.67046,392.319468 277.487816,392.341463 L275.163816,392.924463 L272.163816,393.742463 L271.948816,393.742463 L207.070816,429.752463 L158.024816,456.734463 L158.019816,630.984463 Z" id="Path_1331_-_Outline" fill-opacity="0" fill="#000000" transform="translate(385.266816, 500.569463) rotate(-9.000000) translate(-385.266816, -500.569463) "></path>
                <path d="M271.976667,364.615453 C249.988618,342.029428 238.671916,311.140847 240.864482,279.695729 C243.057049,248.250611 258.550926,219.231445 283.460667,199.915453 C272.142297,190.956836 259.066804,184.478031 245.082667,180.899453 C216.559051,209.009867 200.512391,247.39309 200.541443,287.440453 C200.511389,304.707735 203.54682,321.843275 209.506667,338.049453 C216.746746,358.600954 228.413394,377.310946 243.681667,392.856453 C243.964667,393.416453 244.522667,393.695453 245.081667,394.256453 C259.037963,390.461771 272.089119,383.900486 283.459667,374.962453 C282.472558,374.286338 281.536683,373.538307 280.659667,372.724453 C277.577667,369.930453 274.774667,367.411453 271.976667,364.617453 M271.976667,364.617453 C249.988618,342.031428 238.671916,311.142847 240.864482,279.697729 C243.057049,248.252611 258.550926,219.233445 283.460667,199.917453 C272.142297,190.958836 259.066804,184.480031 245.082667,180.901453 C216.559545,209.011381 200.512927,247.393784 200.541443,287.440453 C200.511389,304.707735 203.54682,321.843275 209.506667,338.049453 C216.746746,358.600954 228.413394,377.310946 243.681667,392.856453 C243.964667,393.416453 244.522667,393.695453 245.081667,394.256453 C259.037963,390.461771 272.089119,383.900486 283.459667,374.962453 C282.472558,374.286338 281.536683,373.538307 280.659667,372.724453 C277.577667,369.930453 274.774667,367.411453 271.976667,364.617453 M271.976667,364.617453 C249.988618,342.031428 238.671916,311.142847 240.864482,279.697729 C243.057049,248.252611 258.550926,219.233445 283.460667,199.917453 C272.142297,190.958836 259.066804,184.480031 245.082667,180.901453 C216.559545,209.011381 200.512927,247.393784 200.541443,287.440453 C200.511389,304.707735 203.54682,321.843275 209.506667,338.049453 C216.746746,358.600954 228.413394,377.310946 243.681667,392.856453 C243.964667,393.416453 244.522667,393.695453 245.081667,394.256453 C259.037963,390.461771 272.089119,383.900486 283.459667,374.962453 C282.472558,374.286338 281.536683,373.538307 280.659667,372.724453 C277.577667,369.930453 274.774667,367.411453 271.976667,364.617453 M271.976667,364.617453 C249.988618,342.031428 238.671916,311.142847 240.864482,279.697729 C243.057049,248.252611 258.550926,219.233445 283.460667,199.917453 C272.142297,190.958836 259.066804,184.480031 245.082667,180.901453 C216.559545,209.011381 200.512927,247.393784 200.541443,287.440453 C200.511389,304.707735 203.54682,321.843275 209.506667,338.049453 C216.746746,358.600954 228.413394,377.310946 243.681667,392.856453 C243.964667,393.416453 244.522667,393.695453 245.081667,394.256453 C259.037963,390.461771 272.089119,383.900486 283.459667,374.962453 C282.472558,374.286338 281.536683,373.538307 280.659667,372.724453 C277.577667,369.930453 274.774667,367.411453 271.976667,364.617453 M422.402667,372.446453 C409.859454,382.949276 395.115652,390.498037 379.261667,394.534453 C370.133868,397.017077 360.709822,398.241722 351.250667,398.174453 C343.818669,398.135522 336.407488,397.384759 329.118667,395.932453 L328.839667,395.932453 C327.03346,395.598159 325.254569,395.130205 323.517667,394.532453 C323.032738,394.605787 322.537437,394.50708 322.117667,394.253453 C308.096392,390.404798 294.963436,383.85038 283.458667,374.959453 C282.471558,374.283338 281.535683,373.535307 280.658667,372.721453 C277.576667,369.927453 274.773667,367.408453 271.975667,364.614453 C249.987618,342.028428 238.670916,311.139847 240.863482,279.694729 C243.056049,248.249611 258.549926,219.230445 283.459667,199.914453 C294.914442,191.005885 308.070427,184.534579 322.118667,180.898453 C331.570892,178.080038 341.386272,176.667251 351.249667,176.704698 C397.888553,176.621394 439.580042,205.770643 455.513837,249.603359 C471.447631,293.436074 458.207266,342.553807 422.401667,372.439453 M351.250667,137.005453 C327.762069,136.829534 304.586499,142.397796 283.741667,153.225453 C269.428531,160.274838 256.36932,169.625432 245.084667,180.904453 C216.561552,209.013319 200.514259,247.394533 200.541443,287.440453 C200.511389,304.707735 203.54682,321.843275 209.506667,338.049453 C216.746746,358.600954 228.413394,377.310946 243.681667,392.856453 C243.964667,393.416453 244.522667,393.695453 245.081667,394.256453 C245.950507,395.163923 246.88649,396.004636 247.881667,396.771453 C257.04121,405.728805 267.413947,413.354689 278.695667,419.425453 C280.320147,420.373565 282.005101,421.214038 283.739667,421.941453 C293.39388,427.034891 303.654133,430.88551 314.275667,433.401453 C326.345487,436.567127 338.772606,438.165931 351.250667,438.158479 C365.754907,438.13469 380.183204,436.063935 394.108667,432.007453 C404.55286,428.732865 414.67999,424.521762 424.366667,419.425453 C437.096693,412.189364 448.780921,403.251754 459.096667,392.859453 C486.792776,364.768075 502.295557,326.889116 502.241807,287.440453 C502.241807,204.389453 434.453667,137.005453 351.254667,137.005453 M271.980667,364.615453 C249.992618,342.029428 238.675916,311.140847 240.868482,279.695729 C243.061049,248.250611 258.554926,219.231445 283.464667,199.915453 C272.146297,190.956836 259.070804,184.478031 245.086667,180.899453 C216.561582,209.009203 200.513447,247.392509 200.541443,287.440453 C200.511389,304.707735 203.54682,321.843275 209.506667,338.049453 C216.746746,358.600954 228.413394,377.310946 243.681667,392.856453 C243.964667,393.416453 244.522667,393.695453 245.081667,394.256453 C259.037963,390.461771 272.089119,383.900486 283.459667,374.962453 C282.472558,374.286338 281.536683,373.538307 280.659667,372.724453 C277.577667,369.930453 274.774667,367.411453 271.976667,364.617453 M271.976667,364.617453 C249.988618,342.031428 238.671916,311.142847 240.864482,279.697729 C243.057049,248.252611 258.550926,219.233445 283.460667,199.917453 C272.142297,190.958836 259.066804,184.480031 245.082667,180.901453 C216.559545,209.011381 200.512927,247.393784 200.541443,287.440453 C200.511389,304.707735 203.54682,321.843275 209.506667,338.049453 C216.746746,358.600954 228.413394,377.310946 243.681667,392.856453 C243.964667,393.416453 244.522667,393.695453 245.081667,394.256453 C259.037963,390.461771 272.089119,383.900486 283.459667,374.962453 C282.472558,374.286338 281.536683,373.538307 280.659667,372.724453 C277.577667,369.930453 274.774667,367.411453 271.976667,364.617453 M271.976667,364.617453 C249.988618,342.031428 238.671916,311.142847 240.864482,279.697729 C243.057049,248.252611 258.550926,219.233445 283.460667,199.917453 C272.142297,190.958836 259.066804,184.480031 245.082667,180.901453 C216.559545,209.011381 200.512927,247.393784 200.541443,287.440453 C200.511389,304.707735 203.54682,321.843275 209.506667,338.049453 C216.746746,358.600954 228.413394,377.310946 243.681667,392.856453 C243.964667,393.416453 244.522667,393.695453 245.081667,394.256453 C259.037963,390.461771 272.089119,383.900486 283.459667,374.962453 C282.472558,374.286338 281.536683,373.538307 280.659667,372.724453 C277.577667,369.930453 274.774667,367.411453 271.976667,364.617453 M271.976667,364.617453 C249.988618,342.031428 238.671916,311.142847 240.864482,279.697729 C243.057049,248.252611 258.550926,219.233445 283.460667,199.917453 C272.142297,190.958836 259.066804,184.480031 245.082667,180.901453 C216.559545,209.011381 200.512927,247.393784 200.541443,287.440453 C200.511389,304.707735 203.54682,321.843275 209.506667,338.049453 C216.746746,358.600954 228.413394,377.310946 243.681667,392.856453 C243.964667,393.416453 244.522667,393.695453 245.081667,394.256453 C259.037963,390.461771 272.089119,383.900486 283.459667,374.962453 C282.472558,374.286338 281.536683,373.538307 280.659667,372.724453 C277.577667,369.930453 274.774667,367.411453 271.976667,364.617453 M271.976667,364.617453 C249.988618,342.031428 238.671916,311.142847 240.864482,279.697729 C243.057049,248.252611 258.550926,219.233445 283.460667,199.917453 C272.142297,190.958836 259.066804,184.480031 245.082667,180.901453 C216.559545,209.011381 200.512927,247.393784 200.541443,287.440453 C200.511389,304.707735 203.54682,321.843275 209.506667,338.049453 C216.746746,358.600954 228.413394,377.310946 243.681667,392.856453 C243.964667,393.416453 244.522667,393.695453 245.081667,394.256453 C259.037963,390.461771 272.089119,383.900486 283.459667,374.962453 C282.472558,374.286338 281.536683,373.538307 280.659667,372.724453 C277.577667,369.930453 274.774667,367.411453 271.976667,364.617453" id="Path_1332" fill="#FFFFFF" transform="translate(351.391584, 287.579957) rotate(-9.000000) translate(-351.391584, -287.579957) "></path>
                <path d="M351.245925,438.658468 C338.725732,438.666203 326.256615,437.062358 314.145925,433.88644 C303.497983,431.363706 293.211742,427.504769 283.531925,422.40144 C282.353164,421.957238 281.215499,421.410824 280.131925,420.76844 C279.581925,420.46844 279.012925,420.14944 278.457925,419.86844 L278.444925,419.86144 C267.130169,413.778303 256.728103,406.132616 247.544925,397.14944 C246.614298,396.435625 245.73697,395.654887 244.919925,394.81344 L244.819925,394.71344 L244.712925,394.60644 L244.712925,394.60644 C244.530925,394.42544 244.344925,394.27244 244.164925,394.12444 C243.801733,393.862792 243.493267,393.532584 243.256925,393.15244 C227.962452,377.565349 216.274602,358.812014 209.017925,338.21544 C203.034916,321.956054 199.989552,304.762648 200.023637,287.43744 C200.023637,247.265054 216.11866,208.76728 244.710925,180.54844 L244.710925,180.54844 C250.36326,174.911514 256.461397,169.740053 262.945925,165.08444 C269.441137,160.417355 276.314678,156.300723 283.494925,152.77744 C293.714242,147.410967 304.560625,143.334756 315.784925,140.64244 C387.787331,123.388835 461.732985,160.597443 490.784925,228.70044 C498.681306,247.275195 502.739978,267.254935 502.717022,287.43844 C502.717022,297.492044 501.724805,307.521112 499.747925,317.37844 C495.902532,336.470688 488.372452,354.630309 477.578925,370.84144 C472.247526,378.850822 466.171544,386.338741 459.431925,393.20544 C454.258697,398.382289 448.756583,403.219687 442.959925,407.68744 C437.129988,412.169681 430.991823,416.236061 424.590925,419.85644 L424.578925,419.86344 C414.863689,424.96963 404.709171,429.192284 394.237925,432.48044 L394.226925,432.48044 C387.349562,434.479574 380.342638,436.002513 373.255925,437.03844 C365.967854,438.107867 358.612034,438.649277 351.245925,438.658468 Z M278.919925,418.98044 C279.491925,419.26544 280.068925,419.58044 280.625925,419.89344 C281.666621,420.51269 282.759847,421.039058 283.892925,421.46644 L283.931925,421.47944 L283.967925,421.49844 C293.584812,426.572307 303.805418,430.408142 314.385925,432.91444 L314.397925,432.91444 C326.426259,436.069427 338.810703,437.662855 351.245925,437.655465 C358.568956,437.65024 365.882025,437.115512 373.127925,436.05544 C380.167636,435.026574 387.128111,433.513994 393.959925,431.52844 C404.369586,428.259557 414.4645,424.062017 424.122925,418.98644 C430.480482,415.39023 436.577195,411.351262 442.367925,406.89944 C448.128941,402.459034 453.597311,397.651371 458.738925,392.50644 C465.432777,385.685997 471.467569,378.248646 476.762925,370.29344 C510.421129,319.749959 510.113136,253.856077 475.983925,203.62944 C440.704931,151.767099 377.055311,127.090321 316.036925,141.61844 C304.890791,144.291639 294.119961,148.339308 283.971925,153.66844 L283.958925,153.67544 C276.826476,157.175118 269.99875,161.264328 263.546925,165.90044 C257.343005,170.354775 251.494722,175.284625 246.054925,180.64544 C252.774852,182.445188 259.302088,184.899601 265.542925,187.97344 C271.898396,191.103631 277.905682,194.895977 283.464925,199.28744 C289.0705,194.980827 295.080259,191.227617 301.409925,188.08044 C307.978232,184.813065 314.873103,182.248186 321.979925,180.42844 C331.476107,177.597815 341.336917,176.178972 351.245925,176.21744 C358.796455,176.21567 366.327909,176.975516 373.725925,178.48544 C387.984308,181.408097 401.527612,187.109897 413.582925,195.26544 C431.478937,207.348363 445.491921,224.356363 453.927925,244.23344 C459.71456,257.904575 462.688686,272.601075 462.672925,287.44644 C462.676299,295.829801 461.737066,304.186962 459.872925,312.36044 C456.257585,328.124328 449.231434,342.904368 439.288925,355.66044 C434.388228,361.954485 428.83346,367.710714 422.717925,372.83244 C416.508364,378.042246 409.735599,382.54121 402.525925,386.24544 C395.160304,390.016771 387.399217,392.959753 379.384925,395.02044 C370.215709,397.517623 360.747842,398.748042 351.244925,398.67744 C343.797361,398.638783 336.370558,397.888033 329.065925,396.43544 L328.792925,396.43544 L328.751925,396.42844 C326.946403,396.095059 325.167664,395.630154 323.429925,395.03744 C322.889467,395.097013 322.344087,394.982823 321.872925,394.71144 C307.956157,390.876109 294.912142,384.38636 283.458925,375.59944 C277.892406,379.989244 271.887183,383.792106 265.538925,386.94744 C259.28294,390.056267 252.755759,392.58647 246.038925,394.50644 C246.709015,395.177426 247.424723,395.801248 248.180925,396.37344 L248.206925,396.39244 L248.229925,396.41444 C257.349737,405.34 267.681208,412.93661 278.919925,418.98044 Z M328.875925,395.43344 L329.161925,395.43344 L329.208925,395.44244 C336.466445,396.888682 343.84581,397.63643 351.245925,397.67544 C360.659301,397.746228 370.038052,396.527916 379.120925,394.05444 L379.130925,394.05444 C387.075034,392.011324 394.768055,389.093489 402.068925,385.35444 C409.212194,381.68452 415.922575,377.227145 422.074925,372.06544 C428.136205,366.989021 433.641695,361.283746 438.498925,355.04544 C464.305747,321.772466 468.908108,276.706216 450.359842,238.903508 C431.811576,201.1008 393.351886,177.163365 351.243925,177.212666 C341.429337,177.174843 331.662453,178.58022 322.256925,181.38444 L322.235925,181.39044 C315.192104,183.19376 308.358512,185.736204 301.848925,188.97544 C295.460784,192.151759 289.401747,195.950841 283.759925,200.31744 L283.759925,200.31744 C277.280784,205.39481 271.37725,211.166558 266.154925,217.52944 C260.916847,223.913319 256.405107,230.860029 252.702925,238.24144 C245.049967,253.511882 241.074757,270.360639 241.094848,287.44144 C241.09224,294.744591 241.807682,302.030311 243.230925,309.19344 C245.993972,323.040457 251.422677,336.218245 259.214925,347.99344 C263.067068,353.814614 267.457341,359.26119 272.327925,364.26144 C274.927925,366.85544 277.567925,369.24844 280.364925,371.78244 L281.008925,372.36744 C281.659144,372.988125 282.357309,373.556554 283.096925,374.06744 L283.444925,374.32344 L283.450925,374.32344 L283.761925,374.56444 C295.214962,383.415233 308.288795,389.94009 322.246925,393.77144 L322.373925,393.80644 L322.467925,393.89944 C322.600925,394.03244 323.149925,394.03244 323.512925,394.03244 L323.593925,394.03244 L323.670925,394.05844 C325.370707,394.642118 327.110611,395.101659 328.876925,395.43344 L328.875925,395.43344 Z M201.036642,287.44344 C201.002982,304.651993 204.02803,321.729596 209.970925,337.87944 L209.970925,337.88644 C217.18688,358.368501 228.814244,377.015297 244.030925,392.50844 L244.085925,392.56344 L244.120925,392.63244 C244.299192,392.918266 244.533997,393.164641 244.810925,393.35644 C244.935925,393.45644 245.072925,393.57244 245.210925,393.69944 C252.061572,391.777519 258.716748,389.216961 265.088925,386.05144 C271.299601,382.966021 277.179364,379.255149 282.636925,374.97644 L282.506925,374.87644 C281.73,374.336839 280.996434,373.737347 280.312925,373.08344 L279.694925,372.52344 C276.887925,369.98144 274.236925,367.57944 271.620925,364.96744 L271.620925,364.96244 C266.705245,359.916226 262.274449,354.419415 258.386925,348.54444 C250.523067,336.660244 245.044764,323.3605 242.256925,309.38544 C240.820993,302.15775 240.099188,294.806387 240.101925,287.43744 C240.098986,261.701607 249.037591,236.764217 265.388925,216.89044 C270.524449,210.633428 276.313247,204.942518 282.656925,199.91444 C277.205791,195.630384 271.322619,191.926673 265.102925,188.86344 C258.745671,185.732748 252.08902,183.250869 245.233925,181.45544 C231.523652,195.046971 220.570937,211.161436 212.978925,228.91144 C205.081344,247.411249 201.020385,267.321414 201.041925,287.43644 L201.036642,287.44344 Z" id="Path_1332_-_Outline" fill-opacity="0" fill="#000000" transform="translate(351.370236, 287.551322) rotate(-9.000000) translate(-351.370236, -287.551322) "></path>
            </g>
        </g>
    </g>
</svg>