<?xml version="1.0" encoding="UTF-8"?>
<svg id="Layer_1" xmlns="http://www.w3.org/2000/svg" version="1.1" viewBox="0 0 92.0259 55.0115">
  <!-- Generator: Adobe Illustrator 29.0.0, SVG Export Plug-In . SVG Version: 2.1.0 Build 186)  -->
  <defs>
    <style>
      .st0 {
        fill: #fff;
      }
    </style>
  </defs>
  <rect class="st0" width="1.3114" height="54.8613"/>
  <g>
    <g>
      <path class="st0" d="M28.828,11.9816l-.0587-.0071-.1559-.4235c.073-.094.1124-.2442-.0028-.3204-.1524-.06-.582-.5515-.7094-.2334-.0548.0196-.395.0392-.4215.1025-.1633-.2586-.3015-.5331-.4032-.8384.0662-.3545,1.0048-.7968,1.0048-.7968,0,0-.2665-.3831-.373-.5992-.0471.1054-.0903.0604-.1932.1073.5214-.9262.6322-2.145-.0577-3.0199-.0707-.1519-.0382-.3521-.1076-.5008-.1197-.1579-.2023-.4688-.4137-.5016-.001.275-.0293.5443.1036.7995.1416.1774-.193.3281-.2972.1877.1998-.023.2336-.0628.1645-.1758-.8612-.1931-1.3425.4119-2.164.5068-.0724-.0007-.1369.0251-.1776.0912-.506.682.6298.2164.7288.6686-.1897.1564-.216.0534-.3937.0081-.2559.0097-.5039.0897-.1847.306-.1948.3059-.1852.4138-.5815.44.1718.2425.1348.5933.1797.8683-.2823.0532-.4741.1892-.4799.4907-.1271.0284-.264-.0379-.3544.0992-.1777-.1472-.3818-.1741-.5948-.1774-.1028-.077-.3548-.2581-.6254-.3972.0535-.2.1044-.3877.1526-.5631.0792-.0504.3637-.2315.4376-.2785-.038-.0768-.1882-.3796-.229-.4619.5074-1.746.6721-1.8436.9289-1.8817l.0138-.0485-.9388-.3005-.0164.0613c.2369.1721.3141.4579.2061.7928-.2508-.1082-.3937-.3458-.3666-.558-.0048-.0015-.0621-.0178-.0621-.0178l-.3142,1.0426s.0453.0136.0501.0151c.1235-.1784.3386-.2788.5875-.2372-.2902.924-1.5972.6359-1.3632-.1487.1665-.3237.4828-.1161.3304.2229.7332-.2568.3007-1.312-.3265-.6828.2073-.4249.3252-.7583.0648-1.169-.3377.2172-.4241.6098-.3593,1.1332-.4137-.9466-1.1358.0285-.5489.5217-.1068-.7023.7601-.2383.1736.3278-.5592.396-1.247-.059-1.2669-.7575.3229.0285.5696.2205.6029.4598.0057.0002.0593.002.0593.002l.04-1.1921s-.0675-.0032-.0732-.0034c-.0502.2414-.3125.4461-.6443.4521.0227-.3674.2333-.6539.5062-.7009v-.068h-1.3758v.068c.2728.047.4835.3335.5062.7009-.3319-.0061-.5941-.2107-.6443-.4521-.0057.0002-.0732.0034-.0732.0034l.04,1.1921s.0536-.0018.0593-.002c.0332-.2394.28-.4314.6029-.4598-.0195.6983-.708,1.1537-1.267.7575-.5865-.5664.2805-1.0299.1736-.3278.5873-.4945-.1359-1.4676-.5489-.5217.0648-.5234-.0216-.916-.3593-1.1332-.2604.4107-.1425.7441.0648,1.169-.6282-.6296-1.0589.427-.3265.6828-.1522-.339.1638-.5465.3304-.2228.234.7851-1.0735,1.0722-1.3632.1487.2489-.0416.464.0588.5875.2372.0048-.0015.0501-.0151.0501-.0151l-.3142-1.0426s-.0572.0163-.0621.0178c.0271.2122-.1158.4497-.3666.558-.1079-.3349-.0308-.6206.2061-.7928l-.0164-.0613-.9388.3005.0138.0485c.2568.0381.4216.1357.9289,1.8817-.0417.084-.1901.3835-.229.4619.0723.046.36.2291.4376.2785.044.1601.0902.3305.1386.5109.0018-.0009.0037-.0018.0055-.0027-.0021.0063-.004.0083-.0055.0027-1.2634.5906-.977.9917-1.9489.8764-.0872.2012-.1685.4004-.3661.5369-.0366-.3082-.1739-.5472-.355-.7651-.0898-.1046-.2127.0111-.3468.0217-.2635.5747-.4458.0555-.9106.3562.0183.268.059.5345.2061.7817-.3458-.0244-.6311-.1178-.8595-.28-1.0332,1.154-2.1117,2.2624-2.9953,3.5319-.4717.6233-1.7334.2608-1.4006-.5981.1526-.627,1.0584-.4936,1.0011.1286.4476-.4977.1599-.9928-.5241-.882.6279-.2717,1.0047.2423,1.5708-.4641-.4323.0107-.7991-.1267-1.23-.027.5455-.3269,1.2948.1583,1.7605-.7434-.4058.0434-.7728.2132-1.1928.2756,2.5206-2.4031.0954-2.5218.4037-3.5607-.197.1672-.3105.3346-.2194.5589-.5646-.2359-1.4017-.1664-1.6303-.8524-.0554.9769.3739.9069,1.1115,1.1081-.3405-.0407-.6764-.0433-.9952-.161.0658.438.3981.5311.789.4891-.3827.2124-.2957.7575.0936.9449-.2484-1.4134,1.8679-.9289.9015.3693-.4487.6686-1.0978,1.166-1.6433,1.75-.1029-.1778-.2102-.3562-.4486-.3309.4155.4797-.0535,1.0012-.1635,1.4961-.1605.6117.3798,1.1323.9588,1.2037-.2306.2734-.2493.5167-.0715.7404.1744-.8984,1.4773-.6958,1.6001-1.6679.0222-.1144.0769-.204.2047-.2564-.5871.6639.8246,2.0691-.5017,2.2333-.1892.0054-.2364.2047-.1311.3462-.5481-.0275-.6993.181-.7829.6975.2417-.0625.4663-.1207.6934-.1794-.2387.6254-.7802-.0364-.6911,1.076.2214-.1061.4295-.2184.6323-.344.1957.6243-.9932.3544-.1006,1.3508.0568-.1858.2952-.5672.4167-.6518-.1103.3136-.084.6764.2679.8172.0165-.0837.031-.1576.0455-.2316.0161-.0005.0133-.0004.0294-.0009.0505.2071.0578.4971.2588.6165.0664.0264.1024.0633.1245.133.0366.1157.1441.1466.2486.1605.1314.0272.1647-.1219.2613-.182.0277.1646.222.1908.3173.3308.0732-.8107-1.0021-.5163-.7556-1.052.0952.3265.4004.2551.6136.389.0825.1357.2841.248.387.0596.1002.0752.1908.1432.2792.2095-.21-.9631-.709-.3675-1.0234-.8728.2189.0099.4529.3345.6892.1126.1272.1311.2254.2845.3213.4391.0387-.3077-.0761-.5427-.3185-.7137-.2733-.1674-.6442.1299-.8778-.2042-.3193-.394-.3102-.9473-.144-1.4032.1525-.3509.5773-.4818.7733-.8142-.0547.2934-.0271.804.3053.8988-.0807-.5448.3067-1.0359.3853-1.5626.101-.1331.1059-.2369.0144-.3806-.1649-.2706-.2101-.5966-.3926-.8632-.2829-.3966-.6315-.4075-.0545-.8257-.3503.5437-.0644.3458.238.8579.0559-.1725.3136-.398-.0085-.3969-.5086-.2495.6619-.8984.9262-.915.2607-.0203.6266.0089.8242-.2489-.1236-.2349-.2436-.2683-.0331-.5121-.1422-.083-.2676-.1821-.2922-.3688-.1355.0471-.2548.0886-.3953.1375.1281-.1448.5043-.4374.5452-.1132.0087.182.1896.2149.3301.2602-.1025.149-.2732.2994-.1177.4739.1087.1141.1762.3293.3434.3573.0453-.1691.0887-.3314.1333-.498.3703.3883-.3717.6047.6453.9534-.037-.2099-.0701-.4127-.0428-.6298.4902.4097-.2109.6664.9181.8005-.1258-.1494-.1548-.3145-.2012-.4816.1883.031.3406.2113.4622.3464.1163.1768.2019.2736.4676.1009.0119.0309.0149.0733.0373.0908.1193.0906.0715.2008.069.3216h.0326c.157-.1585.1681-.3403.1192-.5387-.109-.3739-.5654-.0764-.7253-.458.2155.1466.4298.2325.6669.1096.1324.1248.1879.2159.252.3927.1083-.4027-.0162-.8138-.4416-.693-.1323.0472-.1866.0364-.3196-.079.1976.0684.3281-.0327.4541-.1231.0273.0352.0434.0753.0617.0764.1196.007.1973.0792.271.1673.0399-.3444-.3027-.623-.6475-.5356-.086.4225-.4407.1835-.7217.1273-.4367-.2557-.6661-.7452-1.0524-1.0644.0386-.4739-.3558-.8511-.83-.8237.4275-.1864.9347.1807.968.6267.016.1823.1273.2974.2427.4337,1.4442-2.9043,6.106-3.6636,8.7827-1.8205l-.0002.0003c.2279.2086.4758.3792.7122.5991.0922-.2772.0375-.6073.4512-.439l.0774-.0526c-.0844-.2345.0908-.4995.3368-.5168v.1828c-.1077.0174-.1914.1222-.1741.2341.0825-.0175.1576.0911.1128.1623.0772.0438.1864.0257.2461-.0371.0688.0036.1374.0103.206.0169-.0943.2238-.4211.3001-.6047.1361l-.0007.0005c.0355.0489-.1231.5422-.1299.6009-.0186.0721-.0858.1194-.1575.116.0294.0483.0538.0882.0804.1318.1172-.0654.2809-.0614.2657-.2273.0223-.0942-.0384-.5276.0962-.4889.0546.1644-.0483.3548.0737.5172.3862-.0954.2167-.4451.6852-.5364.1861-.0167.5781-.1069.6784.0788-.4092-.1096-.9378.003-1.0274.4702-.4259.1004-.7833.4042-1.2366.404-.3601.0198-.4569.4521-.4722.7486-.0598.34-.0783.6931-.2298,1.0086-.0744.1204-.012.2591.0287.3709.1381.0726.2364.5511.2562.7221-.0009.3119.5343.4163.7521.6106.0607-.3909-.6802-.28-.5761-.8262.1316.3616.4192.4362.7345.614-.0987-.3659-.1283-.9747-.6389-.8983-.1972-.2738.091-.2894-.0017-.6158.1465.0459.216.0967.255.1879-.0456-.0146-.0854-.0273-.1481-.0474.0171.2315.2176.2863.372.4454-.026-.3792-.0598-.6187-.4125-.8034-.2-.1831.0306-.6042.0173-.8573-.0066-.0745.4719-.3126.545-.2915.3546.0466.7262-.0104,1.0693.0792.3422.108.0485-.6353.6014-.2442-.4006-.1179-.1567.3191-.446.3415-.202.0023-.3737-.0174-.5842-.0243.7268,1.6178,2.3391,1.1435,2.7826,2.5872.371-.3273.1186-.3219.0149-.6647.8377.5588-.7799,1.2059-.1724,2.1841-.0383-.1098.3419-.5683.385-.6617.0693-.1027.1869-.1095.263-.0349l.1209-.2514c-.2254-.1236.1824-.6524.2123-.803.0423-.0908.1381-.1334.2137-.0958l.1126-.3138c-.213-.0573-.0534-.5746-.0703-.7186-.2995-.2705-.545-.6103-.7773-.9242l.1435-.0244c-.0163.0707.0093.1481.0694.1891.1031.0408.4968.4209.6206.3306l.0618.168c-.0996.027-.117.167-.118.261.0531.0446.1101.0865.1619.1331.0074-.0337.0018-.1875.0322-.2103.0467.0616.1319.0619.1836.0127.0484.0253-.0121.3593-.0062.4016.0579.0627.113.128.1648.1958-.0217-.1535.1669-.74-.0942-.7688ZM24.606,6.5253c.0547-.0058.0999-.0106.1611-.0171-.1057-.077-.0023-.1824.0852-.1075.2095.1625-.2103.4284-.2463.1247ZM16.21,8.054l-.442-.2813.2332-.4704.6369.227-.428.5248ZM17.6529,7.6891c-.6913.1401-.8377-.621-.1438-.7474.6912-.1401.8377.621.1438.7474ZM19.215,7.6296l-.6811-.4804.682-.4813.6811.4804-.682.4813ZM21.3844,7.4181c-.0811.4863-1.1722.2764-1.0669-.2053.0811-.4863,1.1722-.2763,1.0669.2053ZM21.7938,7.5293l.6369-.227.2332.4704-.442.2813-.428-.5248ZM27.0404,5.2951c.1251.1389.1799.2895.1797.4604-.1206-.0418-.1732-.1736-.1797-.4604ZM26.4672,6.1962c-.1686.1153-.3198.2856-.4914.0549-.0398.008-.0725.0145-.1133.0227.2545-.3944.2335-.3265.6047-.0776ZM25.0596,7.6266c.1123.0398.2188.0992.3326-.0136-.1092-.0004-.1424-.0768-.1739-.1499-.0531-.3723.5544-.2409.7804-.2143.5699.3465,1.5393.1259,1.2024-.6985.2636.1627.173.6146-.0272.7906-.5266.2849-1.0257.0706-1.5516.6281-.0802-.2547-.3828-.2407-.4914.0401-.1002.0066-.1262.005-.2218.0113-.0175-.148.1023-.2545.1503-.3938ZM27.0466,10.0676c-.0232.0291-.0719.0906-.0719.0906-.4381-.5002-1.9164-1.0739-2.5551-.9805,0,0,.0078-.074.0118-.1139l-.0046.0024.2428-.1543-.2076-.1719c.0021-.0241-.1328-.8654-.1328-.8654l.3662-.0108s-.1308.1535-.1364.2748c.0207.0143.0382.0352.0505.0608.0733-.0312.1518-.183.1518-.183l.0348.497s-.1018-.1433-.1757-.169c-.0057.0183-.0137.0354-.0266.049.1057.3301.5877.3495.5882.0669-.0164-.1469-.1787-.1226-.1698.0324-.2639-.2098.093-.5441.2397-.2074-.0187-.1939-.0023-.3038.1483-.3993.0994.1256.0856.2439-.0222.4322.3241-.3009.4479.2092.1434.2845.1486-.2684-.2789-.1838-.1219.0969.1437.2193.4918.187.6141-.0512-.0088-.0142-.015-.0295-.0182-.0456-.1214-.0233-.3026.0801-.3026.0801l.1689-.4585s.0701.1963.1719.2573c.0183-.0175.0416-.0293.0668-.0354.0193-.1207-.1024-.3101-.1024-.3101l.5628.2172s-.2225.0565-.2938.1571c.014.0212.0225.0453.0235.0702.1171.0234.307-.0725.307-.0725l-.2016.4458s-.0585-.1959-.1633-.2599c-.0137.0096-.0291.0165-.0455.021-.0801.2586.1541.5099.4102.4465.3102-.0949.064-.4475-.0201-.1517-.1678-.2594.2838-.5448.3056-.1112.0548-.2088.1285-.3039.2896-.329.0419.1698-.0239.2606-.1747.3891.348-.1467.364.3363.0274.3105.1169-.1083.0138-.232-.1005-.1367-.2011.21.1751.5102.4694.3605-.0007-.0186.0046-.0369.0129-.0534-.0731-.051-.2463-.0563-.2463-.0563l.3605-.2672s-.0428.1616-.0085.2463c.0265-.0043.0538-.0011.079.0089.0774-.078.0819-.2876.0819-.2876l.2691.3354s-.6756.3112-.795.4016l-.1879-.0186.0928.2643-.0058.001ZM28.5001,11.4404c-.0849-.0079-.1552.0667-.127.158-.0084-.001-.0166-.0036-.0242-.0087l-.3955-.27c-.0256-.0175-.0335-.0533-.0195-.0818.0746-.003.1551-.0415.1448-.1315.0305.0386.4559.2654.4213.334Z"/>
      <path class="st0" d="M23.7281,9.5186c-.0303-.0358-.0376-.0876-.0111-.1258-.0478-.0097-.1279.4354-.1441.4608.0322.0313.0608.0614.0874.0925.0415.0123.1125.0363.1273-.0246,0,0,.1014-.3927.1014-.3927-.0472.0428-.1231.0466-.1609-.0102Z"/>
    </g>
    <path class="st0" d="M17.7793,20.6463c-1.1174-.4424-1.9302.6402-1.0176.8228-1.0012.0435-.808-1.3655-1.2212-1.2818.3623.3902.362,1.1173.6958,1.3185.673.2858,1.3725.3327,2.0933.2992-.3629-.3222-.4513-.7281-.5503-1.1586Z"/>
    <path class="st0" d="M21.1925,21.4539c.9106-.1806.1038-1.2654-1.0175-.8228-.0991.4305-.1874.8365-.5503,1.1586.7208.0335,1.4203-.0134,2.0933-.2992.3338-.2011.3335-.9283.6958-1.3185-.4132-.0837-.22,1.3254-1.2212,1.2818Z"/>
    <path class="st0" d="M28.519,12.7134c-.0018.022.0066.0418.0197.0554.051-.0431.1308-.0251.1677.0264.0584-.0167.0391-.1975.0511-.2405-.0661-.0716-.1359-.1398-.2095-.204l-.029.3628Z"/>
    <path class="st0" d="M28.2382,14.0541c.0059-.0516.2876-.5173.2138-.5581-.0507.01-.1098-.0177-.131-.0661-.0687-.0283-.2473.4789-.2782.5107.0898-.0552.2034.0366.173.1401.0089-.0067.0171-.0151.0224-.0265Z"/>
    <path class="st0" d="M31.4336,11.9072c-.2341.0711-.3303.2659-.4181.4865-.5877-.9167-1.7052-1.5493-1.8752-2.6707.1316-.8966,1.3196-.6917,1.0784.2429.6162-.3314.3182-.9479-.262-1.0566.6308.0504.9757.5836,1.4068-.3026-.3731.1354-.9416.0394-1.1373.0103.7855-.1064,1.2126-.0991,1.1885-1.0744-.2674.5842-1.0081.5952-1.5466.7844.0346-.259-.0465-.4182-.2553-.5023.2134,1.4251-2.489.9606.4805,4.0358-.3643-.2005-.788-.1331-1.1409-.357.2749.7404.739.6127,1.3466.8705-.6519-.0035-.8542.6326-.3714.9377-.1258-.4913.5488-.8293.8863-.4454.771.9902-.6399,2.3656-1.8914-.1159.009.1371-.0867.2602-.22.2186l-.141.3928c.2864.1063-.1533.6594-.1836.8189-.0498.1062-.161.1382-.2447.0801l-.1383.2875c.1736.1589-.2925.6098-.3452.7499-.0542.0807-.1509.1082-.2195.0652l-.0501.1041c.0104.0136.0174.0216.0189.0208.3163.3746.4613.6629.3763,1.0607.2566-.2201.3713-.8303.1658-1.1628.2322.2426.5696.4158.7026.7253.1337.5627.0308,1.1213-.3511,1.5653-.1621.1632-.1189.2487-.1396.4487-.1078.3173-.4875.3435-.6306.6123-.1006.2355-.2664.4283-.3385.6754.4307-.0676.3569-.6686.7646-.7906-.1655.252-.3256.4814-.4388.7739.3403-.0885.983-.1804.8755-.6609-.0808-.2218.1342-.3673.1234-.5791.2697-.0967.2071-.2055.3362-.416.0597.1272.0627.2346.0553.373-.0333-.0691-.054-.112-.0779-.1617-.1904.2589-.0314.5106-.0581.7877.9396-.8419-.3086-.8358.667-2.7017.2243-.3715-.6381-.3296-.7023-1.1692-.0604-.3631.2583-.6602.3261-1.0068.3757.6684,1.6883.6457,1.5089,1.4995.2639-.1993.2526-.5645.1486-.8382,1.3541-.4874.2855-1.7332.7214-2.6159Z"/>
    <path class="st0" d="M27.4027,15.1156c.0302.0127.0565.0341.0675.0661.0217.0033.0459-.0078.061-.0302.0104-.0321.3441-.4696.3063-.4999-.0373-.0119-.0711-.0371-.0825-.0765-.0317-.0304-.0781-.0451-.1093.0017-.0123.0556-.384.4754-.2887.5287.0156-.0003.0312.0027.0457.0101Z"/>
    <path class="st0" d="M27.2075,15.2022c.0056.0095.0112.0191.0169.0286l.0058-.012-.0227-.0166Z"/>
    <path class="st0" d="M14.1035,17.0995c.1356.0245.2861.051.4173-.0086-.2045-.3481-.4056-.6903-.6145-1.0459-.3639.4478-.9951.1744-1.3919-.1004-.3231-.2384.3746-.6091.1503-1.4027.3108.5008-.2537.934.618,1.2146-.2522-.3748-.218-.8583-.3128-1.2873-.0112-.0739-.0476-.1477.012-.222.0294-.1027.0364-.2419-.1035-.2571-.9741-.5589-.7778-.2876-1.726-.4175-.2322.4112.2621.7775.1838,1.1798-.0696.197.229.1888.2257.3806.0665.2993.0337.7191-.3081.8347-.1699.1025-.0338.3195.1146.3701-.3019.5446-.0705.6315.3912.9041.0027-.21.0065-.3935.0934-.5722.6371.4229-.3123.4938.9509,1.0061-.128-.2115-.1247-.4414-.1438-.6529.119.028.2355.0554.3545.0834.1368.5844.453.6357,1.0107.5841-.1992-.1982-.256-.4563-.4007-.6621.1679.0568.3348-.0582.4788.0713Z"/>
    <path class="st0" d="M25.4798,13.8433c-.1731.0278-.2121.1008-.1807.2692-.1926.4157-.1979.9212-.5265,1.2725.7078-.1999.551-.4679.7231-1.0057-.0351.7298.0029.7202.2673,1.2195-.5458.3837-1.4373.0618-1.7363.8064.0831.0954.1901-.0016.3008.0246-.0714.086-.0999.1874-.2136.2623.0246-.0716.04-.1166.0553-.1609-.2044-.0686-.3722.3988-.5244.5493,1.4573-.2933-.1764-.7209,2.6966-1.0559.5077-.239-.4802-.6135.5166-1.2445.0887-.3445.1424-.7001.3295-1.0112.0446-.1022-.0257-.2461-.1194-.3179-.4368.3078-.6443-.1887-1.5883.3923Z"/>
    <path class="st0" d="M10.7646,7.852c.0064-.0969.0124-.1897.0192-.2928-.1094-.019-.2105-.0365-.3233-.0561.1324-.0996.2924-.1241.4222-.0739-.1115.4708.088.8021.5908.828.1537-.229.2915-.2636.4411-.1022-.6643-.0684-.1713.6333.1679.3957.0903-.1302.3768-.2448.294-.4286-.527-.3852-.4904.183-.5884-.7678-.0219-.0019-.0463-.0039-.0671-.0057-.0492.1806-.2267.3203-.3719.1498-.0504-.0571-.0944-.1096-.1769-.1241.3608-.288.7894.1275.7635-.5494.402.5038.4372-.0559.8349-.064-.0185.399-.1007.3687-.4443.3457.1119.0859.5409.5133.2909.5538-.1044-.2676-.2796-.5277-.5763-.5813-.2393.2393-.1222.5071-.0846.7829.2127-.0724.3944-.2099.6193-.1926.0751.2201-.2782.3416-.0779.56.3428.0555.7152.0577.6059-.4276-.1116-.0667-.2224-.1123-.3384.0105.0061-.1886.1904-.2211.3341-.1852.3167-.3371.211-.7824-.1289-1.0531.0898-.1321.1845-.2237.348-.256-.0553.1138-.1708.1558-.1969.2597.0756.0929.1463.1796.2159.2652.1826-.0805.2297-.3664.1003-.6581-.2249.0582-.6205.2448-.6205.2448-.1935-.0739-.1105.0217-.0825.1152-.6193.1137-1.2265.2763-1.7182.6868-.0881.0642-.1285.0253-.1574-.0995-.0586-.0899-.0857.0651-.0938.1035,0,0-.3719.0906-.534.2288.1146.189.276.4866.5332.3873Z"/>
    <path class="st0" d="M13.1938,7.6648c.0569.28-.0225.5137-.2063.7336.2757.4923.7416.8658.9478,1.3984.4598-.8589-.0313-1.1476-.6637-1.618.4058.1457.8151.2848,1.0406.6709.048-.7366-.2783-1.1045-.9934-1.2181.0022-.01.0044-.02.0067-.03.2982-.0138.5943-.0132.8733.1689-.0736-.2284-.2589-.5661-.529-.5371.0969-.2027.0956-.3372-.0022-.4591-.0459.1418-.1358.2299-.2822.2351.0315.2553-.0527.4672-.1917.6553Z"/>
    <path class="st0" d="M10.9183,9.3432c.0848.2058.2114.4446.421.5306-.1082-.4059.1661-.7594.2937-1.1265.0024.8458-.4783,1.3045.6817,1.6154-.309-.4979-.1045-1.1024-.3-1.6138-.1865-.107-.3969-.1336-.5231-.2901-.0347-.0735-.0981-.1008-.1651-.1154-.2179-.0474-.4193-.1197-.5287-.301-.1593.0501-.256.0439-.4021-.0173-.0129.1804.1408.3621.3433.293-.1623.2368-.0721.449-.0128.693.116-.2436.2937-.3904.4925-.5141-.1521.2597-.4234.5211-.3004.8461Z"/>
    <path class="st0" d="M15.5776,17.9815c.157-.1459-.0563-.231-.1399-.3434-1.4-1.3029-1.9217-2.9962-1.799-4.877-.0339-.0169-.0762-.0381-.1456-.0728-.2347,1.9943.5349,4.0067,2.0845,5.2933Z"/>
    <path class="st0" d="M28.0772,7.143c-.1327.2565.2513.3628.2561.6057-.1015-.0806-.188-.1493-.2851-.2264-.1221.4751.4391.6276.6118,1.0017.2258-.6924.1033-1.113-.5827-1.3811Z"/>
    <path class="st0" d="M12.6956,9.1867c-.3711.0224-.3168-.4436-.4255-.7043-.0673.0761-.1234.1396-.1835.2076.0765.2588.1532.5186.2347.7944.062-.0443.1135-.0811.1687-.1205.2588.1829.4956.0571.5809-.2285.0768.0194.1469.0523.2019-.0033-.1212-.2507-.2379-.4921-.3572-.7388-.0746.0152-.1443-.0895-.2326-.0063.0829.2307.3894.692.0125.7997Z"/>
    <path class="st0" d="M28.006,5.9821c-.002.0105-.004.0209-.006.0314-.1164-.0064-.2327-.0127-.3546-.0194.1301.4197.6175.2167.9241.4077-.1764-.3362-.303-.665-.7123-.7298.0438-.2001-.01-.3885-.1344-.4631.0021.1754-.071.3032-.231.3695-.0787.3478.2833.3301.5141.4037Z"/>
    <path class="st0" d="M27.9001,8.3983l-.0289.0054c-.0842.3705.1738.6954.3348,1.0115.2795-.4976.2685-1.0627-.1791-1.4564-.1369.2642.0536.5164.1212.7664-.0093.0037-.0186.0074-.0279.0111-.0734-.1127-.1468-.2254-.2201-.3381Z"/>
    <path class="st0" d="M27.7969,6.3081c.1598.381.4158.2898.5826.5388-.1404-.0461-.2621-.086-.3838-.1259-.008.4051.5021.4481.7844.6035-.0455-.6565-.364-.9048-.9832-1.0163Z"/>
    <path class="st0" d="M26.3267,5.621c.1745,0,.4253.1116.5691.0109.0036-.5532-.6711-.48-1.0545-.4917.1147.2072.2601.4116.4854.4809Z"/>
    <path class="st0" d="M24.4082,13.5067c-.144-.0114-.2795-.0222-.4363-.0346.006.0775.0105.1353.0154.1971.0871.0217.1618.0402.2412.06.0241.4556-.227.4636-.5665.2726-.1009.5783.83.5199.7462-.4952Z"/>
    <path class="st0" d="M24.0858,11.6625c-.514.6292-.5184.7207.265.9913-.0074-.0715-.0122-.1178-.0178-.1717-.1528-.0456-.3036-.1019-.4399-.1945.0988-.1223.1908-.2362.2862-.3542-.0277-.0804-.0565-.1638-.0935-.271Z"/>
    <path class="st0" d="M21.6913,9.37c.0858-.0068.1616-.0127.2367-.0186.0824-.3072-.092-.3408-.3021-.5061-.0852.2549-.3096.3788-.4372.5941.2061-.0144.3249-.0809.4431-.2416.021.0609.0402.1162.0595.1722Z"/>
    <path class="st0" d="M22.874,10.7632c.0743-.2022.4603-.7001.2522-.8565-.0957.0565-.2976.0325-.2786.1845-.0013.2214-.0005.4427-.0005.6641.009.0026.0179.0053.0269.0079Z"/>
    <path class="st0" d="M26.7219,5.1006c.008-.0112.016-.0224.0241-.0336-.2175-.3101-.3107-.3738-.6947-.3756.0065.3755.3958.3763.6706.4091Z"/>
    <path class="st0" d="M25.7413,4.1708c-.015.2648.2071.4181.5758.3982-.096-.2679-.2863-.4132-.5758-.3982Z"/>
    <path class="st0" d="M24.8778,6.9284c-.3006-.14-.5449.0382-.8464-.028.0855.4187.5839.1139.8464.028Z"/>
    <path class="st0" d="M25.4497,3.7477c.0775.2672.1821.324.4571.2851-.0874-.2193-.2291-.3077-.4571-.2851Z"/>
    <path class="st0" d="M25.5974,3.6094c-.1064-.2278-.1617-.2571-.3864-.233.0924.2253.2267.3093.3864.233Z"/>
    <path class="st0" d="M24.2238,11.0163c.0713.1222.1426.2444.2115.3624.2766,0,.0419-.2306-.0217-.3295-.0362-.0386-.1133-.0388-.1719-.0563-.006.0078-.0119.0156-.0179.0234Z"/>
    <path class="st0" d="M23.4275,11.3358c.1409-.0812.2872-.1442.414-.2456-.0299-.0425-.0517-.0735-.0844-.1201-.1212.1194-.4069.1575-.3295.3657Z"/>
    <path class="st0" d="M25.2627,3.2401c.0396-.145-.1668-.3371-.3143-.2783.0198.1599.1877.3002.3143.2783Z"/>
    <polygon class="st0" points="22.1 11.2739 22.0996 11.2731 22.0996 11.2749 22.1 11.2739"/>
    <path class="st0" d="M11.3954,5.7148c.0763-.0712-.0391-.188-.113-.1153-.0768.0718.0381.1894.113.1153Z"/>
    <path class="st0" d="M11.4961,5.9262c.0763-.0712-.0391-.188-.113-.1153-.0768.0718.0381.1894.113.1153Z"/>
    <path class="st0" d="M10.9683,4.9738l-.0003.0007-.1826.0132.0952.2394.1285-.1499c.0076.0043.0155.008.0239.0102,0,.0015.0187.3186.0188.32h0c.0327.2802.4596.1078.2888-.1165,0,0-.2052-.2443-.2052-.2443.0046-.0074.0078-.0155.0104-.0238l.1963.0207-.0952-.2394-.1418.1159c-.0074-.0043-.0151-.0077-.0234-.0102l-.0164-.2314c-.0584.0233-.176.0701-.2345.0933l.147.1795c-.004.0072-.0075.0148-.0097.0228Z"/>
    <path class="st0" d="M10.4459,6.2251c.1185.0033.1207-.1818.0024-.1817-.1166-.0028-.1198.1819-.0024.1817Z"/>
    <path class="st0" d="M10.4268,6.462c.1185.0033.1207-.1818.0024-.1817-.1166-.0028-.1198.1819-.0024.1817Z"/>
    <path class="st0" d="M10.8057,5.6518c.1185.0033.1207-.1818.0024-.1817-.1166-.0028-.1198.1819-.0024.1817Z"/>
    <path class="st0" d="M10.5212,6.0093c.1185.0033.1207-.1818.0024-.1817-.1166-.0028-.1198.1819-.0024.1817Z"/>
    <path class="st0" d="M11.6236,6.2356c-.0062-.0908.0599-.2699.0599-.2699-.0918.0365-.2798.1113-.3721.148,0,0,.1711.0847.2289.155-.0785.0284-.1543.041-.263-.0085l.1446.2878c.0312-.1272.097-.2028.1464-.2126.1567.2403-.233.5053-.4011.2994-.0491-.086.0089-.1789.1091-.1077-.0149-.1781-.1696-.1777-.2164-.0452.0039-.183-.0422-.2937-.234-.3476-.0498.1823.0113.2924.1941.3708-.1039-.0132-.2165.089-.0752.2171.0014-.1152.0976-.1278.1497-.0499.0828.2132-.1676.2952-.3733.0788.0457-.0169.0944-.0098.1599.0051l-.1962-.2475c.0101.0874.0035.1499-.0141.1894-.042-.0492-.0557-.0914-.0735-.1868l-.1495.1313c.1427.0894.3028.2311.4996.5113.2604-.2558,1.3101-.6948,1.7153-.6824-.0495-.3388-.0305-.5517.0118-.7148l-.1989.0073c.0525.0816.0716.1216.0749.1862-.0399-.0167-.0877-.0575-.1404-.128l.0275.3146c.0373-.0558.0678-.0944.1127-.1135-.0007.2985-.2392.411-.3254.1992-.0155-.0924.063-.1493.1431-.0665.0147-.1902-.1374-.1871-.2038-.1061.0789-.1825.0477-.3045-.1137-.4028-.1024.171-.0598.283.0687.4134-.125-.0641-.2377.0418-.1262.1815.0238-.1206.1298-.0928.1532.0034.0193.2653-.4461.3399-.4971.0579.0426-.0268.1424-.0171.2524.0539l-.0926-.3085c-.0449.1106-.1087.1536-.1852.1869Z"/>
    <path class="st0" d="M16.5425,15.995c.1405.0817.2971.1718.4404.2533-.3509.4265.2782.6107.2439.1946.2351.1007,1.1599.3851.7891-.1677-1.2133.04-1.8314-1.2332-1.1605-2.2061.4083.1862,1.8417-.5113,1.7226.1986.0752.0793.0967.0864.2667.085.4149-.9531-1.0136-.6682-1.5264-.5567-.457.1351-.8776-.5329-1.2813-.1672-.1608.1423-.0561.4586.162.4689.1935.0054.2484-.2604.0763-.3433.3763-.1271.1953.4773.0591.6322-.4318-.2232-.5031.4727-.076.2901.019.1244.0244.2473-.0053.3667-.4666-.1005-.3425.5687.0074.2995.1007.0957.1473.2446.1588.3871-.4675.0668-.094.6667.123.265Z"/>
    <path class="st0" d="M17.8976,16.7224c-.0195-.0074-.0397-.0129-.0653-.0211-.0326.0877-.0827.248-.0047.3035,0,0,.393.1682.393.1682l.505-.3747.1365-2.0257-.1489.0111c-.0402.0045-.3151,2.3399-.4586,2.203.0287-.154.3644-2.2027.3644-2.2027,0,0-.1-.0142-.1487-.021-.0083.0475-.0189.1083-.0189.1083l-.5571-.7317-.0733.0347.5966.7846-.0384.1388c-.0548-.0355-.6305-.8347-.688-.9092l-.1174-.0087.7759,1.0118-.0413.1355-.8695-1.1432-.1114-.0015.9415,1.2411-.0497.1788-1.0338-1.406-.1369.0038,1.1438,1.5094-.0418.1395-1.2623-1.6492-.0214.1267s1.1748,1.5452,1.2472,1.6463c-.0605.1904-.014.2067.0686.364.0453.1758-.0763.4499-.2849.3856Z"/>
    <path class="st0" d="M18.0161,16.0797l-1.2082-1.602s-.0232.0756-.0334.1089c.0902.1177,1.1577,1.5343,1.1577,1.5343l.0839-.0412Z"/>
    <path class="st0" d="M16.805,15.0177c.2789.3536.5529.7144.8247,1.072.0405.0049.1159.0211.1159.0211l-.9855-1.3081s-.0171.1337.0449.215Z"/>
    <path class="st0" d="M18.9112,14.4225c-.1337-.0109-.2757-.0374-.4062-.0501-.2543.2211.0316.3478.2215.3306.1628.0431.3802-.1725.1847-.2805Z"/>
    <path class="st0" d="M18.8704,20.1376c-.0397.1807.2451.2389.2795.057.0397-.1807-.2451-.2389-.2795-.057Z"/>
    <path class="st0" d="M19.1264,19.0516c.0492-.224-.3038-.2961-.3464-.0707-.0492.224.3038.2961.3464.0707Z"/>
    <path class="st0" d="M17.9208,18.4537c.0492-.224-.3038-.2961-.3464-.0707-.0492.224.3038.2961.3464.0707Z"/>
    <path class="st0" d="M19.8609,20.6483c-.1433.8085-.529,1.1736-.8723,1.1736s-.7289-.3651-.8722-1.1736c.0439.0401.0858.0933.1349.1577l.075.0984.105-.0654c.0451-.0281.0889-.0506.1297-.0667-.0461.0936-.0617.2039-.0401.3188.0455.2426.2376.4129.4686.4141.2295-.0012.4216-.1715.4671-.4141.0215-.1149.006-.2252-.0401-.3188.0408.0161.0845.0385.1297.0667l.105.0654.075-.0984c.0491-.0644.091-.1176.1349-.1577M20.0293,20.4282c-.2011.0204-.3052.1562-.4114.2954-.0942-.0587-.2181-.1171-.334-.1171-.0622,0-.1221.0168-.1739.0595.3686.1456.2365.7014-.1214.7034-.3579-.0019-.49-.5578-.1214-.7034-.0518-.0426-.1117-.0595-.1739-.0595-.1159,0-.2397.0584-.334.1171-.1062-.1392-.2103-.2751-.4114-.2954.1102,1.0198.5754,1.5297,1.0406,1.5297s.9305-.5099,1.0407-1.5297h0Z"/>
    <path class="st0" d="M16.7026,17.7555c.1536-.1849-.3866-.4273-.4656-.5309-.0638-.0387-.1443-.0289-.187.0263-.1541.1765.3771.4231.45.521.0656.0507.1563.0434.2026-.0164Z"/>
    <path class="st0" d="M16.6336,18.1498c.597.0027.5193-.9444-.0688-.8439.2727.1475.5092.5374.085.6511-.1596.0328-.3233-.1394-.4408-.2244.0042.2307.1929.4172.4246.4172Z"/>
    <path class="st0" d="M15.7853,18.307c.1313.2499.8991.9285,1.1076.6078-.3752-.1899-1.0101-.6579-.7665-1.252-.5509-.3381-.0641-.8781.3651-.4194.4575-.2831.9655-.0805,1.4159.2325.1619-.3503-.6244-.5917-.8081-.6957-.2312-.0776-.961.0875-1.2057.0985-.166.0212-.2855.1698-.2706.3364.037.1779.0316.9495.1622,1.0917Z"/>
    <path class="st0" d="M22.5496,4.9378l.3394.1086c-.5367-1.1308-1.5197-1.9797-2.703-2.2844-.0289.0787-.0553.1633-.0793.253,1.0394.2612,1.9164.9687,2.4428,1.9228Z"/>
    <path class="st0" d="M15.5428,5.0465l.3394-.1086c.5265-.954,1.4034-1.6615,2.4428-1.9228-.024-.0896-.0504-.1742-.0793-.253-1.1833.3047-2.1663,1.1536-2.703,2.2844Z"/>
    <path class="st0" d="M21.7728,3.2169c.2426.0035.2426-.3776,0-.374-.2426-.0035-.2426.3776,0,.374Z"/>
    <path class="st0" d="M20.9149,2.7285c.2426.0035.2426-.3776,0-.374-.2426-.0035-.2426.3776,0,.374Z"/>
    <path class="st0" d="M20.4499,2.5596c.2426.0035.2426-.3776,0-.374-.2426-.0035-.2426.3776,0,.374Z"/>
    <path class="st0" d="M21.357,2.9485c.2426.0035.2426-.3776,0-.374-.2426-.0035-.2426.3776,0,.374Z"/>
    <path class="st0" d="M22.1566,3.5282c.2426.0035.2426-.3776,0-.374-.2426-.0035-.2426.3776,0,.374Z"/>
    <path class="st0" d="M23.1267,4.9339c-.0035.2426.3776.2426.374,0,.0035-.2426-.3776-.2426-.374,0Z"/>
    <path class="st0" d="M22.9006,4.4942c-.0035.2426.3776.2426.374,0,.0035-.2426-.3776-.2426-.374,0Z"/>
    <path class="st0" d="M22.5055,3.8787c.2426.0035.2426-.3776,0-.374-.2426-.0035-.2426.3776,0,.374Z"/>
    <path class="st0" d="M22.63,4.0778c-.0035.2426.3776.2426.374,0,.0035-.2426-.3776-.2426-.374,0Z"/>
    <path class="st0" d="M16.6591,3.2169c.2426.0035.2426-.3776,0-.374-.2426-.0035-.2426.3776,0,.374Z"/>
    <path class="st0" d="M16.2753,3.5282c.2426.0035.2426-.3776,0-.374-.2426-.0035-.2426.3776,0,.374Z"/>
    <path class="st0" d="M15.1182,5.1209c.2426.0035.2426-.3776,0-.374-.2426-.0035-.2426.3776,0,.374Z"/>
    <path class="st0" d="M17.0748,2.9485c.2426.0035.2426-.3776,0-.374-.2426-.0035-.2426.3776,0,.374Z"/>
    <path class="st0" d="M15.6149,4.2648c.2426.0035.2426-.3776,0-.374-.2426-.0035-.2426.3776,0,.374Z"/>
    <path class="st0" d="M15.3443,4.6812c.2426.0035.2426-.3776,0-.374-.2426-.0035-.2426.3776,0,.374Z"/>
    <path class="st0" d="M17.982,2.5596c.2426.0035.2426-.3776,0-.374-.2426-.0035-.2426.3776,0,.374Z"/>
    <path class="st0" d="M15.9264,3.8787c.2426.0035.2426-.3776,0-.374-.2426-.0035-.2426.3776,0,.374Z"/>
    <path class="st0" d="M17.517,2.7285c.2426.0035.2426-.3776,0-.374-.2426-.0035-.2426.3776,0,.374Z"/>
    <path class="st0" d="M19.5379,4.4657h.2494c.0004-.7891.1141-1.4721.3203-1.9236.0691-.1456-.1609-.2523-.2268-.1036-.2975.6514-.3426,1.548-.3429,2.0272Z"/>
    <path class="st0" d="M18.6447,4.4657h.2493c-.0002-.4792-.0453-1.3758-.3429-2.0272-.0659-.1484-.296-.0423-.2268.1036.2062.4515.3199,1.1346.3203,1.9236Z"/>
    <path class="st0" d="M19.216,4.4626c.2629.0038.2629-.4091,0-.4052-.2628-.0038-.2628.409,0,.4052Z"/>
    <path class="st0" d="M19.216,3.9548c.2629.0038.2629-.4091,0-.4052-.2628-.0038-.2628.409,0,.4052Z"/>
    <path class="st0" d="M19.216,3.447c.2628.0038.2629-.4091,0-.4052-.2628-.0038-.2628.4091,0,.4052Z"/>
    <path class="st0" d="M19.0726,2.9516c.0856-.0453.2011-.0453.2867,0,.2905-.4475-.5772-.4472-.2867,0Z"/>
    <path class="st0" d="M19.3771,2.5254c.2257-.42-.548-.4196-.3222,0,.0939-.0579.2283-.0579.3222,0Z"/>
    <path class="st0" d="M19.0936.8192c-.033.2592-.1687.4595-.3372.4906v.066h.3288c-.0155.0117-.0291.0253-.041.0406-.5862.1309-.6464,1.0252-.0862,1.2357-.2187-.2112-.0507-.6173.2579-.6067.3085-.0105.4767.3955.2579.6067.5605-.2106.4999-1.1049-.0862-1.2357-.0119-.0153-.0255-.0289-.041-.0406h.3288v-.066c-.1685-.0311-.3042-.2314-.3372-.4906.2592.033.4595.1687.4906.3372h.066V.2374h-.066c-.0311.1685-.2314.3042-.4906.3372.033-.2592.1687-.4595.3372-.4906V.018h-.919v.066c.1685.0311.3042.2314.3372.4906-.2592-.033-.4595-.1687-.4906-.3372h-.066v.919h.066c.0311-.1685.2314-.3042.4906-.3372Z"/>
    <path class="st0" d="M27.2064,15.2014l.0011.0008c-.0211-.0359-.0412-.0718-.0588-.1057.0051.0423.0244.0805.0577.1048Z"/>
    <path class="st0" d="M27.0513,15.5906c-.2598-.1628-.4036.5565-.5004.6797-.0465.1056-.0049.2188.0903.2527l-.1914.3979c-.103-.017-.1925.0611-.1926.181.0388.1546-.1153.8281.1583.8358v.1861c-.6601.1184-.5618,1.1582.1174,1.1418.6743.0167.779-1.0136.1253-1.1397v-.1797c.103.017.1924-.0611.1925-.181-.036-.1501.1043-.7986-.1372-.8326l.1458-.303c.2479.1345.3926-.5668.4864-.6865.0435-.0984.0097-.21-.0763-.2459l.1105-.2296c-.0309-.0404-.0948-.1356-.1554-.2367l-.1731.3598ZM26.9289,18.6887c-.1606.9255-1.3498.0089-.4982-.3821.0392.0892.1745.0933.2137.0024.1642.0483.2845.2001.2845.3797ZM26.6582,17.7408c.0171-.1327-.1546-.2058-.2235-.0928.018-.0503-.0478-.5545.0463-.5538.0394.0285.091.0336.1327.0034.0286.0046.0514.0331.0514.0676l.0008.5439c0,.0117-.0032.0221-.0078.0316ZM27.1594,15.9072c-.0284.0319-.2128.5579-.2743.5371-.0254-.0425-.0826-.0695-.131-.0553-.0283-.0138-.0391-.0528-.024-.0866.0351-.0356.2065-.5733.2872-.5361.0209.0501.0832.0827.1359.0688.0143.0184.0176.0467.0062.0721Z"/>
    <path class="st0" d="M13.8229,14.4258l.0579.2243,1.0315-.1279-.0501-.2031c-.0524-.0109-.6954.1074-.6954.1074,0,0,.6109-.7127.5954-.7973l-1.0408.1171.0222.1794c.0505-.0069.6121-.0849.6121-.0849,0,0-.5088.5742-.5328.585Z"/>
    <path class="st0" d="M14.1903,15.7488c.4985.4771,1.2831-.2874.7669-.778-.4988-.4825-1.2958.2869-.7669.778ZM14.2487,15.2157c.2184-.3969.9468-.1601.6457.2915-.2264.3841-.9417.1675-.6457-.2915Z"/>
    <path class="st0" d="M14.8832,16.8749l.1742.2407c.1849-.2273.5659-.503.8396-.6075l-.1742-.2407c-.0672.1105-.2161.2185-.3317.2992l-.2673-.3694c.113-.0848.2618-.1922.3879-.2215l-.1742-.2407c-.1848.2273-.5658.503-.8396.6075l.1742.2407c.067-.1099.2144-.2174.3297-.2977l.2673.3694c-.1125.0845-.2603.1907-.3859.2201Z"/>
    <path class="st0" d="M14.7846,13.2772l.0143-.2205c-.2946.0552-.7697.0551-1.0633-.0025l-.0143.2205c.2946-.0552.7697-.0551,1.0633.0025Z"/>
    <path class="st0" d="M22.2714,17.7328c.6309-.276.4901-.9034-.2221-.6164-.2987-.0846.0786-.3885.2766-.3216l.0048-.0041-.1499-.1773c-.2245.0976-.5816.3994-.3914.6551.132.1684.398-.0112.572-.009.2887.052-.0219.3525-.2004.3354l-.0029.004"/>
    <path class="st0" d="M24.0006,15.542l.1791-.6082c-.0905.0065-.9099-.2319-.9826-.2859l-.17.5772.1709.1453.0032-.0019c-.0129-.1331.005-.2824.0538-.448l.3107.0904c-.0309.0903-.0856.2959-.1284.35l.1553.0231.0991-.3364.2976.0866c-.0355.1114-.0847.1988-.1476.262l.1589.146Z"/>
    <path class="st0" d="M23.5868,16.3508l.0965-.1883-.8083-.5415-.089.1691c.0304.0394.5578.3506.5578.3506,0,0-.869.1138-.9099.1809l.8082.5545.0943-.1359c-.0399-.0261-.4851-.3152-.4851-.3152,0,0,.7119-.0815.7355-.0742Z"/>
    <path class="st0" d="M21.3544,18.3325l.5626-.3252c-.0716-.0551-.5099-.7709-.5256-.8584l-.5339.3085.0239.219.0037.0007c.0845-.1056.2033-.2027.3565-.2912l.1662.2715c-.0867.0454-.2726.1592-.3425.1703l.0987.1195.3112-.1798.1592.26c-.1051.0578-.2032.089-.2945.0935l.0145.2115Z"/>
    <path class="st0" d="M15.0801,11.2238c-.1678-.1326-.3842.1044-.5539.1432-.2929.0173-.0616-.3478.116-.3732l.0019-.0046-.1415-.1035c-.2652.1348-.4661.7088-.0381.7211.0907.0044.323-.1563.3989-.1741.2015-.0376.1375.2324.0167.2965.0597-.0024.1221-.0109.1797.0044.1117-.1575.1834-.3863.0204-.51Z"/>
    <path class="st0" d="M15.288,10.9155c-.4692-.0304-.5673-.8415,0-.7189v-.1966c-.7353-.0439-.7244,1.1229,0,1.0982v-.1827Z"/>
    <path class="st0" d="M16.4532,9.48c.0019-.0009.322,0,.324-.0003-.1223-.1939-.2208-.353-.2208-.353.1121-.0657.3515-.1617.458-.1546l-.2549-.1941-.7829.4681.0896.3007.0045.0015c.0634-.1244.1587-.2248.2632-.283.0234.0433.0665.1206.1195.2146Z"/>
    <path class="st0" d="M18.7393,9.3438l.0016.0046c-.1557.1261-.3547.0741-.5224-.0154-.4871.2734-1.0133-.3673-.6222-.7787.4114-.4908,1.2278.0659.8335.6073.1286.0983.2318.1591.3096.1822ZM18.1424,9.1871c.3919-.1527.0522-.7588-.2952-.6158-.388.1482-.0538.7596.2952.6158Z"/>
    <path class="st0" d="M18.8863,8.9096c-.0035-.168.0202-.4643-.0515-.609h.3479c-.0558.1564-.1567.8746.1406.8379.1169.0021.2336-.0791.231-.2017-.0049-.1713.0226-.4879-.0515-.6362h.3479c-.0814.2701-.0815.7436,0,1.0137h-.295c.0065-.0206.0097-.054.0097-.1003-.3012.214-.707.1073-.6791-.3044Z"/>
    <path class="st0" d="M20.3605,9.4101c.0614-.2496.1489-.6747.2875-.8861l-.2702-.0905c.0029.2683-.1406.6862-.2312.9417q.1039.0135.214.0348Z"/>
    <path class="st0" d="M23.2738,8.4803"/>
    <g>
      <path class="st0" d="M22.0097,12.7887h.1732v-2.744h-2.5361v2.744h2.3629ZM21.0422,12.7073h-.0014v-.0003s.0009.0003.0014.0003ZM20.7868,12.7073h-.0012s.0008-.0002.0012-.0002v.0002ZM22.0962,11.2982s.0001-.0004.0001-.0006v.0006h-.0001ZM21.0379,10.1264h.0002s-.0002,0-.0002,0h0ZM19.7328,11.5383v-.0008h.0002c-.0005.001.0003.0261,0,.0272.0047-.0515.0874-.014.0461.0215l.0131.0124c.0836.0098.0959-.1155.0109-.1203v-.0027l.101-.044v-.0301l-.101-.0445v-.003c.0851-.0051.0727-.1302-.0109-.1207l-.0131.0129c.0414.0351-.0416.0727-.0461.0211,0,.0035-.0009.0285.0007.0311h-.001v-1.0904h.0864v-.0814h.9395c.0524.0089.008.0805-.0253.0428l-.0134.0126c-.0103.0821.1299.088.1286.0053h.0001l.0495.1h.0323l.0481-.0998c-.0007.0824.1387.0766.1291-.0055l-.0136-.0126c-.0331.0376-.0777-.0336-.0255-.0428,0,0,.941,0,.941,0v.0814h.0866c-.0098-.0188.0343,1.3383-.0454,1.0382l-.0135-.0129c-.0831-.0097-.0951.116-.0106.1207v.0031l-.1014.0443v.0301l.1014.0438v.0028c-.0844.0044-.0724.1302.0106.1203l.0135-.0124c.0794-.3086.0358,1.0787.0454,1.0399h-.0866v.0813h-.9393c-.0537-.0075-.0111-.0816.0242-.0434l.0133-.0125c.0102-.0801-.1254-.089-.1285-.0087h-.0021l-.0477-.0969h-.0321l-.047.0969h-.0021c-.0032-.0799-.137-.0719-.1283.0087l.0134.0125c.0354-.0382.0781.0363.0239.0434,0,0-.9382,0-.9382,0v-.0813h-.0864v-1.0878Z"/>
      <path class="st0" d="M22.5568,12.8941c.0014-.0567-.0622-.0988-.1167-.08v.0125c-.1002.4527-.0515-1.4098-.0605-1.3415l.0921.0378v-.2165l-.092.0377.0005-1.3727c.0129-.0689.1202-.0101.0612.0344v.0125c.1266.0401.1633-.1622.0282-.1643l.0844-.1461-.02-.0194c-.0015.0002-.151.0831-.1526.0821-.002-.1257-.2146-.0949-.1744.0269h.013c.045-.0545.1106.0428.0374.0574,0,0-1.2663.0002-1.2663.0002l.0392-.0853h-.23l.0394.0853-1.2652.0002c-.0762-.011-.012-.1136.0348-.0579h.0128c.0415-.1215-.1721-.1527-.1737-.0269-.0015.0016-.1517-.0822-.153-.0821l-.0203.0194.0845.1461c-.1353.0023-.0981.2045.0285.1643v-.0125c.0989-.4516.0517,1.4016.0604,1.3375l-.0899-.0369v.2165l.0899-.0369c-.0087-.0325.0386,1.7818-.0604,1.3405v-.0125c-.1266-.0396-.164.1623-.0283.1642l-.0848.1462.0203.0193c.0017-.0001.1512-.0834.153-.0821.0012.1258.2155.0946.1738-.0268h-.0128c-.0197.0294-.0719.014-.0709-.0215,0-.0184.0153-.0334.0342-.036h1.2679l-.0402.0865h.23l-.0394-.0865h1.265c.019.0026.0339.0176.0339.036.0012.0355-.0512.0509-.0706.0215h-.0135c-.0401.122.173.1522.1746.0268.0014-.0014.1508.0821.152.0821l.0209-.0193-.0845-.1462c.0487-.0004.0883-.0378.0883-.0842ZM21.0238,9.939h1.2682v2.9557h-2.7548v-1.4874l.0004-.0004-.0004.0002v-1.4681h1.4866Z"/>
      <path class="st0" d="M22.0938,11.5647v.002c.0005-.0009.0004-.0011,0-.002Z"/>
      <path class="st0" d="M22.0938,11.2653v.0018c.0004-.0009.0005-.0012,0-.0018Z"/>
      <path class="st0" d="M19.7366,11.5666v-.002c-.001.001-.0012.0009,0,.002Z"/>
      <path class="st0" d="M19.7366,11.2671v-.0018c-.0011.0008-.001.0007,0,.0018Z"/>
    </g>
    <path class="st0" d="M10.5795,6.3685l.0611-.0505c.0239-.2532.1431-.4787.3366-.6176-.0131-.0181-.0262-.0349-.0394-.0501-.2196.1597-.3482.425-.3583.7183Z"/>
    <path class="st0" d="M11.1743,6.0122l.0587-.0195c-.0391-.1081-.1228-.3068-.2459-.4306-.0276-.0283-.0732.0136-.045.0411.0854.0858.1678.231.2322.409Z"/>
    <path class="st0" d="M10.6434,5.8125c.1185.0033.1207-.1818.0024-.1817-.1166-.0028-.1198.1819-.0024.1817Z"/>
    <path class="st0" d="M12.372,5.4214c-.0807.0869-.2143-.0412-.1314-.1256.0797-.0852.2138.0419.1314.1256Z"/>
    <path class="st0" d="M12.5545,5.5737c-.0807.0869-.2143-.0412-.1314-.1256.0797-.0852.2138.0419.1314.1256Z"/>
    <path class="st0" d="M11.7108,5.2767c-.0807.0869-.2143-.0412-.1314-.1256.0797-.0852.2138.0419.1314.1256Z"/>
    <path class="st0" d="M12.1654,5.324c-.0807.0869-.2143-.0412-.1314-.1256.0797-.0852.2138.0419.1314.1256Z"/>
    <path class="st0" d="M12.3808,5.6172l-.0788.0082c-.1974-.1603-.4419-.2331-.6766-.1923-.0037-.022-.0065-.0431-.0082-.0632.2678-.0449.5472.0491.7636.2473Z"/>
    <path class="st0" d="M11.6948,5.7921l-.055.0283c-.0498-.1036-.133-.3025-.1351-.4771-.0009-.0396.0609-.0427.0608-.0033.0014.121.0474.2815.1293.4522Z"/>
    <path class="st0" d="M11.9392,5.2734c-.0807.0869-.2143-.0412-.1314-.1256.0797-.0852.2138.0419.1314.1256Z"/>
    <path class="st0" d="M21.7041,15.0237c.2628-.0049.8734-.2939.4301-.5333-.2483-.0417-.4953.0793-.7344.1352-.9615.3822-.3981-.0852-.995-.034.2015.5097.7102.2465,1.0916.1277.0118.0558-.0588.0694-.0494.1256.1283-.0266.2509-.052.3714-.077.0524-.2501.5089-.2528.3-.0022-.5263.2295-1.1473.1869-1.6983.3434-.3683.9645-1.0087.3082-1.0025.5846-.1441.0136-.142.152.0058.1403.0032.2808.7131-.0446.8446-.1308.0317-.0677.0608-.13.0907-.194.216.1051.3678-.2054.5549-.2606.1864-.0372.4293-.2195.5881-.0509.1768.1953.4412-.1027.5972.0946-.0589.1523.0185.0852.0446.1807-.0026.0855.1401.0845.1425-.0019-.0006-.0376.0038-.0611.041-.0763.0789-.12-.0888-.2526-.1476-.3525-.1293-.1249-.3444.113-.4755-.0188Z"/>
    <path class="st0" d="M19.3266,14.599c.0429.0141.0267.065.0467.0908.2266.0153.4533-.0448.6818-.0731.1707,0,.1645-.1503.2896-.1714.3018.0157.4898-.2508.774-.2939.2279-.0645.5352-.1488.7365.0111.0488.0541.119.0646.1918.051.0962-.017.2109-.0376.2615.0743-.0164.0171-.0323.0337-.0547.057.0097.0207.0212.0451.0326.0695.0473-.0031.054.0348.0728.0656.0255.0421.0856.043.0954-.0005.0121-.0536.067-.0266.0841-.0731.0092-.1393-.0214-.312-.1606-.3819-.0685-.0643-.3393.0674-.3469-.0665.2015.0455.5887-.2174.3226-.3873-.4502-.1052-.9448.1122-1.4016.1639-.1795.04-.0896-.2528-.4866-.174.2556.5334.8067.1558,1.2348.1511.0026.0481-.0811.0452-.0609.1047.1244-.0386.3361.0278.4075-.0964.0387-.1516.358-.1158.264.0593-.2391.1529-.5959.0829-.8769.1143-.344.0289-.7195.0368-1.0414.1571-.0638.1997-.1523.4051-.3823.4528-.1612-.1566-.3949.0281-.5675-.1301-.0566.0116-.0673.0452-.0898.0881-.0848.0321-.1136.0804-.0265.1375Z"/>
    <path class="st0" d="M21.8615,16.0006c-.4502-.058-.3823.252-.6038.179.04-.0492.1503-.077.1144-.1513-.3298.1442-.6767.2472-1.0056.3954-.1671.1773-.1121.5316-.4896.5638-.0136.1842-.2719.3085-.4313.2262-.0642.0601-.0366.0758-.0267.1316-.054.0492-.1292.1628-.0113.1618.0369-.0078.0653-.0627.1037-.045-.0027.0238-.0054.0476-.0085.0745.0311-.0005.0728.0103.0837-.0034.0518-.0651.126-.0116.1842-.0627.1938-.1302.4703-.2498.4553-.5205.3421-.1503.5403-.704.9863-.5089.2201.1189.2803-.2379.4777-.2456.0562.1304.0826.1198.1537.0767.1242.095.1028-.0553.1515-.125.0059-.0682-.0636-.148-.1338-.1467Z"/>
    <path class="st0" d="M19.8257,13.8337c-.0716.2044.0022.4762.1921.5894.2176-.0975.357-.382.281-.6204.0518-.0436.116-.0653.0968-.1387-.0343-.0826-.1633-.0212-.1966-.1173-.0817-.1122-.1902-.0207-.2566.0544-.0501.0059-.099-.0191-.1454.0043-.0475.087.084.1393.0288.2282Z"/>
    <path class="st0" d="M19.7697,16.6996c.2117.5066.5301-.1379.4508-.4125.1462-.1207.1055-.1916-.0709-.2036-.0622-.1336-.1966-.147-.2893-.0343-.0328.0408-.0814.0262-.1242.0304-.0904.0422-.0403.1413.039.1633-.0434.1534-.0657.3066-.0053.4567Z"/>
    <path class="st0" d="M20.3514,14.819c-.0411-.0238-.0929-.025-.1384-.0214-.0752-.1971-.2113-.1225-.3213-.0049-.1639-.065-.1393.0822-.0527.1623-.0819.2004-.0253.4977.1878.5834.2246-.0936.2866-.3665.273-.5863.0702-.0109.1265-.0896.0516-.1331Z"/>
    <path class="st0" d="M21.9637,15.4821c-.4028-.1351-1.0363.7412-1.304.4832-.0653-.141-.265-.1256-.3908-.0872.1513.109.2339.3487.4634.2705.2592-.0504.4626-.2595.6866-.3558.006.0751-.0705.1075-.1021.1792.1537-.0485.2918-.0916.4051-.1896-.0194-.4241.5872-.127.0053.134.1033.0023.1756.0489.2449-.0361.1337-.1193.1406-.2916-.0085-.3983Z"/>
    <path class="st0" d="M21.0486,16.4634c-.1183.0298-.2365.0399-.3098.1608.0295.0397.0575.0774.088.1184-.0563.1465-.2021.1217-.3383.128.0126.0459.0195.0714.028.1024-.0581.0306-.0802.0819-.0683.1543.0153.0052.0335.0113.0516.0174.0381-.0471.1066-.0953.1228-.0066.2476-.0806.4691-.2315.5869-.4626-.0704-.0543-.1303-.1186-.1608-.212Z"/>
    <path class="st0" d="M20.7222,15.5907c-.0522-.0002-.0641.0674-.0278.0985.0355.0393.0702-.0035.1106.0081.0013.0223.0024.041.0035.0588.2159.0128.5432-.1801.658-.3544-.046-.0714-.0893-.1386-.1344-.2086-.1175.0379-.2511.0351-.3212.1407.0422.0449.079.0841.1198.1275-.0793.0439-.1708.1182-.2568.047-.035-.0319-.1331-.0172-.1092.0448.0034.0093-.0019.0217-.0033.033-.0151.0018-.0271.0034-.0391.0045Z"/>
    <path class="st0" d="M19.8029,16.9073c-.0801-.1563-.2058-.2992-.2648-.4631.0717-.1.0393-.2284-.0938-.1466-.0336-.0676-.0835-.0803-.1453-.0632-.0176.0433-.0272.0849.0196.1182.0028.002-.0007.013-.0012.0198-.0148.005-.0295.0099-.0432.0145-.0332.0859.0518.1358.0827.2028.093.1478.2309.5041.446.3177Z"/>
    <path class="st0" d="M19.8028,14.332c-.0118-.2163-.2618-.3549-.1861-.5722.0198-.0403.013-.0879-.0281-.1206q-.0728.0194-.1278-.0154c-.094-.0467-.1071.0571-.0988.1233-.0184.0085-.0359.0165-.0612.0281.065.1856.2595.6509.5019.5568Z"/>
    <path class="st0" d="M19.3206,15.066c.0917.1402.1172.363.2736.4443.0712-.0002.1813.065.2233-.0196-.0456-.1671-.2519-.2635-.2225-.4539.0101-.0443-.0064-.0881-.0435-.1278-.0797.0238-.2472-.1574-.1858.0579-.0496.0171-.0789.0519-.0449.0991Z"/>
    <path class="st0" d="M15.7471,10.7416c.0343.0023.0689-.0378.1045-.0021-.0032.0181-.0064.0358-.0099.0558.2194.0952.4611-.0125.6785-.0715.0862-.0266.1357-.1136.2305-.1118.2252.0162.3535-.1726.5466-.2269.239-.0455.4812-.0833.7253-.0789.2801.3823.3307.0576.5819.1873-.0072.0371-.0143.0734-.0219.1128.0252.0087.0458.0157.0655.0225-.0246.0951.1165.1503.1356.0298.0026-.0142-.004-.033.0167-.0355.1495-.0814-.08-.4764-.2384-.373-.0809.038-.1873.0756-.2505-.0208.1391-.0567.3116-.0425.4063-.1732.071-.0863.0647-.2591-.0707-.3051-.351-.0974-.7224.0804-1.0777.1111-.6662.1805-.1908-.1428-.7191-.1401.1892.5413.7574.1935,1.1519.1538-.0281.0636-.093.0878-.1193.1449.1393-.0268.3232.0258.4269-.0822.0539-.1489.4066-.166.3234.036-.3326.3249-1.375.0203-1.8386.2291-.0693.2115-.1922.3523-.3949.4099-.1659-.1025-.2408.0143-.4064-.0314-.0461-.051-.0929-.1081-.1648-.0521.0003.0216.0007.0466.0012.0762-.0783-.0225-.1666.0861-.0825.1354Z"/>
    <path class="st0" d="M16.3242,9.9159c-.1228.2255-.0871.4284.0592.6173.2734.0097.3847-.3634.3402-.5894.0285-.0197.0552-.0382.0835-.0578-.008-.0297-.0146-.0542-.0221-.0819-.0496-.002-.0946-.0039-.1375-.0056-.0992-.1271-.1587-.1299-.2766-.0153q-.0805-.0302-.1347.0407c.0198.0412.0457.0717.0879.092Z"/>
    <path class="st0" d="M17.6582,10.3999c-.0123.063.0454.0902.0558.1393-.0732.0476-.1524.0501-.2304.0605-.0411-.0412-.0576-.115-.1294-.0935-.0406.0098-.018.0528-.0483.0698q-.0793-.0068-.0914.0736c.0242.0144.0496.0296.0737.044-.0597.2825.7108-.0113.8249-.0953-.0373-.0632-.0855-.1068-.1-.1802-.0319-.1237-.2606-.0223-.355-.0181Z"/>
    <path class="st0" d="M16.2176,10.4346c-.0083-.0989-.0329-.2145-.111-.2834-.0875-.0901-.1159-.214-.0267-.3104-.0447-.0424-.104-.0079-.1476-.068-.0559-.0639-.0893.0098-.1026.0773-.1572.0228-.0664.074-.0313.1577.0521.1449.2375.4918.4192.4269Z"/>
    <path class="st0" d="M18.5432,11.489c-.0815.0383-.1888.0763-.2525-.021.1402-.0571.3141-.0429.4096-.1746.0715-.087.0652-.2613-.0713-.3076-.3539-.0982-.7283.081-1.0865.112-.6716.182-.1924-.1439-.725-.1413.1907.5457.7636.195,1.1612.1551-.0284.0641-.0937.0885-.1202.1461.1405-.027.3258.026.4304-.0829.0543-.1501.4099-.1673.326.0363-.3353.3275-1.3862.0205-1.8535.2309-.0699.2132-.1938.3552-.3981.4132-.1419-.0876-.2178-.0166-.3394-.021.0049.0398.0167.078.0267.1172.01.0396.0146.0801.0172.1208.141-.0153.2836-.0696.417-.1058.0869-.0269.1368-.1145.2324-.1127.227.0164.3563-.174.5511-.2288.2409-.0459.4852-.084.7312-.0796.2824.3854.3334.0581.5867.1889-.0073.0374-.0144.074-.0221.1137.0254.0087.0462.0159.066.0227-.0248.0958.1174.1516.1367.03.0026-.0143-.004-.0333.0168-.0358.1507-.0821-.0807-.4803-.2404-.376Z"/>
    <path class="st0" d="M16.2873,11.1521c-.1238.2273-.0878.4319.0597.6224.2756.0098.3879-.3664.343-.5942.0287-.0199.0556-.0385.0841-.0583-.0081-.03-.0147-.0546-.0223-.0826-.05-.002-.0954-.0039-.1386-.0057-.1-.1282-.1599-.131-.2788-.0154q-.0811-.0305-.1358.0411c.0199.0415.046.0723.0886.0928Z"/>
    <path class="st0" d="M17.6321,11.64c-.0124.0635.0458.091.0562.1404-.0738.048-.1537.0505-.2323.061-.0414-.0416-.0581-.1159-.1304-.0943-.041.0099-.0181.0532-.0487.0704q-.0799-.0068-.0921.0742c.0244.0145.05.0298.0743.0443-.0602.2848.7166-.0114.8316-.0961-.0376-.0637-.0862-.1077-.1008-.1817-.0321-.1247-.2627-.0225-.3579-.0182Z"/>
    <path class="st0" d="M16.1797,11.675c-.0083-.0997-.0331-.2162-.1119-.2857-.0882-.0909-.1168-.2157-.0269-.3129-.045-.0427-.1048-.008-.1488-.0686-.0564-.0645-.0901.0099-.1034.0779-.1585.023-.067.0746-.0315.159.0526.146.2395.4958.4226.4304Z"/>
    <path class="st0" d="M18.5707,12.65c-.0814.0383-.1886.0762-.2522-.0209.14-.0571.3137-.0428.4091-.1743.0714-.0869.0651-.2609-.0712-.3072-.3534-.098-.7274.0809-1.085.1118-.6707.1817-.1921-.1437-.724-.1411.1905.545.7626.1948,1.1597.1549-.0283.064-.0936.0884-.1201.1459.1403-.027.3254.026.4298-.0827.0543-.1499.4094-.1671.3256.0362-.3349.3271-1.3844.0204-1.8511.2306-.0698.213-.1935.3547-.3976.4127-.1671-.1032-.2424.0144-.4092-.0316-.0162-.018-.0326-.0366-.0501-.0509-.0047-.0021-.0092-.005-.0124-.0093-.0063-.0042-.0128-.0075-.0195-.0101.0008.0024.0017.0048.0018.0077.0029.0977-.0208.1931-.0588.2824.2173.0858.455-.0189.6694-.0771.0868-.0268.1366-.1143.2321-.1125.2267.0163.3559-.1738.5504-.2285.2406-.0458.4845-.0838.7303-.0794.282.3849.3329.058.5859.1886-.0073.0373-.0144.0739-.0221.1136.0254.0087.0462.0158.066.0226-.0248.0957.1173.1514.1365.03.0026-.0143-.004-.0333.0168-.0357.1505-.082-.0806-.4797-.2401-.3755Z"/>
    <path class="st0" d="M16.3177,12.3134c-.1237.227-.0877.4313.0597.6215.2752.0098.3874-.3659.3425-.5934.0287-.0199.0555-.0385.084-.0582-.0081-.0299-.0147-.0546-.0222-.0825-.0499-.002-.0952-.0039-.1384-.0057-.0999-.128-.1597-.1308-.2785-.0154q-.081-.0304-.1356.041c.0199.0415.046.0722.0885.0926Z"/>
    <path class="st0" d="M17.6608,12.8007c-.0124.0634.0457.0908.0561.1402-.0737.0479-.1535.0504-.232.0609-.0414-.0415-.058-.1158-.1302-.0942-.0409.0099-.0181.0531-.0486.0703q-.0798-.0068-.092.0741c.0243.0145.05.0298.0742.0443-.0601.2844.7156-.0114.8305-.096-.0375-.0636-.0861-.1075-.1007-.1815-.0321-.1246-.2623-.0225-.3574-.0182Z"/>
    <path class="st0" d="M16.0986,12.5503c-.0166-.0171-.0311-.0354-.0431-.0546-.005.0509.0219.1099.0127.1602-.0071.039-.0184.0977-.0295.1357.0635.062.1015.0691.1716.044-.0083-.0995-.0331-.2159-.1117-.2854Z"/>
    <path class="st0" d="M20.1246,10.5499c.0606.0381.1057.215.1421.2402.0688.0907.2128.3326.3537.2828v-.0038c.0419-.0167.0819-.1386.0842-.1558-.0012-.0051-.025-.0268-.0513-.0474-.1325-.1152-.2126-.229-.2155-.3345-.0056-.0345.0757-.0806.0694-.1133-.003-.1207-.103.0149-.1424-.0049-.0216-.0348-.0962-.1336-.1422-.0855-.0284.0137.0071.0847-.0158.1016-.0104.0137-.0168.0161-.0486.0155-.1069-.0019-.121.0648-.0336.1051Z"/>
    <path class="st0" d="M20.6917,11.3634c.0355-.0351.1424-.1391.1542-.1621.0106-.0237.0144-.0249.0896-.0312.2067-.0294.3112-.1139.3697-.3358.0285-.0666-.0081-.211-.0505-.2424-.0163-.0116-.0236-.0331-.0133-.0405.0383-.0056.1187-.0369.1325-.082-.0221-.0428-.0756-.0105-.1482-.034-.0538-.025-.1961-.0689-.2538-.037-.041.0497-.2822.0548-.2388.1267.0093.0268.0268.0876.0268.0876l.1101.0129.0017.0797s-.0789.0171-.1052.0229c-.0653.0958.1569.1035.2145.0288.0394-.0464.1016-.0533.0993-.0021-.0299.0636-.1363.0958-.1981.1262-.0928.0155-.1175.198-.1889.2584-.2023.0373-.2748.0325-.4748-.1301-.073-.0841-.131-.0209-.0758.0452-.0359.0118-.2215-.0929-.1376.0857l.0137.0166c-.0916.1318.0447.0871.1212.1279.1629.0652.3417.1141.5519.0786Z"/>
    <path class="st0" d="M21.3395,11.236l.0859.1776s.1843.0824.2093.1067c.1035.0756.0863.2851-.0071.2615-.153-.0626-.2443-.2786-.3502-.4123-.0283-.0217-.1013-.2401-.1494-.185-.6309.1411.1142.3029-.0005.5371-.0221.0333-.0924.1969-.0637.2216.0531.0652.1719.1126.2345.1952.1028.1003.0103.2162-.1166.1225-.0721-.0544-.1581.0239-.0844.0967.0048.0139-.0439.0345-.0529.0406-.0751.1031.0492.0978.1149.046.0365-.0177-.0003.0906.0611.0728.115-.0254.2934-.0836.3251-.2636.0715-.1652-.0941-.1384-.1349-.2828-.0413-.0591-.0443-.277.0454-.1967.0831.1049.1955.1652.2977.0718.0947-.089.0083-.305-.0401-.4007-.0914-.1901-.1966-.3732-.1892-.6007.1278-.1516.2762.1188.3666-.3032-.2985.0204-.5923.2207-.4447.5559.0907.1895.071.1748-.1068.139Z"/>
    <path class="st0" d="M20.8594,11.594c-.1578-.0078-.2785-.0206-.2344.1671.0087.0451.0255.1818.0522.2135.0111.0178.0095.0366-.0047.049-.0637.0358-.3049-.0624-.276-.1443,0-.0683-.0682-.084-.0884-.0355-.0109.0216-.0279.0207-.052-.0059-.0445-.0638-.1064.0225-.0814.0703.0098.019-.002.0402-.0249.0436-.0663.027-.0625.1178.0297.1213.2012.093.3766.1891.6104.1564l-.0038.0012c.2551-.0202.1234-.0682.1124-.2459-.0437-.191.2822-.3161-.0389-.3906Z"/>
    <path class="st0" d="M21.099,14.3216c-.0166-.0152-.0582.0021-.0632.0122.0017.0869-.0899.0612-.1174.1205.018.0358.0436.0644.0826.0609.0489-.0044.0449.056.0894.0592.2102-.0957.4598-.0726.6383-.2367-.0669-.0571-.083-.1349-.0974-.2168-.1216.0091-.2392-.0082-.3441.0495-.0107.0557.0279.0849.0551.1328-.0863.0367-.1626.0551-.2433.0185Z"/>
    <path class="st0" d="M28.6092,20.9354"/>
    <path class="st0" d="M21.3379,19.5697"/>
    <path class="st0" d="M24.4625,11.9587c-.0829-.1774-.2746-1.1717-.5533-.9559,1.2699,2.3708.4229,5.4886-1.7808,6.9901-.6466.3902-1.4489,1.0386-2.2136.6064.4938-1.9233,2.8599-1.1113,3.3742-4.7784-.0632-.0308-.0873-.0505-.1452-.0609-.0739.5126-.2029,1.005-.3945,1.478.2054-.5458.0747-2.2544.1134-2.3485-.0213-.0282-.0438-.0388-.1137-.1251.0128.2064-.0011.2814.0012.5543h-3.5903v-3.745h3.5241v2.1129c-.0017.0115.0137.1119.0212.1487.0502-.077.0544-.0742.0881-.0994v-2.2714h-7.3911l-.0066,1.9142h.1093v-1.8049h3.5459v3.745h-3.4199c-.0101.0102.0021-.0589-.0093-.0488-.0006-.0102-.0235.0589-.0233.0488h-.0957c-.0018-.1746.002-.282.0022-.2873l-.1092-.0044c-.0795.2811.1546,2.631.5403,3.0435-.7717-.7482-1.0147-2.0767-.8703-3.077,0,0-.0721-.0554-.1509-.1277-.2424,1.4094.2907,2.7997,1.2784,3.8083.0865.0921.1807-.007.2858-.0332-.0213-.0229-.0677-.0584-.0998-.103.039.0404.0734.076.0998.103l-.0548-.1516c-.7754-.5927-.903-2.2858-.9197-3.0614h3.5464s-.0023,4.6961-.0049,4.7067c-.7543-.0369-1.2646-.8554-1.9921-.8647,1.0459.6201,2.959,2.1147,4.1674,1.4599.0094.0116.0075.0093.0168.0209-.1269.1591-.5746.46-.7744.3832-.3289-.1981-.8363.1627-.6032.53.03.0429.048.0814.0133.1381-1.3068-.123-2.4815-.9035-3.5827-1.5721-.0108.0117-.0087.0095-.0195.0212.4219.57,1.9296,1.2782,1.9296,1.2782l-.0009.8472s.0966.0645.1598.1066v-.9167c.3955.1358,1.1969.3871,1.1969.3871l.0024.5722.1526-.0975-.008-.4284.2141-.0591c.1345-.0371.221-.167.2046-.3045-.0633-.0317-.1079-.0969-.0882-.1864.0315-.1669.2331-.1706.3157-.0704.1638.0729.3244-.1239.4855-.1704.2275-.1377.508-.2596.6132-.5216.0201-.0648.0557-.1048.1103-.1368.4588-.2608.9033-.5485,1.2778-.9241,1.6003-1.3531,2.1591-3.678,1.6261-5.668ZM19.1598,13.4281h3.5898c.2934,2.7436-1.3149,3.662-3.5898,4.6183v-4.6183ZM19.2244,18.3294c.2543-.2259.43-.3049.757-.3826-.0903.2029-.1764.3962-.2674.6007-.1639-.073-.3249-.1447-.4896-.2181Z"/>
    <g>
      <path class="st0" d="M11.2138,19.8376c-.0827-.0501-.1841-.0657-.3042-.0466.0256.182.0917.519.1446.6953.3381-.0483.4398-.4709.1596-.6487Z"/>
      <path class="st0" d="M15.8277,18.591h0c-2.0321.0031-4.0571.8707-6.09.8707-.2439,0-.4875-.0125-.7316-.0404.6296.4973.5859,1.4949,1.5015,1.4949.0397,0,.0811-.0019.1246-.0057,1.2449-.1331,2.4829-.4839,3.7079-.6786.2108-.0316,1.2251-.2801,1.819-.2801.214,0,.3733.0323.4209.1186.0645.1169-.3392.4575-.3422.4705-.0009.0038.0012.0056.0057.0056.0391,0,.263-.1292.4298-.2393.6631-.4764-.7261-1.716-.8457-1.7161ZM11.5489,20.277c-.1106.2627-.4414.3226-.6994.3686.0125-.0816-.1453-.8417-.1936-.9109.447-.1914,1.0865-.0064.8929.5423ZM11.8113,20.4371c.0132-.2635-.0746-.6777-.1939-.9131l.2596-.0551c-.0132.2635.0746.6777.1939.9131l-.2596.0551ZM12.8086,20.221l-.5321.1175c.0108-.0804-.1606-.8262-.2056-.8943l.5608-.1238-.0458.1879c-.0777-.0218-.1686-.0224-.2725-.0019l.0623.2709.3102-.0685.05.1317c-.0617-.01-.2487.0364-.3338.0514l.065.2828c.1527-.0337.2789-.0845.3787-.1525l.0029.0017-.04.1971ZM13.3542,20.1372c-.3878.0088-.4438-.5454-.5349-.8184l.1881-.0354c.0898.2381.0648.7949.4643.7216.2883-.1297.0545-.5879.0248-.8091l.1854-.0263c.0705.3675.2367,1.0054-.3277.9675ZM14.896,19.8609l-.5311.1223c.0101-.0805-.1682-.8247-.2137-.8924l.5596-.1289-.0441.1883c-.0779-.0211-.1688-.0209-.2725.0006l.0647.2703.3096-.0713.0512.1313c-.0618-.0095-.2484.0387-.3334.0544l.0676.2822c.1524-.0351.2781-.0871.3773-.1559l.0029.0017-.0382.1974ZM15.4558,18.9554l.1525.7726-.1775.0319-.1566-.7689c-.1093.0197-.1707.0196-.3188.0843l-.0053-.1729.7672-.0992.0532.1464c-.0703-.0257-.3147.0058-.3147.0058Z"/>
    </g>
    <g>
      <path class="st0" d="M25.2438,19.4487c-.0432.1694-.1097.4889-.1318.6624.399.0845.5229-.5834.1318-.6624Z"/>
      <path class="st0" d="M26.8067,19.7195c-.3048-.0751-.404.5601-.1503.6614.3113.0737.4053-.5571.1503-.6614Z"/>
      <path class="st0" d="M26.0094,19.6009l-.093.3369c.2597.0479.3716-.2943.093-.3369Z"/>
      <path class="st0" d="M23.565,19.1182c-.3178-.0874-.4407.5702-.1736.6813.3247.0863.442-.567.1736-.6813Z"/>
      <path class="st0" d="M28.1137,19.458c-.2546,0-.4965-.004-.6147-.0139-1.3401-.1304-2.6663-.5132-4.0033-.7257-.3857-.0607-.7011-.1179-.9744-.1179-.5678,0-.9536.2466-1.4109,1.2203-.1948.3706.4578.7239.6016.7391-.5362-.4579-.3494-.5935.0737-.5935.5848,0,1.621.259,1.824.2845,1.2249.1948,2.4631.5456,3.7079.6787.0437.0039.0854.0058.1253.0058.9154,0,.8717-.9984,1.5009-1.495-.1119.0102-.4828.0176-.8301.0176ZM23.074,18.9212c-.0306.0282-.1393.7883-.132.8625l-.2046-.0399c.0366-.066.085-.5959.085-.5959l-.351.5455-.2063-.615s-.0836.4416-.087.5837l-.2007-.0275c.0644-.1041.1904-.886.1904-.886l.2077.0389c.0056.0414.1627.5722.1627.5722,0,0,.2763-.4636.2923-.4872l.2442.0456-.0007.0031ZM23.8254,19.5934c-.1841.624-.9034.2831-.6894-.2731.1821-.6048.9023-.2851.6894.2731ZM24.5346,20.1396c-.063-.0135-.4028-.7058-.4028-.7058,0,0-.0829.5379-.104.5756l-.1545-.0222.1762-.8443.1713.0225c.0013.022.2708.5928.2708.5928,0,0,.0901-.4622.0983-.5037l.1308.0368-.1861.8483ZM25.3356,20.2136c-.1215.0423-.2946-.0054-.4209-.0301l.1698-.8693c.5643-.0373.798.6934.2512.8994ZM26.3367,19.8128c-.0251.0986-.0976.1664-.2174.2035.0523.1714.083.2279.1714.414l-.0011.0042-.1369-.0212c-.0283-.0166-.2001-.2572-.2513-.3878-.03.1074-.0606.2445-.0481.3415l-.232-.0359c.043-.0669.2241-.7783.2172-.853.2011.0255.5619.0614.4982.3347ZM26.7827,20.5014c-.5169.0969-.5162-.7759-.1014-.8979.519-.1088.5212.7782.1014.8979ZM27.3214,19.9909c-.0199.1548-.0922.469-.064.6156l-.2022-.0292c.0889-.2279.1499-.6126.1355-.8567l.2022.0292c-.033.068-.0568.1484-.0715.2411ZM27.799,19.9534s-.1184.6694-.1109.726l-.2011-.0362c-.0033.0045.1237-.5869.1546-.7152-.0712-.015-.1551-.0078-.2343.0226l-.0014-.0024.0806-.1684.5461.0982.0379.1857c-.0457-.0448-.1936-.0957-.2713-.1103Z"/>
    </g>
  </g>
  <g>
    <path class="st0" d="M7.2717,27.5039h3.7404c3.3588,0,5.2366,1.6945,5.2366,5.1909,0,3.6487-1.6031,5.7098-5.2366,5.7098h-3.7404v-10.9007ZM8.7221,37.1832h2.4122c.9925,0,3.6641-.2747,3.6641-4.29,0-2.5954-.9617-4.168-3.6335-4.168h-2.4427v8.458Z"/>
    <path class="st0" d="M24.2227,35.9007c-.351,1.7557-1.5878,2.687-3.3739,2.687-2.5191,0-3.71-1.7557-3.7864-4.1526,0-2.3816,1.5573-4.1068,3.71-4.1068,2.7938,0,3.6487,2.6108,3.5724,4.5192h-5.9083c-.0458,1.3741.7328,2.5954,2.4581,2.5954,1.0839,0,1.8167-.5039,2.0457-1.5421h1.2824ZM22.971,33.7023c-.0764-1.2364-.9771-2.2289-2.2748-2.2289-1.3435,0-2.1832,1.0075-2.2596,2.2289h4.5344Z"/>
    <path class="st0" d="M25.4333,30.5117h1.2977v1.0687h.0306c.4274-.8702,1.4199-1.2521,2.5191-1.2521,2.4274,0,3.6335,1.9238,3.6335,4.1526,0,2.2442-1.1908,4.1068-3.6031,4.1068-.7938,0-1.9846-.3054-2.5495-1.2364h-.0306v4.0761h-1.2977v-10.9157ZM29.0973,31.4734c-1.7557,0-2.4122,1.5114-2.4122,2.977,0,1.5418.7022,2.9924,2.4885,2.9924,1.771,0,2.3664-1.5114,2.3664-3.0536,0-1.481-.7634-2.9159-2.4427-2.9159Z"/>
    <path class="st0" d="M41.0438,38.3742c-.2291.1373-.5497.2135-.9313.2135-.6718,0-1.0992-.3663-1.0992-1.2214-.7176.8551-1.6793,1.2214-2.7786,1.2214-1.4352,0-2.6108-.6259-2.6108-2.2135,0-1.7864,1.3283-2.1834,2.6718-2.4277,1.4199-.2901,2.6564-.1678,2.6564-1.1602,0-1.1452-.9465-1.3129-1.7557-1.3129-1.0992,0-1.9084.3358-1.9694,1.4961h-1.2977c.0764-1.9542,1.5726-2.6412,3.3435-2.6412,1.4199,0,2.9618.3208,2.9618,2.168v4.0611c0,.6105,0,.8855.4122.8855.1221,0,.2595-.0307.397-.0765v1.0078ZM38.9369,34.3282c-1.0077.7482-3.9389.0154-3.9389,1.9542,0,.8551.7328,1.1605,1.5268,1.1605,1.7099,0,2.4122-1.0536,2.4122-1.7864v-1.3283Z"/>
    <path class="st0" d="M41.9231,30.5117h1.2214v1.6641h.0306c.6259-1.2825,1.4961-1.8933,2.9007-1.8476v1.3741c-2.0915,0-2.8549,1.1756-2.8549,3.1909v3.5114h-1.2977v-7.8929Z"/>
    <path class="st0" d="M49.0405,30.5117h1.5727v1.1449h-1.5727v4.9008c0,.6105.1679.7021.9771.7021h.5956v1.1452h-.9926c-1.3433,0-1.8778-.2747-1.8778-1.7253v-5.0228h-1.3435v-1.1449h1.3435v-2.3665h1.2977v2.3665Z"/>
    <path class="st0" d="M51.5794,30.5117h1.2214v1.1602h.0304c.5955-.9009,1.4352-1.3436,2.5496-1.3436.9771,0,1.8473.3666,2.168,1.3436.5343-.8551,1.4503-1.3436,2.4731-1.3436,1.5726,0,2.6259.6566,2.6259,2.29v5.7863h-1.2976v-5.1755c0-.9771-.2596-1.7557-1.5268-1.7557s-2.0611.794-2.0611,2.0153v4.9159h-1.2976v-5.1755c0-1.0229-.3208-1.7557-1.481-1.7557-1.5268,0-2.1069,1.4045-2.1069,2.0153v4.9159h-1.2976v-7.8929Z"/>
    <path class="st0" d="M70.9652,35.9007c-.3509,1.7557-1.5876,2.687-3.3737,2.687-2.5192,0-3.7102-1.7557-3.7864-4.1526,0-2.3816,1.5572-4.1068,3.7099-4.1068,2.7939,0,3.6487,2.6108,3.5725,4.5192h-5.9083c-.0458,1.3741.7328,2.5954,2.4581,2.5954,1.0837,0,1.8165-.5039,2.0457-1.5421h1.2822ZM69.7134,33.7023c-.0762-1.2364-.9771-2.2289-2.2747-2.2289-1.3436,0-2.1834,1.0075-2.2596,2.2289h4.5342Z"/>
    <path class="st0" d="M72.1546,30.5117h1.2214v1.2518h.0304c.5497-.9771,1.4199-1.4352,2.565-1.4352,2.0762,0,2.7174,1.1909,2.7174,2.8855v5.1909h-1.2976v-5.3436c0-.9771-.6108-1.5876-1.6033-1.5876-1.5723,0-2.3358,1.0533-2.3358,2.4731v4.458h-1.2976v-7.8929Z"/>
    <path class="st0" d="M82.0216,30.5117h1.5726v1.1449h-1.5726v4.9008c0,.6105.1681.7021.9771.7021h.5955v1.1452h-.9921c-1.3436,0-1.878-.2747-1.878-1.7253v-5.0228h-1.3436v-1.1449h1.3436v-2.3665h1.2976v2.3665Z"/>
    <path class="st0" d="M7.5923,48.0803h-1.3281v-1.1449h1.3281v-1.1756c0-1.2825.7634-1.9542,2.1832-1.9542.2443,0,.5953.0458.8396.122v1.1298c-.2289-.0762-.5038-.1069-.7328-.1069-.6259,0-.9923.1985-.9923.8855v1.0994h1.5268v1.1449h-1.5268v6.7481h-1.2977v-6.7481Z"/>
    <path class="st0" d="M14.4793,46.752c2.5037,0,3.832,1.8168,3.832,4.1376,0,2.3051-1.3283,4.1219-3.832,4.1219s-3.832-1.8168-3.832-4.1219c0-2.3207,1.3281-4.1376,3.832-4.1376ZM14.4793,53.8666c1.3587,0,2.4579-1.0687,2.4579-2.977s-1.0992-2.9924-2.4579-2.9924-2.4581,1.084-2.4581,2.9924,1.0992,2.977,2.4581,2.977Z"/>
    <path class="st0" d="M19.4578,46.9354h1.2214v1.6641h.0306c.6259-1.2825,1.4961-1.8933,2.9007-1.8476v1.3741c-2.0917,0-2.8549,1.1756-2.8549,3.1909v3.5114h-1.2977v-7.8929Z"/>
    <path class="st0" d="M28.74,43.9277h7.5267v1.2214h-6.0762v3.4656h5.664v1.2214h-5.664v3.771h6.122v1.2214h-7.5724v-10.9007Z"/>
    <path class="st0" d="M44.3214,54.8284h-1.2977v-1.0687h-.0304c-.4276.8702-1.4199,1.2518-2.5191,1.2518-2.4275,0-3.6335-1.9235-3.6335-4.1526s1.1908-4.1068,3.6029-4.1068c.794,0,1.9847.3054,2.5496,1.2367h.0304v-4.0611h1.2977v10.9007ZM40.6573,53.8666c1.7557,0,2.4122-1.5114,2.4122-2.977,0-1.5421-.7022-2.9924-2.4885-2.9924-1.7709,0-2.3664,1.5114-2.3664,3.0533,0,1.481.7634,2.9162,2.4427,2.9162Z"/>
    <path class="st0" d="M52.4405,54.8284h-1.2214v-1.2518h-.0304c-.5497.9771-1.42,1.4349-2.565,1.4349-2.0763,0-2.7176-1.1906-2.7176-2.8855v-5.1906h1.2977v5.3433c0,.9771.6107,1.5879,1.603,1.5879,1.5726,0,2.3361-1.0536,2.3361-2.4734v-4.4577h1.2976v7.8929Z"/>
    <path class="st0" d="M59.4208,49.4697c-.1985-.9925-.8705-1.5726-1.9542-1.5726-1.878,0-2.4581,1.4961-2.4581,3.084,0,1.4656.6563,2.8855,2.3054,2.8855,1.2671,0,2-.7178,2.1677-1.9238h1.3283c-.2901,1.9388-1.481,3.0686-3.481,3.0686-2.412,0-3.6945-1.6641-3.6945-4.0303s1.2214-4.2291,3.7252-4.2291c1.8015,0,3.206.8397,3.4045,2.7177h-1.3433Z"/>
    <path class="st0" d="M68.952,54.7979c-.2292.1373-.5497.2135-.9313.2135-.672,0-1.0994-.3663-1.0994-1.2214-.7175.8551-1.6792,1.2214-2.7786,1.2214-1.4352,0-2.6105-.6259-2.6105-2.2135,0-1.7864,1.328-2.1834,2.6716-2.4277,1.4199-.2901,2.6563-.1678,2.6563-1.1602,0-1.1452-.9464-1.3129-1.7557-1.3129-1.0991,0-1.9084.3358-1.9692,1.4961h-1.2979c.0765-1.9542,1.5726-2.6412,3.3436-2.6412,1.4199,0,2.9617.3208,2.9617,2.168v4.0611c0,.6105,0,.8855.4123.8855.122,0,.2593-.0307.397-.0765v1.0078ZM66.8451,50.7519c-1.0078.7482-3.9391.0154-3.9391,1.9542,0,.8551.7328,1.1605,1.5268,1.1605,1.7099,0,2.4123-1.0536,2.4123-1.7864v-1.3283Z"/>
    <path class="st0" d="M71.5625,46.9354h1.5726v1.1449h-1.5726v4.9008c0,.6105.1678.7021.9771.7021h.5955v1.1452h-.9925c-1.3433,0-1.878-.2747-1.878-1.7253v-5.0228h-1.3433v-1.1449h1.3433v-2.3665h1.2979v2.3665Z"/>
    <path class="st0" d="M75.4615,45.5156h-1.2979v-1.5879h1.2979v1.5879ZM74.1636,46.9354h1.2979v7.8929h-1.2979v-7.8929Z"/>
    <path class="st0" d="M80.4918,46.752c2.5036,0,3.8319,1.8168,3.8319,4.1376,0,2.3051-1.3283,4.1219-3.8319,4.1219s-3.8322-1.8168-3.8322-4.1219c0-2.3207,1.3283-4.1376,3.8322-4.1376ZM80.4918,53.8666c1.3587,0,2.4578-1.0687,2.4578-2.977s-1.0991-2.9924-2.4578-2.9924-2.4581,1.084-2.4581,2.9924,1.0991,2.977,2.4581,2.977Z"/>
    <path class="st0" d="M85.4917,46.9354h1.2214v1.2518h.0304c.5497-.9771,1.4199-1.4352,2.565-1.4352,2.0762,0,2.7174,1.1909,2.7174,2.8855v5.1909h-1.2976v-5.3436c0-.9771-.6108-1.5876-1.6033-1.5876-1.5723,0-2.3358,1.0533-2.3358,2.4731v4.458h-1.2976v-7.8929Z"/>
  </g>
</svg>