<svg xmlns="http://www.w3.org/2000/svg" width="92.025" height="54.151" viewBox="0 0 92.025 54.151">
  <g id="department-for-education-seeklogo.com_2" data-name="department-for-education-seeklogo.com 2" transform="translate(104.9 -71.8)">
    <path id="Path_1654" data-name="Path 1654" d="M-104.9,71.919h1.321V125.9H-104.9V71.919Zm11.707,28.234h-2.545v8.3h2.545a2.964,2.964,0,0,0,2.469-1.061,5.018,5.018,0,0,0,.834-3.13,4.781,4.781,0,0,0-.845-3.043,2.954,2.954,0,0,0-2.458-1.061Zm-4.018,9.617V98.9h4.148a4.457,4.457,0,0,1,3.487,1.354,5.737,5.737,0,0,1,1.2,3.921,6.142,6.142,0,0,1-1.256,4.126,4.334,4.334,0,0,1-3.5,1.473Zm11.253-4.668h4.343a2.448,2.448,0,0,0-.563-1.711,2.023,2.023,0,0,0-1.57-.606,2.032,2.032,0,0,0-1.549.6,2.725,2.725,0,0,0-.661,1.722Zm4.31,2.112h1.321a3.2,3.2,0,0,1-1.137,2.058,3.581,3.581,0,0,1-2.329.758,3.264,3.264,0,0,1-2.6-1.1,4.454,4.454,0,0,1-.953-3.022,4.811,4.811,0,0,1,.942-3.162,3.2,3.2,0,0,1,2.61-1.137,3.349,3.349,0,0,1,2.643,1.051,4.339,4.339,0,0,1,.931,2.957v.357a1.616,1.616,0,0,1-.022.227h-5.708a2.875,2.875,0,0,0,.617,1.928,2.094,2.094,0,0,0,1.657.682,2.1,2.1,0,0,0,1.343-.422,1.782,1.782,0,0,0,.682-1.17Zm3.866-1.343a3.551,3.551,0,0,0,.585,2.22,2.1,2.1,0,0,0,1.765.747,2.046,2.046,0,0,0,1.733-.812,3.763,3.763,0,0,0,.606-2.318,3.243,3.243,0,0,0-.628-2.123,2.1,2.1,0,0,0-1.722-.78,2.066,2.066,0,0,0-1.733.8,3.659,3.659,0,0,0-.606,2.264Zm-1.256,6.877V101.865h1.3v1.116a3.147,3.147,0,0,1,1.116-1.04,3.1,3.1,0,0,1,1.462-.336,3.114,3.114,0,0,1,2.523,1.137,4.638,4.638,0,0,1,.942,3.054,4.625,4.625,0,0,1-.953,3.076,3.138,3.138,0,0,1-2.523,1.148,3.3,3.3,0,0,1-1.462-.3,2.824,2.824,0,0,1-1.094-.91v3.942Zm13.4-4.029a4.385,4.385,0,0,1-1.321.975,3.523,3.523,0,0,1-1.484.325,2.67,2.67,0,0,1-1.9-.628,2.268,2.268,0,0,1-.682-1.744,2.194,2.194,0,0,1,.671-1.69,3.644,3.644,0,0,1,2.036-.791c.227-.022.542-.054.942-.108a6.9,6.9,0,0,0,1.245-.195.576.576,0,0,0,.3-.227,1.553,1.553,0,0,0,.076-.628,1.045,1.045,0,0,0-.444-.91,2.33,2.33,0,0,0-1.332-.3,2.217,2.217,0,0,0-1.4.368,1.3,1.3,0,0,0-.466,1.094h-1.256V104.2a2.325,2.325,0,0,1,.845-1.9,3.523,3.523,0,0,1,2.318-.693,3.715,3.715,0,0,1,2.339.6,2.243,2.243,0,0,1,.747,1.863v3.964a1.26,1.26,0,0,0,.108.661.476.476,0,0,0,.4.152.666.666,0,0,0,.141-.011c.054-.011.119-.022.206-.032v1.029q-.244.065-.422.1a1.922,1.922,0,0,1-.347.022,1.46,1.46,0,0,1-1-.292,1.117,1.117,0,0,1-.336-.866v-.076Zm-.13-2.967a5.568,5.568,0,0,1-1.819.455l-.682.1a1.788,1.788,0,0,0-1.04.433,1.182,1.182,0,0,0-.314.9,1.138,1.138,0,0,0,.368.91,1.542,1.542,0,0,0,1.051.314,2.757,2.757,0,0,0,1.754-.542,1.683,1.683,0,0,0,.682-1.375v-1.191Zm3.043,4.018v-7.906h1.289v1.419a2.593,2.593,0,0,1,.856-1.191,2.21,2.21,0,0,1,1.332-.4h.217a.544.544,0,0,1,.13.022v1.408a.444.444,0,0,0-.119-.011h-.195a2.162,2.162,0,0,0-1.625.585,2.369,2.369,0,0,0-.552,1.69v4.4l-1.332-.011Zm7.473-1.993a1.2,1.2,0,0,0,.152.715.715.715,0,0,0,.563.173,2.745,2.745,0,0,0,.282-.011,3.712,3.712,0,0,0,.433-.032v1.126c-.217.043-.422.065-.6.087a3.889,3.889,0,0,1-.466.032,1.879,1.879,0,0,1-1.31-.357,1.761,1.761,0,0,1-.379-1.289v-5.307h-1.18v-1.061h1.18v-2.2h1.332v2.209h1.43v1.061h-1.43l-.011,4.852Zm12.26,1.993v-4.863a2.911,2.911,0,0,0-.325-1.635,1.32,1.32,0,0,0-1.126-.444,1.9,1.9,0,0,0-1.495.6,2.41,2.41,0,0,0-.531,1.668v4.679h-1.354v-4.863a2.911,2.911,0,0,0-.325-1.635,1.32,1.32,0,0,0-1.126-.444,1.9,1.9,0,0,0-1.495.606,2.414,2.414,0,0,0-.542,1.668v4.679h-1.332v-7.906h1.267v1.116a2.923,2.923,0,0,1,1.051-.986,2.951,2.951,0,0,1,1.419-.325,2.5,2.5,0,0,1,1.267.3,2.441,2.441,0,0,1,.9.942,3.335,3.335,0,0,1,1.126-.942,3.242,3.242,0,0,1,1.408-.3,3.017,3.017,0,0,1,1.332.282,2.031,2.031,0,0,1,.877.8,2.287,2.287,0,0,1,.238.726,7.93,7.93,0,0,1,.076,1.332V109.8l-1.31-.032Zm3.964-4.668h4.343a2.448,2.448,0,0,0-.563-1.711,2.023,2.023,0,0,0-1.57-.606,2.032,2.032,0,0,0-1.549.6,2.786,2.786,0,0,0-.661,1.722Zm4.321,2.112h1.31a3.2,3.2,0,0,1-1.137,2.058,3.581,3.581,0,0,1-2.328.758,3.264,3.264,0,0,1-2.6-1.1,4.454,4.454,0,0,1-.953-3.022,4.811,4.811,0,0,1,.942-3.162,3.2,3.2,0,0,1,2.61-1.137,3.349,3.349,0,0,1,2.643,1.051,4.285,4.285,0,0,1,.931,2.957v.357a1.616,1.616,0,0,1-.022.227H-39.02a2.875,2.875,0,0,0,.617,1.928,2.094,2.094,0,0,0,1.657.682,2.1,2.1,0,0,0,1.343-.422,1.837,1.837,0,0,0,.693-1.17Zm7.689,2.556v-4.863a2.685,2.685,0,0,0-.357-1.614,1.48,1.48,0,0,0-1.235-.444,2.3,2.3,0,0,0-1.733.628,2.454,2.454,0,0,0-.617,1.787v4.505h-1.332v-7.906h1.267v1.148a3.013,3.013,0,0,1,1.083-1.018,3.118,3.118,0,0,1,1.451-.336,3.669,3.669,0,0,1,1.505.271,1.984,1.984,0,0,1,.942.812,2.184,2.184,0,0,1,.271.671,6.579,6.579,0,0,1,.087,1.235v5.123Zm4.668-1.993a1.2,1.2,0,0,0,.152.715.715.715,0,0,0,.563.173,2.745,2.745,0,0,0,.282-.011c.108-.011.26-.011.433-.032v1.126c-.217.043-.422.065-.6.087a3.889,3.889,0,0,1-.466.032,1.879,1.879,0,0,1-1.31-.357,1.761,1.761,0,0,1-.379-1.289v-5.307h-1.181v-1.061h1.17v-2.2h1.332v2.209h1.43v1.061h-1.43v4.852ZM-96.886,125.7v-6.856h-1.3V117.8h1.3v-1.17a2.157,2.157,0,0,1,.444-1.473,1.728,1.728,0,0,1,1.343-.487c.1,0,.217.011.357.022s.347.043.628.087v1.191c-.141-.022-.26-.043-.357-.054s-.173-.022-.227-.022a.734.734,0,0,0-.65.26,1.865,1.865,0,0,0-.184.986v.661h1.43v1.051h-1.43V125.7Zm4.419-3.964a3.51,3.51,0,0,0,.628,2.253,2.187,2.187,0,0,0,1.809.78,2.144,2.144,0,0,0,1.787-.78,3.555,3.555,0,0,0,.617-2.253,3.542,3.542,0,0,0-.617-2.242,2.144,2.144,0,0,0-1.787-.78,2.187,2.187,0,0,0-1.809.78,3.437,3.437,0,0,0-.628,2.242Zm-1.365,0a4.492,4.492,0,0,1,1-3.1,3.551,3.551,0,0,1,2.783-1.1,3.56,3.56,0,0,1,2.794,1.1,4.473,4.473,0,0,1,1,3.1,4.473,4.473,0,0,1-1,3.1,3.551,3.551,0,0,1-2.783,1.1,3.6,3.6,0,0,1-2.805-1.1,4.5,4.5,0,0,1-.986-3.1Zm8.686,3.964V117.8h1.289v1.419A2.672,2.672,0,0,1-83,118.023a2.21,2.21,0,0,1,1.332-.4h.217a.543.543,0,0,1,.13.022v1.408c-.043,0-.076-.011-.119-.011h-.195a2.146,2.146,0,0,0-1.625.585,2.369,2.369,0,0,0-.552,1.69v4.4l-1.332-.011Zm9.152,0V114.829h7.754v1.354h-6.292v3.249h5.816V120.7h-5.816v3.65h6.422v1.365l-7.884-.011Zm14.263-4.007a3.5,3.5,0,0,0-.6-2.22,2.127,2.127,0,0,0-1.765-.747,2.033,2.033,0,0,0-1.733.812,3.761,3.761,0,0,0-.617,2.318,3.243,3.243,0,0,0,.628,2.123,2.108,2.108,0,0,0,1.733.78,2.066,2.066,0,0,0,1.733-.8,3.589,3.589,0,0,0,.617-2.264Zm1.235-6.866V125.7h-1.289v-1a3.435,3.435,0,0,1-1.148.931,3.244,3.244,0,0,1-1.419.314,3.114,3.114,0,0,1-2.523-1.137,4.607,4.607,0,0,1-.942-3.043,4.691,4.691,0,0,1,.942-3.087,3.092,3.092,0,0,1,2.523-1.148,3.3,3.3,0,0,1,1.462.3,3.072,3.072,0,0,1,1.1.921v-3.931Zm2.913,2.967v4.852a2.635,2.635,0,0,0,.368,1.625,1.511,1.511,0,0,0,1.235.455,2.205,2.205,0,0,0,1.744-.671,2.977,2.977,0,0,0,.585-1.993v-4.256h1.332v7.906h-1.267v-1.18a2.644,2.644,0,0,1-1.072,1.029,3.3,3.3,0,0,1-1.549.347,3.486,3.486,0,0,1-1.44-.282,2.085,2.085,0,0,1-.942-.8,2.184,2.184,0,0,1-.271-.671,6.579,6.579,0,0,1-.087-1.235V117.8Zm12.141,2.621a1.751,1.751,0,0,0-.585-1.256,2.181,2.181,0,0,0-1.44-.444,1.969,1.969,0,0,0-1.668.78,3.637,3.637,0,0,0-.585,2.22,3.753,3.753,0,0,0,.563,2.231,1.864,1.864,0,0,0,1.6.78,2.219,2.219,0,0,0,1.484-.477,2.158,2.158,0,0,0,.693-1.4h1.267a3.187,3.187,0,0,1-1.029,2.274,3.62,3.62,0,0,1-2.48.812,3.136,3.136,0,0,1-2.556-1.116,4.654,4.654,0,0,1-.931-3.054,4.641,4.641,0,0,1,.964-3.108,3.336,3.336,0,0,1,2.664-1.126,3.537,3.537,0,0,1,2.393.78,2.814,2.814,0,0,1,.953,2.112l-1.31-.011Zm7.505,4.224a4.385,4.385,0,0,1-1.321.975,3.523,3.523,0,0,1-1.484.325,2.67,2.67,0,0,1-1.9-.628,2.268,2.268,0,0,1-.682-1.744,2.194,2.194,0,0,1,.671-1.69,3.644,3.644,0,0,1,2.036-.791c.227-.022.542-.054.942-.108a5.992,5.992,0,0,0,1.245-.195.576.576,0,0,0,.3-.227,1.553,1.553,0,0,0,.076-.628,1.045,1.045,0,0,0-.444-.91,2.33,2.33,0,0,0-1.332-.3,2.217,2.217,0,0,0-1.4.368,1.3,1.3,0,0,0-.466,1.094H-42.94v-.054a2.325,2.325,0,0,1,.845-1.9,3.523,3.523,0,0,1,2.318-.693,3.715,3.715,0,0,1,2.339.6,2.235,2.235,0,0,1,.747,1.852v3.953a1.26,1.26,0,0,0,.108.661.477.477,0,0,0,.4.152.666.666,0,0,0,.141-.011c.054-.011.119-.022.206-.033v1.029q-.244.065-.422.1a1.922,1.922,0,0,1-.347.022,1.46,1.46,0,0,1-1-.292,1.117,1.117,0,0,1-.336-.866v-.054Zm-.13-2.967a5.568,5.568,0,0,1-1.819.455l-.682.1a1.788,1.788,0,0,0-1.04.433,1.182,1.182,0,0,0-.314.9,1.138,1.138,0,0,0,.368.91,1.542,1.542,0,0,0,1.051.314,2.757,2.757,0,0,0,1.754-.542,1.683,1.683,0,0,0,.682-1.375v-1.191Zm4.744,2.036a1.16,1.16,0,0,0,.152.7.7.7,0,0,0,.563.173,2.746,2.746,0,0,0,.282-.011,3.712,3.712,0,0,0,.433-.032v1.126c-.217.043-.422.065-.6.087a3.889,3.889,0,0,1-.466.032,1.879,1.879,0,0,1-1.31-.357,1.761,1.761,0,0,1-.379-1.289v-5.307h-1.18v-1.051h1.18v-2.209h1.321v2.209h1.43v1.051h-1.43v4.874Zm2.567-7.375v-1.516h1.332v1.516Zm0,9.368V117.8h1.332V125.7Zm3.877-3.964a3.51,3.51,0,0,0,.628,2.253,2.187,2.187,0,0,0,1.809.78,2.144,2.144,0,0,0,1.787-.78,3.555,3.555,0,0,0,.617-2.253,3.542,3.542,0,0,0-.617-2.242,2.144,2.144,0,0,0-1.787-.78,2.187,2.187,0,0,0-1.809.78,3.437,3.437,0,0,0-.628,2.242Zm-1.365,0a4.492,4.492,0,0,1,1-3.1,3.551,3.551,0,0,1,2.783-1.1,3.56,3.56,0,0,1,2.794,1.1,4.473,4.473,0,0,1,1,3.1,4.473,4.473,0,0,1-1,3.1,3.551,3.551,0,0,1-2.783,1.1,3.56,3.56,0,0,1-2.794-1.1,4.455,4.455,0,0,1-1-3.1Zm14.036,3.964v-4.863a2.685,2.685,0,0,0-.357-1.614,1.48,1.48,0,0,0-1.235-.444,2.3,2.3,0,0,0-1.733.628,2.454,2.454,0,0,0-.617,1.787V125.7h-1.332V117.8h1.267v1.148a3.013,3.013,0,0,1,1.083-1.018,3.118,3.118,0,0,1,1.451-.336,3.669,3.669,0,0,1,1.505.271,1.983,1.983,0,0,1,.942.812,2.079,2.079,0,0,1,.271.671,6.579,6.579,0,0,1,.087,1.235V125.7ZM-87.073,75.331c-.119.238-.227.379-.217.552s.206.314.3.5c.087-.217.217-.379.206-.542s-.249-.39-.292-.509m3.173,0c.119.238.227.379.217.552s-.206.314-.3.5c-.087-.217-.217-.379-.206-.542s.249-.39.292-.509m-5-.141a.217.217,0,0,0,.217-.217.217.217,0,0,0-.217-.217h0a.217.217,0,0,0-.217.217.217.217,0,0,0,.217.217h0m.141.314a.217.217,0,0,0-.217-.217.217.217,0,0,0-.217.217h0a.217.217,0,0,0,.217.217.217.217,0,0,0,.217-.217m.108.52a.217.217,0,0,0-.217-.217.217.217,0,0,0-.217.217h0a.217.217,0,0,0,.217.217.217.217,0,0,0,.217-.217m.942-1.852a.217.217,0,0,0,.217-.217.217.217,0,0,0-.217-.217.217.217,0,0,0-.217.217.217.217,0,0,0,.217.217m-.542.162a.225.225,0,0,0,.227-.206.225.225,0,0,0-.206-.227h-.022a.225.225,0,0,0-.206.227.213.213,0,0,0,.206.206m-.412.368a.217.217,0,0,0,.217-.217h0a.217.217,0,0,0-.217-.217.217.217,0,0,0-.217.217h0a.217.217,0,0,0,.217.217m1.505-.477a.217.217,0,0,0,.217-.217.217.217,0,0,0-.217-.217h0a.217.217,0,0,0-.217.217.233.233,0,0,0,.217.217m.542.152a.217.217,0,0,0,.217-.217.217.217,0,0,0-.217-.217.217.217,0,0,0-.217.217.217.217,0,0,0,.217.217m.5.238A.217.217,0,0,0-85.9,74.4a.217.217,0,0,0-.217-.217h0a.217.217,0,0,0-.217.217.217.217,0,0,0,.217.217m3.823.368a.217.217,0,0,0,.217.217.217.217,0,0,0,.217-.217h0a.217.217,0,0,0-.217-.217.217.217,0,0,0-.217.217m.292.3a.217.217,0,0,0-.217.217.217.217,0,0,0,.217.217h0a.217.217,0,0,0,.217-.217A.217.217,0,0,0-82,75.287m-.108.52a.217.217,0,0,0-.217.217.217.217,0,0,0,.217.217h0a.217.217,0,0,0,.217-.217h0a.217.217,0,0,0-.217-.217m-1.148-1.635a.217.217,0,0,0,.217-.217.217.217,0,0,0-.217-.217.217.217,0,0,0-.217.217.217.217,0,0,0,.217.217m.531.162a.217.217,0,0,0,.292-.1.217.217,0,0,0-.1-.292.217.217,0,0,0-.292.1.217.217,0,0,0,.1.292m.422.368a.217.217,0,0,0,.217-.217.217.217,0,0,0-.217-.217.217.217,0,0,0-.217.217.217.217,0,0,0,.217.217m-1.516-.477a.217.217,0,0,0,.217-.217.217.217,0,0,0-.217-.217.217.217,0,0,0-.217.217.217.217,0,0,0,.217.217m-.531.152a.217.217,0,0,0,.217-.217.217.217,0,0,0-.217-.217.217.217,0,0,0-.217.217.217.217,0,0,0,.217.217m-.715.022a.225.225,0,0,0,.227.206.231.231,0,0,0,.206-.206.217.217,0,0,0-.217-.217.217.217,0,0,0-.217.217m-.791,1.159h.238v-.921a.615.615,0,0,1-.238-.076v1Zm.736-1a.876.876,0,0,1-.238.076v.921h.238Zm-.509-1.007v-.542a.683.683,0,0,0-.531.542Zm.282,0h.52a.657.657,0,0,0-.52-.542v.542Zm-.8.26a.662.662,0,0,0,.8.509.663.663,0,0,0,.509-.509Zm1.029-.9a.747.747,0,0,1-.292-.477.889.889,0,0,1,.487.314v-.736a.889.889,0,0,1-.487.314,1.064,1.064,0,0,1,.282-.531h-.715a1.064,1.064,0,0,1,.282.531.889.889,0,0,1-.487-.314v.736a.889.889,0,0,1,.487-.314.747.747,0,0,1-.292.477Zm.791,14.74a13.631,13.631,0,0,1-2.231-.8v-.011a.571.571,0,0,0-.152-.455.585.585,0,0,0-.422-.206.469.469,0,0,0-.206.043,4.3,4.3,0,0,1-.314-.314,3.781,3.781,0,0,1-.661-1.148,4.443,4.443,0,0,1-.195-.769.686.686,0,0,1-.7.509c.011-.043,0-.152-.032-.162a.528.528,0,0,1-.661.119,4.789,4.789,0,0,0,.249.877,5.077,5.077,0,0,0,.975,1.625,5.448,5.448,0,0,0,.433.433v.087a.684.684,0,0,0,.368.52.517.517,0,0,0,.552-.065,6.509,6.509,0,0,0,1.191.466,5.424,5.424,0,0,0,1.375.217,2.407,2.407,0,0,0,1.191-.422,2.632,2.632,0,0,0,.455-.347c.022-.011.032-.032.043-.043a3.524,3.524,0,0,1-1.256-.152M-86.8,86.648l-.076-.054a.255.255,0,0,0-.357,0,1.078,1.078,0,0,0-.152.162l-.076.087.054.043c.141.108.162.227.119.3-.011.032-.043.043-.076.054a.37.37,0,0,1-.26-.065l-.054-.032-.032.054-.022.043c-.011.022-.022.032-.032.054a.618.618,0,0,0-.087.249.1.1,0,0,0,.011.054.278.278,0,0,0,.13.141h.022c.065.043.152.087.217.13a.373.373,0,0,1-.368.011.562.562,0,0,1-.3-.412,1.159,1.159,0,0,1,.206-.574l.022-.032-.022-.032c-.032-.054-.065-.119-.1-.184a1.394,1.394,0,0,1,.206.043l.032.011.022-.022c.087-.087.368-.379.628-.379a.494.494,0,0,1,.336.162.517.517,0,0,1,.119.26.657.657,0,0,1-.108-.076m.433,1.278a.291.291,0,0,1-.292-.292.291.291,0,0,1,.292-.292.291.291,0,0,1,.292.292.291.291,0,0,1-.292.292m1.267.4a.266.266,0,0,1-.26-.271.271.271,0,0,1,.26-.26.264.264,0,0,1,.26.26.259.259,0,0,1-.26.271m.347,1.332a.549.549,0,0,0-.141.022v-.812a6.211,6.211,0,0,1-1.18-.173v.986a.634.634,0,0,0-.141-.022.457.457,0,0,0-.455.455.825.825,0,0,0,.227.52c.054-.13.1-.227.173-.227.141,0,.076.7.487.726a.385.385,0,0,0-.022.108.326.326,0,0,0,.325.325.326.326,0,0,0,.325-.325.385.385,0,0,0-.022-.108c.412-.022.347-.726.487-.726.065,0,.119.1.173.227a.825.825,0,0,0,.227-.52.459.459,0,0,0-.466-.455m-.726,1.765a.183.183,0,0,1-.184-.184.183.183,0,0,1,.184-.184.183.183,0,0,1,.184.184.2.2,0,0,1-.184.184m.964-1.029a.231.231,0,0,0-.184-.141c-.282,0-.173.726-.5.726a.2.2,0,0,1-.217-.195c0-.1.076-.13.076-.217s-.065-.108-.141-.108-.141.032-.141.108.076.108.076.217a.194.194,0,0,1-.217.195c-.325,0-.217-.726-.5-.726-.065,0-.13.054-.184.141a.684.684,0,0,1-.087-.282.312.312,0,0,1,.314-.314c.368,0,.282.5.455.5a.126.126,0,0,0,.141-.119c0-.141-.26-.282-.26-.487s.184-.379.39-.542c.206.162.39.336.39.542s-.26.336-.26.487a.117.117,0,0,0,.13.119c.173,0,.087-.5.455-.5a.312.312,0,0,1,.314.314.351.351,0,0,1-.054.282" transform="translate(0)" fill="#fff"/>
    <path id="Path_1655" data-name="Path 1655" d="M.3,123.259a.089.089,0,0,0-.108-.054c-.942.271-2.123-.509-3.26-1.267A5.655,5.655,0,0,0-5.7,120.7a1.57,1.57,0,0,0-.758.184,1.3,1.3,0,0,0-.6.693,4.408,4.408,0,0,1-.379.7,1.045,1.045,0,0,0-.227.542.59.59,0,0,0,.195.422,2.064,2.064,0,0,0,.5.336.583.583,0,0,1,.141.076c.184.087.3.152.325.26a6.481,6.481,0,0,1-1.408.4,11.805,11.805,0,0,1-2.025.162,11.767,11.767,0,0,1-2.014-.162,5.779,5.779,0,0,1-1.408-.4c.011-.162.13-.217.336-.314a.991.991,0,0,0,.152-.076,2.521,2.521,0,0,0,.487-.3.529.529,0,0,0,.195-.4,1.045,1.045,0,0,0-.227-.542,4.408,4.408,0,0,1-.379-.7,1.325,1.325,0,0,0-.606-.693,1.57,1.57,0,0,0-.758-.184,5.655,5.655,0,0,0-2.632,1.235c-1.137.758-2.307,1.538-3.26,1.267a.081.081,0,0,0-.108.054.081.081,0,0,0,.054.108h0a3.835,3.835,0,0,1,.791.52,1.807,1.807,0,0,0,1.018.52,2.508,2.508,0,0,0,1.137-.336A11.32,11.32,0,0,0-16,123.346a5.225,5.225,0,0,1,2.253-1.094c-.076.076-.152.141-.217.206a.88.88,0,0,0-.4.7,1.556,1.556,0,0,0,.217.726c.032.076.076.162.119.26a2.158,2.158,0,0,1,.162.531c.022.087.043.184.076.3a1.088,1.088,0,0,0,.671.769,7.74,7.74,0,0,0,3.195.477,7.74,7.74,0,0,0,3.195-.477,1.088,1.088,0,0,0,.671-.769c.032-.119.054-.217.076-.3a4.3,4.3,0,0,1,.162-.531c.065-.13.119-.238.173-.336a1.27,1.27,0,0,0,.206-.617.946.946,0,0,0-.422-.726c-.076-.065-.152-.141-.227-.217a5.225,5.225,0,0,1,2.253,1.094,11.317,11.317,0,0,0,1.159.726,2.507,2.507,0,0,0,1.137.336,1.807,1.807,0,0,0,1.018-.52,4.336,4.336,0,0,1,.791-.52.111.111,0,0,0,.032-.108m-5.686-7.57a1.321,1.321,0,0,1-.368-.422c-.108-.227-.585-1.159-.65-1.278a.517.517,0,0,1-.1-.271.42.42,0,0,1,.1-.249c.032-.043.141-.152.173-.206a.472.472,0,0,1,.087-.108,4.441,4.441,0,0,0-.574-.769,4.243,4.243,0,0,0-.921-.791.656.656,0,0,0,.357-.563.52.52,0,0,0-.184-.4,5.141,5.141,0,0,1,.823-1.657l-.606-.26a.879.879,0,0,1,.13.682.751.751,0,0,1-.336-.455,2.516,2.516,0,0,1-.227.661.543.543,0,0,1,.5-.043.738.738,0,0,1-.769.26c-.217-.054-.433-.162-.422-.336a.2.2,0,0,1,.217-.206c.13.011.141.217.1.3.173-.1.357-.606.087-.682-.217-.054-.412.238-.477.455-.043-.271-.152-.531-.368-.52-.282.022-.184.531-.087.671.022-.184.119-.282.195-.271s.173.054.152.217-.249.271-.52.271a.656.656,0,0,1-.747-.574.98.98,0,0,1,.542.325,3.488,3.488,0,0,1,0-.823.884.884,0,0,1-.531.325.989.989,0,0,1,.444-.574h-1.1a1,1,0,0,1,.444.574.834.834,0,0,1-.52-.325,3.487,3.487,0,0,1,0,.823.953.953,0,0,1,.531-.325.661.661,0,0,1-.747.574c-.271,0-.5-.1-.52-.271a.169.169,0,0,1,.162-.217c.087-.011.184.087.195.271.1-.13.184-.65-.087-.671-.217-.011-.325.249-.368.52-.076-.227-.271-.52-.477-.455-.271.076-.087.585.087.682-.043-.087-.032-.292.1-.3a.208.208,0,0,1,.217.206c.011.162-.206.282-.422.336a.746.746,0,0,1-.769-.249.543.543,0,0,1,.5.043,2.517,2.517,0,0,1-.227-.661.759.759,0,0,1-.347.466.973.973,0,0,1,.13-.693l-.606.26a5.37,5.37,0,0,1,.823,1.657.52.52,0,0,0-.184.4.663.663,0,0,0,.357.563,4.935,4.935,0,0,0-.921.791,5.229,5.229,0,0,0-.975,1.614c.087.087.444.487.531.6a1.055,1.055,0,0,1,.249.531.821.821,0,0,0,.217.574,1.1,1.1,0,0,1,.119.412h3.022V119.4a.474.474,0,0,0-.347.162,10.547,10.547,0,0,0,1.018.368.867.867,0,0,1,.184-.477s-.433-.043-.671-.054v-3.282h2.946a4.059,4.059,0,0,1-.238,1.3,3.781,3.781,0,0,1-.661,1.148,3.038,3.038,0,0,1-.975.769c-.054.032-.054.076-.119.1a.632.632,0,0,0-.141.271,1.057,1.057,0,0,0-.065.3c.141.043.217.065.347.1,1.04.26,1.289.184,1.354.141h0a4.951,4.951,0,0,0,.65-.606,5.28,5.28,0,0,0,.975-1.625,5.6,5.6,0,0,0,.357-1.993,1.338,1.338,0,0,1-.032-.336Zm-4.592.227H-13a4.392,4.392,0,0,1,.238-1.354,3.781,3.781,0,0,1,.661-1.148,3.038,3.038,0,0,1,.975-.769,2.8,2.8,0,0,1,1.137-.282v3.552Zm.054-5.036a3.733,3.733,0,0,0-2.1.563c-.238-.141-.336-.271-.336-.433,0-.574,1.614-.628,2.437-.628h0c.823,0,2.437.054,2.437.628,0,.162-.1.292-.336.433a3.823,3.823,0,0,0-2.1-.563Zm.119,5.036v-3.552a2.9,2.9,0,0,1,1.072.271,3.159,3.159,0,0,1,.975.769,3.781,3.781,0,0,1,.661,1.148,4.093,4.093,0,0,1,.238,1.354l-2.946.011Z" transform="translate(-75.559 -32.636)" fill="#fff"/>
    <path id="Path_1656" data-name="Path 1656" d="M79.061,150.954a.057.057,0,0,1-.032.108,3.352,3.352,0,0,0-.563-1.495l.011-.011a.2.2,0,0,0,.13-.152.2.2,0,0,0-.195.087c-.022-.032-.043-.054-.065-.087a3.027,3.027,0,0,0-.639-.6,2.141,2.141,0,0,0-.715-.325c0-.054.076-.065.108-.011.011-.1-.076-.141-.119-.119a.107.107,0,0,0-.054.076.231.231,0,0,0-.13-.076.184.184,0,0,0,.043.141.078.078,0,0,0-.076.043.11.11,0,0,0,.1.141.061.061,0,0,1,.032-.108v1.159a.194.194,0,0,0-.195.054.2.2,0,0,0,.195.054V151.1c-.065.011-.076-.076-.032-.108a.1.1,0,0,0-.108.13c.011.032.043.054.1.043a.076.076,0,1,0,.076.076.087.087,0,0,0,.043.1.105.105,0,0,0,.13-.108c-.032.043-.108.033-.108-.022h.866a.194.194,0,0,0,.054.195.229.229,0,0,0,.054-.195h.975a.059.059,0,0,1-.108.032.1.1,0,0,0,.13.108c.032-.011.054-.043.043-.1a.189.189,0,0,0,.13.043.179.179,0,0,0-.054-.13.1.1,0,0,0,.1-.043.133.133,0,0,0-.119-.162m-.845-1.527a.09.09,0,0,0-.032.087c.011.032.032.054.087.054a.188.188,0,0,0-.065.119.2.2,0,0,0,.141-.032.084.084,0,0,0,.032.1.093.093,0,0,0,.076,0,3.163,3.163,0,0,1,.444,1.2.209.209,0,0,0-.108-.033.228.228,0,0,0,.054.141h-.736a.1.1,0,0,0-.054-.1.077.077,0,0,0-.1.032.2.2,0,0,0-.054-.13.179.179,0,0,0-.054.13.077.077,0,0,0-.1-.032.081.081,0,0,0-.043.1h-.628a.173.173,0,0,0,.043-.13.208.208,0,0,0-.13.043v-1.018a.1.1,0,0,0,.1-.043.077.077,0,0,0-.032-.1.076.076,0,1,0,0-.108.077.077,0,0,0,.032-.1.081.081,0,0,0-.1-.043V148.7a.165.165,0,0,0,.108.043.218.218,0,0,0-.032-.119,2.534,2.534,0,0,1,1.148.8" transform="translate(-161.932 -68.259)" fill="#fff"/>
    <path id="Path_1657" data-name="Path 1657" d="M-29.136,90.585a.193.193,0,0,0,.087-.076.163.163,0,0,1-.087-.011c.032-.022.065,0,.032-.054s-.054-.054-.1-.022-.271-.011-.271-.184a.146.146,0,0,0,.076.065c.011,0,.022.011.032.011h.032a.137.137,0,0,0,.065.011h.011v-.011a.1.1,0,0,0,.087-.1c.011-.1-.087-.141-.184-.227-.032-.032-.065-.054-.1-.087a.884.884,0,0,0-.1-.26.318.318,0,0,0-.032-.108.312.312,0,0,0,.054.368c.1.108.3.206.3.3a.05.05,0,0,1-.054.043h-.032c-.011,0-.011,0-.022-.011a.082.082,0,0,1-.043-.022.329.329,0,0,1-.076-.054,2.15,2.15,0,0,1-.217-.271.367.367,0,0,1-.032-.347c.065-.1-.043-.292-.108-.336a.245.245,0,0,0,0-.1c-.011.011-.043.011-.065.011-.022-.032-.022-.043-.054-.043s-.043-.033-.043-.043c-.022.022-.032.043-.054.043s-.054,0-.065.011a.062.062,0,0,1-.076.022c-.043,0-.043.022-.032.054s0,.043.032.054h.011l.032.032.022-.043c.022-.011.065-.022.076.022.011.022.011.032-.022.032a.239.239,0,0,0-.087.011c-.022,0-.022.032-.022.043s.022.032.076.022.13-.022.13.022c0,.108-.119.1-.141.227a.471.471,0,0,1-.076-.065.424.424,0,0,0-.087-.108.292.292,0,0,0-.087-.076c-.043-.022-.043-.043-.043-.087s.011-.076.011-.108a.109.109,0,0,1-.011-.032c-.011-.022-.043-.043-.054-.032.011.011.022.011.022.032s-.011.022-.022.022a.02.02,0,0,0,0,.032V89.2h0c-.011-.022-.022-.065-.043-.065H-30.5a.04.04,0,0,0-.065-.022c.011,0,.022,0,.022.011a.04.04,0,0,1-.011.032.047.047,0,0,0,.043.043h.011v.011h0c-.043-.022-.065,0-.065.022v.022c-.022.011-.022.032.011.054a.04.04,0,0,1,.011-.032h.011a.011.011,0,0,0,.011.011.034.034,0,0,0,.022-.011h.011l.011.011V89.3c-.032.032-.022.054.011.065-.022.032-.076.022-.065-.032-.043.065.022.108.087.087,0,.022,0,.065.011.076a.011.011,0,0,1,.011-.011v.011a.035.035,0,0,0,.032.032c0-.011,0-.022.011-.022s.022.032.032.043a.437.437,0,0,0,.206.227.472.472,0,0,0-.152.141c-.032.032-.087.076-.119.054l-.032-.032a.065.065,0,0,0-.043-.011c-.011,0-.011,0-.022.011a.052.052,0,0,0-.065.022c.011,0,.022-.011.043.011v.022c0,.011.011.032.076.032a.011.011,0,0,1,.011.011.04.04,0,0,1-.032.011c-.032-.011-.043-.032-.065,0,0,.011-.011.011-.011.022h-.011c-.022.011-.054.054-.022.076a.043.043,0,0,1,.022-.043.011.011,0,0,0,.011.011c.022.032.043.043.087-.022,0-.011.011,0,0,0,0,.032-.032.076.011.076h.022v.011a.06.06,0,0,0,.076.032c-.011-.011-.032-.011-.043-.043h.022c.022-.022,0-.054.011-.065s.011,0,.011,0,.032.043.065.022a.056.056,0,0,0,.022-.043.167.167,0,0,1,.119-.022c-.011-.022.022-.054.065-.065A.107.107,0,0,1-30,90a.174.174,0,0,1,.043-.076c-.011.184.238.184.3.292a.411.411,0,0,0-.206-.043.244.244,0,0,0-.184.141.243.243,0,0,0,.108.195c-.076.011-.1-.011-.162.011h-.011c-.054.011-.065-.1-.13-.065-.011,0-.011.011-.022.011h0c-.022,0-.065.032-.054.054a.056.056,0,0,1,.043-.022v.011c0,.011,0,.022.022.022a.038.038,0,0,0,.022-.011.011.011,0,0,1,.011.011c0,.022-.087-.011-.065.054a.038.038,0,0,1,.011.022c0,.022.011.043.054.032a.023.023,0,0,1-.022-.022h.011a.011.011,0,0,0,.011-.011h0a.011.011,0,0,1,.011.011v.011s0,.022.011.022c0,.022.032.054.076.022-.011,0-.032-.011-.032-.022s.011,0,.022-.011a.038.038,0,0,0,.011-.022c0-.011,0-.011.011-.011h.022c.011,0,.011,0,.011.011s.032.033.054.022A.023.023,0,0,0-30,90.617c.011.011.022.011.032.022-.011-.022.011-.043.065-.011l.043-.032s.054.022.076,0,.011-.032.011-.065c-.022-.054-.043-.054-.054-.108-.022-.1.108-.141.184-.13a.42.42,0,0,0,.227.26c.087.032.119-.065.152-.054.011,0,.011.011.011.022a.24.24,0,0,1-.011.1c-.011.022-.054,0-.087,0a.04.04,0,0,0-.032.011.07.07,0,0,0-.054.054.056.056,0,0,1,.043-.022v.011a.038.038,0,0,0,.065.022h.011c-.022.011-.054.054-.022.065a.038.038,0,0,0,.022.011c0,.022.011.043.032.043-.011-.011-.011-.022,0-.043h.022c.022,0,.011-.043.043-.054h0c-.011.022-.011.054.011.065h.022a.048.048,0,0,0,.065.022c-.011,0-.022-.011-.032-.022.011-.011.011-.022.022-.022.022-.054-.032-.054-.032-.076s.054-.011.054-.065v-.011c.022-.011.054-.032.054-.054-.032.043-.054.043-.076.032Zm-2.491,1.668h-.054v-.043a.271.271,0,0,0-.292-.3,4.889,4.889,0,0,1-.953.217,1.283,1.283,0,0,1-.574-.184l-.054.141v-.011a.109.109,0,0,0-.108-.108.105.105,0,0,0-.108.119.105.105,0,0,0,.119.108.1.1,0,0,0,.087-.043l-.054.141a.154.154,0,0,0,.065.022A1.879,1.879,0,0,0-32.2,94.159c.13-.033.271-.011.271.13a.115.115,0,0,1-.13.13c-.054,0-.087-.032-.087-.065,0-.065.108-.022.119-.065s-.022-.076-.087-.076a.156.156,0,0,0-.162.152.19.19,0,0,0,.206.195.261.261,0,0,0,.282-.3c.054,0,.108-.011.119-.054l.011-.141-.054-.011.043-1.592h.032c.054,0,.108-.022.108-.087,0-.087-.043-.119-.1-.119m-1.635.119,1.1,1.592a1.561,1.561,0,0,1-1.1-1.592m1.137,1.44-1.007-1.451h.1a.666.666,0,0,0,.152-.011l.8,1.159c-.022.119-.032.217-.043.3m.065-.455-.715-1.018.227-.065.531.758-.043.325m.173-1.126h-.043c-.043,0-.108.022-.108.087a.091.091,0,0,0,.1.1h.032l-.011.043c-.011.087-.032.238-.065.412l-.455-.65a1.865,1.865,0,0,1,.477-.173c.076,0,.1.032.076.184m.065-3.195c.217,0,.325-.065.325-.141,0-.238-.6-.087-.6-.238,0-.022.022-.043.043-.065h.011c.3-.032.3-.227.52-.271-.26-.032-.292.162-.4.173a.168.168,0,0,0,.076-.119c-.054.065-.162.076-.227.152a.065.065,0,0,0-.011.043.1.1,0,0,0-.065.087c0,.227.6.076.6.238,0,.054-.108.1-.271.1-.119,0-.217-.087-.444-.032,0-.032.076-.108.043-.152.022-.011.043-.022.043-.043a.082.082,0,0,0-.043-.022c.011-.011,0-.022-.011-.032l-.011-.032a.116.116,0,0,0-.054-.033.118.118,0,0,0-.054-.011h-.032c-.011,0-.032,0-.032.011a.056.056,0,0,0-.043-.022.137.137,0,0,0-.011.065c-.022,0-.043.054-.065.054.011.011.011.022.022.022-.022.032-.022.065-.043.076,0,.011.011.011.011.022A.374.374,0,0,0-32.58,89a.236.236,0,0,0-.054-.043c-.032-.022-.032-.032-.022-.076s.022-.054.022-.087v-.032c0-.022-.032-.032-.043-.032.011.011.022.011.011.032s-.011.011-.022.011a.02.02,0,0,0,0,.032v.022h0c0-.022-.011-.054-.032-.054h-.022c0-.022-.022-.043-.054-.011.011,0,.022,0,.022.011a.034.034,0,0,0-.011.022c0,.022.011.032.043.032h.011v.011h0c-.043-.022-.065,0-.065.011v.022c-.011.011-.022.032,0,.043,0-.011,0-.022.011-.022h.011l.011.011a.084.084,0,0,0,.032-.011h.011a.011.011,0,0,1,.011.011v.011c-.032.022-.032.054,0,.054,0,0,.011,0,0,.011a.033.033,0,1,1-.065-.011c-.043.054.011.1.076.065h.011a.038.038,0,0,0,.011.022.011.011,0,0,1,.011-.011v.011c0,.011,0,.032.022.032,0-.011,0-.022.011-.022s.022.043.054.076a.61.61,0,0,1-.13.043.361.361,0,0,0-.108,0c-.032.022-.119.054-.141.011-.011-.011,0-.022-.011-.043l-.022-.022h-.022c-.011-.011-.043-.022-.054-.011.011,0,.022,0,.032.022s-.011.011-.011.022,0,.032.054.043c0,0,.011.011,0,.011h-.032c-.022-.022-.022-.043-.043-.022-.011,0-.011,0-.022.011H-33.1c-.022,0-.065.022-.043.054,0-.011.011-.022.032-.022,0,.011,0,.011.011.022,0,.032.022.043.076.011h0c-.011.022-.054.043-.022.065a.011.011,0,0,1,.011.011h0c-.011.032.032.054.043.054a.082.082,0,0,1-.022-.043h.022c.022-.011.011-.043.032-.054h.011a.046.046,0,0,0,.043.043.046.046,0,0,0,.043-.043h0c.011.011.022.022.011.032a.023.023,0,0,0,.022-.022c.011.011.011.032-.011.054a.086.086,0,0,0,.054-.054.038.038,0,0,1,.011.022h0a.124.124,0,0,0,.065,0h0v.032l.011-.011c.011,0,0,.032.022.054.011-.076.054-.054.1-.087h0a.023.023,0,0,1-.022.022c.022,0,.065-.022.065-.043s.011-.011.032-.022.043,0,.054-.022c0,.011.011.032,0,.043.054,0,.108-.054.13-.065.108-.022-.065-.108.162-.087a.154.154,0,0,0,.065-.022c-.022.032-.022.108.022.108a.083.083,0,0,1,.054.022v.011c-.022,0-.032.011-.054.011-.054.032-.054-.087-.119-.065l-.011.011a.07.07,0,0,0-.054.054c.011-.011.022-.022.032-.022v.011c0,.011,0,.022.022.022h.032c0,.022-.065-.011-.054.043a.038.038,0,0,1,.011.022c0,.022.011.032.043.022,0,0-.022-.011-.011-.022h.011l.011-.011h0a.011.011,0,0,1,.011.011l-.011.011s0,.022.011.022a.04.04,0,0,0,.065.022c-.011,0-.032,0-.032-.011a.011.011,0,0,0,.011-.011c.011,0,.011-.011.011-.022h.032c0,.011.022.022.043.022.043-.011.011-.043.032-.054h.022c.032.011.076.011.087-.011s0-.065-.032-.087,0-.032-.022-.065a.314.314,0,0,0,.119.033c.087,0,0-.011.043-.033a.17.17,0,0,1,.1-.011.023.023,0,0,1,.022.022c-.011.043,0,.043,0,.065s-.043,0-.065,0a.038.038,0,0,0-.022.011.047.047,0,0,0-.043.043c.011-.011.022-.011.043-.022V89.3a.03.03,0,0,0,.054.022h.011c-.022.011-.043.043-.022.054a.011.011,0,0,1,.011.011.056.056,0,0,0,.022.043c0-.011-.011-.011,0-.032h.011c.022,0,.011-.032.032-.043h0c-.011.022-.011.043.011.054h.011c.011.022.022.032.054.011,0,0-.022-.011-.022-.022s.011-.011.011-.022c.011-.043-.022-.043-.022-.065s.043-.011.043-.054c0-.011,0-.022-.022-.032h0a.04.04,0,0,0,.032-.011c-.032,0-.022-.022-.032-.043v-.011c.011-.011.022-.022.011-.043-.011.011-.043.032-.054,0,0,0,0-.022-.032-.022-.054,0-.087-.032-.195-.054h0m-.65-.238h0m.152-.032.065.032c-.032.011-.022.022-.043.022a.114.114,0,0,1-.022-.054m-.043-.022c-.011.022-.032.032-.043.011s0-.022-.022-.054a.227.227,0,0,0,.065.043m-.065.141a.023.023,0,0,1,.022-.022c.011,0,.022,0,.022-.011s-.011-.022-.022-.032c.011,0,.022-.011.011-.011s-.022.011-.022,0a.011.011,0,0,1,.011-.011c.011-.011.011,0,.022,0l.054.032a.011.011,0,0,1,.011.011v.022c-.011,0-.011-.022-.011-.022s-.011.011,0,.022a.02.02,0,0,0-.032,0c-.011.011,0,.022,0,.032v.033a.032.032,0,0,1-.043.022c-.032-.032-.032-.054-.022-.065m.91.964c0-.065-.076-.108-.282-.108s-.682.076-.682-.043c0-.054.1-.054.206-.043a.056.056,0,0,0,.043.022c.271.076.6-.065.758-.022-.195-.152-.357.011-.563-.043.119,0,.162-.032.173-.065-.1.065-.271-.032-.379.043-.011,0-.011.011-.022.011-.152,0-.271,0-.271.1,0,.206.563.087.747.087s.217.022.217.054c0,.054-.173.065-.271.065a4.663,4.663,0,0,0-.9-.022c.022-.043.076-.108.043-.141a.072.072,0,0,0,.043-.054.083.083,0,0,0-.054-.022c.011-.011,0-.022-.011-.032l-.011-.032a.167.167,0,0,0-.065-.043c-.032-.011-.054-.011-.065-.022s-.032.011-.043.011-.032,0-.032.011a.083.083,0,0,0-.054-.022A.184.184,0,0,0-33,89.61c-.022,0-.054.065-.076.054.011.022.022.022.022.032-.022.033-.032.087-.054.087q.016.032.032.032a.269.269,0,0,1-.011.087l-.043-.022h-.011c-.011,0-.011,0-.022-.011h.022l-.022-.011a.381.381,0,0,0-.1-.076c-.043-.022-.043-.043-.043-.087s.022-.076.022-.108a.109.109,0,0,1-.011-.033.041.041,0,0,0-.054-.032c.011.011.022.011.022.032l-.022.022a.02.02,0,0,0,0,.032v.032h0c-.011-.022-.022-.065-.043-.065h-.022c0-.032-.032-.054-.065-.011.011,0,.022,0,.022.011s-.011.022-.011.032c0,.032.011.032.043.043h.011v.011h0c-.043-.022-.065,0-.065.022v.022c-.022.011-.022.033.011.054a.04.04,0,0,1,.011-.032h.011l.011.011c.011,0,.011,0,.032-.011h.011a.011.011,0,0,1,.011.011v.011c-.032.032-.032.065.011.065.011,0,.011,0,.011.011-.011.065-.087.043-.076-.011-.043.065.022.119.087.087h.011a.023.023,0,0,0,.022.022.011.011,0,0,1,.011-.011v.011c0,.011,0,.032.022.032,0-.011,0-.022.011-.022s.032.043.087.076.065.065.1.032c0,.043.032.087.022.087a.383.383,0,0,0-.152.011c-.043.022-.141.054-.162.022-.011-.011-.011-.022-.022-.054-.011-.011-.022-.022-.032-.022h-.022a.052.052,0,0,0-.065-.011c.011,0,.022,0,.032.022a.038.038,0,0,1-.011.022c-.011.011,0,.032.054.054,0,0,.011.011,0,.011s-.022.011-.032,0-.032-.043-.054-.032a.038.038,0,0,1-.022.011h-.011c-.022,0-.065.032-.054.065l.032-.032a.038.038,0,0,0,.011.022c.011.032.022.054.087.011.011-.011.011,0,0,0-.022.033-.054.054-.022.076l.011.011h0c-.011.032.032.065.054.065a.083.083,0,0,1-.022-.054h.022c.032-.011.022-.054.032-.065h.011c0,.022.011.054.043.043a.058.058,0,0,0,.054-.054h0a.056.056,0,0,1,.022.043.023.023,0,0,0,.022-.022.051.051,0,0,1-.011.065.07.07,0,0,0,.054-.065c0,.011.011.011.011.022h0a.161.161,0,0,0,.076,0h.011v.032l.011-.022c.011,0,0,.032.022.054.011-.1.054-.054.119-.1h0c0,.011-.011.022-.022.032.065.011.162-.087.184-.13.022,0,.054-.011.065,0,.184.022.054-.162.357-.119a.229.229,0,0,0,.076-.032c-.022.043-.022.119.022.13a.077.077,0,0,1,.065.032v.011a.469.469,0,0,0-.054.011c-.065.043-.065-.1-.13-.065-.011,0-.011.011-.022.011s-.065.033-.054.054a.056.056,0,0,1,.043-.022v.011c0,.011,0,.022.022.022s.011-.011.022-.011a.011.011,0,0,1,.011.011c0,.022-.087-.011-.065.054a.038.038,0,0,1,.011.022c0,.022.011.043.054.033a.023.023,0,0,1-.022-.022h.022a.011.011,0,0,0,.011-.011h0a.011.011,0,0,1,.011.011V90.3s0,.022.011.022a.037.037,0,0,0,.065.022c-.011,0-.032,0-.032-.022a.038.038,0,0,0,.022-.011.038.038,0,0,0,.011-.022.011.011,0,0,1,.011-.011h.032c.011.022.022.033.054.022s.011-.054.043-.065h.022c.032.011.087.011.1-.011a.11.11,0,0,0-.032-.108c-.022-.011,0-.043-.022-.065a.288.288,0,0,0,.13.032.209.209,0,0,0,.162-.043c.043-.032.1-.011.119-.011a.023.023,0,0,1,.022.022c-.011.054,0,.054-.011.076s-.054,0-.076,0a.047.047,0,0,0-.032.011.058.058,0,0,0-.054.054.056.056,0,0,1,.043-.022v.011a.038.038,0,0,0,.065.022h.011c-.022.011-.054.043-.022.054a.038.038,0,0,0,.022.011c0,.022.011.043.032.043-.011-.011-.011-.022,0-.043h.022c.022,0,.011-.043.032-.054h0c-.011.022-.011.054.011.065h.022a.04.04,0,0,0,.054.022s-.022-.011-.022-.022a.038.038,0,0,1,.011-.022c.011-.054-.032-.054-.032-.076s.054-.011.054-.065c0-.011,0-.022-.022-.032h0c.011,0,.032,0,.032-.022-.043,0-.032-.032-.032-.054V90a.064.064,0,0,0,.022-.054c-.011.022-.054.033-.065,0,0,0,0-.032-.043-.022a1.027,1.027,0,0,1-.227-.022c.13.054.336.022.336-.054m-1.646.119h0m.336-.3a.745.745,0,0,0,.087.032c-.043.011-.032.022-.054.022a.037.037,0,0,1-.032-.054m-.054-.022a.04.04,0,0,1-.054.022c-.022-.022,0-.022-.022-.054a.162.162,0,0,1,.076.032m-.076.162c.011-.011.011-.022.022-.022s.022,0,.022-.011-.011-.022-.022-.033c.011,0,.022-.011.011-.022s-.022.011-.032,0,.011-.011.011-.022.011,0,.022,0l.065.033c.011,0,.011.011.011.022v.022c-.011,0-.011-.022-.022-.022s-.011.011,0,.022c-.022,0-.032-.011-.043,0s0,.022,0,.032,0,.022,0,.032-.022.032-.043.022a.048.048,0,0,1,0-.054m.173.368h0m1.17.6c0-.065-.065-.1-.271-.1s-.823.076-.823-.043c0-.076.206-.043.357-.043a.15.15,0,0,0,.043.032c.26.076.531-.1.715-.043-.152-.13-.336.011-.531-.022.119,0,.238-.022.238-.054-.087.054-.336-.043-.444.022-.011,0-.011.011-.022.011-.195,0-.422-.022-.422.087,0,.206.7.087.877.087s.206.022.206.054-.173.054-.26.054a4.97,4.97,0,0,0-1.072-.011c.011-.043.076-.108.043-.152a.072.072,0,0,0,.043-.054.083.083,0,0,0-.054-.022c.011-.011,0-.022-.011-.032l-.011-.032a.642.642,0,0,0-.065-.043.189.189,0,0,0-.054-.011c-.011,0-.032.011-.032,0s-.032,0-.032.011a.082.082,0,0,0-.043-.022.161.161,0,0,0-.011.076c-.022,0-.054.065-.076.054.011.022.011.022.022.022-.022.033-.032.076-.054.076l.022.022c0,.022-.011.043-.011.065l-.022-.011h-.065c-.032,0-.054-.054-.108-.087s-.043-.043-.043-.087.022-.065.011-.1a.109.109,0,0,1-.011-.032c-.011-.022-.032-.043-.054-.032.011.011.022.011.022.032s-.011.011-.011.022a.02.02,0,0,0,0,.032v.022h0c-.011-.022-.022-.065-.043-.065H-33.7a.028.028,0,0,0-.054-.011c.011,0,.022,0,.022.011s0,.022-.011.022c0,.022.022.032.043.032h.011v.011h0c-.043-.022-.065,0-.065.022v.022c-.022.011-.022.032.011.054a.04.04,0,0,1,.011-.032h0l.011.011a.034.034,0,0,0,.022-.011h.011l.011.011v.011c-.032.033-.022.054.011.065a.011.011,0,0,1,.011.011c0,.054-.076.043-.076-.011a.062.062,0,0,0,.087.087h.011a.023.023,0,0,0,.022.022.011.011,0,0,1,.011-.011v.011a.035.035,0,0,0,.032.032c0-.011,0-.022.011-.022a.775.775,0,0,0,.13.119c.011,0,.043,0,.043-.022,0,.011.011.011.022.022a.315.315,0,0,0,.022.087c-.011,0-.141-.011-.162.011s-.13.054-.152.011c-.011-.011-.011-.022-.022-.043s-.022-.022-.032-.022h-.022a.051.051,0,0,0-.065-.011c.011,0,.032.011.032.022a.038.038,0,0,1-.011.022c-.011.011,0,.033.054.054,0,0,.011.011,0,.011s-.022.011-.032,0-.022-.043-.054-.032a.034.034,0,0,0-.022.011h-.011c-.022,0-.065.032-.043.065q0-.016.032-.032v.022c.011.032.022.054.087.011h0c-.011.022-.054.054-.022.076l.011.011h0c-.011.032.032.065.054.054a.083.083,0,0,1-.022-.054c.011,0,.011.011.022,0,.032-.011.022-.043.032-.054h.011a.046.046,0,0,0,.043.043c.032,0,.054-.033.043-.054h0c.011.011.022.022.022.032.011-.011.022-.011.022-.022a.072.072,0,0,1-.011.065c.011,0,.054-.022.054-.054a.038.038,0,0,1,.011.022h0q.016.016.065,0h0v.032l.011-.022c.011,0,0,.032.022.054.011-.087.108-.043.173-.076h.011c0,.011-.011.022-.022.033a.117.117,0,0,0,.076-.033l-.011.011.087-.043v-.022a.04.04,0,0,0,.032-.011h0c.054,0,.054-.043.076-.043.325.043.141-.141.531-.108.022,0,.022-.011.043-.022-.022.043-.022.1.022.108a.077.077,0,0,1,.065.032v.011c-.022,0-.032.011-.054.011-.065.043-.065-.087-.13-.065-.011,0-.011.011-.022.011s-.065.033-.054.054a.056.056,0,0,1,.043-.022v.011c0,.011,0,.022.022.022a.038.038,0,0,0,.022-.011.011.011,0,0,1,.011.011c0,.022-.076-.011-.065.054a.038.038,0,0,1,.011.022c0,.022.011.043.054.033a.023.023,0,0,1-.022-.022h.022a.011.011,0,0,0,.011-.011h0a.011.011,0,0,1,.011.011v.011s0,.022.011.022a.037.037,0,0,0,.065.022c-.011,0-.032,0-.032-.022l.011-.011c.011,0,.011-.011.011-.022a.011.011,0,0,1,.011-.011h.022c.011.022.022.033.054.022s.011-.054.043-.065h.022c.032.011.087.011.1-.011a.093.093,0,0,0-.032-.1c-.022-.011,0-.032-.022-.065a.378.378,0,0,0,.13.032c.1,0,.119-.011.152-.043a.134.134,0,0,1,.108-.011.023.023,0,0,1,.022.022c-.011.043,0,.054-.011.076s-.054,0-.076,0a.047.047,0,0,0-.032.011.044.044,0,0,0-.043.054c.011,0,.022-.022.043-.022v.011c0,.032.043.043.054.022h.011c-.022.011-.054.043-.022.054a.034.034,0,0,1,.022.011c0,.022.011.043.032.043a.02.02,0,0,1,0-.032h.011c.022,0,.011-.043.032-.054h0c-.011.022-.011.054.011.054h.022a.04.04,0,0,0,.054.022.023.023,0,0,1-.022-.022c.011-.011.011-.011.011-.022.011-.054-.022-.054-.022-.065s.054-.011.054-.054c0-.011-.011-.022-.022-.032h0c.011,0,.032,0,.032-.011-.032,0-.022-.032-.032-.054v-.011a.043.043,0,0,0,.011-.054c-.011.022-.054.032-.054,0,0,0,0-.022-.043-.022a.944.944,0,0,1-.217-.022c.152.043.357.022.357-.054m-1.462-.162a.527.527,0,0,0,.076.032c-.032.011-.032.022-.054.022s-.032-.032-.022-.054m-.054-.022c-.011.022-.032.033-.054.011s0-.022-.022-.054a.619.619,0,0,0,.076.043m-.076.162c.011-.011.011-.022.022-.022s.022,0,.022-.011-.011-.022-.022-.032c.011,0,.022-.011.011-.022s-.022.011-.032,0a.011.011,0,0,1,.011-.011c.011-.011.011,0,.022,0l.065.032c.011,0,.011.011.011.022v.022c-.011,0-.011-.022-.022-.022s-.011.011,0,.022c-.011,0-.032-.011-.032,0s0,.022,0,.033v.032c-.011.011-.022.032-.043.022a.079.079,0,0,1-.011-.065m4.451,1.57h0a.116.116,0,0,0,.022-.065c-.011.022-.054.043-.054,0,0,0,0-.022-.032-.022a.963.963,0,0,1-.238-.011c-.011,0-.011-.011,0-.011.119-.011.325-.022.325-.1s-.065-.1-.271-.1-.823.076-.823-.043c0-.076.206-.043.357-.032a.056.056,0,0,0,.043.022c.26.076.552-.119.715-.076-.206-.065-.336.054-.531.011.119,0,.238-.022.238-.054-.087.054-.336-.043-.444.022-.011,0-.011.011-.022.011-.195,0-.422-.022-.422.087,0,.195.7.087.866.087s.206.022.206.054c0,.054-.162.065-.26.065a4.983,4.983,0,0,0-1.072-.011c.011-.043.076-.108.054-.152a.072.072,0,0,0,.043-.054.083.083,0,0,0-.054-.022c.011-.011,0-.022-.011-.032l-.011-.032a.19.19,0,0,0-.054-.043.161.161,0,0,0-.065-.011c-.011,0-.032.011-.032,0s-.032,0-.032.011a.082.082,0,0,0-.043-.022.092.092,0,0,0,0,.076c-.022,0-.054.065-.076.054.011.022.011.022.022.022-.022.032-.032.076-.054.076q.016.033.032.032v.065l-.032-.011H-30.5a.04.04,0,0,1-.032-.011c-.032,0-.054-.054-.108-.087s-.043-.043-.043-.087.022-.065.011-.1c0-.011-.011-.022-.011-.032s-.032-.043-.054-.033c.011.011.022.022.022.033s-.011.022-.022.022a.02.02,0,0,0,0,.033v.032h0c-.011-.022-.022-.065-.043-.065H-30.8a.028.028,0,0,0-.054-.011c.011,0,.022,0,.022.011a.038.038,0,0,1-.011.022c0,.022.022.032.043.032s.011,0,.011.011V91.9h0c-.043-.022-.065,0-.065.022v.022c-.011.011-.022.032.011.054a.04.04,0,0,1,.011-.032h0l.011.011a.034.034,0,0,0,.022-.011h.011l.011.011v.011c-.032.032-.022.065.011.065a.011.011,0,0,1,.011.011c0,.054-.076.043-.076-.011a.062.062,0,0,0,.087.087h.011a.023.023,0,0,0,.022.022.011.011,0,0,1,.011-.011v.011a.035.035,0,0,0,.032.033c0-.011,0-.022.011-.022s.043.087.13.13c0-.011.032-.022.043-.032a.035.035,0,0,0,.032.032l.011-.011c0,.032.043.076.032.076a.431.431,0,0,0-.119,0c-.032.022-.13.054-.162.022-.011-.011-.011-.022-.022-.043s-.022-.022-.032-.022h.022c-.011-.011-.054-.022-.065-.011.011,0,.022,0,.032.022l-.011.022c-.011.011,0,.032.054.054,0,0,.011.011,0,.011s-.022.011-.032,0-.022-.043-.054-.022a.034.034,0,0,0-.022.011h-.011c-.022,0-.065.032-.043.065,0-.011.022-.022.032-.033l.011.022c.011.032.022.054.076.011h0c-.011.022-.054.054-.022.076l.011.011v.011c0,.032.032.065.054.054a.083.083,0,0,1-.022-.054c.011,0,.011.011.022,0,.032-.011.011-.043.032-.054h.011a.046.046,0,0,0,.043.043c.032,0,.054-.032.043-.043h0c.011.011.022.022.011.043.011-.011.022-.011.022-.022a.051.051,0,0,1-.011.065.069.069,0,0,0,.054-.065c.011,0,.011.011.011.022h0q.016.016.065,0h0v.032l.011-.022c.011,0,0,.032.022.054.011-.087.054-.054.108-.087h.011c0,.011-.011.022-.022.033.022.022.1-.033.1-.065,0-.011.032-.011.054-.022.054,0,.054-.043.076-.043.325.043.141-.141.531-.108.022,0,.032-.022.043-.032-.022.032-.022.108.022.119a.094.094,0,0,1,.065.032v.011c-.022,0-.032.011-.054.011-.054.043-.065-.087-.13-.065-.011,0-.011.011-.022.011s-.065.032-.054.054a.056.056,0,0,1,.043-.022v.011c0,.011,0,.022.022.022a.038.038,0,0,0,.022-.011.011.011,0,0,1,.011.011c0,.022-.076-.011-.065.054,0,.011.011.011.011.022s.011.043.043.032c-.011,0-.022-.011-.011-.022h.011a.011.011,0,0,0,.011-.011h0a.011.011,0,0,1,.011.011V92.6a.037.037,0,0,0,.065.022c-.011,0-.032-.011-.032-.022l.022-.011c.011,0,.011-.011.011-.022v-.011h.032c.011.011.022.032.054.022s.011-.054.043-.054h.022c.032.011.087.011.087-.011a.093.093,0,0,0-.032-.1c-.022-.011,0-.032-.022-.065a.379.379,0,0,0,.13.032.209.209,0,0,0,.162-.043.134.134,0,0,1,.108-.011c.011,0,.022.011.011.022-.011.043,0,.054-.011.076s-.043,0-.076,0a.04.04,0,0,0-.032.011.058.058,0,0,0-.054.054.056.056,0,0,1,.043-.022v.011a.03.03,0,0,0,.054.022h.011c-.022.011-.054.043-.032.054l.011.011c0,.022.011.043.022.043s-.011-.022.011-.043h.076c.022,0,.011-.043.043-.054h0c-.011.022-.022.054,0,.054h.011c.011.022.022.032.054.022a.023.023,0,0,1-.022-.022.034.034,0,0,0,.011-.022c.022-.054-.022-.054-.022-.065s.054-.011.054-.054c0-.011-.011-.022-.022-.032h0c.011,0,.032,0,.032-.011s0-.043-.011-.065Zm-1.44-.368c.022.011.054.022.076.032-.032.011-.032.022-.054.022S-30.208,91.96-30.2,91.949Zm-.054-.032a.04.04,0,0,1-.054.022c-.022-.022,0-.022-.022-.054.032.011.065.032.076.032Zm-.076.162c.011-.011.011-.022.022-.022s.022,0,.022-.011-.011-.022-.022-.032c.011,0,.022-.011.011-.022s-.022.011-.022,0,.011-.011.011-.022h.022l.065.032c.011,0,.011.011.011.022v.022c-.011,0-.011-.022-.022-.022s-.011.011,0,.022c-.022,0-.032-.011-.043,0s0,.022.011.032v.032c-.011.011-.022.032-.043.022a.035.035,0,0,1-.022-.054Zm-.054-.087Zm.022-.076Zm.7.91a.149.149,0,0,0,.043.032c.249.076.531-.119.682-.076-.195-.065-.314.054-.509.011.108,0,.227-.022.227-.054-.087.054-.325-.032-.422.022a.011.011,0,0,0-.011.011c-.141,0-.249,0-.249.087,0,.195.509.076.671.076s.141.022.141.043c0,.043-.184.054-.271.054a3.806,3.806,0,0,0-.812-.022c.022-.043.065-.1.043-.13a.072.072,0,0,0,.043-.054.082.082,0,0,0-.043-.022c.011-.011,0-.022-.011-.032l-.011-.032A.236.236,0,0,0-30.2,92.7c-.032-.011-.043-.011-.054-.022h-.032c-.011,0-.032,0-.032.011a.056.056,0,0,0-.043-.022.137.137,0,0,0-.011.065c-.022,0-.043.065-.065.054.011.011.011.022.022.022-.022.032-.032.076-.043.076l.022.022a.161.161,0,0,0-.011.076l-.022-.011h-.011a.131.131,0,0,1-.1-.032.067.067,0,0,1-.043-.076c0-.032.011-.065.011-.1a.04.04,0,0,0-.011-.032.06.06,0,0,0-.054-.032c.011.011.022.022.022.032s-.011.011-.011.022a.02.02,0,0,0,0,.032V92.8h0c-.011-.022-.022-.054-.043-.054h-.011c0-.022-.022-.043-.054-.011.011,0,.022,0,.022.011a.038.038,0,0,1-.011.022c0,.022.022.032.043.032a.011.011,0,0,1,.011.011v.011h0c-.043-.022-.065,0-.065.022v.022c-.011.011-.022.032.011.054,0-.011,0-.022.011-.022h.011a.011.011,0,0,0,.011.011.034.034,0,0,0,.022-.011h.011l.011.011v.011c-.032.032-.022.054.011.065.011,0,.011,0,.011.011,0,.054-.076.043-.076-.011-.043.065.032.108.087.076h0a.023.023,0,0,0,.022.022.011.011,0,0,1,.011-.011v.011c0,.011.011.032.022.032s0-.022.011-.022.011-.022.076.011a.023.023,0,0,0,.022.022l.054-.011c-.011.032.011.1,0,.1a.361.361,0,0,0-.108,0c-.032.022-.119.054-.152.011-.011-.011-.011-.022-.022-.043s-.022-.022-.032-.022h-.022a.066.066,0,0,0-.065-.011c.011,0,.022,0,.032.022s-.011.011-.011.022,0,.033.054.054c0,0,.011.011,0,.011h-.032c-.022-.022-.022-.043-.054-.022a.034.034,0,0,0-.022.011h-.011c-.022,0-.065.032-.043.054,0-.011.022-.022.032-.022V93.3c.011.032.022.054.076.011h.011c-.011.022-.054.054-.022.065l.011.011V93.4a.058.058,0,0,0,.054.054.083.083,0,0,1-.022-.054c.011,0,.011.011.022,0,.032-.011.011-.043.032-.054h.011a.046.046,0,0,0,.043.043.046.046,0,0,0,.043-.043h0c.011.011.022.022.011.033s.022-.011.022-.022c.011.011.011.032-.011.054a.086.086,0,0,0,.054-.054c.011,0,.011.011.011.022h0a.124.124,0,0,0,.065,0h0v.032l.011-.022c.011,0,0,.032.022.054.011-.087.076-.065.13-.1h.011c0,.011-.011.022-.022.032.054.032.119-.043.13-.087.011,0,.011-.011.011-.022,0,.011,0,.022-.011.022.054,0,.054-.043.076-.043.162.011.043-.141.3-.1a.077.077,0,0,0,.065-.032c-.022.032-.022.108.022.119a.116.116,0,0,1,.065.022v.011a.1.1,0,0,0-.054.011c-.054.032-.054-.087-.119-.065-.011,0-.011.011-.022.011a.07.07,0,0,0-.054.054.056.056,0,0,1,.043-.022v.011c0,.011,0,.022.022.022a.038.038,0,0,0,.022-.011.011.011,0,0,1,.011.011c0,.022-.076-.011-.065.054a.038.038,0,0,1,.011.022c0,.022.011.043.043.032-.011,0-.022-.011-.011-.022h.011a.011.011,0,0,0,.011-.011h0a.011.011,0,0,1,.011.011v.011s0,.022.011.022a.04.04,0,0,0,.065.022c-.011,0-.032-.011-.032-.022a.011.011,0,0,0,.011-.011c.011,0,.011-.011.011-.022h.032c.011.011.022.032.043.022.043-.011,0-.054.032-.054h.022c.032.011.076.011.087-.011a.1.1,0,0,0-.032-.1c-.022-.011,0-.032-.022-.065a.384.384,0,0,0,.119.032.35.35,0,0,0,.173-.032.211.211,0,0,1,.108-.011c.011,0,.022.011.011.022-.022.043-.011.054-.022.065s-.043,0-.076,0a.04.04,0,0,0-.032.011c-.022.011-.054.022-.054.054.011,0,.022-.022.043-.022V93.3c0,.032.022.043.054.022h.011c-.022.011-.065.043-.043.054a.011.011,0,0,1,.011.011c-.011.022,0,.043.011.043a.04.04,0,0,1,.011-.032h.011c.022,0,.022-.043.043-.054h0c-.011.022-.022.054-.011.054h.011c0,.022.022.032.054.011a.023.023,0,0,1-.022-.022l.022-.022c.022-.043-.011-.043-.011-.065s.043-.011.065-.054a.04.04,0,0,0-.011-.032h0c.011,0,.022,0,.043-.022-.032,0-.022-.022-.022-.043v-.011a.116.116,0,0,0,.032-.054c-.011.022-.054.033-.054,0,0,0,0-.022-.032-.022-.054,0-.141-.011-.249-.022-.011,0-.011-.011,0-.011.108-.011.336-.022.336-.1,0-.054-.011-.1-.206-.1s-.628.065-.628-.032c.043.011.13.011.227.022m-.628-.011c-.011.022-.032.033-.054.011s0-.022-.022-.054a.232.232,0,0,1,.076.043m.043.108c-.011,0-.011-.022-.011-.022s-.011.011,0,.022c-.011,0-.032-.011-.032,0s0,.022,0,.032,0,.022,0,.032a.032.032,0,0,1-.043.022.027.027,0,0,1-.011-.043c.011-.011.011-.022.022-.022s.022,0,.022-.011-.011-.022-.022-.032c.011,0,.022-.011.011-.022a.015.015,0,0,0-.022,0,.011.011,0,0,1,.011-.011h.022l.065.032c.011,0,.011.011.011.022-.022-.011-.011,0-.022,0m.032-.043c-.022,0-.032-.032-.022-.054a.526.526,0,0,0,.076.032c-.043.011-.032.022-.054.022m.347.834c0,.011.022.022.043.032.249.065.531-.119.682-.076-.195-.065-.314.054-.509.011.108,0,.227-.022.227-.054-.087.054-.325-.043-.422.022-.011,0-.011.011-.022.022-.076.022-.141.054-.141.119,0,.162.628.032.628.087s-.119.087-.292.087a1.593,1.593,0,0,0-.617-.011h0c.022-.043.076-.119.054-.152.022-.011.043-.022.043-.043a.082.082,0,0,0-.043-.022c.011-.011,0-.022-.011-.033a.109.109,0,0,1-.011-.032.116.116,0,0,0-.054-.032c-.022-.011-.043-.011-.054-.022a.109.109,0,0,0-.032.011c-.011,0-.032,0-.032.011-.011-.011-.022-.011-.043-.022a.137.137,0,0,0-.011.065c-.022,0-.043.054-.065.054.011.022.011.022.022.022-.022.032-.022.076-.043.076l.022.022a.715.715,0,0,0-.011.152c-.043-.043-.1-.13-.13-.152s-.032-.043-.032-.076.011-.054.011-.087a.04.04,0,0,0-.011-.032.058.058,0,0,0-.043-.032c.011.011.022.011.022.032s-.011.011-.011.022a.02.02,0,0,0,0,.032v.022h0c-.011-.022-.022-.054-.032-.054h-.011c0-.022-.022-.043-.054-.011.011,0,.022,0,.022.011V93.7c0,.022.011.032.043.032h.011v.011h0c-.043-.022-.054,0-.065.022v.022c-.011.011-.022.032.011.043,0-.011,0-.022.011-.022h.011l.011.011a.034.034,0,0,0,.022-.011h.011a.011.011,0,0,1,.011.011v.011c-.032.022-.022.054.011.065a.011.011,0,0,1,.011.011c0,.054-.076.043-.065-.011a.055.055,0,0,0,.076.076h.011a.023.023,0,0,0,.022.022.011.011,0,0,1,.011-.011V94c0,.011,0,.032.022.032,0-.011,0-.022.011-.022s0,.076.076.119a.082.082,0,0,0,.087.065c.011.032.032.054.022.054a.437.437,0,0,0-.119,0c-.022.011-.054.022-.076.033v0a.137.137,0,0,1-.065-.011c-.011-.011-.011-.022-.011-.043l-.022-.022h-.022c-.011-.011-.043-.022-.054-.011.011,0,.022,0,.032.022s-.011.011-.011.022,0,.033.054.043c0,0,.011.011,0,.011s-.022.011-.032,0-.022-.043-.054-.022l-.011.011h-.011a.044.044,0,0,0-.043.054c0-.011.011-.022.032-.022,0,.011,0,.011.011.022s.011.054.065.011h0c-.011.022-.054.043-.022.065a.011.011,0,0,1,.011.011v.011c-.011.032.032.054.043.054a.056.056,0,0,1-.022-.043c.011,0,.011.011.022,0s.011-.043.032-.054h.011a.046.046,0,0,0,.043.043.046.046,0,0,0,.043-.043h0c.011.011.022.022.011.032A.023.023,0,0,0-30.6,94.4c.011.011.011.032-.011.054a.13.13,0,0,0,.054-.054c0,.011.011.011.011.022h0q.016.016.065,0h0v.032l.011-.022c.011,0,0,.032.022.054.011-.076.054-.043.1-.087h0a.023.023,0,0,1-.022.022c.022,0,.076-.022.076-.054a.391.391,0,0,0,.043-.141h.022c.065,0,.1-.054.162-.054a.259.259,0,0,0-.022.1.135.135,0,0,0,.065.087h0c-.022,0-.032.011-.043.011-.054.032-.054-.087-.108-.065a.011.011,0,0,0-.011.011.058.058,0,0,0-.054.054c.011-.011.022-.022.032-.022v.011c0,.011,0,.022.022.022h.022a.011.011,0,0,1,.011.011c0,.022-.076-.011-.054.043a.038.038,0,0,1,.011.022c0,.022.011.032.043.022-.011-.011-.022-.011-.011-.022h.011a.011.011,0,0,0,.011-.011h0a.011.011,0,0,1,.011.011v.032a.04.04,0,0,0,.065.022c-.011,0-.032,0-.032-.011s.011,0,.011-.011a.038.038,0,0,0,.011-.022v-.011h.011c.011,0,.011,0,.011.011a.056.056,0,0,0,.043.022c.043-.011.011-.043.032-.054h.022q.049.016.065,0c.011-.011,0-.065-.032-.087s.032-.13-.065-.184c.043.011.184.032.206,0,.043.011.087.043.1.043s.011.022,0,.022c-.032.022-.032.032-.054.043h0c-.011-.011-.022-.033-.032-.033s-.022,0-.032,0-.054,0-.054.022c.011,0,.022-.011.043,0v.011c0,.011,0,.011.011.022h0c-.022,0-.065-.011-.054.022v.022c-.011.011-.022.032-.011.043,0-.011.011-.011.022-.022a.011.011,0,0,0,.011.011c.011.011.032-.022.054-.011h0c-.022.011-.043.022-.032.043a.011.011,0,0,0,.011.011.029.029,0,0,0,.022.043c0-.011-.011-.022,0-.032h.022c.043-.022.011-.054.032-.065s.032.022.065,0a.04.04,0,0,0,.011-.032h0c.011.011.022.022.032.011-.022-.022,0-.032.011-.054h.011a.043.043,0,0,0,.043-.022c-.022,0-.065-.022-.032-.032s.054-.043.032-.065c-.032-.043-.1-.043-.108-.1h.022c.217,0,.347-.054.347-.13-.011-.141-.639.011-.639-.1-.011-.087.032-.108.076-.119m-.455.022c.011.011.054.022.065.032-.032.011-.022.022-.043.022s-.032-.043-.022-.054m-.043-.022c-.011.011-.032.032-.043.011s0-.022-.022-.043l.065.032m-.076.141c.011-.011.011-.022.022-.022s.022,0,.022-.011-.011-.022-.022-.032c.011,0,.022-.011.011-.022a.015.015,0,0,0-.022,0c0-.011.011-.011.011-.022h.022l.054.032c.011.011.011.011.011.022v.022c-.011,0,0-.022-.011-.022s-.011.011,0,.022c-.011,0-.022-.011-.032,0s0,.022.011.032v.032a.032.032,0,0,1-.043.022.059.059,0,0,1-.032-.054m-9.736-11.242a.148.148,0,0,0-.152-.152h0a.157.157,0,0,0-.152.162.163.163,0,0,0,.152.152.165.165,0,0,0,.152-.162m-.054-.412a.148.148,0,0,0-.152-.152.154.154,0,0,0-.141.162.161.161,0,0,0,.141.141.148.148,0,0,0,.152-.152h0m.087-.184a.157.157,0,0,0,.162-.152.157.157,0,0,0-.152-.162h-.011a.154.154,0,0,0-.141.162.153.153,0,0,0,.141.152m.412-.022a.157.157,0,0,0,.162-.152.157.157,0,0,0-.152-.162h-.011a.154.154,0,0,0-.141.162.162.162,0,0,0,.141.152m1.755-.282a.145.145,0,0,0,.217,0,.145.145,0,0,0,0-.217h0a.145.145,0,0,0-.217,0,.165.165,0,0,0,0,.217m-.032-.336a.145.145,0,0,0,0-.217.145.145,0,0,0-.217,0,.145.145,0,0,0,0,.217.154.154,0,0,0,.217,0m-.412-.065a.165.165,0,0,0,0-.217.145.145,0,0,0-.217,0,.153.153,0,0,0,0,.217.165.165,0,0,0,.217,0m-.347.26a.145.145,0,0,0,0-.217.165.165,0,0,0-.217,0,.145.145,0,0,0,0,.217.145.145,0,0,0,.217,0m-.986-.217.119.271.152-.184c.011,0,.011.011.022.011.011.087.022.249.022.336a.194.194,0,0,0,.195.195.194.194,0,0,0,.195-.195.205.205,0,0,0-.1-.173,1.947,1.947,0,0,1-.217-.206c0-.011.011-.011.011-.022l.26.022-.108-.282-.195.162a.011.011,0,0,1-.011-.011L-39.414,81l-.271.108.184.217c0,.011-.011.011-.011.022l-.238.011Zm1.787.487a.35.35,0,0,1,.087.217.489.489,0,0,1-.162-.152l.032.357a.3.3,0,0,1,.13-.13c-.011.238-.108.336-.184.347a.151.151,0,0,1-.184-.119h0c-.022-.108.076-.173.162-.076.022-.217-.162-.217-.227-.119a.313.313,0,0,0-.13-.455.344.344,0,0,0,.076.477c-.141-.076-.271.054-.141.206.022-.141.152-.108.173,0s-.065.217-.217.26c-.217.065-.292-.076-.347-.195.032-.032.152-.022.282.054l-.108-.347a.357.357,0,0,1-.217.217.988.988,0,0,1,.065-.3l-.422.173a1.145,1.145,0,0,1,.26.173.366.366,0,0,1-.3,0l.173.325c.032-.141.108-.238.162-.249.043.119.1.271-.108.379-.141.065-.292.043-.336-.043s.011-.206.119-.13c-.022-.195-.195-.195-.249-.043,0-.206-.054-.336-.271-.39a.322.322,0,0,0,.227.422c-.119-.011-.249.108-.087.249,0-.13.108-.152.173-.054a.154.154,0,0,1-.043.206h-.011c-.065.043-.206.043-.379-.119a.351.351,0,0,1,.184,0l-.227-.282a.438.438,0,0,1-.011.217.451.451,0,0,1-.087-.217l-.173.152a2.006,2.006,0,0,1,.585.574,6.927,6.927,0,0,1,.942-.466,8.9,8.9,0,0,1,1-.325,1.954,1.954,0,0,1,.022-.823l-.227.032Zm3.39,9.812c.065-.162-.238-.347-.282-.585a1.172,1.172,0,0,0-.282-.78c-.271-.314-1.191-1.3-1.473-1.614a.423.423,0,0,1,.4.119c.1.1.292.282.477.466a4.887,4.887,0,0,1,.986-1.57c.054-.065.108-.119.173-.184a2.072,2.072,0,0,0-.552.184c-.011-.271.011-.487-.173-.661.076-.379.011-.834-.845-1.4.433.108.693.5,1.029.195-.3-.011-.3-.661-1.386-1.2.412-.011.736.661,1.213.282-.455-.054-.6-.856-1.408-1.094.282.032.574.173.812-.152-.282.065-.444-.195-.747-.217a.978.978,0,0,0-.032-.823,1.035,1.035,0,0,0-.585.206c-.022-.195-.227-.206-.4-.195.011.087.054.206-.043.217a9.366,9.366,0,0,0-1,.3,5,5,0,0,0-.921.5c-.076.054-.141-.065-.184-.13-.13.108-.26.26-.162.4a1.2,1.2,0,0,0-.628.227.728.728,0,0,0,.5.606c-.5.5-.043.953-.487,1.386.617.022.509-.834.823-.964-.032.606-.368.715-.368,1.365,0,.347.206.726.022.953.52-.152.379-1.3.7-1.646a.987.987,0,0,1-.043.585c-.184.531.022,1.267-.26,1.505.531-.054.6-.9,1.029-1.213a25.97,25.97,0,0,1-1.31,3.206c-.9,1.213-1.43,2.7-2.253,2.7a.61.61,0,0,1-.639-.682c0-1.386,2.372-2.328,2.372-3.8a.88.88,0,0,0-.866-.91,1.174,1.174,0,0,0-.726.3,1.187,1.187,0,0,0-.282-.065c-.834,0-.617,1.505-1.343,1.495.292.162.791-.152,1.083-.574-.119.975-1.527.715-1.419,1.884.195-.921,2.437-.78,2.437-2.177a.492.492,0,0,0-.195-.39.875.875,0,0,1,.477-.152c.271,0,.509.195.509.6,0,1.235-2.361,2.274-2.361,3.791a1.092,1.092,0,0,0,.195.639.376.376,0,0,1-.477-.13c-.011.39.542.639.9.444a.927.927,0,0,0,.249.054.67.67,0,0,1-.65.368c.574.455,1.581-.141,1.527-.661a8.348,8.348,0,0,0,1.083-1.419c-.022.1-.043.195-.054.282a5.123,5.123,0,0,0-.747,1.971c-.076.682-.412,1.289-.888,1.289-.108,0-.271-.141-.357-.065-.152.13-.011.26-.011.39,0,.195-.368.379-.368.975,0,.271.152.585.1.769a1.054,1.054,0,0,0,.433-.661c.162.78-.336.747.022,1.451a.283.283,0,0,1,.412-.227c.141.1.076.162-.032.271s-.206.628.271.6c-.087-.054-.1-.195.141-.249.325-.065.422.087.769.087.217,0,.271-.282.444-.282s.173.13.108.227c.271-.076.325-.217.325-.379s-.13-.249-.032-.314.412.011.292.271a.309.309,0,0,0,.249-.347c0-.195-.227-.314-.444-.282-.032-.13-.227-.195-.39-.195-.39,0-.325.3-.6.3-.422,0-.834-.552-.834-1.484,0-.5.531-.628.91-.791a3.306,3.306,0,0,0,1.44-1.235,2.914,2.914,0,0,0,.282-1.776,1.127,1.127,0,0,1,.6,1.072.654.654,0,0,1-.39.661c-.141.065-.195.043-.206.119-.022.108.054.162.119.206.195.1.152.282.206.487a1.526,1.526,0,0,0,.531.747,2.048,2.048,0,0,0,0-.585c.412.206.087,1.029.877,1.029a.2.2,0,0,1-.022-.336c.087-.032.195.054.347.271s.108.195.487.195.206-.13.412-.13.184.227.076.4a.433.433,0,0,0,.325-.617.323.323,0,0,1,.5.227.4.4,0,0,0-.227-.671.226.226,0,0,0-.217-.227c-.119-.011-.238-.011-.379-.011s-.217.206-.379.206a2.2,2.2,0,0,1-1.484-1.3c0-.39.942-.628.942-1.235,0-.791-.78-1.061-1.44-1.57a1.32,1.32,0,0,1,1.31-.13c.043-.217.184-.162.238-.552.141.336,0,.628.141.769.108-.162.39-.141.379-.552.087.26-.108.661.087.834.032-.217.162-.26.238-.26s.152.054.152.184c0,.314-.39.173-.39.531,0,.152.195.206.195.3a.209.209,0,0,1-.347.119.4.4,0,0,0,.347.26.52.52,0,0,0,.433-.314c.087.227.022.477-.141.509.173.087.585,0,.531-.52.227.043.357.195.217.477.195-.043.368-.141.368-.336s-.162-.238-.087-.444M-39.056,84.5c-.217.022-.206-.184-.6-.282a5.969,5.969,0,0,0,.91-.3c.065.26-.032.563-.314.585m1.538,1.625a.424.424,0,0,1-.552-.292c-.054-.173-.1-.3-.032-.368.119-.119.162-.206.087-.357-.087-.173-.26-.087-.455-.043.087-.162.1-.282-.022-.26-.152.022-.152.26-.227.227s-.032-.162-.032-.238c0-.1.065-.141.173-.184l.8-.3c.108-.043.173-.054.249.011.054.054.184.119.141.195s-.206-.087-.325,0c-.1.076-.011.152.162.206-.173.1-.357.173-.3.347.054.152.141.195.314.195.087,0,.152.13.227.292a.417.417,0,0,1-.206.574m.043-2.242c-.217.173-.5.011-.628-.206a7.347,7.347,0,0,0,.877-.4c-.217.325-.076.477-.249.606m18,11.588a.666.666,0,0,0,.682.65.666.666,0,0,0,.65-.65A.673.673,0,0,0-18.8,94.8a.668.668,0,0,0-.671.671m.173,0a.5.5,0,0,1,.5-.5.5.5,0,0,1,.5.5.5.5,0,0,1-.5.5.5.5,0,0,1-.5-.5m-2.664.617a.366.366,0,0,0-.162.249.391.391,0,0,0,.1.336.677.677,0,0,0,.336.184.576.576,0,0,0,.379-.054.407.407,0,0,0,.217-.271.473.473,0,0,0-.433-.509.5.5,0,0,0-.433.065m.3.585c-.195-.032-.325-.173-.3-.314a.213.213,0,0,1,.1-.141.381.381,0,0,1,.292-.054.334.334,0,0,1,.3.282v.032c-.022.152-.195.227-.39.195m-3.964-9.931a.452.452,0,0,0-.141.606h0a.448.448,0,0,0,.617.022.585.585,0,0,0,.206-.336.363.363,0,0,0-.065-.26.33.33,0,0,0-.238-.13.445.445,0,0,0-.379.1m-.043.39a.371.371,0,0,1,.141-.26.374.374,0,0,1,.249-.076.189.189,0,0,1,.13.065.164.164,0,0,1,.032.141.343.343,0,0,1-.141.227.282.282,0,0,1-.379.011.209.209,0,0,1-.032-.108m2.924,7.841a.564.564,0,0,0-.162.4v.011a.548.548,0,0,0,.152.39.388.388,0,0,0,.271.119.427.427,0,0,0,.271-.108.584.584,0,0,0,.162-.4.638.638,0,0,0-.108-.368.362.362,0,0,0-.3-.162.51.51,0,0,0-.282.119Zm.26.758h0a.214.214,0,0,1-.152-.065.36.36,0,0,1-.1-.282.412.412,0,0,1,.108-.282.214.214,0,0,1,.152-.065c.141,0,.249.162.249.357a.412.412,0,0,1-.108.282.259.259,0,0,1-.152.054Zm0,.173Zm-3.52-6.3a.406.406,0,0,0-.227.195.475.475,0,0,0,.282.606.606.606,0,0,0,.433.032.406.406,0,0,0,.227-.195.389.389,0,0,0,.011-.292.552.552,0,0,0-.292-.314.555.555,0,0,0-.433-.033m.141.65a.319.319,0,0,1-.206-.379.2.2,0,0,1,.13-.108.428.428,0,0,1,.3.022.4.4,0,0,1,.206.217.276.276,0,0,1,0,.162.2.2,0,0,1-.13.108.422.422,0,0,1-.3-.022" transform="translate(-54.256 -8.204)" fill="#fff"/>
    <path id="Path_1658" data-name="Path 1658" d="M113.9,85.526c.217.6.65.812.975.661-.736-.087-.141-1.343-1.083-1.343a.64.64,0,0,0-.152.022.764.764,0,0,0-.617-.238,1.179,1.179,0,0,0-1.094,1.18c0,1.722,1.993,1.874,1.993,3.39a.694.694,0,0,1-.715.715c-.336,0-.607-.379-.888-.964a6.6,6.6,0,0,0-.736-1.061.6.6,0,0,0,.292.108.424.424,0,0,0,.282-.1.352.352,0,0,0,.119-.271v-.011a.55.55,0,0,0-.162-.39.532.532,0,0,0-.39-.184.424.424,0,0,0-.282.1.393.393,0,0,0-.119.271v.011a.49.49,0,0,0,.032.173,3.686,3.686,0,0,1-.834-1.408,1.378,1.378,0,0,1,.412-.78l.076.043.065-.065c.076-.087.249-.271.6-.639l.022-.022h0l.087-.087-.217-.173a2.416,2.416,0,0,0,.141-.422c.065.271.206.455.4.4-.13-.282.13-.671-.043-1.365.162.271.4.412.563.357-.444-.39.13-.942-.444-1.787a.341.341,0,0,0,.4-.065c-.531-.076-.282-.747-1.2-.986.227-.043.368-.173.325-.292-.238.173-.455-.325-1.256-.314a1.177,1.177,0,0,0-.639-.769,1.155,1.155,0,0,1-.054.617l-2.6-2.556c-.076-.076-.119-.087-.141-.065s-.022.076.032.13l2.231,2.805c-.173.054-.336.13-.509.195a.307.307,0,0,0-.195.292,4.94,4.94,0,0,0-.964.628c-.141.13-.249.152-.13.433.043.108-.1.368.227.173.217-.13.693-.39.769-.227.043.087-.195.195-.368.26s-.336.184-.314.249.152,0,.162.065a.151.151,0,0,0,.13.141c.065,0,.152-.141.206-.1s-.022.347-.076.433a.513.513,0,0,0,.422-.455c.011-.184.054-.238.1-.26s.087.206.032.336c.13-.032.271-.206.249-.531a.381.381,0,0,1,.184-.1c.087,0,.249.238.5.238a.728.728,0,0,0,.715-.531.468.468,0,0,0-.065-.368.6.6,0,0,1,.206.477c0,.628-1.1.921-1.56,1.354-.022.011-.032.032-.054.043l-.52-.206-.032.119c-.087.292-.173.574-.271.856l-.033.087.043.032a2.919,2.919,0,0,0-.617,1.343c-.13-.13-.249-.238-.379-.347.011-.043.022-.1.032-.141a.49.49,0,0,0-.119-.368.319.319,0,0,0-.238-.119.343.343,0,0,0-.249.1c-.022.011-.033.032-.043.043-.022-.011-.033-.032-.054-.043a4.1,4.1,0,0,1-.509-.433.253.253,0,0,0-.227-.1H105.5c-.076,0-.119.054-.206.141-.043.033-.162.13-.292.227a1.665,1.665,0,0,1,.184.206,1.15,1.15,0,0,1,.1.119l.087-.065a.286.286,0,0,1,.422.1q.39.52.812,1.007a.452.452,0,0,0-.108.043,1.593,1.593,0,0,1-.639.032c-.152-.011-.184-.054-.282.108a2.2,2.2,0,0,1-.141.195c-.054.065-.087.13.022.314.152.26.531.942.661,1.256a.724.724,0,0,0,.52.455,3.383,3.383,0,0,1,.7.39l.022-.238a1.461,1.461,0,0,0-.39-.195c-.087-.032-.108-.065-.011-.065a2.73,2.73,0,0,1,.6.184,1.863,1.863,0,0,0-.412-.628.551.551,0,0,0-.422,0,.1.1,0,0,1-.087.108h-.022a.1.1,0,0,1-.1-.119c.022-.065.13-.1.108-.227s-.184-.152-.292-.162c-.152-.217-.325-.531-.4-.661s-.032-.195.022-.238c.13-.108.39.054.921.087.184.011.412.022.65.032a1.439,1.439,0,0,0,1.17,1.408,1.459,1.459,0,0,1,1,.812c-1.711-.032-1.982.639-1.982,1.267,0,.715.606.671.606,1.213,0,.466-1.44.661-1.874.726a1.262,1.262,0,0,0-.758.314c-.173.173-.357.347-.671.671a1.021,1.021,0,0,0,.271.022l.238-.314c.076-.108.119-.195.173-.184s.011.087-.043.206l-.195.336c.845.054.9-.26.9-.379s-.206-.217-.087-.292.227-.022.325.087.13.206.357.119c0,0,1.841-.758,2.069-.866.206-.1.152-.184.022-.292a.575.575,0,0,1-.162-.487c0-.552.336-.726.931-.715a2.474,2.474,0,0,0-.022.271c0,.866,1.31,1.711,1.668,1.711.162,0,.368-.119.379.4a5.284,5.284,0,0,1,.022,1.1.822.822,0,0,1-.466.7c-.271.184-.52.78-.628.9.119.076.249.087.347-.195a.9.9,0,0,1,.282-.466c-.108.26-.184.639-.227.758.336.054.877-.249.877-.487s-.184-.217-.184-.379a.189.189,0,0,1,.184-.152.3.3,0,0,1,.249.152c.152-.076.238-.227.238-.574,0-.13-.011-.271-.011-.422a.237.237,0,0,0,.033.054.4.4,0,0,0,.3.173.592.592,0,0,0,.368-.1.556.556,0,0,0,.249-.347.238.238,0,0,0,.011-.087.357.357,0,0,0-.065-.206.366.366,0,0,0-.249-.162.543.543,0,0,0-.422.087.617.617,0,0,0-.249.325c-.022-.477-.065-.921-.043-1.094.022-.271.032-.379-.065-.422s-.184.108-.314.108a.864.864,0,0,1-.52-.726c0-.379.4-.856.39-1.375-.011-.162.1-.249.162-.1a2.33,2.33,0,0,0,.368.606c-.108.65.607,1.278,1.191.812-.292.043-.487-.217-.617-.477a.767.767,0,0,0,.162.011h.087a.636.636,0,0,0,1.029-.4.678.678,0,0,1-.52.206,1.026,1.026,0,0,0,.368-.834c0-1.635-1.982-1.83-1.982-3.314a.918.918,0,0,1,.823-.91.506.506,0,0,1,.3.1.726.726,0,0,0-.184.563c.054,1.18,1.971,1.116,2,1.679.26-.866-1.18-.606-1.235-1.755Zm-5.112-4.505c.1-.173,0-.444.325-.444.162,0,.3.162.5.217A1.927,1.927,0,0,0,108.791,81.02Zm-1.755,3.606a.39.39,0,0,1-.1.238.179.179,0,0,1-.13.054.26.26,0,0,1-.195-.282v-.022a.344.344,0,0,1,.1-.238.2.2,0,0,1,.13-.054.147.147,0,0,1,.119.065.291.291,0,0,1,.076.238Zm5.675,8.263a.478.478,0,0,1,.173-.249.377.377,0,0,1,.292-.065.251.251,0,0,1,.141.087h0a.222.222,0,0,1,.022.162.44.44,0,0,1-.173.249.311.311,0,0,1-.433-.022.284.284,0,0,1-.022-.162ZM111.52,87.4a.214.214,0,0,1,.065-.152.259.259,0,0,1,.152-.054.4.4,0,0,1,.271.13.434.434,0,0,1,.119.282.214.214,0,0,1-.065.152h0a.259.259,0,0,1-.152.054.4.4,0,0,1-.271-.13.413.413,0,0,1-.119-.282Zm-3.26-3.693c.1-.292.271-.866.271-.866l.3.119a1.119,1.119,0,0,0-.292.206.3.3,0,0,0,.271-.022l-.119.3c-.033-.043-.108-.162-.195-.173a.3.3,0,0,0,.206.39c.184.1.3.108.357.022a.151.151,0,0,0-.217-.184c-.022-.162.076-.238.173-.238a.2.2,0,0,1,.173.173.491.491,0,0,1,.347-.531.509.509,0,0,1-.173.6.22.22,0,0,1,.26.032c.054.087.032.206-.108.282a.156.156,0,0,0-.282-.076c-.054.108.032.206.195.3a.306.306,0,0,0,.455-.13.363.363,0,0,0-.282.054l.206-.379a.362.362,0,0,0,.13.217.471.471,0,0,0,.011-.368l.433.249a.468.468,0,0,0-.314.195.416.416,0,0,0,.26,0l-.227.357a.421.421,0,0,0-.087-.271.315.315,0,0,0,.119.466c.173.1.292.119.357.022s-.043-.26-.206-.206c-.011-.162.087-.238.195-.227.087.011.141.1.162.206a.506.506,0,0,1,.433-.444.5.5,0,0,1-.292.563.2.2,0,0,1,.238.054c.054.087.022.206-.119.271a.154.154,0,0,0-.271-.1q-.065.13.195.292a.321.321,0,0,0,.444-.022.409.409,0,0,0-.249-.087l.206-.26a.324.324,0,0,0,.119.249,1.069,1.069,0,0,0,.032-.357l.249.206s-.412.433-.606.661l-2.762-1.549Zm2.7,6.78a.279.279,0,1,1-.444-.314.279.279,0,1,1,.444.314Zm.78-1.235a.306.306,0,0,1-.412.119.314.314,0,0,1-.022-.433.306.306,0,0,1,.412-.119.311.311,0,0,1,.022.433Z" transform="translate(-187.167 -4.823)" fill="#fff"/>
  </g>
</svg>
