<svg xmlns="http://www.w3.org/2000/svg" width="252.228" height="125.456" viewBox="0 0 252.228 125.456">
  <g id="layout.logo" transform="translate(0 0)">
    <g id="Group_999" data-name="Group 999">
      <path id="Path_1029" data-name="Path 1029" d="M-2.15-13.88,243-1.431V111.575L-9.229,97.767Z" transform="translate(9.229 13.88)" fill="#8967aa" opacity="0.896"/>
      <g id="Group_1004" data-name="Group 1004" transform="translate(37.104 32.999)">
        <path id="Path_1430" data-name="Path 1430" d="M462.526,294.11h38.6v-38.6h-38.6Zm4.082-34.515h30.433v30.434H466.608Z" transform="translate(-323.123 -255.513)"/>
        <path id="Path_1431" data-name="Path 1431" d="M499.077,276.425l-12.94,12.94-4.33-4.33-2.887,2.886,7.217,7.216,15.826-15.827Z" transform="translate(-331.716 -266.428)" fill="#fff"/>
        <path id="Path_1432" data-name="Path 1432" d="M170.763,328.066v4.072H302.616v-4.072Z" transform="translate(-170.763 -293.423)"/>
        <path id="Path_1433" data-name="Path 1433" d="M258.288,291.34h-4.113V289.8a8.652,8.652,0,0,1-5.564,1.941c-3.236,0-5.8-2.042-5.8-5.322,0-3.313,2.664-4.786,5.192-5.288,0,0,5.066-1.09,6.171-1.339v-.5c0-1.674-1.45-2.141-3.237-2.141-2.394,0-3.17.7-3.17,2.543l-4.113-.168c0-3.983,3.541-5.523,7.283-5.523,3.675,0,7.35.736,7.35,5.556Zm-4.113-8.468c-.724.2-4.215,1.071-4.215,1.071-1.551.335-2.832.737-2.832,2.343,0,1.272,1.18,2.109,2.664,2.109,1.922,0,4.383-.937,4.383-3.112Z" transform="translate(-208.408 -265.204)"/>
        <path id="Path_1434" data-name="Path 1434" d="M177.338,264.506h-6.574v-4.151h17.668v4.151h-6.576v19.681h-4.518Z" transform="translate(-170.763 -258.051)"/>
        <path id="Path_1435" data-name="Path 1435" d="M206.342,283.843a4.321,4.321,0,0,0,4.417,4.15,4.666,4.666,0,0,0,4.514-2.41l3.473,2.009c-1.281,1.941-3.335,4.15-7.987,4.15-5.53,0-8.734-3.816-8.734-8.869s3.2-8.87,8.734-8.87c5.7,0,8.192,3.783,8.192,9.841Zm8.294-3.146a3.849,3.849,0,0,0-3.877-3.347,4.384,4.384,0,0,0-4.417,3.347Z" transform="translate(-187.15 -265.204)"/>
        <path id="Path_1436" data-name="Path 1436" d="M293.362,280.462a3.789,3.789,0,0,0-3.607-2.711c-2.933,0-4.417,2.477-4.417,5.121s1.315,5.121,4.181,5.121c2.462,0,3.507-1.741,4.148-3.28l3.506,1.841c-1.146,2.477-3.1,5.188-7.721,5.188-5.226,0-8.43-3.815-8.43-8.87s3.2-8.87,8.733-8.87a7.206,7.206,0,0,1,7.216,4.82Z" transform="translate(-228.371 -265.204)"/>
        <path id="Path_1437" data-name="Path 1437" d="M320.5,260.356h4.113v8.569h.068a5.994,5.994,0,0,1,4.889-2.076c2.9,0,6.237,1.206,6.237,6.126v11.212h-4.113v-10.04c0-2.344-.944-3.348-3.034-3.348-3.1,0-4.046,2.611-4.046,4.686v8.7H320.5Z" transform="translate(-248.998 -258.051)"/>
        <path id="Path_1438" data-name="Path 1438" d="M360.324,260.356h4.113v4.151h-4.113Zm0,6.9h4.113v16.936h-4.113Z" transform="translate(-269.826 -258.051)"/>
        <path id="Path_1439" data-name="Path 1439" d="M376.275,274.4h4.113v1.674h.068A5.959,5.959,0,0,1,385.109,274c4.046,0,5.867,2.041,5.867,5.757V291.34h-4.113V281c0-1.539-.708-3.046-2.832-3.046-1.99,0-3.642,1.339-3.642,4.452v8.937h-4.113Z" transform="translate(-278.141 -265.205)"/>
        <path id="Path_1440" data-name="Path 1440" d="M425.681,274.4v1.64h-.068A5.627,5.627,0,0,0,420.825,274c-4.247,0-7.417,3.146-7.417,8.233s3.17,8.234,7.417,8.234a6.822,6.822,0,0,0,4.856-1.874s0,.744,0,1.476c0,2.909-1.561,3.7-3.952,3.7-.943,0-3-.336-3.369-2.088h-4.446c.472,2.257,1.448,5.524,7.713,5.524,4.783,0,8.164-1.873,8.164-6.736s.006-16.065.006-16.065Zm-3.911,12.317c-3.1,0-4.046-2.678-4.046-4.485s.944-4.484,4.046-4.484,4.046,2.678,4.046,4.484-.944,4.485-4.046,4.485" transform="translate(-297.539 -265.205)"/>
        <path id="Path_1441" data-name="Path 1441" d="M170.8,353.8h7.345V355.6h-5.392v2.343h4.954v1.706h-4.954v2.661h5.771V364.1H170.8Z" transform="translate(-170.785 -306.841)"/>
        <path id="Path_1442" data-name="Path 1442" d="M187.133,360.065h1.88l1.471,5.063h.029l1.471-5.063h1.881l-2.434,7.319h-1.865Z" transform="translate(-179.344 -310.124)"/>
        <path id="Path_1443" data-name="Path 1443" d="M203.426,363.953a1.867,1.867,0,0,0,1.908,1.793,2.4,2.4,0,0,0,2.128-1.041l1.5.868a4.068,4.068,0,0,1-3.629,1.793,3.834,3.834,0,0,1,0-7.667c2.463,0,3.542,1.635,3.542,4.253Zm3.585-1.36a1.665,1.665,0,0,0-1.676-1.447,1.9,1.9,0,0,0-1.908,1.447Z" transform="translate(-186.906 -309.932)"/>
        <path id="Path_1444" data-name="Path 1444" d="M219.237,359.873h1.777v1.012h.029a2.323,2.323,0,0,1,2.273-1.186v1.794a2.038,2.038,0,0,0-2.3,2.155v3.544h-1.777Z" transform="translate(-196.171 -309.932)"/>
        <path id="Path_1445" data-name="Path 1445" d="M233.642,368.036a2.063,2.063,0,0,1-2.3,1.779,5.554,5.554,0,0,1-1.064-.1v-1.577a3.974,3.974,0,0,0,.7.058.9.9,0,0,0,.991-.622l-2.653-7.507h1.91l1.588,5.323h.029l1.384-5.323h1.836Z" transform="translate(-201.453 -310.124)"/>
        <path id="Path_1446" data-name="Path 1446" d="M253.73,353.8h1.952v8.505h4.212V364.1H253.73Z" transform="translate(-214.119 -306.841)"/>
        <path id="Path_1447" data-name="Path 1447" d="M269.319,363.953a1.867,1.867,0,0,0,1.908,1.793,2.4,2.4,0,0,0,2.128-1.041l1.5.868a4.068,4.068,0,0,1-3.629,1.793,3.834,3.834,0,0,1,0-7.667c2.463,0,3.542,1.635,3.542,4.253Zm3.585-1.36a1.665,1.665,0,0,0-1.676-1.447,1.9,1.9,0,0,0-1.908,1.447Z" transform="translate(-221.29 -309.932)"/>
        <path id="Path_1448" data-name="Path 1448" d="M289.739,362.188a1.957,1.957,0,0,0-1.851-1.041c-.831,0-1.355.274-1.355.709,0,1.273,4.649.188,4.649,2.951,0,1.765-1.588,2.561-3.279,2.561a4.639,4.639,0,0,1-3.57-1.331l1.34-1.027a2.486,2.486,0,0,0,2.127.911c.845,0,1.428-.463,1.428-.853,0-1.244-4.561-.217-4.561-2.995,0-1.649,1.443-2.373,3.264-2.373a3.781,3.781,0,0,1,3.046,1.331Z" transform="translate(-230.111 -309.932)"/>
        <path id="Path_1449" data-name="Path 1449" d="M305.3,362.188a1.957,1.957,0,0,0-1.851-1.041c-.831,0-1.355.274-1.355.709,0,1.273,4.649.188,4.649,2.951,0,1.765-1.588,2.561-3.279,2.561a4.639,4.639,0,0,1-3.57-1.331l1.34-1.027a2.486,2.486,0,0,0,2.128.911c.845,0,1.428-.463,1.428-.853,0-1.244-4.561-.217-4.561-2.995,0-1.649,1.443-2.373,3.264-2.373a3.78,3.78,0,0,1,3.046,1.331Z" transform="translate(-238.243 -309.932)"/>
        <path id="Path_1450" data-name="Path 1450" d="M323.586,363.532a3.775,3.775,0,1,1-3.774-3.833,3.587,3.587,0,0,1,3.774,3.833m-5.683,0a1.93,1.93,0,1,0,1.909-2.213,1.988,1.988,0,0,0-1.909,2.213" transform="translate(-246.678 -309.932)"/>
        <path id="Path_1451" data-name="Path 1451" d="M334.54,359.873h1.777v.723h.03a2.575,2.575,0,0,1,2.01-.9,2.218,2.218,0,0,1,2.536,2.488v5.005h-1.777v-4.47a1.166,1.166,0,0,0-1.224-1.317c-.86,0-1.574.579-1.574,1.924v3.862H334.54Z" transform="translate(-256.348 -309.932)"/>
        <path id="Path_1452" data-name="Path 1452" d="M358.869,360.72A3.635,3.635,0,0,0,362,362.282c.947,0,2.2-.319,2.2-1.317,0-.81-.758-1.041-2.142-1.36l-1.152-.26c-1.661-.376-3.118-.983-3.118-2.879,0-2.169,2.084-3.211,4.021-3.211a5.149,5.149,0,0,1,4.328,2.069l-1.617,1.215a2.907,2.907,0,0,0-2.725-1.49c-1.123,0-1.968.42-1.968,1.143,0,.854.976,1.07,2.142,1.317l1.267.274c1.545.334,3,.956,3,2.908,0,2.517-2.39,3.385-4.547,3.385a5.46,5.46,0,0,1-4.488-2.17Z" transform="translate(-268.189 -306.554)"/>
        <path id="Path_1453" data-name="Path 1453" d="M378.836,353.8h1.777v3.7h.03a2.592,2.592,0,0,1,2.113-.9,2.419,2.419,0,0,1,2.7,2.647V364.1h-1.778v-4.34c0-1.012-.409-1.446-1.312-1.446a1.788,1.788,0,0,0-1.749,2.025V364.1h-1.777Z" transform="translate(-279.496 -306.841)"/>
        <path id="Path_1454" data-name="Path 1454" d="M401.79,365.963a2.1,2.1,0,0,0,.277,1.23h-1.88a1.376,1.376,0,0,1-.175-.665,3.743,3.743,0,0,1-2.4.838,2.311,2.311,0,0,1-2.506-2.3,2.4,2.4,0,0,1,2.244-2.285l.744-.145a18.685,18.685,0,0,0,1.923-.434v-.217c0-.723-.627-.926-1.4-.926-1.035,0-1.37.3-1.37,1.1l-1.777-.073c0-1.721,1.529-2.386,3.147-2.386,1.588,0,3.176.318,3.176,2.4Zm-1.777-2.431a3.833,3.833,0,0,1-.846.26l-.976.2c-.671.145-1.224.318-1.224,1.013,0,.55.511.911,1.151.911.83,0,1.895-.4,1.895-1.345Z" transform="translate(-287.995 -309.932)"/>
        <path id="Path_1455" data-name="Path 1455" d="M412.359,359.873h1.778v.621h.029a3,3,0,0,1,2.1-.8c1.865,0,3.177,1.721,3.177,3.833s-1.312,3.833-3.206,3.833a2.53,2.53,0,0,1-2.1-.882v3.053h-1.778Zm5.217,3.659c0-1.056-.408-2.213-1.749-2.213s-1.749,1.157-1.749,2.213.409,2.213,1.749,2.213,1.749-1.157,1.749-2.213" transform="translate(-297.013 -309.932)"/>
        <path id="Path_1456" data-name="Path 1456" d="M431.306,363.953a1.868,1.868,0,0,0,1.909,1.793,2.4,2.4,0,0,0,2.128-1.041l1.5.868a4.066,4.066,0,0,1-3.628,1.793,3.834,3.834,0,0,1,0-7.667c2.463,0,3.542,1.635,3.542,4.253Zm3.585-1.36a1.665,1.665,0,0,0-1.676-1.447,1.9,1.9,0,0,0-1.909,1.447Z" transform="translate(-305.938 -309.932)"/>
        <path id="Path_1457" data-name="Path 1457" d="M451.727,362.188a1.958,1.958,0,0,0-1.851-1.041c-.83,0-1.355.274-1.355.709,0,1.273,4.649.188,4.649,2.951,0,1.765-1.589,2.561-3.279,2.561a4.638,4.638,0,0,1-3.57-1.331l1.34-1.027a2.487,2.487,0,0,0,2.128.911c.845,0,1.428-.463,1.428-.853,0-1.244-4.561-.217-4.561-2.995,0-1.649,1.443-2.373,3.265-2.373a3.778,3.778,0,0,1,3.045,1.331Z" transform="translate(-314.76 -309.932)"/>
        <path id="Path_1458" data-name="Path 1458" d="M476.84,365.963a2.1,2.1,0,0,0,.277,1.23h-1.88a1.376,1.376,0,0,1-.175-.665,3.743,3.743,0,0,1-2.4.838,2.311,2.311,0,0,1-2.506-2.3,2.4,2.4,0,0,1,2.244-2.285l.744-.145a18.684,18.684,0,0,0,1.923-.434v-.217c0-.723-.627-.926-1.4-.926-1.034,0-1.37.3-1.37,1.1l-1.777-.073c0-1.721,1.529-2.386,3.147-2.386,1.588,0,3.176.318,3.176,2.4Zm-1.777-2.431a3.833,3.833,0,0,1-.846.26l-.976.2c-.671.145-1.224.318-1.224,1.013,0,.55.511.911,1.151.911.831,0,1.895-.4,1.895-1.345Z" transform="translate(-327.12 -309.932)"/>
        <path id="Path_1459" data-name="Path 1459" d="M496.1,353.8h1.953v8.505h4.212V364.1H496.1Z" transform="translate(-340.72 -306.841)"/>
        <path id="Path_1460" data-name="Path 1460" d="M511.508,353.8h1.777V355.6h-1.777Zm0,2.98h1.777V364.1h-1.777Z" transform="translate(-348.797 -306.841)"/>
        <path id="Path_1461" data-name="Path 1461" d="M518.8,358.055h-1.079v-1.272H518.8v-1.158c0-1.489,1.005-1.823,2.172-1.823.393,0,.8.015,1.194.044v1.534a4,4,0,0,0-.582-.043c-.714,0-1.006.289-1.006.926v.521h1.589v1.272h-1.589V364.1H518.8Z" transform="translate(-352.056 -306.841)"/>
        <path id="Path_1462" data-name="Path 1462" d="M529.945,363.953a1.868,1.868,0,0,0,1.909,1.793,2.4,2.4,0,0,0,2.128-1.041l1.5.868a4.066,4.066,0,0,1-3.628,1.793,3.834,3.834,0,0,1,0-7.667c2.463,0,3.542,1.635,3.542,4.253Zm3.585-1.36a1.665,1.665,0,0,0-1.676-1.447,1.9,1.9,0,0,0-1.909,1.447Z" transform="translate(-357.483 -309.932)"/>
      </g>
    </g>
  </g>
</svg>
