<?xml version="1.0" encoding="UTF-8"?>
<svg width="218px" height="82px" viewBox="0 0 218 82" version="1.1" xmlns="http://www.w3.org/2000/svg" xmlns:xlink="http://www.w3.org/1999/xlink">
    <title>Group</title>
    <g id="Page-1" stroke="none" stroke-width="1" fill="none" fill-rule="evenodd">
        <g id="Group">
            <rect id="Rectangle" x="0" y="0" width="218" height="82"></rect>
            <g id="getintoteachinglogo-compact" transform="translate(20.000000, 22.000000)" fill="#000000" fill-rule="nonzero">
                <path d="M139.403,38.6 L178.003,38.6 L178.003,0 L139.403,0 L139.403,38.6 Z M143.485,4.085 L173.918,4.085 L173.918,34.519 L143.485,34.519 L143.485,4.085 Z" id="Path_1430"></path>
                <polygon id="Path_1431" points="167.361 10 154.421 22.94 150.091 18.61 147.204 21.496 154.421 28.712 170.247 12.885"></polygon>
                <polygon id="Path_1432" points="0 34.646 0 38.718 131.853 38.718 131.853 34.646"></polygon>
                <path d="M49.88,26.139 L45.767,26.139 L45.767,24.599 C44.1965927,25.8771285 42.2276521,26.563993 40.203,26.54 C36.967,26.54 34.403,24.498 34.403,21.218 C34.403,17.905 37.067,16.432 39.595,15.93 C39.595,15.93 44.661,14.84 45.766,14.591 L45.766,14.091 C45.766,12.417 44.316,11.95 42.529,11.95 C40.135,11.95 39.359,12.65 39.359,14.493 L35.246,14.325 C35.246,10.342 38.787,8.802 42.529,8.802 C46.204,8.802 49.879,9.538 49.879,14.358 L49.88,26.139 Z M45.767,17.671 C45.043,17.871 41.552,18.742 41.552,18.742 C40.001,19.077 38.72,19.479 38.72,21.085 C38.72,22.357 39.9,23.194 41.384,23.194 C43.306,23.194 45.767,22.257 45.767,20.082 L45.767,17.671 Z" id="Path_1433"></path>
                <polygon id="Path_1434" points="6.575 6.458 0.001 6.458 0.001 2.307 17.669 2.307 17.669 6.458 11.093 6.458 11.093 26.139 6.575 26.139"></polygon>
                <path d="M19.192,18.642 C19.2847287,20.9990928 21.2507074,22.8462315 23.609,22.792 C25.459269,22.9589331 27.2322809,22.0123317 28.123,20.382 L31.596,22.391 C30.315,24.332 28.261,26.541 23.609,26.541 C18.079,26.541 14.875,22.725 14.875,17.672 C14.875,12.619 18.075,8.802 23.609,8.802 C29.309,8.802 31.801,12.585 31.801,18.643 L19.192,18.642 Z M27.486,15.496 C27.2312578,13.5576039 25.5638194,12.1181103 23.609,12.149 C21.5287873,12.0745834 19.6830417,13.4732047 19.192,15.496 L27.486,15.496 Z" id="Path_1435"></path>
                <path d="M64.992,15.261 C64.5174696,13.6618906 63.0529941,12.5611995 61.385,12.55 C58.452,12.55 56.968,15.027 56.968,17.671 C56.968,20.315 58.283,22.792 61.149,22.792 C63.611,22.792 64.656,21.051 65.297,19.512 L68.803,21.353 C67.657,23.83 65.703,26.541 61.082,26.541 C55.856,26.541 52.652,22.726 52.652,17.671 C52.652,12.616 55.852,8.801 61.385,8.801 C64.5965518,8.61692306 67.5411393,10.58379 68.601,13.621 L64.992,15.261 Z" id="Path_1436"></path>
                <path d="M71.502,2.308 L75.615,2.308 L75.615,10.877 L75.683,10.877 C76.9003796,9.46130553 78.707944,8.69376536 80.572,8.801 C83.472,8.801 86.809,10.007 86.809,14.927 L86.809,26.139 L82.696,26.139 L82.696,16.099 C82.696,13.755 81.752,12.751 79.662,12.751 C76.562,12.751 75.616,15.362 75.616,17.437 L75.616,26.137 L71.502,26.137 L71.502,2.308 Z" id="Path_1437"></path>
                <path d="M90.498,2.308 L94.611,2.308 L94.611,6.459 L90.498,6.459 L90.498,2.308 Z M90.498,9.208 L94.611,9.208 L94.611,26.144 L90.498,26.144 L90.498,9.208 Z" id="Path_1438"></path>
                <path d="M98.134,9.198 L102.247,9.198 L102.247,10.872 L102.315,10.872 C103.477433,9.51912772 105.184766,8.75811135 106.968,8.798 C111.014,8.798 112.835,10.839 112.835,14.555 L112.835,26.138 L108.722,26.138 L108.722,15.798 C108.722,14.259 108.014,12.752 105.89,12.752 C103.9,12.752 102.248,14.091 102.248,17.204 L102.248,26.141 L98.135,26.141 L98.134,9.198 Z" id="Path_1439"></path>
                <path d="M128.143,9.198 L128.143,10.838 L128.075,10.838 C126.908259,9.4164315 125.12047,8.65471694 123.287,8.798 C119.04,8.798 115.87,11.944 115.87,17.031 C115.87,22.118 119.04,25.265 123.287,25.265 C125.089723,25.3066563 126.835616,24.6328912 128.143,23.391 C128.143,23.391 128.143,24.135 128.143,24.867 C128.143,27.776 126.582,28.567 124.191,28.567 C123.248,28.567 121.191,28.231 120.822,26.479 L116.376,26.479 C116.848,28.735 117.824,32.003 124.088,32.003 C128.871,32.003 132.252,30.13 132.252,25.267 C132.252,20.404 132.258,9.202 132.258,9.202 L128.143,9.198 Z M124.232,21.515 C121.132,21.515 120.186,18.837 120.186,17.03 C120.186,15.223 121.13,12.546 124.232,12.546 C127.334,12.546 128.278,15.224 128.278,17.03 C128.278,18.836 127.334,21.515 124.232,21.515" id="Path_1440"></path>
            </g>
        </g>
    </g>
</svg>