<?xml version="1.0" encoding="UTF-8"?>
<svg width="178px" height="60px" viewBox="0 0 178 60" version="1.1" xmlns="http://www.w3.org/2000/svg" xmlns:xlink="http://www.w3.org/1999/xlink">
    <title>getintoteachinglogo</title>
    <g id="Page-1" stroke="none" stroke-width="1" fill="none" fill-rule="evenodd">
        <g id="getintoteachinglogo" transform="translate(0.000000, -0.003000)" fill="#FFFFFF" fill-rule="nonzero">
            <path d="M139.403,38.6 L178.003,38.6 L178.003,0 L139.403,0 L139.403,38.6 Z M143.485,4.085 L173.918,4.085 L173.918,34.519 L143.485,34.519 L143.485,4.085 Z" id="Path_1430"></path>
            <polygon id="Path_1431" points="167.361 10 154.421 22.94 150.091 18.61 147.204 21.496 154.421 28.712 170.247 12.885"></polygon>
            <polygon id="Path_1432" points="0 34.646 0 38.718 131.853 38.718 131.853 34.646"></polygon>
            <path d="M49.88,26.139 L45.767,26.139 L45.767,24.599 C44.1965927,25.8771285 42.2276521,26.563993 40.203,26.54 C36.967,26.54 34.403,24.498 34.403,21.218 C34.403,17.905 37.067,16.432 39.595,15.93 C39.595,15.93 44.661,14.84 45.766,14.591 L45.766,14.091 C45.766,12.417 44.316,11.95 42.529,11.95 C40.135,11.95 39.359,12.65 39.359,14.493 L35.246,14.325 C35.246,10.342 38.787,8.802 42.529,8.802 C46.204,8.802 49.879,9.538 49.879,14.358 L49.88,26.139 Z M45.767,17.671 C45.043,17.871 41.552,18.742 41.552,18.742 C40.001,19.077 38.72,19.479 38.72,21.085 C38.72,22.357 39.9,23.194 41.384,23.194 C43.306,23.194 45.767,22.257 45.767,20.082 L45.767,17.671 Z" id="Path_1433"></path>
            <polygon id="Path_1434" points="6.575 6.458 0.001 6.458 0.001 2.307 17.669 2.307 17.669 6.458 11.093 6.458 11.093 26.139 6.575 26.139"></polygon>
            <path d="M19.192,18.642 C19.2847287,20.9990928 21.2507074,22.8462315 23.609,22.792 C25.459269,22.9589331 27.2322809,22.0123317 28.123,20.382 L31.596,22.391 C30.315,24.332 28.261,26.541 23.609,26.541 C18.079,26.541 14.875,22.725 14.875,17.672 C14.875,12.619 18.075,8.802 23.609,8.802 C29.309,8.802 31.801,12.585 31.801,18.643 L19.192,18.642 Z M27.486,15.496 C27.2312578,13.5576039 25.5638194,12.1181103 23.609,12.149 C21.5287873,12.0745834 19.6830417,13.4732047 19.192,15.496 L27.486,15.496 Z" id="Path_1435"></path>
            <path d="M64.992,15.261 C64.5174696,13.6618906 63.0529941,12.5611995 61.385,12.55 C58.452,12.55 56.968,15.027 56.968,17.671 C56.968,20.315 58.283,22.792 61.149,22.792 C63.611,22.792 64.656,21.051 65.297,19.512 L68.803,21.353 C67.657,23.83 65.703,26.541 61.082,26.541 C55.856,26.541 52.652,22.726 52.652,17.671 C52.652,12.616 55.852,8.801 61.385,8.801 C64.5965518,8.61692306 67.5411393,10.58379 68.601,13.621 L64.992,15.261 Z" id="Path_1436"></path>
            <path d="M71.502,2.308 L75.615,2.308 L75.615,10.877 L75.683,10.877 C76.9003796,9.46130553 78.707944,8.69376536 80.572,8.801 C83.472,8.801 86.809,10.007 86.809,14.927 L86.809,26.139 L82.696,26.139 L82.696,16.099 C82.696,13.755 81.752,12.751 79.662,12.751 C76.562,12.751 75.616,15.362 75.616,17.437 L75.616,26.137 L71.502,26.137 L71.502,2.308 Z" id="Path_1437"></path>
            <path d="M90.498,2.308 L94.611,2.308 L94.611,6.459 L90.498,6.459 L90.498,2.308 Z M90.498,9.208 L94.611,9.208 L94.611,26.144 L90.498,26.144 L90.498,9.208 Z" id="Path_1438"></path>
            <path d="M98.134,9.198 L102.247,9.198 L102.247,10.872 L102.315,10.872 C103.477433,9.51912772 105.184766,8.75811135 106.968,8.798 C111.014,8.798 112.835,10.839 112.835,14.555 L112.835,26.138 L108.722,26.138 L108.722,15.798 C108.722,14.259 108.014,12.752 105.89,12.752 C103.9,12.752 102.248,14.091 102.248,17.204 L102.248,26.141 L98.135,26.141 L98.134,9.198 Z" id="Path_1439"></path>
            <path d="M128.143,9.198 L128.143,10.838 L128.075,10.838 C126.908259,9.4164315 125.12047,8.65471694 123.287,8.798 C119.04,8.798 115.87,11.944 115.87,17.031 C115.87,22.118 119.04,25.265 123.287,25.265 C125.089723,25.3066563 126.835616,24.6328912 128.143,23.391 C128.143,23.391 128.143,24.135 128.143,24.867 C128.143,27.776 126.582,28.567 124.191,28.567 C123.248,28.567 121.191,28.231 120.822,26.479 L116.376,26.479 C116.848,28.735 117.824,32.003 124.088,32.003 C128.871,32.003 132.252,30.13 132.252,25.267 C132.252,20.404 132.258,9.202 132.258,9.202 L128.143,9.198 Z M124.232,21.515 C121.132,21.515 120.186,18.837 120.186,17.03 C120.186,15.223 121.13,12.546 124.232,12.546 C127.334,12.546 128.278,15.224 128.278,17.03 C128.278,18.836 127.334,21.515 124.232,21.515" id="Path_1440"></path>
            <polygon id="Path_1441" points="0.015 46.962 7.36 46.962 7.36 48.762 1.968 48.762 1.968 51.105 6.922 51.105 6.922 52.811 1.968 52.811 1.968 55.472 7.739 55.472 7.739 57.262 0.015 57.262"></polygon>
            <polygon id="Path_1442" points="7.79 49.944 9.67 49.944 11.141 55.007 11.17 55.007 12.641 49.944 14.522 49.944 12.088 57.263 10.223 57.263"></polygon>
            <path d="M16.521,54.024 C16.5611253,55.0422068 17.4102663,55.8401679 18.429,55.817 C19.2720997,55.8686527 20.0802805,55.4732973 20.557,54.776 L22.057,55.644 C21.2516426,56.8437883 19.8702618,57.5262947 18.428,57.437 C16.3349543,57.4031939 14.6559173,55.6968187 14.6559173,53.6035 C14.6559173,51.5101813 16.3349543,49.8038061 18.428,49.77 C20.891,49.77 21.97,51.405 21.97,54.023 L16.521,54.024 Z M20.106,52.664 C19.9954599,51.8262528 19.274911,51.204156 18.43,51.217 C17.5318329,51.1874201 16.7357711,51.791142 16.522,52.664 L20.106,52.664 Z" id="Path_1443"></path>
            <path d="M23.066,49.944 L24.843,49.944 L24.843,50.956 L24.872,50.956 C25.323159,50.1405004 26.2180225,49.6735809 27.145,49.77 L27.145,51.564 C26.5397556,51.484187 25.9306074,51.6799015 25.4851157,52.0973079 C25.0396239,52.5147143 24.8047128,53.1098466 24.845,53.719 L24.845,57.263 L23.068,57.263 L23.066,49.944 Z" id="Path_1444"></path>
            <path d="M32.189,57.915 C32.0415573,59.0393365 31.0143002,59.8338975 29.889,59.694 C29.5319434,59.6949456 29.1756277,59.6614573 28.825,59.594 L28.825,58.018 C29.056164,58.0579565 29.2904121,58.0773656 29.525,58.076 C29.9634255,58.1409629 30.3838834,57.877063 30.516,57.454 L27.863,49.947 L29.773,49.947 L31.361,55.27 L31.39,55.27 L32.774,49.947 L34.61,49.947 L32.189,57.915 Z" id="Path_1445"></path>
            <polygon id="Path_1446" points="39.611 46.962 41.563 46.962 41.563 55.467 45.775 55.467 45.775 57.262 39.611 57.262"></polygon>
            <path d="M48.03,54.024 C48.0701253,55.0422068 48.9192663,55.8401679 49.938,55.817 C50.7810997,55.8686527 51.5892805,55.4732973 52.066,54.776 L53.566,55.644 C52.7606426,56.8437883 51.3792618,57.5262947 49.937,57.437 C47.8439543,57.4031939 46.1649173,55.6968187 46.1649173,53.6035 C46.1649173,51.5101813 47.8439543,49.8038061 49.937,49.77 C52.4,49.77 53.479,51.405 53.479,54.023 L48.03,54.024 Z M51.615,52.664 C51.5044599,51.8262528 50.783911,51.204156 49.939,51.217 C49.0408329,51.1874201 48.2447711,51.791142 48.031,52.664 L51.615,52.664 Z" id="Path_1447"></path>
            <path d="M59.628,52.259 C59.2692955,51.5782931 58.5449954,51.1709476 57.777,51.218 C56.946,51.218 56.422,51.492 56.422,51.927 C56.422,53.2 61.071,52.115 61.071,54.878 C61.071,56.643 59.483,57.439 57.792,57.439 C56.466306,57.5270293 55.1664945,57.0424217 54.222,56.108 L55.562,55.081 C56.077855,55.7162251 56.8732767,56.0569065 57.689,55.992 C58.534,55.992 59.117,55.529 59.117,55.139 C59.117,53.895 54.556,54.922 54.556,52.144 C54.556,50.495 55.999,49.771 57.82,49.771 C58.9863691,49.7206181 60.1106028,50.2118706 60.866,51.102 L59.628,52.259 Z" id="Path_1448"></path>
            <path d="M67.058,52.259 C66.6992955,51.5782931 65.9749954,51.1709476 65.207,51.218 C64.376,51.218 63.852,51.492 63.852,51.927 C63.852,53.2 68.501,52.115 68.501,54.878 C68.501,56.643 66.913,57.439 65.222,57.439 C63.896306,57.5270293 62.5964945,57.0424217 61.652,56.108 L62.992,55.081 C63.5080618,55.7165303 64.3039352,56.0572449 65.12,55.992 C65.965,55.992 66.548,55.529 66.548,55.139 C66.548,53.895 61.987,54.922 61.987,52.144 C61.987,50.495 63.43,49.771 65.251,49.771 C66.4173976,49.7204656 67.5416954,50.2117461 68.297,51.102 L67.058,52.259 Z" id="Path_1449"></path>
            <path d="M76.908,53.603 C76.8760823,55.6801554 75.1718838,57.3411806 73.0945933,57.3198 C71.0173027,57.2984194 69.347654,55.6026686 69.3584445,53.5252963 C69.36934,51.447924 71.0565994,49.7696949 73.134,49.77 C74.1615735,49.7138202 75.1637809,50.1016958 75.8858046,50.8350071 C76.6078282,51.5683183 76.9801118,52.5764215 76.908,53.603 M71.225,53.603 C71.3759049,54.6210158 72.2990422,55.3415445 73.3232306,55.2407145 C74.347419,55.1398845 75.1123254,54.2531702 75.0618126,53.2252708 C75.0112999,52.1973715 74.1631397,51.389926 73.134,51.39 C72.5791954,51.4084574 72.057377,51.6580421 71.6947875,52.0783725 C71.3321979,52.4987029 71.161866,53.0514903 71.225,53.603" id="Path_1450"></path>
            <path d="M78.192,49.944 L79.969,49.944 L79.969,50.667 L79.999,50.667 C80.5003539,50.081052 81.2380091,49.7507586 82.009,49.767 C82.7001083,49.6604947 83.4009734,49.8861373 83.900131,50.3758472 C84.3992886,50.865557 84.6382811,51.5619829 84.545,52.255 L84.545,57.26 L82.768,57.26 L82.768,52.79 C82.8136367,52.4451889 82.7029554,52.0980072 82.466171,51.8432317 C82.2293866,51.5884563 81.8912246,51.4526916 81.544,51.473 C80.684,51.473 79.97,52.052 79.97,53.397 L79.97,57.259 L78.192,57.259 L78.192,49.944 Z" id="Path_1451"></path>
            <path d="M90.68,54.169 C91.3879369,55.1907687 92.5689085,55.7799343 93.811,55.731 C94.758,55.731 96.011,55.412 96.011,54.414 C96.011,53.604 95.253,53.373 93.869,53.054 L92.717,52.794 C91.056,52.418 89.599,51.811 89.599,49.915 C89.599,47.746 91.683,46.704 93.62,46.704 C95.3154405,46.6384579 96.9343398,47.4123725 97.948,48.773 L96.331,49.988 C95.7863249,49.0070738 94.7257636,48.4271705 93.606,48.498 C92.483,48.498 91.638,48.918 91.638,49.641 C91.638,50.495 92.614,50.711 93.78,50.958 L95.047,51.232 C96.592,51.566 98.047,52.188 98.047,54.14 C98.047,56.657 95.657,57.525 93.5,57.525 C91.7418256,57.5666727 90.0712165,56.7589139 89.012,55.355 L90.68,54.169 Z" id="Path_1452"></path>
            <path d="M99.341,46.962 L101.118,46.962 L101.118,50.662 L101.148,50.662 C101.673734,50.0492994 102.45494,49.7165565 103.261,49.762 C103.991327,49.6727204 104.722587,49.9206831 105.247982,50.4357642 C105.773376,50.9508453 106.035785,51.6770471 105.961,52.409 L105.961,57.262 L104.183,57.262 L104.183,52.922 C104.183,51.91 103.774,51.476 102.871,51.476 C102.359532,51.4826379 101.875397,51.7080143 101.541049,52.0951249 C101.2067,52.4822356 101.054156,52.9940079 101.122,53.501 L101.122,57.262 L99.345,57.262 L99.341,46.962 Z" id="Path_1453"></path>
            <path d="M113.796,56.034 C113.76017,56.462694 113.856862,56.89205 114.073,57.264 L112.193,57.264 C112.079326,57.0607163 112.019113,56.8319049 112.018,56.599 C111.340257,57.1497623 110.491264,57.4462027 109.618,57.437 C108.973971,57.4915375 108.336533,57.2738823 107.860353,56.8368458 C107.384173,56.3998094 107.112771,55.7833338 107.112,55.137 C107.168128,53.9146546 108.134871,52.9302482 109.356,52.852 L110.1,52.707 C110.74819,52.5962703 111.390083,52.4514021 112.023,52.273 L112.023,52.056 C112.023,51.333 111.396,51.13 110.623,51.13 C109.588,51.13 109.253,51.43 109.253,52.23 L107.476,52.157 C107.476,50.436 109.005,49.771 110.623,49.771 C112.211,49.771 113.799,50.089 113.799,52.171 L113.796,56.034 Z M112.019,53.603 C111.747985,53.7220425 111.464093,53.8092906 111.173,53.863 L110.197,54.063 C109.526,54.208 108.973,54.381 108.973,55.076 C108.973,55.626 109.484,55.987 110.124,55.987 C110.954,55.987 112.019,55.587 112.019,54.642 L112.019,53.603 Z" id="Path_1454"></path>
            <path d="M115.347,49.944 L117.125,49.944 L117.125,50.565 L117.154,50.565 C117.723913,50.0363272 118.476789,49.7495174 119.254,49.765 C121.119,49.765 122.431,51.486 122.431,53.598 C122.431,55.71 121.119,57.431 119.225,57.431 C118.424759,57.4865397 117.645593,57.15929 117.125,56.549 L117.125,59.602 L115.347,59.602 L115.347,49.944 Z M120.564,53.603 C120.564,52.547 120.156,51.39 118.815,51.39 C117.474,51.39 117.066,52.547 117.066,53.603 C117.066,54.659 117.475,55.816 118.815,55.816 C120.155,55.816 120.564,54.659 120.564,53.603" id="Path_1455"></path>
            <path d="M125.368,54.024 C125.408656,55.0423641 126.258088,55.8401807 127.277,55.817 C128.1201,55.8686527 128.92828,55.4732973 129.405,54.776 L130.905,55.644 C130.100105,56.8437851 128.718998,57.5263444 127.277,57.437 C125.183954,57.4031939 123.504917,55.6968187 123.504917,53.6035 C123.504917,51.5101813 125.183954,49.8038061 127.277,49.77 C129.74,49.77 130.819,51.405 130.819,54.023 L125.368,54.024 Z M128.953,52.664 C128.84246,51.8262528 128.121911,51.204156 127.277,51.217 C126.378463,51.1869381 125.581847,51.790764 125.368,52.664 L128.953,52.664 Z" id="Path_1456"></path>
            <path d="M136.967,52.259 C136.608106,51.5784776 135.883936,51.1712055 135.116,51.218 C134.286,51.218 133.761,51.492 133.761,51.927 C133.761,53.2 138.41,52.115 138.41,54.878 C138.41,56.643 136.821,57.439 135.131,57.439 C133.805287,57.5271599 132.505423,57.0425329 131.561,56.108 L132.901,55.081 C133.417169,55.716388 134.212964,56.0570689 135.029,55.992 C135.874,55.992 136.457,55.529 136.457,55.139 C136.457,53.895 131.896,54.922 131.896,52.144 C131.896,50.495 133.339,49.771 135.161,49.771 C136.327109,49.7204738 137.4511,50.2117812 138.206,51.102 L136.967,52.259 Z" id="Path_1457"></path>
            <path d="M149.721,56.034 C149.68517,56.462694 149.781862,56.89205 149.998,57.264 L148.118,57.264 C148.004326,57.0607163 147.944113,56.8319049 147.943,56.599 C147.265257,57.1497623 146.416264,57.4462027 145.543,57.437 C144.898971,57.4915375 144.261533,57.2738823 143.785353,56.8368458 C143.309173,56.3998094 143.037771,55.7833338 143.037,55.137 C143.093128,53.9146546 144.059871,52.9302482 145.281,52.852 L146.025,52.707 C146.673191,52.5962739 147.315084,52.4514057 147.948,52.273 L147.948,52.056 C147.948,51.333 147.321,51.13 146.548,51.13 C145.514,51.13 145.178,51.43 145.178,52.23 L143.401,52.157 C143.401,50.436 144.93,49.771 146.548,49.771 C148.136,49.771 149.724,50.089 149.724,52.171 L149.721,56.034 Z M147.944,53.603 C147.672985,53.7220425 147.389093,53.8092906 147.098,53.863 L146.122,54.063 C145.451,54.208 144.898,54.381 144.898,55.076 C144.898,55.626 145.409,55.987 146.049,55.987 C146.88,55.987 147.944,55.587 147.944,54.642 L147.944,53.603 Z" id="Path_1458"></path>
            <polygon id="Path_1459" points="155.381 46.962 157.334 46.962 157.334 55.467 161.546 55.467 161.546 57.262 155.381 57.262"></polygon>
            <path d="M162.711,46.962 L164.488,46.962 L164.488,48.762 L162.711,48.762 L162.711,46.962 Z M162.711,49.942 L164.488,49.942 L164.488,57.262 L162.711,57.262 L162.711,49.942 Z" id="Path_1460"></path>
            <path d="M166.744,51.217 L165.665,51.217 L165.665,49.945 L166.744,49.945 L166.744,48.787 C166.744,47.298 167.749,46.964 168.916,46.964 C169.309,46.964 169.716,46.979 170.11,47.008 L170.11,48.542 C169.917306,48.5135149 169.722788,48.4991434 169.528,48.499 C168.814,48.499 168.522,48.788 168.522,49.425 L168.522,49.946 L170.111,49.946 L170.111,51.218 L168.522,51.218 L168.522,57.262 L166.744,57.262 L166.744,51.217 Z" id="Path_1461"></path>
            <path d="M172.462,54.024 C172.502656,55.0423641 173.352088,55.8401807 174.371,55.817 C175.2141,55.8686527 176.02228,55.4732973 176.499,54.776 L177.999,55.644 C177.194105,56.8437851 175.812998,57.5263444 174.371,57.437 C172.277954,57.4031939 170.598917,55.6968187 170.598917,53.6035 C170.598917,51.5101813 172.277954,49.8038061 174.371,49.77 C176.834,49.77 177.913,51.405 177.913,54.023 L172.462,54.024 Z M176.047,52.664 C175.93646,51.8262528 175.215911,51.204156 174.371,51.217 C173.472463,51.1869381 172.675847,51.790764 172.462,52.664 L176.047,52.664 Z" id="Path_1462"></path>
        </g>
    </g>
</svg>