<svg xmlns="http://www.w3.org/2000/svg" width="210" height="66.858" viewBox="0 0 210 66.858">
  <g id="Group_914" data-name="Group 914" transform="translate(0 -0.001)">
    <path id="Path_1395" data-name="Path 1395" d="M1241.871,613.112h43.371V569.741h-43.371Zm4.587-38.784h34.2v34.2h-34.2Z" transform="translate(-1078.666 -569.74)" fill="#161615"/>
    <path id="Path_1396" data-name="Path 1396" d="M1280.744,590.432,1266.2,604.973l-4.866-4.865-3.244,3.243,8.109,8.108,17.783-17.784Z" transform="translate(-1086.122 -579.251)" fill="#fff"/>
    <path id="Path_1397" data-name="Path 1397" d="M953.17,641.531v4.576h148.162v-4.576Z" transform="translate(-953.17 -602.737)" fill="#161615"/>
    <path id="Path_1398" data-name="Path 1398" d="M1041.854,607.517h-4.621v-1.73a9.722,9.722,0,0,1-6.252,2.181c-3.637,0-6.516-2.295-6.516-5.98,0-3.724,2.993-5.378,5.834-5.943,0,0,5.693-1.224,6.934-1.5v-.565c0-1.88-1.629-2.406-3.637-2.406-2.689,0-3.562.789-3.562,2.858l-4.623-.188c0-4.476,3.979-6.206,8.184-6.206,4.129,0,8.258.827,8.258,6.244ZM1037.233,598c-.814.221-4.736,1.2-4.736,1.2-1.743.376-3.183.828-3.183,2.633,0,1.429,1.327,2.37,2.994,2.37,2.159,0,4.925-1.053,4.925-3.5Z" transform="translate(-984.443 -578.148)" fill="#161615"/>
    <path id="Path_1399" data-name="Path 1399" d="M953.211,667h8.253v2.016h-6.059v2.633h5.567v1.918h-5.567v2.991h6.484v2.016h-8.679Z" transform="translate(-953.189 -614.443)" fill="#161615"/>
    <path id="Path_1400" data-name="Path 1400" d="M969.368,673.2h2.112l1.654,5.689h.033l1.654-5.689h2.113L974.2,681.42h-2.1Z" transform="translate(-960.615 -617.292)" fill="#161615"/>
    <path id="Path_1401" data-name="Path 1401" d="M985.741,677.612a2.1,2.1,0,0,0,2.144,2.016,2.691,2.691,0,0,0,2.392-1.17l1.687.975a4.571,4.571,0,0,1-4.078,2.016,4.308,4.308,0,0,1,0-8.615c2.768,0,3.98,1.837,3.98,4.779Zm4.027-1.528a1.871,1.871,0,0,0-1.884-1.626,2.128,2.128,0,0,0-2.144,1.626Z" transform="translate(-967.176 -617.124)" fill="#161615"/>
    <path id="Path_1402" data-name="Path 1402" d="M1001.135,673.029h2v1.137h.033a2.611,2.611,0,0,1,2.554-1.333v2.016a2.29,2.29,0,0,0-2.587,2.421v3.983h-2Z" transform="translate(-975.215 -617.124)" fill="#161615"/>
    <path id="Path_1403" data-name="Path 1403" d="M1015.97,682.152a2.318,2.318,0,0,1-2.587,2,6.237,6.237,0,0,1-1.2-.113v-1.771a4.5,4.5,0,0,0,.786.064,1.008,1.008,0,0,0,1.114-.7l-2.981-8.435h2.145l1.784,5.981h.034l1.556-5.981h2.063Z" transform="translate(-979.799 -617.292)" fill="#161615"/>
    <path id="Path_1404" data-name="Path 1404" d="M1035.266,667h2.193v9.558h4.733v2.016h-6.926Z" transform="translate(-989.273 -614.443)" fill="#161615"/>
    <path id="Path_1405" data-name="Path 1405" d="M1050.943,677.612a2.1,2.1,0,0,0,2.144,2.016,2.689,2.689,0,0,0,2.391-1.17l1.687.975a4.571,4.571,0,0,1-4.078,2.016,4.308,4.308,0,0,1,0-8.615c2.768,0,3.979,1.837,3.979,4.779Zm4.028-1.528a1.871,1.871,0,0,0-1.884-1.626,2.128,2.128,0,0,0-2.144,1.626Z" transform="translate(-995.232 -617.124)" fill="#161615"/>
    <path id="Path_1406" data-name="Path 1406" d="M1071.622,675.629a2.2,2.2,0,0,0-2.079-1.17c-.934,0-1.522.308-1.522.8,0,1.43,5.224.211,5.224,3.316,0,1.983-1.785,2.877-3.685,2.877a5.211,5.211,0,0,1-4.012-1.5l1.506-1.154a2.792,2.792,0,0,0,2.391,1.024c.949,0,1.6-.52,1.6-.958,0-1.4-5.125-.244-5.125-3.365,0-1.853,1.621-2.666,3.668-2.666a4.249,4.249,0,0,1,3.423,1.5Z" transform="translate(-1002.581 -617.124)" fill="#161615"/>
    <path id="Path_1407" data-name="Path 1407" d="M1087.021,675.629a2.2,2.2,0,0,0-2.079-1.17c-.934,0-1.522.308-1.522.8,0,1.43,5.224.211,5.224,3.316,0,1.983-1.786,2.877-3.685,2.877a5.211,5.211,0,0,1-4.012-1.5l1.506-1.154a2.792,2.792,0,0,0,2.391,1.024c.949,0,1.6-.52,1.6-.958,0-1.4-5.125-.244-5.125-3.365,0-1.853,1.621-2.666,3.668-2.666a4.249,4.249,0,0,1,3.423,1.5Z" transform="translate(-1009.352 -617.124)" fill="#161615"/>
    <path id="Path_1408" data-name="Path 1408" d="M1105.4,677.14a4.242,4.242,0,1,1-4.241-4.307,4.031,4.031,0,0,1,4.241,4.307m-6.386,0a2.168,2.168,0,1,0,2.145-2.486,2.234,2.234,0,0,0-2.145,2.486" transform="translate(-1016.364 -617.124)" fill="#161615"/>
    <path id="Path_1409" data-name="Path 1409" d="M1115.228,673.029h2v.812h.033a2.892,2.892,0,0,1,2.259-1.008c1.966,0,2.849.992,2.849,2.8v5.625h-2v-5.023a1.31,1.31,0,0,0-1.376-1.48c-.966,0-1.769.651-1.769,2.162v4.34h-2Z" transform="translate(-1024.434 -617.124)" fill="#161615"/>
    <path id="Path_1410" data-name="Path 1410" d="M1139.526,674.844a4.083,4.083,0,0,0,3.52,1.755c1.065,0,2.473-.358,2.473-1.479,0-.911-.852-1.17-2.407-1.528l-1.294-.293c-1.866-.423-3.5-1.1-3.5-3.235,0-2.437,2.341-3.608,4.519-3.608a5.784,5.784,0,0,1,4.864,2.325l-1.817,1.365a3.267,3.267,0,0,0-3.062-1.674c-1.262,0-2.211.472-2.211,1.284,0,.96,1.1,1.2,2.407,1.479l1.424.309c1.736.374,3.374,1.074,3.374,3.268,0,2.828-2.685,3.8-5.109,3.8a6.134,6.134,0,0,1-5.043-2.438Z" transform="translate(-1034.241 -614.194)" fill="#161615"/>
    <path id="Path_1411" data-name="Path 1411" d="M1159.059,667h2v4.161h.033a2.913,2.913,0,0,1,2.375-1.008,2.718,2.718,0,0,1,3.03,2.974v5.446h-2v-4.877c0-1.137-.459-1.626-1.475-1.626a2.01,2.01,0,0,0-1.965,2.276v4.226h-2Z" transform="translate(-1043.702 -614.443)" fill="#161615"/>
    <path id="Path_1412" data-name="Path 1412" d="M1182.67,679.872a2.362,2.362,0,0,0,.311,1.381h-2.113a1.55,1.55,0,0,1-.2-.747,4.206,4.206,0,0,1-2.7.942,2.6,2.6,0,0,1-2.816-2.584c0-1.609,1.294-2.325,2.522-2.568l.835-.162a21.056,21.056,0,0,0,2.161-.488V675.4c0-.813-.705-1.04-1.572-1.04-1.162,0-1.539.34-1.539,1.235l-2-.082c0-1.934,1.719-2.681,3.536-2.681,1.785,0,3.57.358,3.57,2.7Zm-2-2.732a4.258,4.258,0,0,1-.95.292l-1.1.228c-.754.163-1.376.357-1.376,1.138,0,.618.574,1.024,1.294,1.024.933,0,2.129-.455,2.129-1.512Z" transform="translate(-1050.771 -617.124)" fill="#161615"/>
    <path id="Path_1413" data-name="Path 1413" d="M1192.231,673.028h2v.7h.033a3.379,3.379,0,0,1,2.358-.894c2.1,0,3.569,1.934,3.569,4.307s-1.474,4.307-3.6,4.307a2.845,2.845,0,0,1-2.359-.991v3.43h-2Zm5.862,4.112c0-1.187-.458-2.486-1.965-2.486s-1.965,1.3-1.965,2.486.459,2.487,1.965,2.487,1.965-1.3,1.965-2.487" transform="translate(-1058.276 -617.124)" fill="#161615"/>
    <path id="Path_1414" data-name="Path 1414" d="M1211.229,677.612a2.1,2.1,0,0,0,2.145,2.016,2.691,2.691,0,0,0,2.392-1.17l1.685.975a4.569,4.569,0,0,1-4.077,2.016,4.308,4.308,0,0,1,0-8.615c2.768,0,3.979,1.837,3.979,4.779Zm4.029-1.528a1.87,1.87,0,0,0-1.884-1.626,2.13,2.13,0,0,0-2.145,1.626Z" transform="translate(-1065.698 -617.124)" fill="#161615"/>
    <path id="Path_1415" data-name="Path 1415" d="M1231.91,675.629a2.2,2.2,0,0,0-2.08-1.17c-.933,0-1.523.308-1.523.8,0,1.43,5.224.211,5.224,3.316,0,1.983-1.786,2.877-3.685,2.877a5.212,5.212,0,0,1-4.012-1.5l1.506-1.154a2.793,2.793,0,0,0,2.391,1.024c.951,0,1.605-.52,1.605-.958,0-1.4-5.126-.244-5.126-3.365,0-1.853,1.621-2.666,3.669-2.666a4.248,4.248,0,0,1,3.422,1.5Z" transform="translate(-1073.058 -617.124)" fill="#161615"/>
    <path id="Path_1416" data-name="Path 1416" d="M1256.933,679.872a2.362,2.362,0,0,0,.311,1.381h-2.112a1.547,1.547,0,0,1-.2-.747,4.206,4.206,0,0,1-2.7.942,2.6,2.6,0,0,1-2.817-2.584c0-1.609,1.294-2.325,2.522-2.568l.835-.162a21.056,21.056,0,0,0,2.161-.488V675.4c0-.813-.705-1.04-1.573-1.04-1.162,0-1.539.34-1.539,1.235l-2-.082c0-1.934,1.719-2.681,3.536-2.681,1.785,0,3.57.358,3.57,2.7Zm-2-2.732a4.267,4.267,0,0,1-.95.292l-1.1.228c-.754.163-1.376.357-1.376,1.138,0,.618.574,1.024,1.293,1.024.934,0,2.129-.455,2.129-1.512Z" transform="translate(-1083.423 -617.124)" fill="#161615"/>
    <path id="Path_1417" data-name="Path 1417" d="M1275.091,667h2.194v9.558h4.733v2.016h-6.927Z" transform="translate(-1093.935 -614.443)" fill="#161615"/>
    <path id="Path_1418" data-name="Path 1418" d="M1290.339,667h2v2.016h-2Zm0,3.349h2v8.225h-2Z" transform="translate(-1100.943 -614.44)" fill="#161615"/>
    <path id="Path_1419" data-name="Path 1419" d="M1297.7,671.776h-1.212v-1.429h1.212v-1.3c0-1.674,1.13-2.049,2.44-2.049.442,0,.9.017,1.342.049v1.724a4.45,4.45,0,0,0-.654-.049c-.8,0-1.131.325-1.131,1.04v.586h1.785v1.429H1299.7v6.795h-2Z" transform="translate(-1103.771 -614.44)" fill="#161615"/>
    <path id="Path_1420" data-name="Path 1420" d="M1308.833,677.612a2.1,2.1,0,0,0,2.145,2.016,2.69,2.69,0,0,0,2.392-1.17l1.686.975a4.569,4.569,0,0,1-4.077,2.016,4.308,4.308,0,0,1,0-8.615c2.768,0,3.979,1.837,3.979,4.779Zm4.029-1.528a1.87,1.87,0,0,0-1.884-1.626,2.13,2.13,0,0,0-2.145,1.626Z" transform="translate(-1108.48 -617.124)" fill="#161615"/>
    <rect id="Rectangle_1150" data-name="Rectangle 1150" width="2.194" height="2.243" transform="translate(207.806 61.886)" fill="#161615"/>
    <path id="Path_1421" data-name="Path 1421" d="M960.558,579.2H953.17v-4.664h19.853V579.2h-7.389v22.115h-5.076Z" transform="translate(-953.17 -571.942)" fill="#161615"/>
    <path id="Path_1422" data-name="Path 1422" d="M988.955,599.092a4.856,4.856,0,0,0,4.964,4.664c3.637,0,4.617-2.069,5.072-2.708l3.9,2.257c-1.44,2.182-3.747,4.664-8.974,4.664-6.213,0-9.814-4.288-9.814-9.967s3.6-9.968,9.814-9.968c6.4,0,9.206,4.251,9.206,11.058Zm9.32-3.536a4.326,4.326,0,0,0-4.356-3.761,4.926,4.926,0,0,0-4.964,3.761Z" transform="translate(-967.389 -578.148)" fill="#161615"/>
    <path id="Path_1423" data-name="Path 1423" d="M1076.138,595.294a4.258,4.258,0,0,0-4.054-3.047c-3.3,0-4.963,2.783-4.963,5.754s1.477,5.754,4.7,5.754c2.766,0,3.941-1.956,4.661-3.685l3.94,2.068c-1.288,2.784-3.485,5.83-8.676,5.83-5.873,0-9.473-4.287-9.473-9.967s3.6-9.967,9.813-9.967a8.1,8.1,0,0,1,8.108,5.416Z" transform="translate(-1001.018 -578.148)" fill="#161615"/>
    <path id="Path_1424" data-name="Path 1424" d="M1101.335,574.532h4.623v9.629h.076a6.736,6.736,0,0,1,5.494-2.333c3.258,0,7.008,1.355,7.008,6.883v12.6h-4.622V590.028c0-2.633-1.061-3.762-3.41-3.762-3.486,0-4.546,2.934-4.546,5.266v9.779h-4.623Z" transform="translate(-1018.165 -571.942)" fill="#161615"/>
    <path id="Path_1425" data-name="Path 1425" d="M1140.741,574.532h4.622V579.2h-4.622Zm0,7.748h4.622v19.031h-4.622Z" transform="translate(-1035.701 -571.942)" fill="#161615"/>
    <path id="Path_1426" data-name="Path 1426" d="M1156.526,588.486h4.622v1.88h.076a6.7,6.7,0,0,1,5.229-2.332c4.546,0,6.593,2.294,6.593,6.469v13.014h-4.623V595.9c0-1.73-.8-3.423-3.182-3.423-2.235,0-4.092,1.5-4.092,5v10.042h-4.622Z" transform="translate(-1042.391 -578.148)" fill="#161615"/>
    <path id="Path_1427" data-name="Path 1427" d="M1207.059,588.486v1.843h-.076a6.323,6.323,0,0,0-5.38-2.294c-4.773,0-8.335,3.535-8.335,9.252s3.562,9.252,8.335,9.252a7.661,7.661,0,0,0,5.456-2.106s0,.836,0,1.659c0,3.269-1.755,4.154-4.441,4.154-1.06,0-3.37-.378-3.785-2.347h-5c.53,2.536,1.627,6.207,8.667,6.207,5.375,0,9.174-2.105,9.174-7.57s.007-18.051.007-18.051Zm-4.395,13.841c-3.486,0-4.547-3.009-4.547-5.04s1.061-5.04,4.547-5.04,4.547,3.009,4.547,5.04-1.061,5.04-4.547,5.04" transform="translate(-1058.46 -578.148)" fill="#161615"/>
  </g>
</svg>
