<svg xmlns="http://www.w3.org/2000/svg" width="153.513" height="33.653" viewBox="0 0 153.513 33.653"><defs><style>.a{fill:#1d1d1b;}.a,.b{fill-rule:evenodd;}.b{fill:#fff;}</style></defs><path class="a" d="M119.635,33.653h33.878V0H119.635Zm3.582-30.095h26.714V30.094H123.219V3.558ZM0,30.469v3.184H114.341V30.469ZM0,2.1V5.648H5.484V23.137H9.253V5.648h5.569V2.1Zm20.569,8.766A3.126,3.126,0,0,1,23.83,13.9H17.014A3.483,3.483,0,0,1,20.569,10.869ZM24.693,18.1a4.222,4.222,0,0,1-3.687,1.914A3.931,3.931,0,0,1,16.9,16.436H27.675c0-3.923-1.6-8.336-7.165-8.336-3.787,0-7.31,2.394-7.31,7.557,0,4.789,3.145,7.731,7.485,7.731a7.988,7.988,0,0,0,6.763-3.523L24.692,18.1Zm67.853-10a5.654,5.654,0,0,0-4.485,2.136v-1.7H84.538V22.955h3.524V16.7c0-2.481.32-3.693,1.368-4.557a2.787,2.787,0,0,1,1.836-.664c2.154,0,2.562,1.789,2.562,3.375v8.106h3.438V12.918c0-2.827-1.631-4.818-4.718-4.818M52.45,20.157c-2.359,0-3.67-1.991-3.67-4.5,0-2.395,1.224-4.471,3.582-4.471a3.357,3.357,0,0,1,3.321,2.452L58.8,12.2A6.762,6.762,0,0,0,52.537,8.1c-4.8,0-7.369,3.894-7.369,7.644,0,4.3,2.913,7.644,7.195,7.644a6.828,6.828,0,0,0,6.582-4.5l-2.97-1.558a3.766,3.766,0,0,1-3.525,2.827"/><path class="a" d="M77.111,6.223h3.466V2.733H77.111Zm29.263,12.691c-2.329,0-3.612-1.558-3.612-3.807,0-2.8,1.806-3.981,3.582-3.981,2.418,0,3.613,1.846,3.613,4.1a3.373,3.373,0,0,1-3.582,3.694Zm3.495-10.441V10a4.808,4.808,0,0,0-4.106-1.962c-3.116,0-6.583,2.106-6.583,7.154,0,4.933,3.233,6.865,6.291,6.865a6.687,6.687,0,0,0,4.4-1.528V21.8c0,2.481-1.4,3.2-3.465,3.2-.816,0-2.592-.29-2.913-1.789H99.646c.408,1.933,1.253,4.731,6.67,4.731,4.136,0,7.02-1.586,7.02-5.769V8.474h-3.466ZM77.111,22.9h3.466V8.474H77.111ZM68.759,8.04a6.437,6.437,0,0,0-4.6,1.9V2.532H60.663V22.9h3.495V14.907A3.562,3.562,0,0,1,67.8,11.33c1.689,0,2.738,1.009,2.738,3.114V22.9h3.437V13.147c0-3.316-2.039-5.106-5.213-5.106m-30.193,9.6c-.024,1.811-1.98,2.625-3.582,2.625-1.747,0-2.389-.809-2.389-1.76,0-1.441,1.662-1.689,3.241-2.041,1.347-.3,2.736-.629,2.736-.629s.005.988-.006,1.805m-2.485-9.6c-6.116,0-6.32,3.691-6.378,4.643l3.553.2c0-.75.292-2.164,2.858-2.164,1.883,0,2.457.864,2.457,2.395-1.222.244-2.388.472-4.355.836-2.767.49-5.185,1.73-5.185,4.875,0,2.422,1.98,4.413,5.3,4.413a6.988,6.988,0,0,0,4.232-1.471V22.9H42.2V12.137c0-2.559-1.835-4.1-6.116-4.1" transform="translate(0.68 0.059)"/><path class="b" d="M140.7,9.248,129.4,20.157l-3.781-3.65L123.1,18.94l6.3,6.083,13.815-13.342Z" transform="translate(2.883 0.217)"/></svg>