<svg xmlns="http://www.w3.org/2000/svg" xmlns:xlink="http://www.w3.org/1999/xlink" width="200" height="67" viewBox="0 0 200 67">
  <defs>
    <clipPath id="clip-getintoteachinglogo-white">
      <rect width="200" height="67"/>
    </clipPath>
  </defs>
  <g id="getintoteachinglogo-white" clip-path="url(#clip-getintoteachinglogo-white)">
    <g id="Group_1" data-name="Group 1">
      <path id="Path_1430" data-name="Path 1430" d="M462.526,299.105h43.592V255.513H462.526Zm4.61-38.982h34.372V294.5H467.136Z" transform="translate(-306.118 -255.513)" fill="#fff"/>
      <path id="Path_1431" data-name="Path 1431" d="M501.686,276.425,487.071,291.04l-4.891-4.89-3.261,3.26,8.151,8.15,17.874-17.875Z" transform="translate(-313.701 -265.235)" fill="#fff"/>
      <path id="Path_1432" data-name="Path 1432" d="M170.763,328.066v4.6H319.68v-4.6Z" transform="translate(-170.763 -289.199)" fill="#fff"/>
      <path id="Path_1433" data-name="Path 1433" d="M260.291,293.584h-4.645v-1.739a9.772,9.772,0,0,1-6.284,2.192c-3.655,0-6.549-2.307-6.549-6.011,0-3.742,3.009-5.406,5.864-5.972,0,0,5.722-1.231,6.969-1.512v-.568c0-1.89-1.638-2.418-3.656-2.418-2.7,0-3.58.793-3.58,2.873l-4.646-.189c0-4.5,4-6.237,8.225-6.237,4.151,0,8.3.832,8.3,6.276Zm-4.645-9.564c-.818.222-4.761,1.209-4.761,1.209-1.751.378-3.2.832-3.2,2.646,0,1.437,1.333,2.382,3.008,2.382,2.171,0,4.951-1.058,4.951-3.515Z" transform="translate(-204.175 -264.065)" fill="#fff"/>
      <path id="Path_1434" data-name="Path 1434" d="M178.188,265.044h-7.425v-4.688h19.954v4.688h-7.427v22.228h-5.1Z" transform="translate(-170.763 -257.753)" fill="#fff"/>
      <path id="Path_1435" data-name="Path 1435" d="M206.9,285.116a4.88,4.88,0,0,0,4.989,4.687c3.656,0,4.641-2.079,5.1-2.722l3.922,2.268c-1.447,2.193-3.766,4.688-9.02,4.688-6.246,0-9.864-4.31-9.864-10.017S205.645,274,211.89,274c6.435,0,9.252,4.273,9.252,11.114Zm9.367-3.553a4.347,4.347,0,0,0-4.378-3.78,4.952,4.952,0,0,0-4.989,3.78Z" transform="translate(-185.224 -264.065)" fill="#fff"/>
      <path id="Path_1436" data-name="Path 1436" d="M294.959,281.3a4.28,4.28,0,0,0-4.074-3.062c-3.313,0-4.989,2.8-4.989,5.784s1.485,5.784,4.722,5.784c2.78,0,3.961-1.966,4.685-3.7l3.96,2.079c-1.295,2.8-3.5,5.86-8.72,5.86-5.9,0-9.521-4.309-9.521-10.018S284.64,274,290.885,274a8.139,8.139,0,0,1,8.15,5.444Z" transform="translate(-221.894 -264.065)" fill="#fff"/>
      <path id="Path_1437" data-name="Path 1437" d="M320.5,260.356h4.646v9.677h.076a6.77,6.77,0,0,1,5.522-2.344c3.275,0,7.044,1.362,7.044,6.918v12.664h-4.646v-11.34c0-2.647-1.066-3.781-3.427-3.781-3.5,0-4.57,2.949-4.57,5.292v9.829H320.5Z" transform="translate(-240.2 -257.753)" fill="#fff"/>
      <path id="Path_1438" data-name="Path 1438" d="M360.324,260.356h4.645v4.688h-4.645Zm0,7.787h4.645v19.128h-4.645Z" transform="translate(-258.654 -257.753)" fill="#fff"/>
      <path id="Path_1439" data-name="Path 1439" d="M376.275,274.456h4.646v1.89H381A6.731,6.731,0,0,1,386.252,274c4.57,0,6.627,2.305,6.627,6.5v13.079h-4.646V281.9c0-1.739-.8-3.44-3.2-3.44-2.247,0-4.113,1.512-4.113,5.028v10.093h-4.646Z" transform="translate(-266.064 -264.066)" fill="#fff"/>
      <path id="Path_1440" data-name="Path 1440" d="M427.27,274.456v1.852h-.076A6.355,6.355,0,0,0,421.785,274c-4.8,0-8.377,3.553-8.377,9.3s3.58,9.3,8.377,9.3a7.705,7.705,0,0,0,5.485-2.117s0,.84,0,1.667c0,3.286-1.763,4.176-4.464,4.176-1.065,0-3.387-.38-3.8-2.358h-5.021c.533,2.548,1.635,6.238,8.711,6.238,5.4,0,9.221-2.116,9.221-7.608s.006-18.144.006-18.144Zm-4.418,13.911c-3.5,0-4.57-3.024-4.57-5.066s1.066-5.065,4.57-5.065,4.57,3.024,4.57,5.065-1.066,5.066-4.57,5.066" transform="translate(-283.286 -264.066)" fill="#fff"/>
      <path id="Path_1441" data-name="Path 1441" d="M170.8,353.8h8.3v2.027h-6.09v2.646h5.6V360.4h-5.6v3.006h6.517v2.027H170.8Z" transform="translate(-170.783 -301.179)" fill="#fff"/>
      <path id="Path_1442" data-name="Path 1442" d="M187.133,360.065h2.123l1.662,5.718h.033l1.662-5.718h2.124l-2.749,8.267h-2.107Z" transform="translate(-178.335 -304.076)" fill="#fff"/>
      <path id="Path_1443" data-name="Path 1443" d="M203.667,364.5a2.109,2.109,0,0,0,2.155,2.026,2.705,2.705,0,0,0,2.4-1.176l1.7.98a4.6,4.6,0,0,1-4.1,2.026,4.33,4.33,0,0,1,0-8.659c2.782,0,4,1.847,4,4.8Zm4.048-1.536a1.88,1.88,0,0,0-1.893-1.634,2.14,2.14,0,0,0-2.155,1.634Z" transform="translate(-185.009 -303.907)" fill="#fff"/>
      <path id="Path_1444" data-name="Path 1444" d="M219.237,359.9h2.007v1.143h.033a2.624,2.624,0,0,1,2.567-1.339v2.027a2.3,2.3,0,0,0-2.6,2.434v4h-2.007Z" transform="translate(-193.186 -303.907)" fill="#fff"/>
      <path id="Path_1445" data-name="Path 1445" d="M234.2,369.068a2.329,2.329,0,0,1-2.6,2.009,6.267,6.267,0,0,1-1.2-.113v-1.78a4.5,4.5,0,0,0,.79.065,1.013,1.013,0,0,0,1.119-.7l-3-8.478h2.157l1.793,6.012h.033l1.563-6.012h2.073Z" transform="translate(-197.847 -304.076)" fill="#fff"/>
      <path id="Path_1446" data-name="Path 1446" d="M253.73,353.8h2.2v9.606h4.757v2.027H253.73Z" transform="translate(-209.232 -301.179)" fill="#fff"/>
      <path id="Path_1447" data-name="Path 1447" d="M269.56,364.5a2.109,2.109,0,0,0,2.155,2.026,2.705,2.705,0,0,0,2.4-1.176l1.7.98a4.6,4.6,0,0,1-4.1,2.026,4.33,4.33,0,0,1,0-8.659c2.782,0,4,1.847,4,4.8Zm4.049-1.536a1.881,1.881,0,0,0-1.893-1.634,2.14,2.14,0,0,0-2.155,1.634Z" transform="translate(-215.596 -303.907)" fill="#fff"/>
      <path id="Path_1448" data-name="Path 1448" d="M290.439,362.51a2.21,2.21,0,0,0-2.09-1.176c-.938,0-1.53.31-1.53.8,0,1.438,5.25.212,5.25,3.333,0,1.993-1.794,2.892-3.7,2.892a5.24,5.24,0,0,1-4.032-1.5l1.514-1.16a2.807,2.807,0,0,0,2.4,1.029c.954,0,1.613-.522,1.613-.963,0-1.4-5.151-.246-5.151-3.382,0-1.863,1.63-2.68,3.687-2.68a4.269,4.269,0,0,1,3.44,1.5Z" transform="translate(-223.422 -303.907)" fill="#fff"/>
      <path id="Path_1449" data-name="Path 1449" d="M306,362.51a2.21,2.21,0,0,0-2.09-1.176c-.938,0-1.53.31-1.53.8,0,1.438,5.25.212,5.25,3.333,0,1.993-1.794,2.892-3.7,2.892a5.239,5.239,0,0,1-4.032-1.5l1.514-1.16a2.808,2.808,0,0,0,2.4,1.029c.954,0,1.613-.522,1.613-.963,0-1.4-5.151-.246-5.151-3.382,0-1.863,1.63-2.68,3.687-2.68a4.269,4.269,0,0,1,3.44,1.5Z" transform="translate(-230.637 -303.907)" fill="#fff"/>
      <path id="Path_1450" data-name="Path 1450" d="M324.563,364.029A4.263,4.263,0,1,1,320.3,359.7a4.052,4.052,0,0,1,4.263,4.329m-6.419,0a2.179,2.179,0,1,0,2.156-2.5,2.245,2.245,0,0,0-2.156,2.5" transform="translate(-238.123 -303.907)" fill="#fff"/>
      <path id="Path_1451" data-name="Path 1451" d="M334.54,359.9h2.007v.816h.033a2.907,2.907,0,0,1,2.271-1.013c1.976,0,2.864,1,2.864,2.81v5.653h-2.007v-5.048a1.317,1.317,0,0,0-1.383-1.487c-.971,0-1.778.654-1.778,2.173v4.362H334.54Z" transform="translate(-246.701 -303.907)" fill="#fff"/>
      <path id="Path_1452" data-name="Path 1452" d="M359.084,361.686a4.105,4.105,0,0,0,3.538,1.764c1.07,0,2.486-.36,2.486-1.487,0-.915-.856-1.176-2.42-1.536l-1.3-.294c-1.876-.424-3.521-1.11-3.521-3.251,0-2.449,2.354-3.627,4.542-3.627a5.815,5.815,0,0,1,4.888,2.337l-1.827,1.372a3.283,3.283,0,0,0-3.077-1.683c-1.268,0-2.222.474-2.222,1.29,0,.965,1.1,1.209,2.419,1.487l1.431.31c1.745.377,3.391,1.08,3.391,3.284,0,2.843-2.7,3.823-5.136,3.823a6.167,6.167,0,0,1-5.069-2.451Z" transform="translate(-257.215 -300.926)" fill="#fff"/>
      <path id="Path_1453" data-name="Path 1453" d="M378.836,353.8h2.007v4.182h.033a2.927,2.927,0,0,1,2.386-1.013,2.732,2.732,0,0,1,3.046,2.99v5.474H384.3v-4.9c0-1.143-.462-1.633-1.482-1.633a2.02,2.02,0,0,0-1.975,2.287v4.248h-2.007Z" transform="translate(-267.24 -301.179)" fill="#fff"/>
      <path id="Path_1454" data-name="Path 1454" d="M402.656,366.774a2.371,2.371,0,0,0,.313,1.389h-2.123a1.555,1.555,0,0,1-.2-.751,4.228,4.228,0,0,1-2.716.947,2.61,2.61,0,0,1-2.831-2.6c0-1.618,1.3-2.337,2.534-2.581l.84-.163a21.09,21.09,0,0,0,2.172-.491v-.245c0-.817-.708-1.045-1.58-1.045-1.168,0-1.547.342-1.547,1.241l-2.007-.083c0-1.944,1.727-2.7,3.554-2.7,1.794,0,3.587.36,3.587,2.713Zm-2.007-2.745a4.331,4.331,0,0,1-.955.294l-1.1.229c-.758.164-1.383.359-1.383,1.144,0,.621.577,1.029,1.3,1.029.938,0,2.14-.457,2.14-1.519Z" transform="translate(-274.783 -303.907)" fill="#fff"/>
      <path id="Path_1455" data-name="Path 1455" d="M412.359,359.9h2.008v.7h.033a3.394,3.394,0,0,1,2.37-.9c2.106,0,3.588,1.944,3.588,4.329s-1.482,4.33-3.621,4.33a2.858,2.858,0,0,1-2.37-1v3.448h-2.008Zm5.892,4.133c0-1.192-.461-2.5-1.975-2.5s-1.975,1.307-1.975,2.5.462,2.5,1.975,2.5,1.975-1.307,1.975-2.5" transform="translate(-282.784 -303.907)" fill="#fff"/>
      <path id="Path_1456" data-name="Path 1456" d="M431.547,364.5a2.11,2.11,0,0,0,2.156,2.026,2.706,2.706,0,0,0,2.4-1.176l1.694.98a4.592,4.592,0,0,1-4.1,2.026,4.33,4.33,0,0,1,0-8.659c2.782,0,4,1.847,4,4.8Zm4.049-1.536a1.88,1.88,0,0,0-1.893-1.634,2.141,2.141,0,0,0-2.156,1.634Z" transform="translate(-290.705 -303.907)" fill="#fff"/>
      <path id="Path_1457" data-name="Path 1457" d="M452.426,362.51a2.212,2.212,0,0,0-2.091-1.176c-.938,0-1.531.31-1.531.8,0,1.438,5.251.212,5.251,3.333,0,1.993-1.794,2.892-3.7,2.892a5.238,5.238,0,0,1-4.032-1.5l1.513-1.16a2.808,2.808,0,0,0,2.4,1.029c.954,0,1.612-.522,1.612-.963,0-1.4-5.151-.246-5.151-3.382,0-1.863,1.63-2.68,3.688-2.68a4.268,4.268,0,0,1,3.44,1.5Z" transform="translate(-298.53 -303.907)" fill="#fff"/>
      <path id="Path_1458" data-name="Path 1458" d="M477.706,366.774a2.372,2.372,0,0,0,.313,1.389H475.9a1.554,1.554,0,0,1-.2-.751,4.228,4.228,0,0,1-2.716.947,2.61,2.61,0,0,1-2.831-2.6c0-1.618,1.3-2.337,2.534-2.581l.84-.163a21.091,21.091,0,0,0,2.172-.491v-.245c0-.817-.708-1.045-1.58-1.045-1.168,0-1.547.342-1.547,1.241l-2.007-.083c0-1.944,1.727-2.7,3.555-2.7,1.794,0,3.587.36,3.587,2.713Zm-2.007-2.745a4.328,4.328,0,0,1-.955.294l-1.1.229c-.758.164-1.383.359-1.383,1.144,0,.621.577,1.029,1.3,1.029.938,0,2.14-.457,2.14-1.519Z" transform="translate(-309.646 -303.907)" fill="#fff"/>
      <path id="Path_1459" data-name="Path 1459" d="M496.1,353.8H498.3v9.606h4.757v2.027H496.1Z" transform="translate(-321.647 -301.179)" fill="#fff"/>
      <path id="Path_1460" data-name="Path 1460" d="M511.508,353.8h2.007v2.027h-2.007Zm0,3.365h2.007v8.267h-2.007Z" transform="translate(-328.776 -301.179)" fill="#fff"/>
      <path id="Path_1461" data-name="Path 1461" d="M518.944,358.606h-1.218v-1.437h1.218v-1.308c0-1.682,1.136-2.059,2.453-2.059.444,0,.9.017,1.349.049v1.732a4.531,4.531,0,0,0-.658-.049c-.807,0-1.137.326-1.137,1.045v.588h1.794v1.437h-1.794v6.829h-2.008Z" transform="translate(-331.652 -301.179)" fill="#fff"/>
      <path id="Path_1462" data-name="Path 1462" d="M530.186,364.5a2.11,2.11,0,0,0,2.156,2.026,2.705,2.705,0,0,0,2.4-1.176l1.694.98a4.592,4.592,0,0,1-4.1,2.026,4.33,4.33,0,0,1,0-8.659c2.782,0,4,1.847,4,4.8Zm4.049-1.536a1.88,1.88,0,0,0-1.893-1.634,2.141,2.141,0,0,0-2.156,1.634Z" transform="translate(-336.441 -303.907)" fill="#fff"/>
    </g>
  </g>
</svg>
