<?xml version="1.0" encoding="UTF-8"?>
<svg width="33px" height="33px" viewBox="0 0 33 33" version="1.1" xmlns="http://www.w3.org/2000/svg" xmlns:xlink="http://www.w3.org/1999/xlink">
    <title>Subtraction_10</title>
    <g id="Page-1" stroke="none" stroke-width="1" fill="none" fill-rule="evenodd">
        <g id="icon.search" transform="translate(16.999807, 16.998491) rotate(-45.000000) translate(-16.999807, -16.998491) translate(5.550541, -1.166432)" fill="#FFFFFF" fill-rule="nonzero">
            <path d="M14.6815697,36.3298469 L7.49256968,36.3298469 L7.49256968,22.0388469 C5.32357218,21.2484504 3.44525475,19.818879 2.10556968,17.9388469 C-1.1189569,13.422672 -0.590718261,7.23418905 3.35256968,3.32984689 C7.83686939,-1.10994896 15.06027,-1.10994896 19.5445697,3.32984689 C23.5896218,7.33351711 24.0294792,13.7193731 20.5715697,18.2398469 C19.0846086,20.1745831 17.022451,21.5879839 14.6815697,22.2768469 L14.6815697,36.3288469 L14.6815697,36.3298469 Z M9.79256968,22.6178469 L9.79256968,34.3418469 L12.3825697,34.3418469 L12.3825697,22.6998469 C12.0755697,22.7248469 11.7605697,22.7378469 11.4495697,22.7378469 C10.8950763,22.737553 10.3413195,22.6974499 9.79256968,22.6178469 L9.79256968,22.6178469 Z M11.4495697,2.67482327 C6.65609071,2.70848036 2.79428137,6.6156837 2.81656765,11.4092284 C2.83904755,16.2027731 6.73717646,20.073742 11.5307605,20.0626334 C16.3243445,20.0514769 20.2045697,16.1624439 20.2045697,11.3688469 C20.181977,6.55284507 16.2656117,2.66376687 11.4495697,2.67482327 Z" id="Subtraction_10"></path>
        </g>
    </g>
</svg>