<?xml version="1.0" encoding="UTF-8"?>
<svg width="40px" height="30px" viewBox="0 0 40 30" version="1.1" xmlns="http://www.w3.org/2000/svg" xmlns:xlink="http://www.w3.org/1999/xlink">
    <title>icon-ticket</title>
    <g id="Page-1" stroke="none" stroke-width="1" fill="none" fill-rule="evenodd">
        <g id="icon-ticket" transform="translate(-12.000000, -17.000000)" fill="#000000" fill-rule="nonzero">
            <g transform="translate(12.901000, 17.808000)" id="icon.ticket">
                <g transform="translate(-0.000000, 0.000000)">
                    <path d="M38.2,0 L0,0 L0,10.042 L3.929,14.408 L0,18.337 L0,28.379 L38.2,28.379 L38.2,18.34 L34.271,13.974 L38.2,10.045 L38.2,0 Z M34.926,8.732 L29.796,13.862 L34.926,19.647 L34.926,25.213 L3.272,25.213 L3.272,19.756 L8.402,14.626 L3.272,8.841 L3.272,3.275 L34.925,3.275 L34.926,8.732 Z" id="Path_1307"></path>
                    <path d="M14.405,21.451 C16.042,20.578 17.57,19.595 19.205,18.722 C20.842,19.595 22.479,20.578 24.005,21.451 C23.568,19.705 23.241,17.851 22.805,16.103 C24.224,14.903 25.534,13.703 26.953,12.503 C25.097,12.285 23.242,12.176 21.386,11.957 C20.622,10.32 19.858,8.683 19.094,6.936 C18.33,8.573 17.566,10.21 16.802,11.957 C14.946,12.175 13.091,12.284 11.235,12.503 C12.654,13.703 13.964,14.903 15.383,16.103 C15.165,17.849 14.728,19.703 14.401,21.451" id="Path_1308"></path>
                </g>
            </g>
        </g>
    </g>
</svg>