<svg xmlns="http://www.w3.org/2000/svg" width="56.213" height="61.467" viewBox="0 0 56.213 61.467">
  <g id="Group_1231" data-name="Group 1231" transform="translate(8205.211 22561.297)">
    <g id="Group_1229" data-name="Group 1229" transform="translate(10209.346 -4380.877)">
      <path id="Path_1326" data-name="Path 1326" d="M1023.919,633.994a3.1,3.1,0,0,1-.346.311l.519-.277a.26.26,0,0,1-.173-.034m16.905-.173L1036.3,631.3a13.457,13.457,0,0,1-5.324,2.731l5.566,3.077,14.174,7.813v13.829h-46.326V644.919l11.1-6.119,3.077-1.694.622-.345,2.593-1.452,1.8-1,.519-.277a.26.26,0,0,1-.173-.034,13.758,13.758,0,0,1-4.771-2.385,3.082,3.082,0,0,1-.346-.277l-2.143,1.176-2.42,1.313c.034.069.1.1.172.173a1.5,1.5,0,0,0-.172.034l-.294.074-.363.1h-.034l-8.021,4.46-6.085,3.353v21.641h56.213V642.015Zm-16.905.173a3.1,3.1,0,0,1-.346.311l.519-.277a.26.26,0,0,1-.173-.034" transform="translate(-19414 -18782.609)" fill="#241f21"/>
      <path id="Path_1327" data-name="Path 1327" d="M1026.715,602.721a13.7,13.7,0,0,1,1.417-20.362,12.7,12.7,0,0,0-4.737-2.351,18.492,18.492,0,0,0-5.5,13.172,18.064,18.064,0,0,0,1.107,6.257,18.393,18.393,0,0,0,4.218,6.776c.035.069.1.1.173.173a13.311,13.311,0,0,0,4.737-2.385,2.991,2.991,0,0,1-.346-.277c-.38-.345-.726-.657-1.072-1m0,0a13.7,13.7,0,0,1,1.417-20.362,12.7,12.7,0,0,0-4.737-2.351,18.492,18.492,0,0,0-5.5,13.172,18.064,18.064,0,0,0,1.107,6.257,18.393,18.393,0,0,0,4.218,6.776c.035.069.1.1.173.173a13.311,13.311,0,0,0,4.737-2.385,2.991,2.991,0,0,1-.346-.277c-.38-.345-.726-.657-1.072-1m0,0a13.7,13.7,0,0,1,1.417-20.362,12.7,12.7,0,0,0-4.737-2.351,18.492,18.492,0,0,0-5.5,13.172,18.064,18.064,0,0,0,1.107,6.257,18.393,18.393,0,0,0,4.218,6.776c.035.069.1.1.173.173a13.311,13.311,0,0,0,4.737-2.385,2.991,2.991,0,0,1-.346-.277c-.38-.345-.726-.657-1.072-1m0,0a13.7,13.7,0,0,1,1.417-20.362,12.7,12.7,0,0,0-4.737-2.351,18.492,18.492,0,0,0-5.5,13.172,18.064,18.064,0,0,0,1.107,6.257,18.393,18.393,0,0,0,4.218,6.776c.035.069.1.1.173.173a13.311,13.311,0,0,0,4.737-2.385,2.991,2.991,0,0,1-.346-.277c-.38-.345-.726-.657-1.072-1m18.565.968a13.463,13.463,0,0,1-5.324,2.731,12.8,12.8,0,0,1-3.457.45,14.342,14.342,0,0,1-2.731-.277h-.034a4.582,4.582,0,0,1-.657-.173.259.259,0,0,1-.172-.034,13.747,13.747,0,0,1-4.771-2.385,2.991,2.991,0,0,1-.346-.277c-.38-.345-.726-.657-1.072-1a13.7,13.7,0,0,1,1.417-20.362,13.117,13.117,0,0,1,4.771-2.351,12.392,12.392,0,0,1,3.6-.518,13.695,13.695,0,0,1,8.781,24.2M1036.5,574.58a17.759,17.759,0,0,0-8.332,2.005,18,18,0,0,0-4.771,3.422,18.492,18.492,0,0,0-5.5,13.172,18.064,18.064,0,0,0,1.107,6.257,18.393,18.393,0,0,0,4.218,6.776c.035.069.1.1.173.173a3.112,3.112,0,0,0,.346.311,16.882,16.882,0,0,0,3.8,2.8,5.284,5.284,0,0,0,.623.311,15.942,15.942,0,0,0,3.769,1.417,17.919,17.919,0,0,0,4.563.588,18.989,18.989,0,0,0,5.289-.761,22.41,22.41,0,0,0,3.734-1.556,19.891,19.891,0,0,0,4.286-3.285,18.6,18.6,0,0,0-13.31-31.632m-9.783,28.141a13.7,13.7,0,0,1,1.417-20.362,12.7,12.7,0,0,0-4.737-2.351,18.492,18.492,0,0,0-5.5,13.172,18.064,18.064,0,0,0,1.107,6.257,18.393,18.393,0,0,0,4.218,6.776c.035.069.1.1.173.173a13.311,13.311,0,0,0,4.737-2.385,2.991,2.991,0,0,1-.346-.277c-.38-.345-.726-.657-1.072-1m0,0a13.7,13.7,0,0,1,1.417-20.362,12.7,12.7,0,0,0-4.737-2.351,18.492,18.492,0,0,0-5.5,13.172,18.064,18.064,0,0,0,1.107,6.257,18.393,18.393,0,0,0,4.218,6.776c.035.069.1.1.173.173a13.311,13.311,0,0,0,4.737-2.385,2.991,2.991,0,0,1-.346-.277c-.38-.345-.726-.657-1.072-1m0,0a13.7,13.7,0,0,1,1.417-20.362,12.7,12.7,0,0,0-4.737-2.351,18.492,18.492,0,0,0-5.5,13.172,18.064,18.064,0,0,0,1.107,6.257,18.393,18.393,0,0,0,4.218,6.776c.035.069.1.1.173.173a13.311,13.311,0,0,0,4.737-2.385,2.991,2.991,0,0,1-.346-.277c-.38-.345-.726-.657-1.072-1m0,0a13.7,13.7,0,0,1,1.417-20.362,12.7,12.7,0,0,0-4.737-2.351,18.492,18.492,0,0,0-5.5,13.172,18.064,18.064,0,0,0,1.107,6.257,18.393,18.393,0,0,0,4.218,6.776c.035.069.1.1.173.173a13.311,13.311,0,0,0,4.737-2.385,2.991,2.991,0,0,1-.346-.277c-.38-.345-.726-.657-1.072-1m0,0a13.7,13.7,0,0,1,1.417-20.362,12.7,12.7,0,0,0-4.737-2.351,18.492,18.492,0,0,0-5.5,13.172,18.064,18.064,0,0,0,1.107,6.257,18.393,18.393,0,0,0,4.218,6.776c.035.069.1.1.173.173a13.311,13.311,0,0,0,4.737-2.385,2.991,2.991,0,0,1-.346-.277c-.38-.345-.726-.657-1.072-1" transform="translate(-19422.984 -18755)" fill="#241f21"/>
    </g>
  </g>
</svg>
