<svg width="36" height="34" viewBox="0 0 36 34" fill="none" xmlns="http://www.w3.org/2000/svg">
<path d="M18.0001 33.6892C13.4829 33.71 9.13845 31.9545 5.90409 28.801C2.70209 25.7104 0.893555 21.4512 0.893555 17.001C0.893555 12.5507 2.70209 8.29157 5.90409 5.20097C12.6511 -1.31666 23.349 -1.31666 30.0961 5.20097C33.2981 8.29157 35.1066 12.5507 35.1066 17.001C35.1066 21.4512 33.2981 25.7104 30.0961 28.801C26.8617 31.9545 22.5173 33.71 18.0001 33.6892ZM18.0001 4.23682C14.5457 4.22084 11.2234 5.56339 8.75009 7.97497C6.30136 10.3387 4.9183 13.596 4.9183 16.9995C4.9183 20.4029 6.30136 23.6602 8.75009 26.024C13.9097 31.0079 22.0904 31.0079 27.2501 26.024C29.6986 23.6601 31.0814 20.4028 31.0814 16.9995C31.0814 13.5961 29.6986 10.3388 27.2501 7.97497C24.7766 5.56376 21.4543 4.22157 18.0001 4.23797V4.23682Z" fill="#0B0C0C"/>
<path d="M19.894 9.34888H15.894V19.3489H19.894V9.34888Z" fill="#0B0C0C"/>
<path d="M19.894 21.3489H15.894V24.3489H19.894V21.3489Z" fill="#0B0C0C"/>
</svg>
