<svg xmlns="http://www.w3.org/2000/svg" width="40" height="26.462" viewBox="0 0 40 26.462">
  <g id="Group_1060" data-name="Group 1060" transform="translate(-314 -1141.148)">
    <g id="icon.online" transform="translate(314 1141.148)">
      <g id="Group_777" data-name="Group 777">
        <path id="Path_1329" data-name="Path 1329" d="M1188.86,592.08h25.709l2.167,4.21h-30.427Zm.6-16.642h24.464v13.83h-24.464Zm27.261,14.722V572.625h-30.058v17.657l-5.317,8.805h40Z" transform="translate(-1181.345 -572.625)" fill="#8967aa"/>
      </g>
      <g id="Group_777-2" data-name="Group 777">
        <path id="Path_1329-2" data-name="Path 1329" d="M1188.86,592.08h25.709l2.167,4.21h-30.427Zm.6-16.642h24.464v13.83h-24.464Zm27.261,14.722V572.625h-30.058v17.657l-5.317,8.805h40Z" transform="translate(-1181.345 -572.625)" fill="#8967aa"/>
      </g>
    </g>
    <g id="Group_1053" data-name="Group 1053" transform="translate(388.529 -4707.405)">
      <path id="Path_1324" data-name="Path 1324" d="M974.648,623.99a2.85,2.85,0,0,1-1.015.511.327.327,0,0,0-.037.007l.111.059.393.215.556.311.556-.311.385-.215a.678.678,0,0,0,.074-.067,2.948,2.948,0,0,1-1.022-.511m0,0a2.85,2.85,0,0,1-1.015.511.327.327,0,0,0-.037.007l.111.059.393.215.556.311.556-.311.385-.215a.678.678,0,0,0,.074-.067,2.948,2.948,0,0,1-1.022-.511m0,0a2.85,2.85,0,0,1-1.015.511.327.327,0,0,0-.037.007l.111.059.393.215.556.311.556-.311.385-.215a.678.678,0,0,0,.074-.067,2.948,2.948,0,0,1-1.022-.511m0,0a2.85,2.85,0,0,1-1.015.511.327.327,0,0,0-.037.007l.111.059.393.215.556.311.556-.311.385-.215a.678.678,0,0,0,.074-.067,2.948,2.948,0,0,1-1.022-.511m1.208.556h-.008a.993.993,0,0,1-.141-.037.056.056,0,0,1-.037-.007,2.948,2.948,0,0,1-1.022-.511.618.618,0,0,1-.074-.059c-.082-.074-.156-.141-.23-.215l-1.267-.7h-.385a3.941,3.941,0,0,0,.9,1.452c.007.015.022.022.037.037a.327.327,0,0,0-.037.007l.111.059.393.215.556.311.133.074.674.37a3.84,3.84,0,0,0,.978.126,4.069,4.069,0,0,0,1.133-.163Zm-1.756.237.556.311.556-.311.385-.215a.678.678,0,0,0,.074-.067,2.948,2.948,0,0,1-1.022-.511,2.85,2.85,0,0,1-1.015.511.327.327,0,0,0-.037.007l.111.059Zm-6.2,5.023v-2.963l3.03-1.674,1.193-.659a2.874,2.874,0,0,1-1.141-.578l-.971.533-3.171,1.756v4.637h12.038v-1.052Zm6.749-5.815a2.85,2.85,0,0,1-1.015.511.327.327,0,0,0-.037.007l.111.059.393.215.556.311.556-.311.385-.215a.678.678,0,0,0,.074-.067,2.948,2.948,0,0,1-1.022-.511m0,0a2.85,2.85,0,0,1-1.015.511.327.327,0,0,0-.037.007l.111.059.393.215.556.311.556-.311.385-.215a.678.678,0,0,0,.074-.067,2.948,2.948,0,0,1-1.022-.511m0,0a2.85,2.85,0,0,1-1.015.511.327.327,0,0,0-.037.007l.111.059.393.215.556.311.556-.311.385-.215a.678.678,0,0,0,.074-.067,2.948,2.948,0,0,1-1.022-.511m0,0a2.85,2.85,0,0,1-1.015.511.327.327,0,0,0-.037.007l.111.059.393.215.556.311.556-.311.385-.215a.678.678,0,0,0,.074-.067,2.948,2.948,0,0,1-1.022-.511" transform="translate(-1029 5235.894)" fill="#8967aa" stroke="#8967aa" stroke-width="1"/>
      <path id="Path_1325" data-name="Path 1325" d="M990,581.4a.32.32,0,0,0-.037.007c-.052.015-.1.022-.141.037h-.008a3.152,3.152,0,0,1-.593.059,2.7,2.7,0,0,1-.733-.1,2.874,2.874,0,0,1-1.141-.578,2.935,2.935,0,0,1,1.874-5.193,3.023,3.023,0,0,1,1.793.615,2.811,2.811,0,0,1,1.022-.5,3.815,3.815,0,0,0-1.015-.733,3.984,3.984,0,0,0-4.645,6.349,3.886,3.886,0,0,0,.919.7,3.809,3.809,0,0,0,.8.333,4.018,4.018,0,0,0,1.126.163,4.128,4.128,0,0,0,1.8-.43l.133-.067a4.322,4.322,0,0,0,.807-.6.678.678,0,0,0,.074-.067,2.947,2.947,0,0,1-1.022-.511A2.854,2.854,0,0,1,990,581.4" transform="translate(-1045.367 5279)" fill="#8967aa" stroke="#8967aa" stroke-width="1"/>
      <path id="Path_1326" data-name="Path 1326" d="M1004.688,631.876a.652.652,0,0,1-.074.067l.111-.059a.056.056,0,0,1-.037-.007m3.623-.037-.97-.541a2.884,2.884,0,0,1-1.141.585l1.193.659,3.037,1.674v2.963H1000.5v-2.963l2.378-1.311.659-.363.133-.074.555-.311.385-.215.111-.059a.056.056,0,0,1-.037-.007,2.95,2.95,0,0,1-1.022-.511.673.673,0,0,1-.074-.059l-.459.252-.518.281c.007.015.022.022.037.037a.32.32,0,0,0-.037.007l-.063.016-.078.021h-.007l-1.719.956-1.3.719v4.637h12.045v-4.637Zm-3.623.037a.652.652,0,0,1-.074.067l.111-.059a.056.056,0,0,1-.037-.007" transform="translate(-1058.017 5228.52)" fill="#8967aa" stroke="#8967aa" stroke-width="1"/>
      <path id="Path_1327" data-name="Path 1327" d="M1019.788,580.61a2.936,2.936,0,0,1,.3-4.363,2.722,2.722,0,0,0-1.015-.5,3.962,3.962,0,0,0-1.178,2.822,3.868,3.868,0,0,0,.237,1.341,3.941,3.941,0,0,0,.9,1.452c.008.015.022.022.037.037a2.852,2.852,0,0,0,1.015-.511.654.654,0,0,1-.074-.059c-.082-.074-.156-.141-.23-.215m0,0a2.936,2.936,0,0,1,.3-4.363,2.722,2.722,0,0,0-1.015-.5,3.962,3.962,0,0,0-1.178,2.822,3.868,3.868,0,0,0,.237,1.341,3.941,3.941,0,0,0,.9,1.452c.008.015.022.022.037.037a2.852,2.852,0,0,0,1.015-.511.654.654,0,0,1-.074-.059c-.082-.074-.156-.141-.23-.215m0,0a2.936,2.936,0,0,1,.3-4.363,2.722,2.722,0,0,0-1.015-.5,3.962,3.962,0,0,0-1.178,2.822,3.868,3.868,0,0,0,.237,1.341,3.941,3.941,0,0,0,.9,1.452c.008.015.022.022.037.037a2.852,2.852,0,0,0,1.015-.511.654.654,0,0,1-.074-.059c-.082-.074-.156-.141-.23-.215m0,0a2.936,2.936,0,0,1,.3-4.363,2.722,2.722,0,0,0-1.015-.5,3.962,3.962,0,0,0-1.178,2.822,3.868,3.868,0,0,0,.237,1.341,3.941,3.941,0,0,0,.9,1.452c.008.015.022.022.037.037a2.852,2.852,0,0,0,1.015-.511.654.654,0,0,1-.074-.059c-.082-.074-.156-.141-.23-.215m3.978.207a2.886,2.886,0,0,1-1.141.585,2.75,2.75,0,0,1-.741.1,3.075,3.075,0,0,1-.585-.059h-.007a.992.992,0,0,1-.141-.037.055.055,0,0,1-.037-.007,2.947,2.947,0,0,1-1.022-.511.654.654,0,0,1-.074-.059c-.082-.074-.156-.141-.23-.215a2.936,2.936,0,0,1,.3-4.363,2.813,2.813,0,0,1,1.022-.5,2.651,2.651,0,0,1,.77-.111,2.934,2.934,0,0,1,1.882,5.185m-1.882-6.237a3.8,3.8,0,0,0-1.785.43,3.851,3.851,0,0,0-1.022.733,3.962,3.962,0,0,0-1.178,2.822,3.868,3.868,0,0,0,.237,1.341,3.941,3.941,0,0,0,.9,1.452c.008.015.022.022.037.037a.672.672,0,0,0,.074.067,3.617,3.617,0,0,0,.815.6,1.118,1.118,0,0,0,.133.067,3.42,3.42,0,0,0,.807.3,3.848,3.848,0,0,0,.978.126,4.068,4.068,0,0,0,1.133-.163,4.8,4.8,0,0,0,.8-.333,4.261,4.261,0,0,0,.919-.7,3.986,3.986,0,0,0-2.852-6.778m-2.1,6.03a2.936,2.936,0,0,1,.3-4.363,2.722,2.722,0,0,0-1.015-.5,3.962,3.962,0,0,0-1.178,2.822,3.868,3.868,0,0,0,.237,1.341,3.941,3.941,0,0,0,.9,1.452c.008.015.022.022.037.037a2.852,2.852,0,0,0,1.015-.511.654.654,0,0,1-.074-.059c-.082-.074-.156-.141-.23-.215m0,0a2.936,2.936,0,0,1,.3-4.363,2.722,2.722,0,0,0-1.015-.5,3.962,3.962,0,0,0-1.178,2.822,3.868,3.868,0,0,0,.237,1.341,3.941,3.941,0,0,0,.9,1.452c.008.015.022.022.037.037a2.852,2.852,0,0,0,1.015-.511.654.654,0,0,1-.074-.059c-.082-.074-.156-.141-.23-.215m0,0a2.936,2.936,0,0,1,.3-4.363,2.722,2.722,0,0,0-1.015-.5,3.962,3.962,0,0,0-1.178,2.822,3.868,3.868,0,0,0,.237,1.341,3.941,3.941,0,0,0,.9,1.452c.008.015.022.022.037.037a2.852,2.852,0,0,0,1.015-.511.654.654,0,0,1-.074-.059c-.082-.074-.156-.141-.23-.215m0,0a2.936,2.936,0,0,1,.3-4.363,2.722,2.722,0,0,0-1.015-.5,3.962,3.962,0,0,0-1.178,2.822,3.868,3.868,0,0,0,.237,1.341,3.941,3.941,0,0,0,.9,1.452c.008.015.022.022.037.037a2.852,2.852,0,0,0,1.015-.511.654.654,0,0,1-.074-.059c-.082-.074-.156-.141-.23-.215m0,0a2.936,2.936,0,0,1,.3-4.363,2.722,2.722,0,0,0-1.015-.5,3.962,3.962,0,0,0-1.178,2.822,3.868,3.868,0,0,0,.237,1.341,3.941,3.941,0,0,0,.9,1.452c.008.015.022.022.037.037a2.852,2.852,0,0,0,1.015-.511.654.654,0,0,1-.074-.059c-.082-.074-.156-.141-.23-.215" transform="translate(-1074.444 5279)" fill="#8967aa" stroke="#8967aa" stroke-width="1"/>
    </g>
  </g>
</svg>
