<svg id="location_icon_small" data-name="location icon small" xmlns="http://www.w3.org/2000/svg" width="37" height="59.49" viewBox="0 0 37 59.49">
  <path id="Subtraction_10" data-name="Subtraction 10" d="M17.915,59.49v0L12.108,47.3V36.089A18.617,18.617,0,0,1,0,18.615,18.552,18.552,0,0,1,5.419,5.452a18.419,18.419,0,0,1,26.163,0,18.65,18.65,0,0,1-7.859,31.026V47.3L17.917,59.487ZM15.823,37.037v9.417l2.092,4.393,2.092-4.393V37.169c-.5.041-1.009.062-1.507.062A18.6,18.6,0,0,1,15.823,37.037ZM18.5,4.38A14.236,14.236,0,1,0,32.647,18.615,14.207,14.207,0,0,0,18.5,4.38Z" fill="#db5393"/>
</svg>
