<?xml version="1.0" encoding="UTF-8"?>
<svg width="46px" height="38px" viewBox="0 0 46 38" version="1.1" xmlns="http://www.w3.org/2000/svg" xmlns:xlink="http://www.w3.org/1999/xlink">
    <title>icon-people</title>
    <g id="Page-1" stroke="none" stroke-width="1" fill="none" fill-rule="evenodd">
        <g id="icon-people" transform="translate(-9.000000, -13.000000)" fill="#000000" fill-rule="nonzero">
            <g transform="translate(9.775000, 13.258298)" id="icon.support">
                <g transform="translate(-0.000000, 0.000000)">
                    <path d="M22.203,17.9407018 C21.3483397,18.6141576 20.3668385,19.1086492 19.317,19.3947018 C19.2816174,19.3996302 19.2465564,19.4066424 19.212,19.4157018 L19.528,19.5847018 L20.645,20.1957018 L22.225,21.0807018 L23.805,20.1957018 L24.905,19.5847018 C24.9799979,19.5267487 25.0505302,19.4632362 25.116,19.3947018 C24.0614385,19.104283 23.0738877,18.6103378 22.209,17.9407018 M22.209,17.9407018 C21.3543397,18.6141576 20.3728385,19.1086492 19.323,19.3947018 C19.2876174,19.3996302 19.2525564,19.4066424 19.218,19.4157018 L19.534,19.5847018 L20.651,20.1957018 L22.231,21.0807018 L23.811,20.1957018 L24.911,19.5847018 C24.9859979,19.5267487 25.0565302,19.4632362 25.122,19.3947018 C24.0674385,19.104283 23.0798877,18.6103378 22.215,17.9407018 M22.215,17.9407018 C21.3603397,18.6141576 20.3788385,19.1086492 19.329,19.3947018 C19.2936174,19.3996302 19.2585564,19.4066424 19.224,19.4157018 L19.54,19.5847018 L20.657,20.1957018 L22.237,21.0807018 L23.817,20.1957018 L24.917,19.5847018 C24.9919979,19.5267487 25.0625302,19.4632362 25.128,19.3947018 C24.0734385,19.104283 23.0858877,18.6103378 22.221,17.9407018 M22.221,17.9407018 C21.3663397,18.6141576 20.3848385,19.1086492 19.335,19.3947018 C19.2996174,19.3996302 19.2645564,19.4066424 19.23,19.4157018 L19.546,19.5847018 L20.663,20.1957018 L22.243,21.0807018 L23.823,20.1957018 L24.923,19.5847018 C24.9979979,19.5267487 25.0685302,19.4632362 25.134,19.3947018 C24.0794385,19.104283 23.0918877,18.6103378 22.227,17.9407018 M25.661,19.5207018 L25.64,19.5207018 C25.5042463,19.4956742 25.3705437,19.4605772 25.24,19.4157018 C25.2036226,19.4211368 25.1664888,19.41371 25.135,19.3947018 C24.0804385,19.104283 23.0928877,18.6103378 22.228,17.9407018 C22.1535809,17.8896683 22.0830537,17.8331796 22.017,17.7717018 C21.785,17.5617018 21.574,17.3717018 21.364,17.1607018 L17.764,15.1607018 L16.664,15.1607018 C17.2078884,16.7086656 18.0852376,18.1182278 19.234,19.2897018 C19.255,19.3317018 19.297,19.3527018 19.339,19.3947018 C19.3036174,19.3996302 19.2685564,19.4066424 19.234,19.4157018 L19.55,19.5847018 L20.667,20.1957018 L22.247,21.0807018 L22.626,21.2917018 L24.543,22.3447018 C25.4507618,22.5830585 26.3854666,22.7033837 27.324,22.7027047 C28.4151185,22.7011086 29.5005301,22.5452322 30.548,22.2397018 L25.661,19.5207018 Z M20.668,20.1947018 L22.248,21.0797018 L23.828,20.1947018 L24.928,19.5837018 C25.0029979,19.5257487 25.0735302,19.4622362 25.139,19.3937018 C24.0844385,19.103283 23.0968877,18.6093378 22.232,17.9397018 C21.3773397,18.6131576 20.3958385,19.1076492 19.346,19.3937018 C19.3106174,19.3986302 19.2755564,19.4056424 19.241,19.4147018 L19.557,19.5837018 L20.668,20.1947018 Z M3.012,34.4777018 L3.012,26.0477018 L11.628,21.2867018 L15.02,19.4117018 C13.8289705,19.1146873 12.7201763,18.5531125 11.776,17.7687018 L9.016,19.2857018 L0,24.2787018 L0,37.4667018 L34.234,37.4667018 L34.234,34.4777018 L3.012,34.4777018 Z M22.204,17.9397018 C21.3493397,18.6131576 20.3678385,19.1076492 19.318,19.3937018 C19.2826174,19.3986302 19.2475564,19.4056424 19.213,19.4147018 L19.529,19.5837018 L20.646,20.1947018 L22.226,21.0797018 L23.806,20.1947018 L24.906,19.5837018 C24.9809979,19.5257487 25.0515302,19.4622362 25.117,19.3937018 C24.0624385,19.103283 23.0748877,18.6093378 22.21,17.9397018 M22.21,17.9397018 C21.3553397,18.6131576 20.3738385,19.1076492 19.324,19.3937018 C19.2886174,19.3986302 19.2535564,19.4056424 19.219,19.4147018 L19.535,19.5837018 L20.652,20.1947018 L22.232,21.0797018 L23.812,20.1947018 L24.912,19.5837018 C24.9869979,19.5257487 25.0575302,19.4622362 25.123,19.3937018 C24.0684385,19.103283 23.0808877,18.6093378 22.216,17.9397018 M22.216,17.9397018 C21.3613397,18.6131576 20.3798385,19.1076492 19.33,19.3937018 C19.2946174,19.3986302 19.2595564,19.4056424 19.225,19.4147018 L19.541,19.5837018 L20.658,20.1947018 L22.238,21.0797018 L23.818,20.1947018 L24.918,19.5837018 C24.9929979,19.5257487 25.0635302,19.4622362 25.129,19.3937018 C24.0744385,19.103283 23.0868877,18.6093378 22.222,17.9397018 M22.222,17.9397018 C21.3673397,18.6131576 20.3858385,19.1076492 19.336,19.3937018 C19.3006174,19.3986302 19.2655564,19.4056424 19.231,19.4147018 L19.547,19.5837018 L20.664,20.1947018 L22.244,21.0797018 L23.824,20.1947018 L24.924,19.5837018 C24.9989979,19.5257487 25.0695302,19.4622362 25.135,19.3937018 C24.0804385,19.103283 23.0928877,18.6093378 22.228,17.9397018" id="Path_1324"></path>
                    <path d="M19.212,19.4147018 C19.065,19.4567018 18.938,19.4777018 18.812,19.5197018 L18.791,19.5197018 C18.2359311,19.6291236 17.6717435,19.6857098 17.106,19.6887018 C16.4016997,19.6937973 15.7000704,19.6015928 15.021,19.4147018 C13.8299223,19.1178168 12.7211005,18.5562279 11.777,17.7717018 C9.07217296,15.525102 8.06525101,11.8243813 9.258919,8.51704758 C10.452587,5.20971382 13.5908518,3.00505525 17.107,3.00370181 C18.9505262,3.0249672 20.7384205,3.63810979 22.207,4.75270181 C23.0679136,4.08143394 24.0572693,3.59373299 25.114,3.31970181 C24.2732993,2.47061258 23.2981883,1.76614053 22.228,1.23470181 C17.2748949,-1.28747817 11.2236139,0.155458974 7.9415865,4.64131877 C4.65955913,9.12717857 5.11591803,15.3313551 9.019,19.2887018 C9.78506475,20.081887 10.6654737,20.7560133 11.631,21.2887018 C12.35077,21.6902808 13.1140491,22.0083417 13.906,22.2367018 C14.9453242,22.5419535 16.022778,22.6978476 17.106,22.6997018 C18.8828144,22.6849356 20.6331066,22.2671084 22.225,21.4777018 L22.604,21.2877018 C23.4346221,20.8103584 24.2065372,20.2374631 24.904,19.5807018 C24.9789979,19.5227487 25.0495302,19.4592362 25.115,19.3907018 C24.0603549,19.1005009 23.0727635,18.6065353 22.208,17.9367018 C21.3533102,18.6101113 20.3718188,19.104598 19.322,19.3907018" id="Path_1325"></path>
                    <path d="M25.11,19.3937018 C25.0445302,19.4622362 24.9739979,19.5257487 24.899,19.5837018 L25.215,19.4147018 C25.1786226,19.4201368 25.1414888,19.41271 25.11,19.3937018 M35.41,19.2887018 L32.65,17.7507018 C31.7072378,18.5417773 30.5985025,19.1104998 29.406,19.4147018 L32.798,21.2897018 L41.435,26.0507018 L41.435,34.4777018 L13.205,34.4777018 L13.205,26.0527018 L19.967,22.3237018 L21.842,21.2917018 L22.221,21.0807018 L23.801,20.1957018 L24.901,19.5847018 L25.217,19.4157018 C25.1806226,19.4211368 25.1434888,19.41371 25.112,19.3947018 C24.0574385,19.104283 23.0698877,18.6103378 22.205,17.9407018 C22.1307085,17.8894965 22.0601935,17.8330177 21.994,17.7717018 L20.688,18.4877018 L19.213,19.2877018 C19.234,19.3297018 19.276,19.3507018 19.318,19.3927018 C19.2826174,19.3976302 19.2475564,19.4046424 19.213,19.4137018 L19.034,19.4587018 L18.813,19.5187018 L18.792,19.5187018 L13.904,22.2367018 L10.196,24.2797018 L10.196,37.4677018 L44.452,37.4677018 L44.452,24.2817018 L35.41,19.2887018 Z M25.11,19.3937018 C25.0445302,19.4622362 24.9739979,19.5257487 24.899,19.5837018 L25.215,19.4147018 C25.1786226,19.4201368 25.1414888,19.41271 25.11,19.3937018" id="Path_1326"></path>
                    <path d="M21.339,17.1607018 C19.6854256,15.4578049 18.8347445,13.1316304 18.9996277,10.7637242 C19.1645109,8.39581809 20.329374,6.20999096 22.203,4.75270181 C21.3522124,4.07781455 20.3688968,3.5895639 19.317,3.31970181 C17.1710163,5.43916955 15.9643379,8.3305151 15.9669817,11.3467018 C15.9646272,12.6475402 16.1928228,13.9385043 16.641,15.1597018 C17.1851542,16.707538 18.0624694,18.1170456 19.211,19.2887018 C19.232,19.3307018 19.274,19.3517018 19.316,19.3937018 C20.3657992,19.1075468 21.3472808,18.6130651 22.202,17.9397018 C22.1275919,17.8886535 22.0570657,17.8321657 21.991,17.7707018 C21.759,17.5607018 21.548,17.3707018 21.338,17.1597018 M21.338,17.1597018 C19.6844256,15.4568049 18.8337445,13.1306304 18.9986277,10.7627242 C19.1635109,8.39481809 20.328374,6.20899096 22.202,4.75170181 C21.3512124,4.07681455 20.3678968,3.5885639 19.316,3.31870181 C17.1700163,5.43816955 15.9633379,8.3295151 15.9659817,11.3457018 C15.9636272,12.6465402 16.1918228,13.9375043 16.64,15.1587018 C17.1841542,16.706538 18.0614694,18.1160456 19.21,19.2877018 C19.231,19.3297018 19.273,19.3507018 19.315,19.3927018 C20.3647992,19.1065468 21.3462808,18.6120651 22.201,17.9387018 C22.1265919,17.8876535 22.0560657,17.8311657 21.99,17.7697018 C21.758,17.5597018 21.547,17.3697018 21.337,17.1587018 M21.337,17.1587018 C19.6834256,15.4558049 18.8327445,13.1296304 18.9976277,10.7617242 C19.1625109,8.39381809 20.327374,6.20799096 22.201,4.75070181 C21.3502124,4.07581455 20.3668968,3.5875639 19.315,3.31770181 C17.1690163,5.43716955 15.9623379,8.3285151 15.9649817,11.3447018 C15.9626272,12.6455402 16.1908228,13.9365043 16.639,15.1577018 C17.1831542,16.705538 18.0604694,18.1150456 19.209,19.2867018 C19.23,19.3287018 19.272,19.3497018 19.314,19.3917018 C20.3637992,19.1055468 21.3452808,18.6110651 22.2,17.9377018 C22.1255919,17.8866535 22.0550657,17.8301657 21.989,17.7687018 C21.757,17.5587018 21.546,17.3687018 21.336,17.1577018 M21.336,17.1577018 C19.6824256,15.4548049 18.8317445,13.1286304 18.9966277,10.7607242 C19.1615109,8.39281809 20.326374,6.20699096 22.2,4.74970181 C21.3492124,4.07481455 20.3658968,3.5865639 19.314,3.31670181 C17.1680163,5.43616955 15.9613379,8.3275151 15.9639817,11.3437018 C15.9616272,12.6445402 16.1898228,13.9355043 16.638,15.1567018 C17.1821542,16.704538 18.0594694,18.1140456 19.208,19.2857018 C19.229,19.3277018 19.271,19.3487018 19.313,19.3907018 C20.3627992,19.1045468 21.3442808,18.6100651 22.199,17.9367018 C22.1245919,17.8856535 22.0540657,17.8291657 21.988,17.7677018 C21.756,17.5577018 21.545,17.3677018 21.335,17.1567018 M32.648,17.7467018 C31.7052378,18.5377773 30.5965025,19.1064998 29.404,19.4107018 C28.7174524,19.5977141 28.0085435,19.6899026 27.297,19.6847018 C26.7382061,19.6816929 26.1809887,19.6251005 25.633,19.5157018 L25.612,19.5157018 C25.4762543,19.4906382 25.3425543,19.4555419 25.212,19.4107018 C25.1756226,19.4161368 25.1384888,19.40871 25.107,19.3897018 C24.0523642,19.0994766 23.0647773,18.6055133 22.2,17.9357018 C22.1255919,17.8846535 22.0550657,17.8281657 21.989,17.7667018 C21.757,17.5567018 21.546,17.3667018 21.336,17.1557018 C19.6824256,15.4528049 18.8317445,13.1266304 18.9966277,10.7587242 C19.1615109,8.39081809 20.326374,6.20499096 22.2,4.74770181 C23.0610797,4.07669874 24.0503782,3.58902596 25.107,3.31470181 C25.8178439,3.10230595 26.5561087,2.99582869 27.298,2.99864519 C30.8085493,2.99949638 33.9432342,5.19726049 35.1406579,8.49728067 C36.3380817,11.7973009 35.3421741,15.4938648 32.649,17.7457018 M27.298,0.00770181303 C25.5312887,-0.00549798507 23.788212,0.414048924 22.221,1.22970181 C21.1444135,1.76090923 20.1623509,2.4652782 19.314,3.31470181 C17.1680163,5.43416955 15.9613379,8.3255151 15.9639817,11.3417018 C15.9616272,12.6425402 16.1898228,13.9335043 16.638,15.1547018 C17.1821542,16.702538 18.0594694,18.1120456 19.208,19.2837018 C19.229,19.3257018 19.271,19.3467018 19.313,19.3887018 C19.3784433,19.4572634 19.4489777,19.5207779 19.524,19.5787018 C20.2125154,20.2534793 20.9924826,20.8281034 21.841,21.2857018 C21.9630306,21.3572769 22.0896372,21.4207473 22.22,21.4757018 C22.9470524,21.8595511 23.7198987,22.1495365 24.52,22.3387018 C25.4277554,22.5770913 26.3624645,22.6974171 27.301,22.696705 C28.3917834,22.6950144 29.4768518,22.5391389 30.524,22.2337018 C31.3096937,21.9869601 32.071463,21.6696678 32.8,21.2857018 C33.7575113,20.740836 34.6362697,20.0679735 35.412,19.2857018 C38.6114113,16.0241603 39.5403921,11.1608549 37.7684063,6.94968501 C35.9964204,2.73851509 31.8697892,0.00252195228 27.301,0.00970181303 M21.339,17.1577018 C19.6854256,15.4548049 18.8347445,13.1286304 18.9996277,10.7607242 C19.1645109,8.39281809 20.329374,6.20699096 22.203,4.74970181 C21.3522124,4.07481455 20.3688968,3.5865639 19.317,3.31670181 C17.1710163,5.43616955 15.9643379,8.3275151 15.9669817,11.3437018 C15.9646272,12.6445402 16.1928228,13.9355043 16.641,15.1567018 C17.1851542,16.704538 18.0624694,18.1140456 19.211,19.2857018 C19.232,19.3277018 19.274,19.3487018 19.316,19.3907018 C20.3657992,19.1045468 21.3472808,18.6100651 22.202,17.9367018 C22.1275919,17.8856535 22.0570657,17.8291657 21.991,17.7677018 C21.759,17.5577018 21.548,17.3677018 21.338,17.1567018 M21.338,17.1567018 C19.6844256,15.4538049 18.8337445,13.1276304 18.9986277,10.7597242 C19.1635109,8.39181809 20.328374,6.20599096 22.202,4.74870181 C21.3512124,4.07381455 20.3678968,3.5855639 19.316,3.31570181 C17.1700163,5.43516955 15.9633379,8.3265151 15.9659817,11.3427018 C15.9636272,12.6435402 16.1918228,13.9345043 16.64,15.1557018 C17.1841542,16.703538 18.0614694,18.1130456 19.21,19.2847018 C19.231,19.3267018 19.273,19.3477018 19.315,19.3897018 C20.3647992,19.1035468 21.3462808,18.6090651 22.201,17.9357018 C22.1265919,17.8846535 22.0560657,17.8281657 21.99,17.7667018 C21.758,17.5567018 21.547,17.3667018 21.337,17.1557018 M21.337,17.1557018 C19.6834256,15.4528049 18.8327445,13.1266304 18.9976277,10.7587242 C19.1625109,8.39081809 20.327374,6.20499096 22.201,4.74770181 C21.3502124,4.07281455 20.3668968,3.5845639 19.315,3.31470181 C17.1690163,5.43416955 15.9623379,8.3255151 15.9649817,11.3417018 C15.9626272,12.6425402 16.1908228,13.9335043 16.639,15.1547018 C17.1831542,16.702538 18.0604694,18.1120456 19.209,19.2837018 C19.23,19.3257018 19.272,19.3467018 19.314,19.3887018 C20.3637992,19.1025468 21.3452808,18.6080651 22.2,17.9347018 C22.1255919,17.8836535 22.0550657,17.8271657 21.989,17.7657018 C21.757,17.5557018 21.546,17.3657018 21.336,17.1547018 M21.336,17.1547018 C19.6824256,15.4518049 18.8317445,13.1256304 18.9966277,10.7577242 C19.1615109,8.38981809 20.326374,6.20399096 22.2,4.74670181 C21.3492124,4.07181455 20.3658968,3.5835639 19.314,3.31370181 C17.1680163,5.43316955 15.9613379,8.3245151 15.9639817,11.3407018 C15.9616272,12.6415402 16.1898228,13.9325043 16.638,15.1537018 C17.1821542,16.701538 18.0594694,18.1110456 19.208,19.2827018 C19.229,19.3247018 19.271,19.3457018 19.313,19.3877018 C20.3627992,19.1015468 21.3442808,18.6070651 22.199,17.9337018 C22.1245919,17.8826535 22.0540657,17.8261657 21.988,17.7647018 C21.756,17.5547018 21.545,17.3647018 21.335,17.1537018 M21.335,17.1537018 C19.6814256,15.4508049 18.8307445,13.1246304 18.9956277,10.7567242 C19.1605109,8.38881809 20.325374,6.20299096 22.199,4.74570181 C21.3482124,4.07081455 20.3648968,3.5825639 19.313,3.31270181 C17.1670163,5.43216955 15.9603379,8.3235151 15.9629817,11.3397018 C15.9606272,12.6405402 16.1888228,13.9315043 16.637,15.1527018 C17.1811542,16.700538 18.0584694,18.1100456 19.207,19.2817018 C19.228,19.3237018 19.27,19.3447018 19.312,19.3867018 C20.3617992,19.1005468 21.3432808,18.6060651 22.198,17.9327018 C22.1235919,17.8816535 22.0530657,17.8251657 21.987,17.7637018 C21.755,17.5537018 21.544,17.3637018 21.334,17.1527018" id="Path_1327"></path>
                </g>
            </g>
        </g>
    </g>
</svg>