<svg id="Reload_icon" data-name="Reload icon" xmlns="http://www.w3.org/2000/svg" width="20" height="20" viewBox="0 0 20 20">
  <path id="Subtraction_7" data-name="Subtraction 7" d="M16,20a10.014,10.014,0,0,1-9.95-9H8.062a8,8,0,0,0,15.876,0H25.95A10.015,10.015,0,0,1,16,20ZM8.062,9H6.05a10,10,0,0,1,19.9,0H23.938A8,8,0,0,0,8.062,9Z" transform="translate(-6)" fill="#fff"/>
  <path id="Union_20" data-name="Union 20" d="M0,6V4H4V0H6V6Z" transform="translate(14 3)" fill="#fff"/>
  <path id="Union_21" data-name="Union 21" d="M0,6V4H4V0H6V6Z" transform="translate(6 17) rotate(180)" fill="#fff"/>
</svg>
