<?xml version="1.0" encoding="UTF-8"?>
<svg width="24px" height="24px" viewBox="0 0 24 24" version="1.1" xmlns="http://www.w3.org/2000/svg" xmlns:xlink="http://www.w3.org/1999/xlink">
    <title>Artboard</title>
    <defs>
        <rect id="path-1" x="0" y="0" width="24" height="24"></rect>
    </defs>
    <g id="Artboard" stroke="none" stroke-width="1" fill="none" fill-rule="evenodd">
        <g id="icon-search-–-1">
            <mask id="mask-2" fill="white">
                <use xlink:href="#path-1"></use>
            </mask>
            <g id="Rectangle"></g>
            <g id="icon-search_1" mask="url(#mask-2)">
                <g transform="translate(-1.536157, -1.287347)" id="icon.search">
                    <g transform="translate(13.788582, 13.788582) rotate(-45.000000) translate(-13.788582, -13.788582) translate(6.288582, 1.788582)">
                        <path d="M9.61809153,24 L4.90873325,24 L4.90873325,14.5575597 C3.48816812,14.0358223 2.25783988,13.0920546 1.38007763,11.8507771 C-0.73316283,8.8675505 -0.387269754,4.77882312 2.19653197,2.19964663 C5.13393804,-0.733215543 9.86578868,-0.733215543 12.8031948,2.19964663 C15.4531428,4.84454725 15.7407988,9.06329275 13.4747776,12.0490379 C12.5008883,13.3259089 11.1506502,14.2585838 9.61809153,14.7130379 L9.61809153,24 Z M6.41643156,14.9405162 L6.41643156,22.6852118 L8.11349761,22.6852118 L8.11349761,14.9947771 C7.91171232,15.0114727 7.70578784,15.0198205 7.50193296,15.0198205 C7.13868319,15.0196196 6.77591657,14.9931167 6.41643156,14.9405162 L6.41643156,14.9405162 Z M7.50089816,1.76658675 C4.364348,1.79075933 1.83843709,4.36937286 1.85298308,7.53229646 C1.86765517,10.6952201 4.4172764,13.2499955 7.55391362,13.2446968 C10.6905508,13.2393817 13.2316561,10.6759932 13.2357396,7.51303793 C13.2231897,4.33035912 10.6571128,1.75909469 7.50089816,1.76658675 Z" id="Subtraction_10" fill="#000000" fill-rule="nonzero"></path>
                    </g>
                </g>
            </g>
        </g>
    </g>
</svg>