<?xml version="1.0" encoding="UTF-8"?>
<svg width="36px" height="34px" viewBox="0 0 36 34" version="1.1" xmlns="http://www.w3.org/2000/svg" xmlns:xlink="http://www.w3.org/1999/xlink">
    <title>icon-warning</title>
    <g id="Page-1" stroke="none" stroke-width="1" fill="none" fill-rule="evenodd">
        <g id="icon-warning" transform="translate(-14.000000, -15.000000)" fill="#FFFFFF" fill-rule="nonzero">
            <g transform="translate(14.893469, 15.312776)" id="icon.warning">
                <g transform="translate(0.000000, 0.000000)">
                    <path d="M17.1065312,33.3764113 C12.5893258,33.3973032 8.24489088,31.6417148 5.01053118,28.4882236 C1.80853164,25.3976241 0,21.1384603 0,16.6882236 C0,12.237987 1.80853164,7.97882309 5.01053118,4.88822361 C11.7575818,-1.62940787 22.4554806,-1.62940787 29.2025312,4.88822361 C32.4045307,7.97882309 34.2130624,12.237987 34.2130624,16.6882236 C34.2130624,21.1384603 32.4045307,25.3976241 29.2025312,28.4882236 C25.9681715,31.6417148 21.6237366,33.3973032 17.1065312,33.3764113 Z M17.1065312,3.9240799 C13.6521379,3.90809179 10.3298682,5.25064791 7.85653118,7.66222361 C5.40780273,10.0259443 4.02474515,13.2832773 4.02474515,16.6867236 C4.02474515,20.0901699 5.40780273,23.3475029 7.85653118,25.7112236 C13.0161694,30.6952013 21.1968929,30.6952013 26.3565312,25.7112236 C28.8050009,23.347362 30.1878774,20.0900816 30.1878774,16.6867236 C30.1878774,13.2833656 28.8050009,10.0260852 26.3565312,7.66222361 C23.8830334,5.25101367 20.560783,3.90882454 17.1065312,3.92522361 L17.1065312,3.9240799 Z" id="Subtraction_12"></path>
                    <rect id="Rectangle_1523" x="15.0005312" y="9.03622361" width="4" height="10"></rect>
                    <rect id="Rectangle_1524" x="15.0005312" y="21.0362236" width="4" height="3"></rect>
                </g>
            </g>
        </g>
    </g>
</svg>