<?xml version="1.0" encoding="UTF-8"?>
<svg width="42px" height="42px" viewBox="0 0 42 42" version="1.1" xmlns="http://www.w3.org/2000/svg" xmlns:xlink="http://www.w3.org/1999/xlink">
    <title>icon-phone</title>
    <g id="Page-1" stroke="none" stroke-width="1" fill="none" fill-rule="evenodd">
        <g id="icon-phone" transform="translate(-11.000000, -11.000000)" fill="#000000" fill-rule="nonzero">
            <g transform="translate(11.703852, 11.651651)" id="icon.phone">
                <g transform="translate(-0.000000, -0.000000)">
                    <path d="M29.6561482,40.696349 C29.4711482,40.696349 29.3001482,40.689349 29.1201482,40.681349 L29.0881482,40.681349 C26.4014406,40.4149871 23.7890958,39.6441757 21.3881482,38.409349 C16.1364193,35.8072844 11.4999765,32.1151759 7.78814819,27.579349 C4.94956994,24.3596836 2.70082251,20.6648051 1.14514819,16.664349 C0.291209106,14.6002824 -0.0933938409,12.3722495 0.0191481867,10.141349 C0.138801686,8.55216376 0.833052546,7.06092855 1.97214819,5.94634896 L4.92914819,2.98834896 C5.34014819,2.59634896 6.01214819,1.94034896 6.60514819,1.36134896 C6.90514819,1.06134896 8.05514819,-0.0156510413 8.08114819,0.000172555158 C8.10714819,0.0163489587 13.9721482,5.85934896 18.9181482,10.933349 C18.4121482,11.468349 14.6011482,15.490349 13.3851482,16.687349 C13.9823582,17.9090691 14.7207306,19.056567 15.5851482,20.106349 C17.5624301,22.6027976 19.9323282,24.7612726 22.6021482,26.497349 C22.7391482,26.584349 23.2261482,26.838349 23.5811482,27.024349 L23.8921482,27.186349 C27.3391482,23.742349 29.2421482,21.897349 29.2611482,21.878349 L29.6091482,21.541349 L29.9571482,21.877349 C29.9771482,21.896349 32.0321482,23.886349 40.2631482,32.041349 L40.6051482,32.380349 L40.2781482,32.735349 C38.6691482,34.483349 37.2781482,35.911349 36.2701482,36.953349 C35.6001482,37.643349 35.1091482,38.153349 34.9161482,38.376349 C34.894295,38.4076541 34.8698776,38.4370888 34.8431482,38.464349 C33.5274271,39.9362082 31.6295452,40.7528792 29.6561482,40.696349 Z M11.9411482,28.001349 C12.3521482,28.354349 18.9161482,33.968349 22.6721482,35.786349 C24.7329358,36.8568354 26.976536,37.530526 29.2861482,37.772349 C29.4171482,37.780349 29.5471482,37.787349 29.6641482,37.787349 C30.8095792,37.8321132 31.9154383,37.3644049 32.6811482,36.511349 L32.7061482,36.484349 L32.7341482,36.461349 C33.0797967,36.1660944 33.3993159,35.8415566 33.6891482,35.491349 C33.8981482,35.253349 34.1141482,35.007349 34.3481482,34.780349 L34.3681482,34.761349 C34.5421482,34.576349 35.6201482,33.361349 36.4461482,32.422349 L29.6081482,25.686349 L24.2581482,30.875349 L23.9311482,30.688349 C23.8311482,30.628349 21.3691482,29.219349 21.0151482,28.988349 C18.0736995,27.0830894 15.4650061,24.7078339 13.2931482,21.957349 C12.0580119,20.2456356 10.9227875,18.4640012 9.89314819,16.621349 L9.86914819,16.579349 L9.85414819,16.533349 C9.79281522,16.3283645 9.85877972,16.1065196 10.0221482,15.968349 L10.1931482,15.788349 C10.3381482,15.637349 10.5451482,15.423349 10.7931482,15.167349 C11.2321482,14.715349 11.8441482,14.086349 12.6131482,13.298349 C13.5261482,12.363349 14.4391482,11.429349 14.9131482,10.939349 C12.4501482,8.43934896 9.12814819,5.08434896 8.07914819,4.03934896 C7.50114819,4.60034896 6.30614819,5.77134896 4.04714819,8.01934896 C3.39817733,8.64556712 3.00386252,9.48976414 2.94014819,10.389349 C2.86772135,12.1989354 3.19693652,14.0021056 3.90414819,15.669349 C5.34657377,19.4088704 7.42674278,22.8698413 10.0521482,25.898349 C10.6721482,26.644349 11.7861482,27.835349 11.9411482,28.001349 Z" id="Path_1699_-_Outline"></path>
                </g>
            </g>
        </g>
    </g>
</svg>