<?xml version="1.0" encoding="UTF-8"?>
<svg width="24px" height="24px" viewBox="0 0 24 24" version="1.1" xmlns="http://www.w3.org/2000/svg" xmlns:xlink="http://www.w3.org/1999/xlink">
    <title>Artboard</title>
    <g id="Artboard" stroke="none" stroke-width="1" fill="none" fill-rule="evenodd">
        <g id="icon-people" transform="translate(0.400000, 0.000000)" fill="#000000" fill-rule="nonzero">
            <g id="icon.people">
                <path d="M10.0134867,12.4203817 C9.96952929,12.4642902 9.92217282,12.5049813 9.87181808,12.5421106 L10.0839853,12.4338359 C10.0595609,12.437318 10.0346287,12.4325598 10.0134867,12.4203817 M16.9290635,12.3531105 L15.0759575,11.3677474 C14.4429726,11.8745722 13.6985508,12.2389403 12.8978865,12.4338359 L15.175327,13.6351076 L20.9743403,16.6853767 L20.9743403,22.0843721 L2.02028842,22.0843721 L2.02028842,16.686658 L6.56039818,14.2975689 L7.81930173,13.636389 L8.0737681,13.5012059 L9.13460416,12.9342056 L9.87316091,12.5427512 L10.0853281,12.4344766 C10.0609038,12.4379587 10.0359716,12.4332005 10.0148295,12.4210224 C9.30678086,12.2349574 8.64372423,11.9184974 8.06302546,11.4894762 C8.013145,11.4566701 7.96580014,11.4204853 7.92135684,11.3812016 L7.04448856,11.8399272 L6.0541511,12.3524698 C6.06825082,12.3793783 6.09645026,12.3928325 6.1246497,12.419741 C6.10089326,12.4228985 6.0773528,12.4273911 6.0541511,12.4331953 L5.93396777,12.4620258 L5.78558501,12.5004665 L5.77148529,12.5004665 L2.48960766,14.2418299 L0,15.5507355 L0,24 L23,24 L23,15.5520169 L16.9290635,12.3531105 Z M10.0134867,12.4203817 C9.96952929,12.4642902 9.92217282,12.5049813 9.87181808,12.5421106 L10.0839853,12.4338359 C10.0595609,12.437318 10.0346287,12.4325598 10.0134867,12.4203817" id="Path_1326"></path>
                <path d="M7.48157987,10.9897472 C6.37134487,9.89873823 5.8001846,8.40840887 5.9108897,6.89134295 C6.0215948,5.37427703 6.8037016,3.97386517 8.06168262,3.04021174 C7.49045089,2.60782617 6.83023778,2.29501461 6.12397828,2.12211984 C4.68313217,3.48001668 3.87294992,5.33243883 3.87472498,7.26484398 C3.87314414,8.09826281 4.02635814,8.92535543 4.32727113,9.70775007 C4.69262453,10.699415 5.28166732,11.6024559 6.05280827,12.3531105 C6.06690799,12.380019 6.09510743,12.3934732 6.12330687,12.4203817 C6.82815802,12.2370484 7.4871397,11.9202447 8.06101121,11.4888355 C8.01105247,11.45613 7.96370015,11.4199395 7.9193426,11.3805609 C7.76357426,11.2460185 7.62190565,11.1242896 7.48090845,10.9891065 M7.48090845,10.9891065 C6.37067345,9.89809756 5.79951318,8.40776819 5.91021828,6.89070227 C6.02092338,5.37363635 6.80303019,3.97322449 8.06101121,3.03957107 C7.48977948,2.60718549 6.82956636,2.29437393 6.12330687,2.12147916 C4.68246076,3.479376 3.8722785,5.33179815 3.87405356,7.26420331 C3.87247272,8.09762213 4.02568672,8.92471475 4.32659972,9.70710939 C4.69195311,10.6987744 5.28099591,11.6018152 6.05213685,12.3524698 C6.06623657,12.3793783 6.09443601,12.3928325 6.12263545,12.419741 C6.82748661,12.2364077 7.48646828,11.919604 8.06033979,11.4881949 C8.01038105,11.4554893 7.96302873,11.4192988 7.91867118,11.3799202 C7.76290285,11.2453778 7.62123424,11.123649 7.48023704,10.9884659 M7.48023704,10.9884659 C6.37000204,9.89745688 5.79884177,8.40712751 5.90954687,6.89006159 C6.02025197,5.37299567 6.80235877,3.97258381 8.06033979,3.03893039 C7.48910806,2.60654481 6.82889495,2.29373325 6.12263545,2.12083849 C4.68178934,3.47873532 3.87160709,5.33115747 3.87338214,7.26356263 C3.87180131,8.09698146 4.02501531,8.92407407 4.3259283,9.70646871 C4.69128169,10.6981337 5.28032449,11.6011745 6.05146544,12.3518291 C6.06556516,12.3787376 6.0937646,12.3921919 6.12196404,12.4191003 C6.82681519,12.235767 7.48579687,11.9189634 8.05966838,11.4875542 C8.00970964,11.4548486 7.96235731,11.4186582 7.91799977,11.3792796 C7.76223143,11.2447371 7.62056282,11.1230083 7.47956562,10.9878252 M7.47956562,10.9878252 C6.36933062,9.8968162 5.79817035,8.40648684 5.90887545,6.88942091 C6.01958055,5.37235499 6.80168736,3.97194314 8.05966838,3.03828971 C7.48843664,2.60590413 6.82822353,2.29309257 6.12196404,2.12019781 C4.68111793,3.47809464 3.87093567,5.33051679 3.87271073,7.26292195 C3.87112989,8.09634078 4.02434389,8.92343339 4.32525689,9.70582804 C4.69061028,10.697493 5.27965308,11.6005338 6.05079402,12.3511884 C6.06489374,12.3780969 6.09309318,12.3915512 6.12129262,12.4184597 C6.82614378,12.2351263 7.48512545,11.9183227 8.05899696,11.4869135 C8.00903822,11.454208 7.9616859,11.4180175 7.91732835,11.3786389 C7.76156002,11.2440965 7.61989141,11.1223676 7.47889421,10.9871845 M15.0746147,11.3651846 C14.4416298,11.8720095 13.697208,12.2363776 12.8965437,12.4312732 C12.4355852,12.551088 11.9596129,12.6101511 11.4818718,12.6068191 C11.1066891,12.6048913 10.7325648,12.5686338 10.3646369,12.4985444 L10.3505371,12.4985444 C10.2593954,12.4824867 10.1696272,12.4600013 10.081971,12.4312732 C10.0575467,12.4347553 10.0326145,12.4299971 10.0114724,12.417819 C9.30337393,12.231878 8.64029304,11.9154065 8.05966838,11.4862728 C8.00970964,11.4535673 7.96235731,11.4173768 7.91799977,11.3779982 C7.76223143,11.2434558 7.62056282,11.1217269 7.47956562,10.9865438 C6.36933062,9.89553484 5.79817035,8.40520548 5.90887545,6.88813956 C6.01958055,5.37107364 6.80168736,3.97066178 8.05966838,3.03700835 C8.63781039,2.6071113 9.30204048,2.29466996 10.0114724,2.11891645 C10.4887438,1.98283904 10.9844261,1.91462138 11.4825432,1.91642585 C13.8395794,1.91697119 15.9442546,3.32503081 16.7482231,5.4392819 C17.5521917,7.55353298 16.8835242,9.92184099 15.0752861,11.364544 M11.4825432,0.000193548189 C10.2963463,-0.00826327507 9.12601812,0.260531296 8.0737681,0.783102344 C7.35093155,1.12343537 6.69155975,1.57470923 6.12196404,2.11891645 C4.68111793,3.47681329 3.87093567,5.32923543 3.87271073,7.26164059 C3.87112989,8.09505942 4.02434389,8.92215204 4.32525689,9.70454668 C4.69061028,10.6962117 5.27965308,11.5992525 6.05079402,12.3499071 C6.06489374,12.3768156 6.09309318,12.3902698 6.12129262,12.4171783 C6.16523224,12.4611042 6.21259014,12.5017966 6.26296123,12.5389072 C6.72524097,12.9712224 7.24892278,13.3393715 7.81863031,13.6325449 C7.90056349,13.6784015 7.98556913,13.7190656 8.07309668,13.7542738 C8.56125075,14.0001977 9.08015154,14.185985 9.6173517,14.3071791 C10.2268325,14.4599101 10.8544104,14.5370001 11.4845574,14.5365439 C12.216926,14.5354608 12.9454574,14.4355948 13.6485287,14.2399079 C14.1760555,14.0818258 14.6875189,13.8785436 15.1766698,13.6325449 C15.8195574,13.2834612 16.4095692,12.8523729 16.9304064,12.3511884 C19.0785398,10.2615898 19.7022717,7.14577593 18.5125334,4.44777105 C17.3227951,1.74976616 14.5521121,-0.00312507582 11.4845574,0.00147490465 M7.48157987,10.9878252 C6.37134487,9.8968162 5.8001846,8.40648684 5.9108897,6.88942091 C6.0215948,5.37235499 6.8037016,3.97194314 8.06168262,3.03828971 C7.49045089,2.60590413 6.83023778,2.29309257 6.12397828,2.12019781 C4.68313217,3.47809464 3.87294992,5.33051679 3.87472498,7.26292195 C3.87314414,8.09634078 4.02635814,8.92343339 4.32727113,9.70582804 C4.69262453,10.697493 5.28166732,11.6005338 6.05280827,12.3511884 C6.06690799,12.3780969 6.09510743,12.3915512 6.12330687,12.4184597 C6.82815802,12.2351263 7.4871397,11.9183227 8.06101121,11.4869135 C8.01105247,11.454208 7.96370015,11.4180175 7.9193426,11.3786389 C7.76357426,11.2440965 7.62190565,11.1223676 7.48090845,10.9871845 M7.48090845,10.9871845 C6.37067345,9.89617552 5.79951318,8.40584616 5.91021828,6.88878024 C6.02092338,5.37171432 6.80303019,3.97130246 8.06101121,3.03764903 C7.48977948,2.60526345 6.82956636,2.2924519 6.12330687,2.11955713 C4.68246076,3.47745396 3.8722785,5.32987611 3.87405356,7.26228127 C3.87247272,8.0957001 4.02568672,8.92279271 4.32659972,9.70518736 C4.69195311,10.6968523 5.28099591,11.5998932 6.05213685,12.3505478 C6.06623657,12.3774563 6.09443601,12.3909105 6.12263545,12.417819 C6.82748661,12.2344857 7.48646828,11.917682 8.06033979,11.4862728 C8.01038105,11.4535673 7.96302873,11.4173768 7.91867118,11.3779982 C7.76290285,11.2434558 7.62123424,11.1217269 7.48023704,10.9865438 M7.48023704,10.9865438 C6.37000204,9.89553484 5.79884177,8.40520548 5.90954687,6.88813956 C6.02025197,5.37107364 6.80235877,3.97066178 8.06033979,3.03700835 C7.48910806,2.60462277 6.82889495,2.29181122 6.12263545,2.11891645 C4.68178934,3.47681329 3.87160709,5.32923543 3.87338214,7.26164059 C3.87180131,8.09505942 4.02501531,8.92215204 4.3259283,9.70454668 C4.69128169,10.6962117 5.28032449,11.5992525 6.05146544,12.3499071 C6.06556516,12.3768156 6.0937646,12.3902698 6.12196404,12.4171783 C6.82681519,12.233845 7.48579687,11.9170413 8.05966838,11.4856322 C8.00970964,11.4529266 7.96235731,11.4167361 7.91799977,11.3773575 C7.76223143,11.2428151 7.62056282,11.1210862 7.47956562,10.9859031 M7.47956562,10.9859031 C6.36933062,9.89489416 5.79817035,8.4045648 5.90887545,6.88749888 C6.01958055,5.37043296 6.80168736,3.9700211 8.05966838,3.03636767 C7.48843664,2.6039821 6.82822353,2.29117054 6.12196404,2.11827577 C4.68111793,3.47617261 3.87093567,5.32859476 3.87271073,7.26099992 C3.87112989,8.09441874 4.02434389,8.92151136 4.32525689,9.703906 C4.69061028,10.695571 5.27965308,11.5986118 6.05079402,12.3492664 C6.06489374,12.3761749 6.09309318,12.3896291 6.12129262,12.4165376 C6.82614378,12.2332043 7.48512545,11.9164006 8.05899696,11.4849915 C8.00903822,11.4522859 7.9616859,11.4160955 7.91732835,11.3767169 C7.76156002,11.2421744 7.61989141,11.1204456 7.47889421,10.9852625 M7.47889421,10.9852625 C6.36865921,9.89425349 5.79749894,8.40392412 5.90820404,6.8868582 C6.01890914,5.36979228 6.80101594,3.96938042 8.05899696,3.035727 C7.48776523,2.60334142 6.82755212,2.29052986 6.12129262,2.11763509 C4.68044651,3.47553193 3.87026425,5.32795408 3.87203931,7.26035924 C3.87045848,8.09377806 4.02367248,8.92087068 4.32458547,9.70326532 C4.68993886,10.6949303 5.27898166,11.5979711 6.05012261,12.3486257 C6.06422233,12.3755342 6.09242177,12.3889885 6.12062121,12.4158969 C6.82547236,12.2325636 7.48445404,11.91576 8.05832555,11.4843508 C8.00836681,11.4516453 7.96101448,11.4154548 7.91665694,11.3760762 C7.7608886,11.2415338 7.61921999,11.1198049 7.47822279,10.9846218" id="Path_1327"></path>
            </g>
        </g>
    </g>
</svg>