<svg id="location_icon_small" data-name="location icon small" xmlns="http://www.w3.org/2000/svg" width="23" height="36.49" viewBox="0 0 23 36.49">
  <path id="Subtraction_10" data-name="Subtraction 10" d="M11.137,36.49v0L7.527,29.014V22.136A11.463,11.463,0,0,1,2.116,18.02,11.359,11.359,0,0,1,3.368,3.344a11.559,11.559,0,0,1,16.264,0A11.359,11.359,0,0,1,20.663,18.32a11.586,11.586,0,0,1-5.916,4.055v6.639l-3.609,7.474Zm-1.3-13.772v5.776l1.3,2.695,1.3-2.695V22.8c-.312.025-.627.038-.937.038A11.712,11.712,0,0,1,9.836,22.718ZM11.5,2.687a8.732,8.732,0,1,0,8.794,8.732A8.773,8.773,0,0,0,11.5,2.687Z" transform="translate(0 0)" fill="#2781be"/>
</svg>
