<svg xmlns="http://www.w3.org/2000/svg" width="48.466" height="48.152" viewBox="0 0 48.466 48.152">
  <g id="Group_1255" data-name="Group 1255" transform="translate(-1108.52 -173.971)">
    <path id="Subtraction_11" data-name="Subtraction 11" d="M14.777,29.344a14.734,14.734,0,0,1-10.449-4.3,14.6,14.6,0,0,1,0-20.749,14.851,14.851,0,0,1,20.9,0,14.6,14.6,0,0,1,0,20.749A14.734,14.734,0,0,1,14.777,29.344Zm0-25.891a11.22,11.22,0,1,0,11.3,11.22A11.273,11.273,0,0,0,14.777,3.453Z" transform="translate(1108.52 194.869) rotate(-45)" fill="#2781be"/>
    <g id="Group_1249" data-name="Group 1249" transform="translate(190.371 862.055) rotate(-45)">
      <rect id="Rectangle_1496" data-name="Rectangle 1496" width="4" height="17" transform="translate(1138 205)" fill="#2781be"/>
      <rect id="Rectangle_1497" data-name="Rectangle 1497" width="4" height="17" transform="translate(1130 205)" fill="#2781be"/>
      <rect id="Rectangle_1498" data-name="Rectangle 1498" width="4" height="12" transform="translate(1142 221) rotate(90)" fill="#2781be"/>
    </g>
  </g>
</svg>
