<svg id="Group_1227" data-name="Group 1227" xmlns="http://www.w3.org/2000/svg" width="63.86" height="63.861" viewBox="0 0 63.86 63.861">
  <path id="Path_1313" data-name="Path 1313" d="M1354.858,448.224c-1.1-2.2-1.982-4.4-3.083-6.606-1.1,2.2-1.982,4.4-3.083,6.606l-7.267.661c1.762,1.541,3.744,3.3,5.505,4.845-.44,2.422-1.1,4.845-1.542,7.267,2.2-1.321,4.184-2.422,6.386-3.743,2.2,1.321,4.184,2.422,6.386,3.743-.44-2.422-1.1-4.845-1.542-7.267,1.762-1.541,3.744-3.3,5.505-4.845a40.54,40.54,0,0,1-7.267-.661" transform="translate(-1320.065 -409.468)"/>
  <path id="Path_1314" data-name="Path 1314" d="M1353.816,397.27v-6.606h-6.606v6.606h-15.415v-6.606h-6.606v6.606h-17.617v57.254h63.86V397.27Zm-28.627,6.606v4.4h6.606v-4.4h15.415v4.4h6.606v-4.4h11.01v8.808h-50.648v-8.808Zm-11.01,15.415h50.648v28.627h-50.648Z" transform="translate(-1307.572 -390.664)"/>
</svg>
