<svg xmlns="http://www.w3.org/2000/svg" width="49" height="59.599" viewBox="0 0 49 59.599">
  <g id="Path_1057" data-name="Path 1057" transform="translate(3242 1392)" fill="rgba(219,83,147,0.9)">
    <path d="M -3217.45654296875 -1334.534423828125 L -3231.712646484375 -1348.941162109375 L -3231.771484375 -1349.000732421875 L -3231.836669921875 -1349.05322265625 C -3234.47802734375 -1351.185546875 -3236.66064453125 -1353.927856445312 -3238.148193359375 -1356.983764648438 C -3239.708740234375 -1360.189331054688 -3240.5 -1363.640380859375 -3240.5 -1367.2412109375 C -3240.5 -1370.3837890625 -3239.891357421875 -1373.431518554688 -3238.69091796875 -1376.299560546875 C -3237.53173828125 -1379.069458007812 -3235.8720703125 -1381.55712890625 -3233.758056640625 -1383.693481445312 C -3231.64501953125 -1385.828857421875 -3229.185302734375 -1387.505004882812 -3226.447021484375 -1388.675415039062 C -3223.614013671875 -1389.886352539062 -3220.603759765625 -1390.500366210938 -3217.5 -1390.500366210938 C -3214.396240234375 -1390.500366210938 -3211.385986328125 -1389.886352539062 -3208.552734375 -1388.675415039062 C -3205.814453125 -1387.505004882812 -3203.354736328125 -1385.828857421875 -3201.24169921875 -1383.693481445312 C -3199.127685546875 -1381.55712890625 -3197.468017578125 -1379.069458007812 -3196.30859375 -1376.299438476562 C -3195.108154296875 -1373.431396484375 -3194.49951171875 -1370.3837890625 -3194.49951171875 -1367.2412109375 C -3194.49951171875 -1360.355102539062 -3197.49267578125 -1353.862060546875 -3202.711669921875 -1349.427001953125 L -3202.760986328125 -1349.385009765625 L -3202.806396484375 -1349.338989257812 L -3217.45654296875 -1334.534423828125 Z" stroke="none"/>
    <path d="M -3217.45654296875 -1336.6669921875 L -3203.87255859375 -1350.394165039062 L -3203.781494140625 -1350.486083984375 L -3203.682861328125 -1350.569946289062 C -3198.800048828125 -1354.719604492188 -3195.99951171875 -1360.796020507812 -3195.99951171875 -1367.2412109375 C -3195.99951171875 -1370.183959960938 -3196.569091796875 -1373.036743164062 -3197.6923828125 -1375.720336914062 C -3198.77685546875 -1378.311889648438 -3200.329833984375 -1380.639526367188 -3202.307861328125 -1382.638427734375 C -3204.283935546875 -1384.63525390625 -3206.583251953125 -1386.202270507812 -3209.142333984375 -1387.296142578125 C -3211.7880859375 -1388.427001953125 -3214.60009765625 -1389.000366210938 -3217.5 -1389.000366210938 C -3220.39990234375 -1389.000366210938 -3223.2119140625 -1388.427001953125 -3225.857421875 -1387.296142578125 C -3228.41650390625 -1386.202270507812 -3230.7158203125 -1384.63525390625 -3232.691650390625 -1382.638427734375 C -3234.669677734375 -1380.639526367188 -3236.22265625 -1378.31201171875 -3237.307373046875 -1375.720336914062 C -3238.430419921875 -1373.036743164062 -3239 -1370.183959960938 -3239 -1367.2412109375 C -3239 -1363.869873046875 -3238.259765625 -1360.6396484375 -3236.799560546875 -1357.640258789062 C -3235.40771484375 -1354.781127929688 -3233.36572265625 -1352.21533203125 -3230.89453125 -1350.220458984375 L -3230.76416015625 -1350.115234375 L -3230.646484375 -1349.996215820312 L -3217.45654296875 -1336.6669921875 M -3217.45654296875 -1332.40185546875 L -3232.77880859375 -1347.886108398438 C -3238.39892578125 -1352.4228515625 -3242 -1359.4072265625 -3242 -1367.2412109375 C -3242 -1380.915405273438 -3231.03125 -1392.000366210938 -3217.5 -1392.000366210938 C -3203.96875 -1392.000366210938 -3192.99951171875 -1380.915405273438 -3192.99951171875 -1367.2412109375 C -3192.99951171875 -1359.632568359375 -3196.39599609375 -1352.825561523438 -3201.740234375 -1348.283935546875 L -3217.45654296875 -1332.40185546875 Z" stroke="none"/>
  </g>
</svg>
