<svg xmlns="http://www.w3.org/2000/svg" xmlns:xlink="http://www.w3.org/1999/xlink" width="1600" height="900" viewBox="0 0 1600 900">
  <defs>
    <clipPath id="clip-ml-graphic-black">
      <rect width="1600" height="900"/>
    </clipPath>
  </defs>
  <g id="ml-graphic-black" clip-path="url(#clip-ml-graphic-black)">
    <g id="bkgd" transform="translate(-1666 -1011)">
      <path id="Path_1" data-name="Path 1" d="M2785.7,1228.8l101.95,408.665-675.393,168.49L2110.3,1397.292" fill="none" stroke="#1d1d1d" stroke-miterlimit="10" stroke-width="28"/>
      <line id="Line_1" data-name="Line 1" y1="317.507" x2="190.719" transform="translate(2212.253 1488.449)" fill="none" stroke="#1d1d1d" stroke-miterlimit="10" stroke-width="28"/>
      <line id="Line_2" data-name="Line 2" x2="313.052" y2="188.043" transform="translate(2574.594 1449.423)" fill="none" stroke="#1d1d1d" stroke-miterlimit="10" stroke-width="28"/>
      <path id="Path_2" data-name="Path 2" d="M2785.7,1228.8,2505.8,1519.091l-395.5-121.8" fill="none" stroke="#fff" stroke-miterlimit="10" stroke-width="28"/>
      <path id="Path_3" data-name="Path 3" d="M2154.978,1576.367,2110.3,1397.292,2402.248,1104,2785.7,1228.8l37.482,150.248" fill="none" stroke="#1d1d1d" stroke-miterlimit="10" stroke-width="28"/>
      <path id="Path_4" data-name="Path 4" d="M2734.644,1298.4,2507.391,1526.7l-85.334-342.061,267.557-66.747Z" transform="translate(-5.822)" fill="#8967aa"/>
      <path id="Path_5" data-name="Path 5" d="M2203.675,1426.047l302.127,93.044-83.745-335.69-262.574,65.5Z" fill="#8967aa"/>
      <path id="Path_6" data-name="Path 6" d="M2785.7,1228.8,2505.8,1519.091l-395.5-121.8" fill="none" stroke="#1d1d1d" stroke-miterlimit="10" stroke-width="28"/>
      <path id="Path_7" data-name="Path 7" d="M2800.979,1293.986" fill="none" stroke="#fff" stroke-miterlimit="10" stroke-width="28"/>
    </g>
    <g id="Layer_2" data-name="Layer 2" transform="translate(-1666 -1011)">
      <line id="Line_3" data-name="Line 3" x1="118.112" y2="28.353" transform="translate(1986.282 1479.888)" fill="none" stroke="#1d1d1d" stroke-miterlimit="10" stroke-width="14" stroke-dasharray="16"/>
      <line id="Line_4" data-name="Line 4" x1="212.407" y2="50.989" transform="translate(1918.988 1584.888)" fill="none" stroke="#1d1d1d" stroke-miterlimit="10" stroke-width="14" stroke-dasharray="16"/>
      <line id="Line_5" data-name="Line 5" x1="325.395" y2="78.112" transform="translate(1828 1689.888)" fill="none" stroke="#1d1d1d" stroke-miterlimit="10" stroke-width="14" stroke-dasharray="16"/>
      <line id="Line_6" data-name="Line 6" x1="18.737" y2="4.498" transform="translate(2813.26 1348.906)" fill="none" stroke="#1d1d1d" stroke-miterlimit="10" stroke-width="14" stroke-dasharray="16"/>
    </g>
  </g>
</svg>
