<svg xmlns="http://www.w3.org/2000/svg" xmlns:xlink="http://www.w3.org/1999/xlink" width="1600" height="900" viewBox="0 0 1600 900">
  <defs>
    <style>
      .cls-1 {
        clip-path: url(#clip-NOBKGD:_Find_out_more_about_getting_into_teaching_UPDATE);
      }

      .cls-2, .cls-3, .cls-5 {
        fill: none;
        stroke-miterlimit: 10;
      }

      .cls-2, .cls-5 {
        stroke: #1d1d1d;
      }

      .cls-2, .cls-3 {
        stroke-width: 28px;
      }

      .cls-3 {
        stroke: #fff;
      }

      .cls-4 {
        fill: #8967aa;
      }

      .cls-5 {
        stroke-width: 14px;
        stroke-dasharray: 16;
      }
    </style>
    <clipPath id="clip-NOBKGD:_Find_out_more_about_getting_into_teaching_UPDATE">
      <rect width="1600" height="900"/>
    </clipPath>
  </defs>
  <g id="NOBKGD:_Find_out_more_about_getting_into_teaching_UPDATE" data-name="NOBKGD: Find out more about getting into teaching UPDATE" class="cls-1">
    <g id="bkgd" transform="translate(-1666 -1011)">
      <path id="Path_1" data-name="Path 1" class="cls-2" d="M2785.7,1228.8l101.95,408.665-675.393,168.49L2110.3,1397.292"/>
      <line id="Line_1" data-name="Line 1" class="cls-2" y1="317.507" x2="190.719" transform="translate(2212.253 1488.449)"/>
      <line id="Line_2" data-name="Line 2" class="cls-2" x2="313.052" y2="188.043" transform="translate(2574.594 1449.423)"/>
      <path id="Path_2" data-name="Path 2" class="cls-3" d="M2785.7,1228.8,2505.8,1519.091l-395.5-121.8"/>
      <path id="Path_3" data-name="Path 3" class="cls-2" d="M2154.978,1576.367,2110.3,1397.292,2402.248,1104,2785.7,1228.8l37.482,150.248"/>
      <path id="Path_4" data-name="Path 4" class="cls-4" d="M2728.822,1295.038,2505.8,1519.091l-83.745-335.69,262.574-65.5Z"/>
      <path id="Path_5" data-name="Path 5" class="cls-4" d="M2203.675,1426.047l302.127,93.044-83.745-335.69-262.574,65.5Z"/>
      <path id="Path_6" data-name="Path 6" class="cls-2" d="M2785.7,1228.8,2505.8,1519.091l-395.5-121.8"/>
      <path id="Path_7" data-name="Path 7" class="cls-3" d="M2800.979,1293.986"/>
    </g>
    <g id="Layer_2" data-name="Layer 2" transform="translate(-1666 -1011)">
      <line id="Line_3" data-name="Line 3" class="cls-5" x1="118.112" y2="28.353" transform="translate(1986.282 1479.888)"/>
      <line id="Line_4" data-name="Line 4" class="cls-5" x1="212.407" y2="50.989" transform="translate(1918.988 1584.888)"/>
      <line id="Line_5" data-name="Line 5" class="cls-5" x1="325.395" y2="78.112" transform="translate(1828 1689.888)"/>
      <line id="Line_6" data-name="Line 6" class="cls-5" x1="18.737" y2="4.498" transform="translate(2813.26 1348.906)"/>
    </g>
  </g>
</svg>
