<svg width="688" height="473" viewBox="0 0 688 473" fill="none" xmlns="http://www.w3.org/2000/svg">
<path d="M348.599 249.548L314.151 229.771L355.045 149.528L458.18 312.504L348.599 249.548ZM230.008 286.463L302.715 243.667L447.259 324.986L230.008 286.463ZM275.689 339.975L275.176 311.829L414.338 335.694L275.689 339.975ZM494.03 334.223L493.397 333.187L493.398 333.057L353.425 114.296L295.758 227.126L183.291 296.078L257.551 308.797L258.485 358.369L493.972 350.886L503.946 350.287L494.03 334.223Z" fill="black"/>
<path d="M65.5548 148.213C78.8334 185.713 123.453 246.445 166.105 207.013C180.846 181.719 210.796 175.193 238.071 191.101L286.032 218.478" stroke="#0B0C0C" stroke-width="10" stroke-dasharray="8 8"/>
</svg>
