<svg width="457" height="255" viewBox="0 0 457 255" fill="none" xmlns="http://www.w3.org/2000/svg">
<path d="M299.716 145.043L265.269 125.267L306.162 45.0237L409.298 207.999L299.716 145.043ZM181.126 181.958L253.833 139.162L398.377 220.481L181.126 181.958ZM226.807 235.471L226.294 207.324L365.456 231.19L226.807 235.471ZM445.147 229.719L444.515 228.683L444.516 228.553L304.543 9.79188L246.876 122.621L134.408 191.573L208.669 204.292L209.603 253.865L445.089 246.382L455.064 245.783L445.147 229.719Z" fill="black"/>
<path d="M16.6726 43.7083C29.9511 81.2083 74.5707 141.941 117.223 102.509C131.964 77.215 161.914 70.6882 189.189 86.5961L237.15 113.974" stroke="#0B0C0C" stroke-width="10" stroke-dasharray="8 8"/>
</svg>
