<svg width="674" height="362" viewBox="0 0 674 362" fill="none" xmlns="http://www.w3.org/2000/svg">
<path d="M462.449 183.91L450.208 171.648C438.352 159.771 438.397 140.465 450.309 128.525C462.221 116.586 481.49 116.535 493.346 128.411L625.866 261.155M462.266 181.007C488.464 207.249 487.558 248.322 461.237 274.703C434.916 301.084 392.341 301.197 366.143 274.955L300.512 209.324" stroke="#0B0C0C" stroke-width="15" stroke-dasharray="15 15"/>
<path d="M673.702 240.624C673.702 276.701 644.456 305.947 608.379 305.947C572.302 305.947 543.056 276.701 543.056 240.624C543.056 204.547 572.302 175.301 608.379 175.301C644.456 175.301 673.702 204.547 673.702 240.624Z" fill="#0B0C0C"/>
<path d="M633.725 212.629L642.37 221.027L593.378 268.618L584.733 260.219L633.725 212.629Z" fill="#FFF8FB"/>
<path d="M602.02 260.217L593.374 268.616L568.519 244.471L577.164 236.073L602.02 260.217Z" fill="#FFF8FB"/>
<path d="M58.7066 362L0 303.293L116.703 186.591C105.445 162.424 101.78 135.411 106.193 109.118C116.741 45.9061 171.591 -0.316406 235.676 0.00163117C308.552 0.365056 367.539 59.3526 367.903 132.228C368.24 197.956 319.684 253.696 254.532 262.373C226.589 266.029 198.207 260.731 173.466 247.241L58.7066 362ZM130.757 210.101L35.0166 305.841L56.1669 326.992L151.238 231.921C148.526 229.618 145.848 227.152 143.308 224.612C138.783 220.082 134.588 215.232 130.757 210.101ZM307.146 60.7741C267.727 21.9046 204.284 22.2753 165.321 61.6022C126.36 100.931 126.582 164.375 165.817 203.429C205.054 242.483 268.499 242.411 307.644 203.266C346.788 163.753 346.565 100.012 307.146 60.7741Z" fill="#0B0C0C"/>
<path d="M245.344 159.574H224.232C224.176 156.618 224.149 154.817 224.149 154.172C224.149 147.506 225.28 142.023 227.543 137.723C229.806 133.422 234.332 128.584 241.121 123.209C247.91 117.833 251.967 114.312 253.292 112.645C255.334 110.011 256.355 107.109 256.355 103.937C256.355 99.529 254.534 95.7661 250.891 92.6483C247.303 89.4767 242.446 87.8909 236.319 87.8909C230.413 87.8909 225.474 89.5304 221.499 92.8095C217.525 96.0887 214.793 101.088 213.303 107.807L191.943 105.227C192.55 95.6049 196.745 87.4339 204.527 80.7144C212.365 73.9949 222.631 70.6352 235.326 70.6352C248.683 70.6352 259.308 74.0487 267.201 80.8757C275.094 87.649 279.04 95.5511 279.04 104.582C279.04 109.581 277.578 114.312 274.652 118.774C271.782 123.235 265.6 129.31 256.107 136.997C251.194 140.975 248.131 144.173 246.917 146.592C245.758 149.011 245.233 153.339 245.344 159.574ZM224.232 193.116V170.458H247.496V193.116H224.232Z" fill="#0B0C0C"/>
</svg>
