<svg xmlns="http://www.w3.org/2000/svg" xmlns:xlink="http://www.w3.org/1999/xlink" width="1600" height="900" viewBox="0 0 1600 900">
  <defs>
    <style>
      .cls-1 {
        clip-path: url(#clip-Steps_to_become);
      }

      .cls-2 {
        fill: #8967aa;
      }

      .cls-3 {
        fill: #1d1d1d;
      }

      .cls-4 {
        fill: none;
      }

      .cls-5 {
        fill: #009a65;
      }
    </style>
    <clipPath id="clip-Steps_to_become">
      <rect width="1600" height="900"/>
    </clipPath>
  </defs>
  <g id="Steps_to_become" data-name="Steps to become" class="cls-1">
    <g id="Layer_2" data-name="Layer 2" transform="translate(0 -1011)">
      <rect id="Rectangle_1" data-name="Rectangle 1" class="cls-2" width="409.407" height="119.95" transform="matrix(0.97, -0.242, 0.242, 0.97, 553.832, 1247.576)"/>
      <path id="Rectangle_2" data-name="Rectangle 2" class="cls-3" d="M-14-14H637.53V138.058H-14ZM609.53,14H14v96.058H609.53Z" transform="matrix(0.97, -0.242, 0.242, 0.97, 553.832, 1247.576)"/>
      <path id="Line_7" data-name="Line 7" class="cls-3" d="M15.45,119.771-13.584,3.389,13.584-3.389,42.618,112.994Z" transform="translate(1037.238 1126.981)"/>
      <path id="Path_8" data-name="Path 8" class="cls-3" d="M1108.289,1206.634l-35.059-21.8,7.392-11.89,22.986,14.291,32.207-53.617,12,7.209Z"/>
      <rect id="Rectangle_3" data-name="Rectangle 3" class="cls-2" width="409.407" height="119.95" transform="matrix(0.97, -0.242, 0.242, 0.97, 478.801, 1466.128)"/>
      <path id="Rectangle_4" data-name="Rectangle 4" class="cls-3" d="M-14-14H637.53V138.058H-14ZM609.53,14H14v96.058H609.53Z" transform="matrix(0.97, -0.242, 0.242, 0.97, 478.801, 1466.128)"/>
      <path id="Line_8" data-name="Line 8" class="cls-3" d="M15.45,119.771-13.584,3.389,13.584-3.389,42.618,112.994Z" transform="translate(962.207 1345.532)"/>
      <path id="Path_9" data-name="Path 9" class="cls-3" d="M1033.258,1425.185l-35.059-21.8,7.392-11.89,22.986,14.291,32.207-53.617,12,7.209Z"/>
      <rect id="Rectangle_5" data-name="Rectangle 5" class="cls-2" width="497.873" height="119.95" transform="matrix(0.97, -0.242, 0.242, 0.97, 404.368, 1683.684)"/>
      <rect id="Rectangle_6" data-name="Rectangle 6" class="cls-4" width="125.701" height="119.95" transform="matrix(0.97, -0.242, 0.242, 0.97, 888.431, 1567.158)"/>
      <path id="Rectangle_7" data-name="Rectangle 7" class="cls-3" d="M-14-14H637.53V138.058H-14ZM609.53,14H14v96.058H609.53Z" transform="matrix(0.97, -0.242, 0.242, 0.97, 404.368, 1683.684)"/>
      <path id="Line_9" data-name="Line 9" class="cls-3" d="M15.45,119.771-13.584,3.389,13.584-3.389,42.618,112.994Z" transform="translate(887.774 1563.088)"/>
      <path id="Path_10" data-name="Path 10" class="cls-5" d="M958.825,1642.741l-35.059-21.8,7.392-11.89,22.986,14.291,32.207-53.617,12,7.209Z"/>
      <path id="Path_11" data-name="Path 11" class="cls-3" d="M352.893,1870.017l-16,0,0-14,16,0Zm-32,0-16,0,0-14,16,0Zm-32,0-16,0,0-14,16,0Zm-32,0-16,0,0-14,16,0Zm-32,0-16,0,0-14,16,0Zm130.088-10.852-3.873-15.524,13.584-3.389,3.873,15.524Zm-7.746-31.048-3.873-15.524,13.584-3.389,3.873,15.524Zm-7.746-31.048-3.873-15.524,13.584-3.389,3.873,15.524ZM331.745,1766l-3.873-15.524,13.584-3.389,3.873,15.524ZM324,1734.956l-3.873-15.524,13.584-3.389,3.873,15.524Zm-7.746-31.048-.382-1.533a79.452,79.452,0,0,1-2.284-15.626l13.986-.629a65.424,65.424,0,0,0,1.881,12.866l.382,1.533Zm153.162-31.085-17.388-16.351c-.044-.042-4.492-4.266-11.454-9.795l7.918-9.973-2.368.591-3.873-15.524,13.584-3.389,3.873,15.524-9.669,2.412c7.058,5.651,11.462,9.841,11.653,10.023l-4.64,4.862,6.529-1.773Zm-140.876-1.071-13.776-2.5a78.96,78.96,0,0,1,5.023-16.788l12.884,5.476A64.945,64.945,0,0,0,328.539,1671.752Zm11.2-26.375-11.368-8.171a79.128,79.128,0,0,1,11.738-13.006l9.288,10.476A65.107,65.107,0,0,0,339.744,1645.377Zm88.37-7.875c-4.452-3.021-8.844-5.717-13.054-8.013l6.7-12.291c4.6,2.511,9.386,5.445,14.212,8.719Zm-66.937-11.117-6.728-12.277a79.038,79.038,0,0,1,16.208-6.657l3.853,13.459A65.014,65.014,0,0,0,361.177,1626.384Zm40.289-3.178a58.58,58.58,0,0,0-13.816-3.454l1.516-13.918a72.49,72.49,0,0,1,17.162,4.243Zm36.912-16.96-3.873-15.524,13.584-3.389,3.873,15.524Zm-7.746-31.048-3.873-15.524,13.584-3.389,3.873,15.524Zm-7.746-31.048-3.873-15.524,13.584-3.389,3.873,15.524Zm-7.746-31.048-3.873-15.524,13.584-3.389,3.873,15.524Zm-7.746-31.048-2.738-10.976q-.626-2.511-1.083-5.023l13.773-2.51q.377,2.071.894,4.143l2.738,10.976Zm8.958-32.882-13.987-.6a78.6,78.6,0,0,1,2.7-17.321l13.5,3.69A64.577,64.577,0,0,0,416.353,1449.17Zm124.7-22.27-.807-1.851.236-.107-3.093-12.4,13.584-3.389,3.331,13.353Zm-117.158-5.36-12.361-6.573a79.409,79.409,0,0,1,9.879-14.462l10.616,9.126A65.374,65.374,0,0,0,423.895,1421.54Zm108.964-8.852a64.889,64.889,0,0,0-9.953-10.421l8.988-10.734.322.271-2.571-10.307,13.584-3.389,3.873,15.524-10.143,2.531a78.747,78.747,0,0,1,7.04,8.044Zm-90.281-12.872-8.335-11.248a78.524,78.524,0,0,1,15.165-8.8l5.627,12.819A64.489,64.489,0,0,0,442.578,1399.816Zm68.316-5.53a65.14,65.14,0,0,0-13.467-5.145l3.514-13.552a79.177,79.177,0,0,1,16.365,6.251Zm-42.087-6-2.687-13.74a78.956,78.956,0,0,1,17.466-1.435l-.417,13.994A64.872,64.872,0,0,0,468.807,1388.287Zm56.964-22.314-3.873-15.524,13.584-3.389,3.873,15.524Zm-7.746-31.048-3.873-15.524,13.584-3.389,3.873,15.524Zm-7.746-31.048-3.873-15.524,13.584-3.389,3.873,15.524Zm-7.746-31.048-2.527-10.13q-.744-2.982-1.249-5.964l13.8-2.344q.417,2.458,1.03,4.919l2.527,10.13Zm9.208-32.821-13.979-.771a78.625,78.625,0,0,1,2.916-17.286l13.459,3.854A64.607,64.607,0,0,0,511.742,1240.006Zm127.765-12.11a65.588,65.588,0,0,0-3.589-10.51l12.814-5.638a79.614,79.614,0,0,1,4.358,12.759Zm-119.889-15.429-12.281-6.721a79.388,79.388,0,0,1,10.053-14.342l10.505,9.254A65.364,65.364,0,0,0,519.619,1212.468Zm109.063-7.531a64.846,64.846,0,0,0-9.825-10.541l9.117-10.624a78.886,78.886,0,0,1,11.949,12.819Zm-90.119-13.964-8.2-11.349a78.537,78.537,0,0,1,15.271-8.611l5.471,12.887A64.5,64.5,0,0,0,538.562,1190.972Zm68.379-4.7a65.178,65.178,0,0,0-13.4-5.307l3.678-13.508A79.2,79.2,0,0,1,613.5,1173.9Zm-42.01-6.511-2.521-13.771a78.809,78.809,0,0,1,17.482-1.223l-.588,13.988A64.8,64.8,0,0,0,564.932,1179.76Z"/>
    </g>
  </g>
</svg>
