<?xml version="1.0" encoding="UTF-8"?>
<svg width="998px" height="792px" viewBox="0 0 998 792" version="1.1" xmlns="http://www.w3.org/2000/svg" xmlns:xlink="http://www.w3.org/1999/xlink">
    <title>Steps_to_become</title>
    <g id="Page-1" stroke="none" stroke-width="1" fill="none" fill-rule="evenodd">
        <g id="steps-graphic" transform="translate(-208.000000, -68.000000)" fill-rule="nonzero">
            <g id="Steps_to_become" transform="translate(208.893000, 68.713740)">
                <g id="Layer_2" transform="translate(-0.000000, 0.000000)">
                    <rect id="Rectangle_1" fill="#FBBA20" transform="translate(558.015345, 176.499763) rotate(-14.008443) translate(-558.015345, -176.499763) " x="353.366713" y="116.540838" width="409.297264" height="119.917849"></rect>
                    <path d="M336.684385,76.5746385 L988.039751,76.5746385 L988.039751,228.591881 L336.684385,228.591881 L336.684385,76.5746385 Z M960.047256,104.567133 L364.67688,104.567133 L364.67688,200.599387 L960.047256,200.599387 L960.047256,104.567133 Z" id="Rectangle_2" fill="#FFFFFF" transform="translate(662.362068, 152.583260) rotate(-14.008443) translate(-662.362068, -152.583260) "></path>
                    <polygon id="Line_7" fill="#FFFFFF" points="843.795 167.03826 814.761 50.65626 841.929 43.87826 870.963 160.26126"></polygon>
                    <polygon id="Path_8" fill="#FFFFFF" points="899.396 126.92026 864.337 105.12026 871.729 93.23026 894.715 107.52126 926.922 53.90426 938.922 61.11326"></polygon>
                    <rect id="Rectangle_3" fill="#FBBA20" transform="translate(482.984345, 395.051763) rotate(-14.008443) translate(-482.984345, -395.051763) " x="278.335713" y="335.092838" width="409.297264" height="119.917849"></rect>
                    <path d="M261.653385,295.126639 L913.008751,295.126639 L913.008751,447.143881 L261.653385,447.143881 L261.653385,295.126639 Z M885.016256,323.119133 L289.64588,323.119133 L289.64588,419.151387 L885.016256,419.151387 L885.016256,323.119133 Z" id="Rectangle_4" fill="#FFFFFF" transform="translate(587.331068, 371.135260) rotate(-14.008443) translate(-587.331068, -371.135260) "></path>
                    <polygon id="Line_8" fill="#FFFFFF" points="768.764 385.58926 739.73 269.20726 766.898 262.42926 795.932 378.81226"></polygon>
                    <polygon id="Path_9" fill="#FFFFFF" points="824.365 345.47126 789.306 323.67126 796.698 311.78126 819.684 326.07226 851.891 272.45526 863.891 279.66426"></polygon>
                    <rect id="Rectangle_5" fill="#FBBA20" transform="translate(451.457355, 601.903377) rotate(-14.008443) translate(-451.457355, -601.903377) " x="202.587579" y="541.944452" width="497.739552" height="119.917849"></rect>
                    <rect id="Rectangle_6" fill="#FFFFFF" transform="translate(755.016935, 530.410189) rotate(-14.008443) translate(-755.016935, -530.410189) " x="692.183281" y="470.451264" width="125.667308" height="119.917849"></rect>
                    <path d="M187.220385,512.682639 L838.575751,512.682639 L838.575751,664.699881 L187.220385,664.699881 L187.220385,512.682639 Z M810.583256,540.675133 L215.21288,540.675133 L215.21288,636.707387 L810.583256,636.707387 L810.583256,540.675133 Z" id="Rectangle_7" fill="#FFFFFF" transform="translate(512.898068, 588.691260) rotate(-14.008443) translate(-512.898068, -588.691260) "></path>
                    <polygon id="Line_9" fill="#FFFFFF" points="694.331 603.14526 665.297 486.76326 692.465 479.98526 721.499 596.36826"></polygon>
                    <polygon id="Path_10" fill="#009A65" points="749.932 563.02726 714.873 541.22726 722.265 529.33726 745.251 543.62826 777.458 490.01126 789.458 497.22026"></polygon>
                    <path d="M144,790.30326 L128,790.30326 L128,776.30326 L144,776.30326 L144,790.30326 Z M112,790.30326 L96,790.30326 L96,776.30326 L112,776.30326 L112,790.30326 Z M80,790.30326 L64,790.30326 L64,776.30326 L80,776.30326 L80,790.30326 Z M48,790.30326 L32,790.30326 L32,776.30326 L48,776.30326 L48,790.30326 Z M16,790.30326 L-2.84217094e-14,790.30326 L-2.84217094e-14,776.30326 L16,776.30326 L16,790.30326 Z M146.088,779.45126 L142.215,763.92726 L155.799,760.53826 L159.672,776.06226 L146.088,779.45126 Z M138.342,748.40326 L134.469,732.87926 L148.053,729.49026 L151.926,745.01426 L138.342,748.40326 Z M130.596,717.35526 L126.723,701.83126 L140.307,698.44226 L144.18,713.96626 L130.596,717.35526 Z M122.852,686.28626 L118.979,670.76226 L132.563,667.37326 L136.436,682.89726 L122.852,686.28626 Z M115.107,655.24226 L111.234,639.71826 L124.818,636.32926 L128.691,651.85326 L115.107,655.24226 Z M107.361,624.19426 L106.979,622.66126 C105.700629,617.541368 104.935517,612.306852 104.695,607.03526 L118.681,606.40626 C118.879209,610.746748 119.50932,615.056695 120.562,619.27226 L120.944,620.80526 L107.361,624.19426 Z M260.523,593.10926 L243.135,576.75826 C243.091,576.71626 238.643,572.49226 231.681,566.96326 L239.599,556.99026 L237.231,557.58126 L233.358,542.05726 L246.942,538.66826 L250.815,554.19226 L241.146,556.60426 C248.204,562.25526 252.608,566.44526 252.799,566.62726 L248.159,571.48926 L254.688,569.71626 L260.523,593.10926 Z M119.647,592.03826 L105.871,589.53826 C106.917273,583.773227 108.601978,578.142562 110.894,572.75026 L123.778,578.22626 C121.892342,582.662645 120.506472,587.29518 119.646,592.03826 L119.647,592.03826 Z M130.847,565.66326 L119.479,557.49226 C122.898186,552.735807 126.834976,548.373744 131.217,544.48626 L140.505,554.96226 C136.900901,558.161 133.663069,561.749983 130.851,565.66326 L130.847,565.66326 Z M219.217,557.78826 C214.765,554.76726 210.373,552.07126 206.163,549.77526 L212.863,537.48426 C217.463,539.99526 222.249,542.92926 227.075,546.20326 L219.217,557.78826 Z M152.28,546.67126 L145.552,534.39426 C150.691245,531.581412 156.127307,529.348696 161.76,527.73726 L165.613,541.19626 C160.980897,542.521411 156.510447,544.357351 152.284,546.67026 L152.28,546.67126 Z M192.569,543.49326 C188.121274,541.784334 183.481665,540.624431 178.753,540.03926 L180.269,526.12126 C186.14135,526.830111 191.904867,528.255038 197.431,530.36426 L192.569,543.49326 Z M229.481,526.53326 L225.608,511.00926 L239.192,507.62026 L243.065,523.14426 L229.481,526.53326 Z M221.735,495.48526 L217.862,479.96126 L231.446,476.57226 L235.319,492.09626 L221.735,495.48526 Z M213.989,464.43726 L210.116,448.91326 L223.7,445.52426 L227.573,461.04826 L213.989,464.43726 Z M206.243,433.38926 L202.37,417.86526 L215.954,414.47626 L219.827,430.00026 L206.243,433.38926 Z M198.497,402.34126 L195.759,391.36526 C195.341667,389.69126 194.980667,388.016927 194.676,386.34226 L208.449,383.83226 C208.700333,385.212927 208.998333,386.593927 209.343,387.97526 L212.081,398.95126 L198.497,402.34126 Z M207.455,369.45926 L193.468,368.85926 C193.719319,363.002978 194.62495,357.193187 196.168,351.53826 L209.668,355.22826 C208.403928,359.873792 207.663325,364.646114 207.46,369.45626 L207.455,369.45926 Z M332.155,347.18926 L331.348,345.33826 L331.584,345.23126 L328.491,332.83126 L342.075,329.44226 L345.406,342.79526 L332.155,347.18926 Z M214.997,341.82926 L202.636,335.25626 C205.385688,330.086084 208.698834,325.235925 212.515,320.79426 L223.131,329.92026 C219.990691,333.577106 217.264452,337.570045 215.002,341.82626 L214.997,341.82926 Z M323.961,332.97726 C321.040531,329.144835 317.702285,325.649621 314.008,322.55626 L322.996,311.82226 L323.318,312.09326 L320.747,301.78626 L334.331,298.39726 L338.204,313.92126 L328.061,316.45226 C330.587158,318.971039 332.939243,321.658563 335.101,324.49626 L323.961,332.97726 Z M233.68,320.10526 L225.345,308.85726 C230.055636,305.366999 235.142337,302.41527 240.51,300.05726 L246.137,312.87626 C241.72964,314.812619 237.552954,317.236385 233.685,320.10226 L233.68,320.10526 Z M301.996,314.57526 C297.711187,312.367275 293.194534,310.64171 288.529,309.43026 L292.043,295.87826 C297.712426,297.350184 303.201012,299.44668 308.408,302.12926 L301.996,314.57526 Z M259.909,308.57526 L257.222,294.83526 C262.972713,293.71029 268.830788,293.228992 274.688,293.40026 L274.271,307.39426 C269.456404,307.253046 264.641057,307.648484 259.914,308.57326 L259.909,308.57526 Z M316.873,286.26126 L313,270.73726 L326.584,267.34826 L330.457,282.87226 L316.873,286.26126 Z M309.127,255.21326 L305.254,239.68926 L318.838,236.30026 L322.711,251.82426 L309.127,255.21326 Z M301.381,224.16526 L297.508,208.64126 L311.092,205.25226 L314.965,220.77626 L301.381,224.16526 Z M293.635,193.11726 L291.108,182.98726 C290.612,180.99926 290.195667,179.01126 289.859,177.02326 L303.659,174.67926 C303.937,176.317927 304.280333,177.957593 304.689,179.59826 L307.216,189.72826 L293.635,193.11726 Z M302.843,160.29626 L288.864,159.52526 C289.188605,153.672577 290.166683,147.874548 291.78,142.23926 L305.239,146.09326 C303.915761,150.722423 303.114117,155.484992 302.849,160.29226 L302.843,160.29626 Z M430.608,148.18626 C429.710958,144.587759 428.510322,141.071824 427.019,137.67626 L439.833,132.03826 C441.643827,136.160382 443.10172,140.428684 444.191,144.79726 L430.608,148.18626 Z M310.719,132.75726 L298.438,126.03626 C301.249778,120.899448 304.621291,116.089517 308.491,111.69426 L318.996,120.94826 C315.812517,124.566673 313.03899,128.526075 310.726,132.75426 L310.719,132.75726 Z M419.782,125.22626 C416.90878,121.358496 413.613439,117.823006 409.957,114.68526 L419.074,104.06126 C423.520732,107.877216 427.528455,112.176739 431.023,116.88026 L419.782,125.22626 Z M329.663,111.26226 L321.463,99.91326 C326.216011,96.4819948 331.338249,93.5936708 336.734,91.30226 L342.205,104.18926 C337.775713,106.070568 333.570878,108.441657 329.669,111.25826 L329.663,111.26226 Z M398.042,106.56226 C393.785257,104.30333 389.291121,102.523451 384.642,101.25526 L388.32,87.74726 C393.970347,89.2848856 399.432735,91.444419 404.607,94.18626 L398.042,106.56226 Z M356.032,100.05126 L353.511,86.28026 C359.274744,85.2239353 365.138321,84.8137331 370.993,85.05726 L370.405,99.04526 C365.594015,98.8441328 360.775602,99.1798722 356.039,100.04626 L356.032,100.05126 Z" id="Path_11" fill="#FFFFFF"></path>
                </g>
            </g>
        </g>
    </g>
</svg>