<svg xmlns="http://www.w3.org/2000/svg" width="327.345" height="269.966" viewBox="0 0 327.345 269.966">
  <g id="Group_1" data-name="Group 1" transform="translate(-21.655 -1058.001)">
    <path id="Path_1614" data-name="Path 1614" d="M-282.99,11558.619c8.948,63.8,87.188,49.246,142.62,33.113,120.8-32.254,144.25,9.514,126.286,67.732,1.54.809-1.689,1.727,0,2.545-.051.083-2.046,4.309-2.2,4.555-50.983,82.631-82.015,85.452-175.13,34.111-93.208-51.391-120.323,64.467-52.589,93.113s183.227-27.576,246-18.7" transform="translate(328 -10477)" fill="none" stroke="#fff" stroke-width="6" stroke-dasharray="7"/>
    <g id="Group_1385" data-name="Group 1385" transform="translate(-107.905 282)">
      <rect id="Rectangle_216" data-name="Rectangle 216" width="46" height="46" transform="translate(129.561 778.408) rotate(-3)" fill="#f9b400" opacity="0.9"/>
      <text id="_1" data-name="1" transform="translate(153.561 807)" fill="#fff" font-size="24" font-family="sans-serif" font-weight="700"><tspan x="-6.744" y="0">1</tspan></text>
    </g>
    <g id="Group_1387" data-name="Group 1387" transform="translate(-327.56 442.963)">
      <rect id="Rectangle_218" data-name="Rectangle 218" width="46" height="46" transform="translate(506.561 778.408) rotate(-3)" fill="#f9b400" opacity="0.9"/>
      <text id="_3" data-name="3" transform="translate(530.561 808)" fill="#fff" font-size="24" font-family="sans-serif" font-weight="700"><tspan x="-6.744" y="0">3</tspan></text>
    </g>
    <g id="Group_1388" data-name="Group 1388" transform="translate(-662.905 491.31)">
      <rect id="Rectangle_219" data-name="Rectangle 219" width="46" height="46" transform="translate(692.561 778.408) rotate(-3)" fill="#f9b400" opacity="0.9"/>
      <text id="_4" data-name="4" transform="translate(716.561 808)" fill="#fff" font-size="24" font-family="sans-serif" font-weight="700"><tspan x="-6.744" y="0">4</tspan></text>
    </g>
    <g id="Group_1389" data-name="Group 1389" transform="translate(-583.904 495)">
      <rect id="Rectangle_1309" data-name="Rectangle 1309" width="46" height="46" transform="translate(884.561 778.408) rotate(-3)" fill="#f9b400" opacity="0.9"/>
      <text id="_5" data-name="5" transform="translate(908.561 808)" fill="#fff" font-size="24" font-family="sans-serif" font-weight="700"><tspan x="-6.744" y="0">5</tspan></text>
    </g>
    <g id="Group_1386" data-name="Group 1386" transform="translate(-75.248 309)">
      <rect id="Rectangle_217" data-name="Rectangle 217" width="46" height="46" transform="translate(318.561 778.408) rotate(-3)" fill="#f9b400" opacity="0.9"/>
      <text id="_2" data-name="2" transform="translate(342.561 808)" fill="#fff" font-size="24" font-family="sans-serif" font-weight="700"><tspan x="-6.744" y="0">2</tspan></text>
    </g>
  </g>
</svg>
