<svg xmlns="http://www.w3.org/2000/svg" width="23.047" height="21.315" viewBox="0 0 23.047 21.315">
  <path id="Path_1339" data-name="Path 1339" d="M10.914-30.066v9.281H2.344v-7.327q0-5.95,1.421-8.615A11.946,11.946,0,0,1,9.671-42.1l1.954,3.108a7.149,7.149,0,0,0-3.6,3.042A12.989,12.989,0,0,0,6.74-30.066Zm13.766,0v9.281H16.11v-7.327q0-5.95,1.421-8.615A11.946,11.946,0,0,1,23.437-42.1l1.954,3.108a7.149,7.149,0,0,0-3.6,3.042,12.989,12.989,0,0,0-1.288,5.884Z" transform="translate(-2.344 42.1)" fill="#fff"/>
</svg>
