<?xml version="1.0" encoding="UTF-8"?>
<svg id="Layer_2" data-name="Layer 2" xmlns="http://www.w3.org/2000/svg" viewBox="0 0 453.84 199.89">
  <defs>
    <style>
      .cls-1, .cls-2 {
        stroke-width: 0px;
      }

      .cls-2 {
        fill: #fff;
      }
    </style>
  </defs>
  <g id="Layer_1-2" data-name="Layer 1">
    <g>
      <rect class="cls-2" x="4.32" y="11.53" width="445.19" height="176.83" transform="translate(-4.92 12.01) rotate(-3)"/>
      <path class="cls-1" d="M324.22,53.03h55.63v55.63h-55.63v-55.63ZM316.76,116.12h70.56V45.56h-70.56v70.56Z"/>
      <polygon class="cls-1" points="367.87 63.75 344.21 87.41 336.3 79.49 331.02 84.77 344.21 97.96 373.14 69.03 367.87 63.75"/>
      <polygon class="cls-1" points="62.97 108.67 62.97 112.4 62.97 116.12 304 116.12 304 112.4 304 108.67 62.97 108.67"/>
      <path class="cls-1" d="M146.41,77.86c-1.32.36-7.71,1.96-7.71,1.96-2.83.61-5.18,1.35-5.18,4.28,0,2.33,2.16,3.85,4.87,3.85,3.51,0,8.01-1.71,8.01-5.69v-4.41ZM153.93,93.34h-7.52v-2.81c-2.9,2.33-6.29,3.55-10.17,3.55-5.92,0-10.6-3.73-10.6-9.73s4.87-8.75,9.49-9.67c0,0,9.26-1.99,11.28-2.45v-.92c0-3.06-2.65-3.91-5.92-3.91-4.37,0-5.79,1.28-5.79,4.65l-7.52-.31c0-7.28,6.47-10.1,13.31-10.1s13.44,1.35,13.44,10.16v21.54Z"/>
      <polygon class="cls-1" points="63 131.06 76.43 131.06 76.43 134.34 66.58 134.34 66.58 138.62 75.63 138.62 75.63 141.74 66.58 141.74 66.58 146.61 77.12 146.61 77.12 149.89 63 149.89 63 131.06"/>
      <polygon class="cls-1" points="77.21 136.51 80.64 136.51 83.33 145.76 83.39 145.76 86.08 136.51 89.52 136.51 85.07 149.89 81.66 149.89 77.21 136.51"/>
      <g>
        <path class="cls-1" d="M99.72,141.48c0-.72-.88-2.65-3.07-2.65-1.89,0-3.14,1.22-3.49,2.65h6.55ZM93.17,143.97c.05,1.98,1.73,3.28,3.49,3.28,2.56,0,3.57-1.45,3.89-1.9l2.74,1.59c-1.01,1.53-2.96,3.28-6.64,3.28-4.37,0-6.9-3.01-6.9-7.01s2.53-7.01,6.9-7.01,6.47,2.99,6.47,7.77h-9.96Z"/>
        <path class="cls-1" d="M105.13,136.51h3.25v1.85h.05c.77-1.53,2.26-2.17,4.15-2.17v3.28c-2.21,0-4.21,1.03-4.21,3.94v6.48h-3.25v-13.38Z"/>
        <path class="cls-1" d="M121.81,151.08c-.75,2.46-1.86,3.25-4.21,3.25-.8,0-1.36-.08-1.94-.18v-2.88c.32.05.69.1,1.28.1,1.04,0,1.41-.29,1.81-1.14l-4.85-13.72h3.49l2.9,9.73h.05l2.53-9.73h3.36l-4.42,14.57Z"/>
      </g>
      <polygon class="cls-1" points="135.14 131.06 138.7 131.06 138.7 146.61 146.4 146.61 146.4 149.89 135.14 149.89 135.14 131.06"/>
      <g>
        <path class="cls-1" d="M157.04,141.48c0-.72-.88-2.65-3.07-2.65-1.89,0-3.14,1.22-3.49,2.65h6.55ZM150.49,143.97c.05,1.98,1.73,3.28,3.49,3.28,2.56,0,3.57-1.45,3.89-1.9l2.74,1.59c-1.01,1.53-2.96,3.28-6.64,3.28-4.37,0-6.9-3.01-6.9-7.01s2.53-7.01,6.9-7.01,6.48,2.99,6.48,7.77h-9.96Z"/>
        <path class="cls-1" d="M171.64,140.74c-.4-.87-1.46-1.88-3.38-1.9-1.52,0-2.48.5-2.48,1.3,0,2.33,8.5.34,8.5,5.39,0,3.23-2.9,4.68-5.99,4.68s-5.33-1.08-6.53-2.43l2.45-1.88c.75,1.08,2.16,1.67,3.89,1.67,1.54,0,2.61-.85,2.61-1.56,0-2.27-8.34-.4-8.34-5.47,0-3.02,2.64-4.34,5.97-4.34s4.93,1.64,5.57,2.43l-2.27,2.11Z"/>
        <path class="cls-1" d="M185.18,140.74c-.4-.87-1.46-1.88-3.38-1.9-1.52,0-2.48.5-2.48,1.3,0,2.33,8.5.34,8.5,5.39,0,3.23-2.9,4.68-5.99,4.68s-5.33-1.08-6.53-2.43l2.45-1.88c.75,1.08,2.16,1.67,3.89,1.67,1.54,0,2.61-.85,2.61-1.56,0-2.27-8.34-.4-8.34-5.47,0-3.02,2.64-4.34,5.97-4.34s4.93,1.64,5.57,2.43l-2.27,2.11Z"/>
        <path class="cls-1" d="M192.75,143.2c0,2.09,1.17,4.05,3.49,4.05s3.49-1.96,3.49-4.05-1.17-4.04-3.49-4.04-3.49,1.96-3.49,4.04M203.13,143.2c0,3.99-2.53,7.01-6.9,7.01s-6.9-3.01-6.9-7.01,2.53-7.01,6.9-7.01,6.9,3.02,6.9,7.01"/>
        <path class="cls-1" d="M205.43,136.51h3.25v1.32h.05c.96-1.16,2.37-1.64,3.67-1.64,3.2,0,4.63,1.61,4.63,4.55v9.15h-3.25v-8.17c0-1.22-.56-2.41-2.24-2.41-1.57,0-2.88,1.06-2.88,3.52v7.06h-3.25v-13.38Z"/>
        <path class="cls-1" d="M228.18,144.23c1.33,1.96,3.41,2.85,5.73,2.85,1.73,0,4.02-.58,4.02-2.41,0-1.48-1.39-1.9-3.92-2.49l-2.1-.48c-3.04-.69-5.7-1.8-5.7-5.26,0-3.96,3.81-5.87,7.35-5.87,3.25,0,5.94,1.19,7.91,3.78l-2.96,2.22c-.91-1.72-2.66-2.72-4.98-2.72-2.05,0-3.6.77-3.6,2.09,0,1.56,1.79,1.96,3.92,2.41l2.32.5c2.82.61,5.49,1.75,5.49,5.32,0,4.6-4.37,6.19-8.31,6.19-3.14,0-6.39-1.35-8.2-3.97l3.04-2.17Z"/>
        <path class="cls-1" d="M243.96,131.06h3.25v6.77h.05c.72-.92,2.02-1.64,3.86-1.64,2.29,0,4.93.95,4.93,4.84v8.86h-3.25v-7.93c0-1.85-.75-2.64-2.4-2.64-2.45,0-3.2,2.06-3.2,3.7v6.87h-3.25v-18.83Z"/>
        <path class="cls-1" d="M267.09,143.2c-.43.21-.96.34-1.55.48l-1.78.37c-1.23.26-2.24.58-2.24,1.85,0,1.01.93,1.66,2.1,1.66,1.52,0,3.46-.74,3.46-2.46v-1.9ZM270.34,147.64c0,1.37.32,1.96.51,2.25h-3.44c-.21-.32-.32-.87-.32-1.22-1.25,1-2.72,1.53-4.4,1.53-2.56,0-4.58-1.61-4.58-4.2s2.1-3.78,4.1-4.18l1.36-.26c1.17-.24,2.69-.51,3.52-.8v-.39c0-1.32-1.15-1.69-2.56-1.69-1.89,0-2.5.55-2.5,2.01l-3.25-.13c0-3.15,2.8-4.36,5.75-4.36s5.81.58,5.81,4.39v7.06Z"/>
        <path class="cls-1" d="M282.66,143.2c0-1.93-.75-4.05-3.2-4.05s-3.2,2.11-3.2,4.05.75,4.05,3.2,4.05,3.2-2.11,3.2-4.05M273.12,136.51h3.25v1.14h.05c.99-.9,2.24-1.45,3.84-1.45,3.41,0,5.81,3.15,5.81,7.01s-2.4,7.01-5.86,7.01c-1.95,0-2.98-.66-3.84-1.61v5.58h-3.25v-17.67Z"/>
        <path class="cls-1" d="M297.94,141.48c0-.72-.88-2.65-3.06-2.65-1.89,0-3.14,1.22-3.49,2.65h6.55ZM291.39,143.97c.05,1.98,1.73,3.28,3.49,3.28,2.56,0,3.57-1.45,3.89-1.9l2.74,1.59c-1.01,1.53-2.95,3.28-6.63,3.28-4.37,0-6.9-3.01-6.9-7.01s2.53-7.01,6.9-7.01,6.47,2.99,6.47,7.77h-9.96Z"/>
        <path class="cls-1" d="M312.54,140.74c-.4-.87-1.47-1.88-3.38-1.9-1.52,0-2.48.5-2.48,1.3,0,2.33,8.5.34,8.5,5.39,0,3.23-2.9,4.68-5.99,4.68s-5.33-1.08-6.53-2.43l2.45-1.88c.75,1.08,2.16,1.67,3.89,1.67,1.55,0,2.61-.85,2.61-1.56,0-2.27-8.34-.4-8.34-5.47,0-3.02,2.64-4.34,5.97-4.34s4.93,1.64,5.57,2.43l-2.26,2.11Z"/>
        <path class="cls-1" d="M332.37,143.2c-.43.21-.96.34-1.55.48l-1.78.37c-1.23.26-2.24.58-2.24,1.85,0,1.01.93,1.66,2.1,1.66,1.52,0,3.46-.74,3.46-2.46v-1.9ZM335.62,147.64c0,1.37.32,1.96.51,2.25h-3.44c-.21-.32-.32-.87-.32-1.22-1.25,1-2.72,1.53-4.4,1.53-2.56,0-4.58-1.61-4.58-4.2s2.1-3.78,4.1-4.18l1.36-.26c1.17-.24,2.69-.51,3.52-.8v-.39c0-1.32-1.15-1.69-2.56-1.69-1.89,0-2.5.55-2.5,2.01l-3.25-.13c0-3.15,2.8-4.36,5.75-4.36s5.81.58,5.81,4.39v7.06Z"/>
      </g>
      <polygon class="cls-1" points="345.96 131.06 349.53 131.06 349.53 146.61 357.23 146.61 357.23 149.89 345.96 149.89 345.96 131.06"/>
      <path class="cls-1" d="M359.37,136.51h3.25v13.38h-3.25v-13.38ZM359.37,131.06h3.25v3.28h-3.25v-3.28Z"/>
      <g>
        <path class="cls-1" d="M366.75,138.83h-1.97v-2.33h1.97v-2.12c0-2.72,1.84-3.33,3.97-3.33.72,0,1.46.03,2.18.08v2.8c-.35-.05-.72-.08-1.06-.08-1.31,0-1.84.53-1.84,1.69v.95h2.9v2.33h-2.9v11.05h-3.25v-11.05Z"/>
        <path class="cls-1" d="M383.74,141.48c0-.72-.88-2.65-3.07-2.65-1.89,0-3.14,1.22-3.49,2.65h6.55ZM377.19,143.97c.05,1.98,1.73,3.28,3.49,3.28,2.56,0,3.57-1.45,3.89-1.9l2.74,1.59c-1.01,1.53-2.96,3.28-6.63,3.28-4.37,0-6.9-3.01-6.9-7.01s2.53-7.01,6.9-7.01,6.47,2.99,6.47,7.77h-9.96Z"/>
      </g>
      <polygon class="cls-1" points="74.99 57.36 62.97 57.36 62.97 49.78 95.26 49.78 95.26 57.36 83.24 57.36 83.24 93.34 74.99 93.34 74.99 57.36"/>
      <g>
        <path class="cls-1" d="M113.22,73.88c0-1.65-2.03-6.12-7.09-6.12-4.38,0-7.27,2.81-8.07,6.12h15.16ZM98.05,79.63c.12,4.59,4.01,7.59,8.07,7.59,5.92,0,7.51-3.37,8.25-4.41l6.35,3.67c-2.34,3.55-6.1,7.59-14.6,7.59-10.11,0-15.96-6.98-15.96-16.21s5.86-16.22,15.96-16.22,14.98,6.92,14.98,17.99h-23.05Z"/>
        <path class="cls-1" d="M181.43,73.46c-.99-3.06-3.64-4.96-6.6-4.96-5.36,0-8.07,4.53-8.07,9.36s2.4,9.36,7.64,9.36c4.5,0,6.41-3.18,7.58-6l6.41,3.36c-2.09,4.53-5.67,9.48-14.11,9.48-9.55,0-15.41-6.97-15.41-16.21s5.86-16.21,15.96-16.21c7.58,0,11.28,4.16,13.19,8.81l-6.6,3Z"/>
        <path class="cls-1" d="M193.22,49.78h7.52v15.66h.12c1.67-2.14,4.68-3.79,8.94-3.79,5.3,0,11.4,2.2,11.4,11.2v20.5h-7.52v-18.35c0-4.28-1.73-6.12-5.55-6.12-5.67,0-7.4,4.77-7.4,8.57v15.91h-7.52v-43.56Z"/>
      </g>
      <path class="cls-1" d="M227.86,62.38h7.52v30.96h-7.52v-30.96ZM227.86,49.78h7.52v7.59h-7.52v-7.59Z"/>
      <g>
        <path class="cls-1" d="M241.73,62.38h7.52v3.06h.12c2.22-2.69,5.48-3.79,8.51-3.79,7.4,0,10.72,3.73,10.72,10.52v21.17h-7.52v-18.91c0-2.81-1.29-5.57-5.18-5.57-3.64,0-6.66,2.45-6.66,8.14v16.34h-7.52v-30.96Z"/>
        <path class="cls-1" d="M289.32,84.9c-5.67,0-7.4-4.9-7.4-8.2s1.73-8.2,7.4-8.2,7.4,4.9,7.4,8.2-1.73,8.2-7.4,8.2M296.47,62.38v3h-.12c-1.85-2.2-4.25-3.73-8.75-3.73-7.76,0-13.56,5.75-13.56,15.05s5.79,15.05,13.56,15.05c2.71,0,6.47-.86,8.88-3.43,0,0,0,1.36,0,2.7,0,5.32-2.85,6.76-7.23,6.76-1.72,0-5.48-.62-6.16-3.82h-8.13c.86,4.13,2.65,10.1,14.1,10.1,8.74,0,14.92-3.43,14.92-12.31s0-29.37,0-29.37h-7.52Z"/>
      </g>
    </g>
  </g>
</svg>