<svg width="300" height="132" viewBox="0 0 300 132" fill="none" xmlns="http://www.w3.org/2000/svg">
<g clip-path="url(#clip0_4525_2314)">
<path d="M293.877 -0.00108535L-0.00195312 15.385L5.90798 128.04L299.787 112.654L293.877 -0.00108535Z" fill="black"/>
<path d="M299.774 112.417L5.89551 127.803L6.10308 131.76L299.982 116.374L299.774 112.417Z" fill="#F162A0"/>
<path d="M214.318 35.0188H251.091V71.7549H214.318V35.0188ZM209.387 76.6812H256.029V30.0859H209.387V76.6812Z" fill="white"/>
<path d="M243.171 42.0981L227.531 57.7223L222.303 52.4923L218.812 55.979L227.531 64.6892L246.655 45.5849L243.171 42.0981Z" fill="white"/>
<path d="M41.624 71.7615V74.2246V76.6812H200.951V74.2246V71.7615H41.624Z" fill="white"/>
<path d="M96.7803 51.4157C95.9077 51.6534 91.6838 52.71 91.6838 52.71C89.8131 53.1128 88.2597 53.6015 88.2597 55.5363C88.2597 57.075 89.6875 58.0787 91.4789 58.0787C93.7991 58.0787 96.7737 56.9495 96.7737 54.3213V51.4091L96.7803 51.4157ZM101.751 61.6381H96.7803V59.7825C94.8633 61.3211 92.6224 62.1268 90.0577 62.1268C86.1444 62.1268 83.0508 59.6636 83.0508 55.7014C83.0508 51.7393 86.27 49.9233 89.3239 49.3157C89.3239 49.3157 95.445 48.0016 96.7803 47.6978V47.0903C96.7803 45.0696 95.0286 44.5083 92.867 44.5083C89.9783 44.5083 89.0397 45.3535 89.0397 47.579L84.0688 47.3743C84.0688 42.5668 88.3456 40.7046 92.867 40.7046C97.3884 40.7046 101.751 41.5961 101.751 47.4139V61.6381Z" fill="white"/>
<path d="M41.6445 86.5471H50.5221V88.7131H44.011V91.5395H49.9933V93.5998H44.011V96.8158H50.9782V98.9818H41.6445V86.5471Z" fill="white"/>
<path d="M51.0371 90.146H53.3044L55.0826 96.2544H55.1222L56.9004 90.146H59.1743L56.2328 98.9817H53.9787L51.0371 90.146Z" fill="white"/>
<path d="M65.9176 93.4281C65.9176 92.9527 65.3359 91.6782 63.8882 91.6782C62.6389 91.6782 61.8126 92.4838 61.5812 93.4281H65.911H65.9176ZM61.5879 95.0724C61.6209 96.38 62.7314 97.2384 63.8948 97.2384C65.5871 97.2384 66.2547 96.2809 66.4662 95.9837L68.2774 97.0337C67.6098 98.0441 66.3208 99.1997 63.8882 99.1997C60.9995 99.1997 59.3271 97.212 59.3271 94.5706C59.3271 91.9291 60.9995 89.9414 63.8882 89.9414C66.7769 89.9414 68.1651 91.9159 68.1651 95.0724H61.5812H61.5879Z" fill="white"/>
<path d="M69.4939 90.1461H71.6422V91.3678H71.6753C72.1843 90.3574 73.1692 89.9348 74.4186 89.9348V92.1008C72.9577 92.1008 71.6356 92.781 71.6356 94.7026V98.9818H69.4873V90.1461H69.4939Z" fill="white"/>
<path d="M80.5197 99.7677C80.024 101.392 79.2902 101.914 77.7368 101.914C77.208 101.914 76.8378 101.861 76.4544 101.795V99.8932C76.666 99.9262 76.9105 99.9592 77.3005 99.9592C77.988 99.9592 78.2326 99.7677 78.497 99.2064L75.291 90.1462H77.598L79.515 96.5716H79.548L81.2204 90.1462H83.4415L80.5197 99.7677Z" fill="white"/>
<path d="M89.3311 86.5471H91.6843V96.8158H96.7742V98.9818H89.3311V86.5471Z" fill="white"/>
<path d="M103.807 93.4281C103.807 92.9527 103.226 91.6782 101.778 91.6782C100.529 91.6782 99.7022 92.4838 99.4709 93.4281H103.801H103.807ZM99.4775 95.0724C99.5106 96.38 100.621 97.2384 101.784 97.2384C103.477 97.2384 104.144 96.2809 104.356 95.9837L106.167 97.0337C105.499 98.0441 104.21 99.1997 101.778 99.1997C98.8892 99.1997 97.2168 97.212 97.2168 94.5706C97.2168 91.9291 98.8892 89.9414 101.778 89.9414C104.667 89.9414 106.061 91.9159 106.061 95.0724H99.4775Z" fill="white"/>
<path d="M113.459 92.9395C113.194 92.3649 112.494 91.698 111.224 91.6848C110.22 91.6848 109.585 92.0149 109.585 92.5432C109.585 94.0819 115.204 92.7678 115.204 96.1026C115.204 98.2356 113.287 99.1931 111.244 99.1931C109.202 99.1931 107.721 98.4799 106.928 97.5884L108.547 96.3469C109.043 97.0601 109.975 97.4497 111.119 97.4497C112.137 97.4497 112.844 96.8884 112.844 96.4196C112.844 94.9205 107.331 96.1554 107.331 92.8074C107.331 90.8131 109.076 89.9414 111.277 89.9414C113.479 89.9414 114.536 91.0244 114.959 91.5461L113.459 92.9395Z" fill="white"/>
<path d="M122.409 92.9395C122.144 92.3649 121.444 91.698 120.175 91.6848C119.17 91.6848 118.535 92.0149 118.535 92.5432C118.535 94.0819 124.154 92.7678 124.154 96.1026C124.154 98.2356 122.237 99.1931 120.194 99.1931C118.152 99.1931 116.671 98.4799 115.878 97.5884L117.497 96.3469C117.993 97.0601 118.925 97.4497 120.069 97.4497C121.087 97.4497 121.794 96.8884 121.794 96.4196C121.794 94.9205 116.281 96.1554 116.281 92.8074C116.281 90.8131 118.026 89.9414 120.227 89.9414C122.429 89.9414 123.486 91.0244 123.909 91.5461L122.409 92.9395Z" fill="white"/>
<path d="M127.412 94.564C127.412 95.9441 128.185 97.2384 129.719 97.2384C131.253 97.2384 132.026 95.9441 132.026 94.564C132.026 93.1838 131.253 91.8961 129.719 91.8961C128.185 91.8961 127.412 93.1904 127.412 94.564ZM134.274 94.564C134.274 97.1988 132.601 99.1931 129.712 99.1931C126.824 99.1931 125.151 97.2054 125.151 94.564C125.151 91.9225 126.824 89.9348 129.712 89.9348C132.601 89.9348 134.274 91.9291 134.274 94.564Z" fill="white"/>
<path d="M135.794 90.1461H137.943V91.0178H137.976C138.61 90.2518 139.542 89.9348 140.402 89.9348C142.517 89.9348 143.462 90.998 143.462 92.9395V98.9818H141.314V93.5866C141.314 92.781 140.944 91.9951 139.833 91.9951C138.796 91.9951 137.93 92.6951 137.93 94.3196V98.9818H135.781V90.1461H135.794Z" fill="white"/>
<path d="M150.833 95.2442C151.712 96.5385 153.087 97.1262 154.621 97.1262C155.764 97.1262 157.278 96.7432 157.278 95.5347C157.278 94.5574 156.359 94.2801 154.687 93.8904L153.299 93.5735C151.289 93.1178 149.531 92.3848 149.531 90.1C149.531 87.4849 152.049 86.2236 154.389 86.2236C156.538 86.2236 158.316 87.0095 159.618 88.7198L157.661 90.1858C157.06 89.05 155.903 88.3896 154.369 88.3896C153.014 88.3896 151.99 88.8981 151.99 89.7698C151.99 90.7999 153.173 91.0641 154.581 91.3613L156.115 91.6914C157.979 92.0943 159.744 92.8471 159.744 95.2046C159.744 98.2422 156.855 99.2922 154.25 99.2922C152.175 99.2922 150.027 98.4007 148.83 96.6706L150.84 95.2376L150.833 95.2442Z" fill="white"/>
<path d="M161.263 86.5471H163.412V91.0178H163.445C163.921 90.4102 164.78 89.9348 165.996 89.9348C167.51 89.9348 169.255 90.5621 169.255 93.1309V98.9818H167.107V93.7451C167.107 92.5234 166.611 92.0017 165.52 92.0017C163.901 92.0017 163.405 93.3621 163.405 94.4451V98.9818H161.257V86.5471H161.263Z" fill="white"/>
<path d="M176.553 94.5639C176.269 94.7026 175.919 94.7885 175.529 94.8809L174.352 95.1253C173.539 95.297 172.871 95.5083 172.871 96.3469C172.871 97.0139 173.486 97.4431 174.259 97.4431C175.264 97.4431 176.547 96.9545 176.547 95.8186V94.5639H176.553ZM178.702 97.496C178.702 98.4007 178.913 98.7903 179.039 98.9818H176.765C176.626 98.7705 176.553 98.4073 176.553 98.1761C175.727 98.8365 174.755 99.1865 173.645 99.1865C171.952 99.1865 170.617 98.1233 170.617 96.413C170.617 94.7026 172.005 93.9168 173.327 93.6527L174.226 93.481C175 93.3225 176.005 93.1442 176.553 92.9527V92.6951C176.553 91.8234 175.793 91.5791 174.861 91.5791C173.612 91.5791 173.208 91.9423 173.208 92.9064L171.06 92.8206C171.06 90.7404 172.911 89.9414 174.861 89.9414C176.811 89.9414 178.702 90.3244 178.702 92.8404V97.5026V97.496Z" fill="white"/>
<path d="M186.845 94.5639C186.845 93.2894 186.349 91.8895 184.73 91.8895C183.11 91.8895 182.615 93.2828 182.615 94.5639C182.615 95.8451 183.11 97.2384 184.73 97.2384C186.349 97.2384 186.845 95.8451 186.845 94.5639ZM180.539 90.1461H182.687V90.8989H182.72C183.375 90.3046 184.201 89.9414 185.259 89.9414C187.513 89.9414 189.099 92.0216 189.099 94.5706C189.099 97.1196 187.513 99.1997 185.226 99.1997C183.937 99.1997 183.256 98.7639 182.687 98.1365V101.821H180.539V90.1527V90.1461Z" fill="white"/>
<path d="M196.946 93.4281C196.946 92.9527 196.364 91.6782 194.923 91.6782C193.674 91.6782 192.848 92.4838 192.616 93.4281H196.946ZM192.616 95.0724C192.649 96.38 193.76 97.2384 194.923 97.2384C196.616 97.2384 197.283 96.2809 197.495 95.9837L199.306 97.0337C198.638 98.0441 197.356 99.1997 194.923 99.1997C192.035 99.1997 190.362 97.212 190.362 94.5706C190.362 91.9291 192.035 89.9414 194.923 89.9414C197.812 89.9414 199.2 91.9159 199.2 95.0724H192.616Z" fill="white"/>
<path d="M206.596 92.9395C206.332 92.3649 205.625 91.698 204.362 91.6848C203.357 91.6848 202.723 92.0149 202.723 92.5432C202.723 94.0819 208.341 92.7678 208.341 96.1026C208.341 98.2356 206.424 99.1931 204.382 99.1931C202.339 99.1931 200.859 98.4799 200.065 97.5884L201.685 96.3469C202.181 97.0601 203.113 97.4497 204.256 97.4497C205.281 97.4497 205.982 96.8884 205.982 96.4196C205.982 94.9205 200.469 96.1554 200.469 92.8074C200.469 90.8131 202.214 89.9414 204.415 89.9414C206.616 89.9414 207.674 91.0244 208.097 91.5461L206.603 92.9395H206.596Z" fill="white"/>
<path d="M219.705 94.5639C219.42 94.7026 219.07 94.7885 218.68 94.8809L217.503 95.1253C216.69 95.297 216.023 95.5083 216.023 96.3469C216.023 97.0139 216.637 97.4431 217.411 97.4431C218.416 97.4431 219.698 96.9545 219.698 95.8186V94.5639H219.705ZM221.853 97.496C221.853 98.4007 222.064 98.7903 222.19 98.9818H219.916C219.777 98.7705 219.705 98.4073 219.705 98.1761C218.878 98.8365 217.907 99.1865 216.796 99.1865C215.104 99.1865 213.769 98.1233 213.769 96.413C213.769 94.7026 215.157 93.9168 216.479 93.6527L217.378 93.481C218.151 93.3225 219.156 93.1442 219.705 92.9527V92.6951C219.705 91.8234 218.944 91.5791 218.012 91.5791C216.763 91.5791 216.36 91.9423 216.36 92.9064L214.211 92.8206C214.211 90.7404 216.062 89.9414 218.012 89.9414C219.962 89.9414 221.853 90.3244 221.853 92.8404V97.5026V97.496Z" fill="white"/>
<path d="M228.688 86.5471H231.048V96.8158H236.138V98.9818H228.688V86.5471Z" fill="white"/>
<path d="M237.553 90.1461H239.701V98.9818H237.553V90.1461ZM237.553 86.5471H239.701V88.7131H237.553V86.5471Z" fill="white"/>
<path d="M242.431 91.6782H241.129V90.1395H242.431V88.7395C242.431 86.9434 243.647 86.5405 245.055 86.5405C245.531 86.5405 246.02 86.5603 246.496 86.5934V88.4424C246.265 88.4093 246.02 88.3895 245.796 88.3895C244.93 88.3895 244.579 88.7395 244.579 89.5056V90.1329H246.496V91.6716H244.579V98.9686H242.431V91.6716V91.6782Z" fill="white"/>
<path d="M253.662 93.4281C253.662 92.9527 253.08 91.6782 251.633 91.6782C250.383 91.6782 249.557 92.4838 249.326 93.4281H253.655H253.662ZM249.332 95.0724C249.365 96.38 250.476 97.2384 251.639 97.2384C253.331 97.2384 253.999 96.2809 254.211 95.9837L256.022 97.0337C255.354 98.0441 254.065 99.1997 251.639 99.1997C248.751 99.1997 247.078 97.212 247.078 94.5706C247.078 91.9291 248.751 89.9414 251.639 89.9414C254.528 89.9414 255.916 91.9159 255.916 95.0724H249.332Z" fill="white"/>
<path d="M49.5696 37.8784H41.624V32.8728H62.9686V37.8784H55.023V61.6382H49.5696V37.8784Z" fill="white"/>
<path d="M74.8409 48.7874C74.8409 47.6978 73.499 44.746 70.1542 44.746C67.2589 44.746 65.3486 46.6016 64.8198 48.7874H74.8409ZM64.8132 52.5845C64.8925 55.6156 67.4639 57.5967 70.1476 57.5967C74.0609 57.5967 75.1119 55.3713 75.6011 54.6845L79.7986 57.108C78.2518 59.4523 75.7664 62.1202 70.1476 62.1202C63.4647 62.1202 59.5977 57.5108 59.5977 51.4157C59.5977 45.3205 63.4713 40.7046 70.1476 40.7046C76.824 40.7046 80.0498 45.2743 80.0498 52.5845H64.8132Z" fill="white"/>
<path d="M119.929 48.5101C119.275 46.4894 117.523 45.2347 115.567 45.2347C112.023 45.2347 110.232 48.2261 110.232 51.4157C110.232 54.6052 111.819 57.5967 115.282 57.5967C118.257 57.5967 119.52 55.4967 120.293 53.6345L124.53 55.8533C123.149 58.8448 120.782 62.1136 115.203 62.1136C108.89 62.1136 105.017 57.5108 105.017 51.4091C105.017 45.3073 108.89 40.7046 115.567 40.7046C120.577 40.7046 123.023 43.4517 124.286 46.5224L119.923 48.5035L119.929 48.5101Z" fill="white"/>
<path d="M127.723 32.8728H132.694V43.2141H132.774C133.878 41.8009 135.867 40.7113 138.683 40.7113C142.187 40.7113 146.219 42.1641 146.219 48.1074V61.6448H141.248V49.5272C141.248 46.7008 140.104 45.4857 137.579 45.4857C133.831 45.4857 132.688 48.6357 132.688 51.1451V61.6514H127.717V32.886L127.723 32.8728Z" fill="white"/>
<path d="M150.621 41.1934H155.592V61.6382H150.621V41.1934ZM150.621 32.8728H155.592V37.885H150.621V32.8728Z" fill="white"/>
<path d="M159.79 41.1932H164.761V43.214H164.84C166.308 41.4376 168.462 40.7112 170.465 40.7112C175.357 40.7112 177.552 43.1743 177.552 47.6582V61.6381H172.581V49.1506C172.581 47.295 171.728 45.4724 169.157 45.4724C166.75 45.4724 164.754 47.0903 164.754 50.8478V61.6381H159.783V41.1932H159.79Z" fill="white"/>
<path d="M191.248 56.0646C187.5 56.0646 186.356 52.8288 186.356 50.6496C186.356 48.4704 187.5 45.2347 191.248 45.2347C194.996 45.2347 196.14 48.4704 196.14 50.6496C196.14 52.8288 194.996 56.0646 191.248 56.0646ZM195.974 41.1932V43.1743H195.895C194.672 41.7215 193.086 40.7112 190.111 40.7112C184.981 40.7112 181.147 44.5083 181.147 50.6496C181.147 56.791 184.975 60.5881 190.111 60.5881C191.902 60.5881 194.388 60.0202 195.981 58.3231C195.981 58.3231 195.981 59.2212 195.981 60.106C195.981 63.6192 194.097 64.5701 191.202 64.5701C190.065 64.5701 187.579 64.1607 187.13 62.0475H181.756C182.324 64.7748 183.507 68.7172 191.076 68.7172C196.853 68.7172 200.939 66.4521 200.939 60.5881C200.939 54.7241 200.939 41.1932 200.939 41.1932H195.968H195.974Z" fill="white"/>
</g>
<defs>
<clipPath id="clip0_4525_2314">
<rect width="300" height="132" fill="white"/>
</clipPath>
</defs>
</svg>
