<?xml version="1.0" encoding="UTF-8"?>
<svg width="850px" height="501px" viewBox="0 0 850 501" version="1.1" xmlns="http://www.w3.org/2000/svg" xmlns:xlink="http://www.w3.org/1999/xlink">
    <title>dfe_logo</title>
    <g id="Page-1" stroke="none" stroke-width="1" fill="none" fill-rule="evenodd">
        <g id="dfe_logo" transform="translate(0.100000, 0.800000)" fill="#000000" fill-rule="nonzero">
            <path d="M0,1.1 L12.2,1.1 L12.2,499.5 L0,499.5 L0,1.1 L0,1.1 Z M108.1,261.8 L84.6,261.8 L84.6,338.4 L108.1,338.4 C118.2,338.4 125.7,335.1 130.9,328.6 C136,322.1 138.6,312.4 138.6,299.7 C138.6,287.5 136,278.1 130.8,271.6 C125.5,265 118,261.8 108.1,261.8 L108.1,261.8 Z M71,350.6 L71,250.2 L109.3,250.2 C123.3,250.2 134,254.4 141.5,262.7 C148.9,271.1 152.6,283.1 152.6,298.9 C152.6,315.2 148.8,327.9 141,337 C133.3,346.1 122.5,350.6 108.7,350.6 L71,350.6 L71,350.6 Z M174.9,307.5 L215,307.5 C215,300.7 213.2,295.4 209.8,291.7 C206.4,288 201.6,286.1 195.3,286.1 C189.3,286.1 184.5,287.9 181,291.6 C177.5,295.2 175.5,300.5 174.9,307.5 L174.9,307.5 Z M214.7,327 L226.9,327 C225.6,335 222.1,341.4 216.4,346 C210.7,350.6 203.6,353 194.9,353 C184.8,353 176.8,349.6 170.9,342.8 C165,336 162.1,326.7 162.1,314.9 C162.1,302.4 165,292.7 170.8,285.7 C176.6,278.7 184.6,275.2 194.9,275.2 C205.4,275.2 213.5,278.4 219.3,284.9 C225,291.4 227.9,300.5 227.9,312.2 C227.9,313.7 227.9,314.8 227.9,315.5 C227.9,316.2 227.8,316.9 227.7,317.6 L175,317.6 C175.1,325.3 177,331.2 180.7,335.4 C184.4,339.6 189.5,341.7 196,341.7 C201,341.7 205.1,340.4 208.4,337.8 C211.7,335.4 213.8,331.8 214.7,327 L214.7,327 Z M250.4,314.6 C250.4,323.7 252.2,330.5 255.8,335.1 C259.4,339.7 264.8,342 272.1,342 C279,342 284.3,339.5 288.1,334.5 C291.9,329.5 293.7,322.4 293.7,313.1 C293.7,304.8 291.8,298.2 287.9,293.5 C284,288.7 278.7,286.3 272,286.3 C265.1,286.3 259.8,288.8 256,293.7 C252.3,298.5 250.4,305.5 250.4,314.6 L250.4,314.6 Z M238.8,378.1 L238.8,277.6 L250.8,277.6 L250.8,287.9 C253.8,283.5 257.3,280.3 261.1,278.3 C264.9,276.3 269.4,275.2 274.6,275.2 C284.3,275.2 292.1,278.7 297.9,285.7 C303.7,292.7 306.6,302.1 306.6,313.9 C306.6,325.8 303.7,335.3 297.8,342.3 C291.9,349.3 284.2,352.9 274.5,352.9 C269.4,352.9 264.9,352 261,350.1 C257.1,348.3 253.7,345.5 250.9,341.7 L250.9,378.1 L238.8,378.1 L238.8,378.1 Z M362.5,340.9 C358.7,344.9 354.6,347.9 350.3,349.9 C346,351.9 341.3,352.9 336.6,352.9 C329.1,352.9 323.3,351 319.1,347.1 C314.9,343.2 312.8,337.8 312.8,331 C312.8,324.4 314.9,319.2 319,315.4 C323.1,311.6 329.4,309.2 337.8,308.1 C339.9,307.9 342.8,307.6 346.5,307.1 C352.7,306.5 356.6,305.8 358,305.3 C359.4,304.8 360.3,304 360.8,303.2 C361.3,302.3 361.5,300.4 361.5,297.4 C361.5,293.7 360.1,290.9 357.4,289 C354.7,287.1 350.6,286.2 345.1,286.2 C339.4,286.2 335.1,287.3 332.2,289.6 C329.3,291.9 327.9,295.2 327.9,299.7 L316.3,299.7 L316.3,299.2 C316.3,291.8 318.9,286 324.1,281.7 C329.3,277.4 336.4,275.3 345.5,275.3 C355.3,275.3 362.5,277.1 367.1,280.8 C371.7,284.5 374,290.2 374,298 L374,334.6 C374,337.7 374.3,339.8 375,340.7 C375.7,341.6 376.9,342.1 378.7,342.1 C379.1,342.1 379.5,342.1 380,342 C380.5,341.9 381.1,341.8 381.9,341.7 L381.9,351.2 C380.4,351.6 379.1,351.9 378,352.1 C376.9,352.3 375.8,352.3 374.8,352.3 C370.7,352.3 367.6,351.4 365.6,349.6 C363.6,347.8 362.5,345.1 362.5,341.6 L362.5,340.9 L362.5,340.9 Z M361.3,313.5 C358,315.3 352.4,316.7 344.5,317.7 C341.7,318.1 339.6,318.4 338.2,318.6 C333.7,319.3 330.5,320.6 328.6,322.6 C326.6,324.5 325.7,327.3 325.7,330.9 C325.7,334.5 326.8,337.3 329.1,339.3 C331.4,341.3 334.6,342.2 338.8,342.2 C345.4,342.2 350.8,340.5 355,337.2 C359.2,333.9 361.3,329.6 361.3,324.5 L361.3,313.5 L361.3,313.5 Z M389.4,350.6 L389.4,277.6 L401.3,277.6 L401.3,290.7 C403.2,285.8 405.9,282.1 409.2,279.7 C412.5,277.3 416.6,276 421.5,276 C422.4,276 423.1,276 423.5,276 C423.9,276 424.3,276.1 424.7,276.2 L424.7,289.2 C424.3,289.1 424,289.1 423.6,289.1 C423.2,289.1 422.6,289.1 421.8,289.1 C415.3,289.1 410.3,290.9 406.8,294.5 C403.4,298.1 401.7,303.3 401.7,310.1 L401.7,350.7 L389.4,350.6 L389.4,350.6 Z M458.4,332.2 C458.4,335.5 458.9,337.7 459.8,338.8 C460.7,339.9 462.5,340.4 465,340.4 C465.7,340.4 466.6,340.4 467.6,340.3 C468.6,340.3 470,340.2 471.6,340 L471.6,350.4 C469.6,350.8 467.7,351 466.1,351.2 C464.5,351.4 463,351.5 461.8,351.5 C456,351.5 452,350.4 449.7,348.2 C447.4,346 446.2,342 446.2,336.3 L446.2,287.3 L435.3,287.3 L435.3,277.5 L446.2,277.5 L446.2,257.2 L458.5,257.2 L458.5,277.6 L471.7,277.6 L471.7,287.4 L458.5,287.4 L458.4,332.2 L458.4,332.2 Z M571.6,350.6 L571.6,305.7 C571.6,298.3 570.6,293.3 568.6,290.6 C566.6,287.9 563.1,286.5 558.2,286.5 C552.3,286.5 547.7,288.3 544.4,292 C541.1,295.7 539.5,300.8 539.5,307.4 L539.5,350.6 L527,350.6 L527,305.7 C527,298.3 526,293.3 524,290.6 C522,287.9 518.5,286.5 513.6,286.5 C507.7,286.5 503.1,288.4 499.8,292.1 C496.5,295.8 494.8,300.9 494.8,307.5 L494.8,350.7 L482.5,350.7 L482.5,277.7 L494.2,277.7 L494.2,288 C496.9,283.9 500.2,280.9 503.9,278.9 C507.6,276.9 512,275.9 517,275.9 C521.5,275.9 525.4,276.8 528.7,278.7 C531.9,280.5 534.7,283.4 537,287.4 C540.2,283.4 543.7,280.5 547.4,278.7 C551.2,276.9 555.5,275.9 560.4,275.9 C565.1,275.9 569.2,276.8 572.7,278.5 C576.2,280.2 578.9,282.7 580.8,285.9 C581.8,287.8 582.6,290 583,292.6 C583.5,295.2 583.7,299.3 583.7,304.9 L583.7,350.9 L571.6,350.6 L571.6,350.6 Z M608.2,307.5 L648.3,307.5 C648.3,300.7 646.5,295.4 643.1,291.7 C639.7,288 634.9,286.1 628.6,286.1 C622.6,286.1 617.8,287.9 614.3,291.6 C610.9,295.2 608.8,300.5 608.2,307.5 L608.2,307.5 Z M648.1,327 L660.2,327 C658.9,335 655.4,341.4 649.7,346 C644,350.6 636.9,353 628.2,353 C618.1,353 610.1,349.6 604.2,342.8 C598.3,336 595.4,326.7 595.4,314.9 C595.4,302.4 598.3,292.7 604.1,285.7 C609.9,278.7 617.9,275.2 628.2,275.2 C638.7,275.2 646.8,278.4 652.6,284.9 C658.4,291.4 661.2,300.5 661.2,312.2 C661.2,313.7 661.2,314.8 661.2,315.5 C661.2,316.2 661.1,316.9 661,317.6 L608.3,317.6 C608.4,325.3 610.3,331.2 614,335.4 C617.7,339.6 622.8,341.7 629.3,341.7 C634.3,341.7 638.4,340.4 641.7,337.8 C645,335.4 647.1,331.8 648.1,327 L648.1,327 Z M719.1,350.6 L719.1,305.7 C719.1,298.5 718,293.6 715.8,290.8 C713.6,288 709.8,286.7 704.4,286.7 C697.5,286.7 692.2,288.6 688.4,292.5 C684.6,296.4 682.7,301.9 682.7,309 L682.7,350.6 L670.4,350.6 L670.4,277.6 L682.1,277.6 L682.1,288.2 C684.9,284 688.3,280.8 692.1,278.8 C696,276.8 700.4,275.7 705.5,275.7 C711,275.7 715.6,276.5 719.4,278.2 C723.2,279.9 726.1,282.3 728.1,285.7 C729.2,287.5 730.1,289.6 730.6,291.9 C731.1,294.3 731.4,298.1 731.4,303.3 L731.4,350.6 L719.1,350.6 L719.1,350.6 Z M762.2,332.2 C762.2,335.5 762.7,337.7 763.6,338.8 C764.5,339.9 766.3,340.4 768.8,340.4 C769.5,340.4 770.4,340.4 771.4,340.3 C772.4,340.2 773.8,340.2 775.4,340 L775.4,350.4 C773.4,350.8 771.5,351 769.9,351.2 C768.3,351.4 766.8,351.5 765.6,351.5 C759.8,351.5 755.8,350.4 753.5,348.2 C751.2,346 750,342 750,336.3 L750,287.3 L739.1,287.3 L739.1,277.5 L749.9,277.5 L749.9,257.2 L762.2,257.2 L762.2,277.6 L775.4,277.6 L775.4,287.4 L762.2,287.4 L762.2,332.2 L762.2,332.2 Z M74,497.7 L74,434.4 L62,434.4 L62,424.7 L74,424.7 L74,413.9 C74,407.9 75.4,403.3 78.1,400.3 C80.8,397.3 85,395.8 90.5,395.8 C91.4,395.8 92.5,395.9 93.8,396 C95.1,396.1 97,396.4 99.6,396.8 L99.6,407.8 C98.3,407.6 97.2,407.4 96.3,407.3 C95.4,407.2 94.7,407.1 94.2,407.1 C91.3,407.1 89.3,407.9 88.2,409.5 C87.1,411.1 86.5,414.1 86.5,418.6 L86.5,424.7 L99.7,424.7 L99.7,434.4 L86.5,434.4 L86.5,497.7 L74,497.7 L74,497.7 Z M114.8,461.1 C114.8,470.1 116.7,477.1 120.6,481.9 C124.5,486.7 130,489.1 137.3,489.1 C144.5,489.1 150,486.7 153.8,481.9 C157.6,477.1 159.5,470.2 159.5,461.1 C159.5,452.1 157.6,445.2 153.8,440.4 C150,435.6 144.5,433.2 137.3,433.2 C130,433.2 124.5,435.6 120.6,440.4 C116.7,445.1 114.8,452 114.8,461.1 L114.8,461.1 Z M102.2,461.1 C102.2,448.9 105.3,439.3 111.4,432.5 C117.5,425.7 126.1,422.3 137.1,422.3 C148.2,422.3 156.8,425.7 162.9,432.5 C169,439.3 172.1,448.8 172.1,461.1 C172.1,473.4 169,482.9 162.9,489.7 C156.8,496.5 148.2,499.9 137.2,499.9 C126.1,499.9 117.5,496.5 111.3,489.7 C105.3,483 102.2,473.4 102.2,461.1 L102.2,461.1 Z M182.4,497.7 L182.4,424.7 L194.3,424.7 L194.3,437.8 C196.3,432.9 198.9,429.2 202.2,426.8 C205.5,424.4 209.6,423.1 214.5,423.1 C215.4,423.1 216.1,423.1 216.5,423.1 C216.9,423.1 217.3,423.2 217.7,423.3 L217.7,436.3 C217.3,436.3 217,436.2 216.6,436.2 C216.2,436.2 215.6,436.2 214.8,436.2 C208.2,436.2 203.3,438 199.8,441.6 C196.4,445.2 194.7,450.4 194.7,457.2 L194.7,497.8 L182.4,497.7 L182.4,497.7 Z M266.9,497.7 L266.9,397.3 L338.5,397.3 L338.5,409.8 L280.4,409.8 L280.4,439.8 L334.1,439.8 L334.1,451.5 L280.4,451.5 L280.4,485.2 L339.7,485.2 L339.7,497.8 L266.9,497.7 L266.9,497.7 Z M398.6,460.7 C398.6,451.7 396.8,444.8 393.1,440.2 C389.4,435.6 384,433.3 376.8,433.3 C369.9,433.3 364.5,435.8 360.8,440.8 C357,445.8 355.1,452.9 355.1,462.2 C355.1,470.5 357,477.1 360.9,481.8 C364.8,486.6 370.1,489 376.9,489 C383.8,489 389.1,486.5 392.9,481.6 C396.7,476.8 398.6,469.8 398.6,460.7 L398.6,460.7 Z M410,397.3 L410,497.7 L398.1,497.7 L398.1,488.5 C395,492.3 391.4,495.2 387.5,497.1 C383.5,499 379.2,500 374.4,500 C364.7,500 356.9,496.5 351.1,489.5 C345.3,482.5 342.4,473.2 342.4,461.4 C342.4,449.4 345.3,439.9 351.1,432.9 C356.9,425.8 364.7,422.3 374.4,422.3 C379.5,422.3 384,423.2 387.9,425.1 C391.8,427 395.2,429.8 398.1,433.6 L398.1,397.3 L410,397.3 L410,397.3 Z M436.9,424.7 L436.9,469.5 C436.9,476.7 438,481.7 440.3,484.5 C442.6,487.3 446.4,488.7 451.7,488.7 C458.8,488.7 464.2,486.6 467.8,482.5 C471.4,478.3 473.2,472.2 473.2,464.1 L473.2,424.8 L485.5,424.8 L485.5,497.8 L473.8,497.8 L473.8,486.9 C471.3,491.1 468,494.3 463.9,496.4 C459.9,498.5 455.1,499.6 449.6,499.6 C444.5,499.6 440.1,498.7 436.3,497 C432.5,495.3 429.6,492.8 427.6,489.6 C426.5,487.8 425.6,485.7 425.1,483.4 C424.6,481 424.3,477.2 424.3,472 L424.3,424.7 L436.9,424.7 L436.9,424.7 Z M549,448.9 C548.6,443.9 546.8,440 543.6,437.3 C540.4,434.6 535.9,433.2 530.3,433.2 C523.7,433.2 518.5,435.6 514.9,440.4 C511.3,445.2 509.5,452 509.5,460.9 C509.5,469.8 511.2,476.7 514.7,481.5 C518.2,486.3 523.1,488.7 529.5,488.7 C535.2,488.7 539.8,487.2 543.2,484.3 C546.6,481.4 548.8,477.1 549.6,471.4 L561.3,471.4 C560.7,480.4 557.5,487.3 551.8,492.4 C546.1,497.4 538.5,499.9 528.9,499.9 C518.9,499.9 511,496.5 505.3,489.6 C499.6,482.7 496.7,473.3 496.7,461.4 C496.7,449.2 499.7,439.6 505.6,432.7 C511.6,425.8 519.7,422.3 530.2,422.3 C539.4,422.3 546.7,424.7 552.3,429.5 C557.8,434.3 560.8,440.8 561.1,449 L549,448.9 L549,448.9 Z M618.3,487.9 C614.5,491.9 610.4,494.9 606.1,496.9 C601.8,498.9 597.1,499.9 592.4,499.9 C584.9,499.9 579.1,498 574.9,494.1 C570.7,490.2 568.6,484.8 568.6,478 C568.6,471.4 570.7,466.2 574.8,462.4 C578.9,458.6 585.2,456.2 593.6,455.1 C595.7,454.9 598.6,454.6 602.3,454.1 C608.5,453.5 612.4,452.9 613.8,452.3 C615.2,451.8 616.1,451 616.6,450.2 C617.1,449.3 617.3,447.4 617.3,444.4 C617.3,440.7 615.9,437.9 613.2,436 C610.5,434.1 606.4,433.2 600.9,433.2 C595.2,433.2 590.9,434.3 588,436.6 C585.1,438.9 583.7,442.2 583.7,446.7 L572.1,446.7 L572.1,446.2 C572.1,438.8 574.7,433 579.9,428.7 C585.1,424.4 592.2,422.3 601.3,422.3 C611.1,422.3 618.3,424.1 622.9,427.8 C627.5,431.5 629.8,437.2 629.8,444.9 L629.8,481.4 C629.8,484.5 630.1,486.6 630.8,487.5 C631.5,488.4 632.7,488.9 634.5,488.9 C634.9,488.9 635.3,488.9 635.8,488.8 C636.3,488.7 636.9,488.6 637.7,488.5 L637.7,498 C636.2,498.4 634.9,498.7 633.8,498.9 C632.7,499.1 631.6,499.1 630.6,499.1 C626.5,499.1 623.4,498.2 621.4,496.4 C619.4,494.6 618.3,491.9 618.3,488.4 L618.3,487.9 L618.3,487.9 Z M617.1,460.5 C613.8,462.3 608.2,463.7 600.3,464.7 C598.2,465 596.1,465.3 594,465.6 C589.5,466.3 586.3,467.6 584.4,469.6 C582.4,471.5 581.5,474.3 581.5,477.9 C581.5,481.5 582.6,484.3 584.9,486.3 C587.2,488.3 590.4,489.2 594.6,489.2 C601.2,489.2 606.6,487.5 610.8,484.2 C615,480.9 617.1,476.6 617.1,471.5 L617.1,460.5 L617.1,460.5 Z M660.9,479.3 C660.9,482.6 661.4,484.7 662.3,485.8 C663.2,486.9 664.9,487.4 667.5,487.4 C668.2,487.4 669.1,487.4 670.1,487.3 C671.1,487.3 672.5,487.2 674.1,487 L674.1,497.4 C672.1,497.8 670.2,498 668.6,498.2 C667,498.4 665.5,498.5 664.3,498.5 C658.5,498.5 654.5,497.4 652.2,495.2 C649.9,493 648.7,489 648.7,483.3 L648.7,434.3 L637.8,434.3 L637.8,424.6 L648.7,424.6 L648.7,404.2 L660.9,404.2 L660.9,424.6 L674.1,424.6 L674.1,434.3 L660.9,434.3 L660.9,479.3 L660.9,479.3 Z M684.6,411.2 L684.6,397.2 L696.9,397.2 L696.9,411.2 L684.6,411.2 Z M684.6,497.7 L684.6,424.7 L696.9,424.7 L696.9,497.7 L684.6,497.7 Z M720.4,461.1 C720.4,470.1 722.3,477.1 726.2,481.9 C730.1,486.7 735.6,489.1 742.9,489.1 C750.1,489.1 755.6,486.7 759.4,481.9 C763.2,477.1 765.1,470.2 765.1,461.1 C765.1,452.1 763.2,445.2 759.4,440.4 C755.6,435.6 750.1,433.2 742.9,433.2 C735.6,433.2 730.1,435.6 726.2,440.4 C722.3,445.1 720.4,452 720.4,461.1 L720.4,461.1 Z M707.8,461.1 C707.8,448.9 710.9,439.3 717,432.5 C723.1,425.7 731.7,422.3 742.7,422.3 C753.8,422.3 762.4,425.7 768.5,432.5 C774.6,439.3 777.7,448.8 777.7,461.1 C777.7,473.4 774.6,482.9 768.5,489.7 C762.4,496.5 753.8,499.9 742.8,499.9 C731.7,499.9 723.1,496.5 717,489.7 C710.9,483 707.8,473.4 707.8,461.1 L707.8,461.1 Z M837.4,497.7 L837.4,452.8 C837.4,445.6 836.3,440.7 834.1,437.9 C831.9,435.1 828.1,433.8 822.7,433.8 C815.8,433.8 810.5,435.7 806.7,439.6 C802.9,443.5 801,449 801,456.1 L801,497.7 L788.7,497.7 L788.7,424.7 L800.4,424.7 L800.4,435.3 C803.2,431.1 806.6,427.9 810.4,425.9 C814.3,423.9 818.7,422.8 823.8,422.8 C829.3,422.8 833.9,423.6 837.7,425.3 C841.5,427 844.4,429.4 846.4,432.8 C847.5,434.6 848.4,436.6 848.9,439 C849.4,441.4 849.7,445.2 849.7,450.4 L849.7,497.7 L837.4,497.7 L837.4,497.7 Z M164.6,32.6 C163.5,34.8 162.5,36.1 162.6,37.7 C162.8,39.4 164.5,40.6 165.4,42.3 C166.2,40.3 167.4,38.8 167.3,37.3 C167.1,35.8 165,33.7 164.6,32.6 M193.9,32.6 C195,34.8 196,36.1 195.9,37.7 C195.7,39.4 194,40.6 193.1,42.3 C192.3,40.3 191.1,38.8 191.2,37.3 C191.4,35.8 193.5,33.7 193.9,32.6 M147.7,31.3 C148.8,31.3 149.7,30.4 149.7,29.3 C149.7,28.2 148.8,27.3 147.7,27.3 C147.7,27.3 147.7,27.3 147.7,27.3 C146.6,27.3 145.7,28.2 145.7,29.3 C145.7,30.4 146.6,31.3 147.7,31.3 C147.7,31.3 147.7,31.3 147.7,31.3 M149,34.2 C149,33.1 148.1,32.2 147,32.2 C145.9,32.2 145,33.1 145,34.2 L145,34.2 C145,35.3 145.9,36.2 147,36.2 C148.1,36.2 149,35.3 149,34.2 M150,39 C150,37.9 149.1,37 148,37 C146.9,37 146,37.9 146,39 C146,39 146,39 146,39 C146,40.1 146.9,41 148,41 C149.1,41 150,40.1 150,39 M158.7,21.9 C159.8,21.9 160.7,21 160.7,19.9 C160.7,18.8 159.8,17.9 158.7,17.9 C157.6,17.9 156.7,18.8 156.7,19.9 C156.7,21 157.6,21.9 158.7,21.9 M153.7,23.4 C154.8,23.4 155.7,22.6 155.8,21.5 C155.8,20.4 155,19.5 153.9,19.4 C153.8,19.4 153.8,19.4 153.7,19.4 C152.6,19.5 151.8,20.4 151.8,21.5 C151.9,22.6 152.7,23.4 153.7,23.4 M149.9,26.8 C151,26.8 151.9,25.9 151.9,24.8 C151.9,24.8 151.9,24.8 151.9,24.8 C151.9,23.7 151,22.8 149.9,22.8 C148.8,22.8 147.9,23.7 147.9,24.8 L147.9,24.8 C147.9,25.9 148.8,26.8 149.9,26.8 M163.8,22.4 C164.9,22.4 165.8,21.5 165.8,20.4 C165.8,19.3 164.9,18.4 163.8,18.4 C163.8,18.4 163.8,18.4 163.8,18.4 C162.7,18.4 161.8,19.3 161.8,20.4 C161.9,21.5 162.8,22.4 163.8,22.4 M168.8,23.8 C169.9,23.8 170.8,22.9 170.8,21.8 C170.8,20.7 169.9,19.8 168.8,19.8 C167.7,19.8 166.8,20.7 166.8,21.8 C166.8,22.9 167.7,23.8 168.8,23.8 M173.4,26 C174.5,26 175.4,25.1 175.4,24 C175.4,22.9 174.5,22 173.4,22 C173.4,22 173.4,22 173.4,22 C172.3,22 171.4,22.9 171.4,24 C171.4,25.1 172.3,26 173.4,26 M208.7,29.4 C208.7,30.5 209.6,31.4 210.7,31.4 C211.8,31.4 212.7,30.5 212.7,29.4 L212.7,29.4 C212.7,28.3 211.8,27.4 210.7,27.4 C209.6,27.4 208.7,28.3 208.7,29.4 M211.4,32.2 C210.3,32.2 209.4,33.1 209.4,34.2 C209.4,35.3 210.3,36.2 211.4,36.2 C211.4,36.2 211.4,36.2 211.4,36.2 C212.5,36.2 213.4,35.3 213.4,34.2 C213.4,33.1 212.5,32.2 211.4,32.2 M210.4,37 C209.3,37 208.4,37.9 208.4,39 C208.4,40.1 209.3,41 210.4,41 C210.4,41 210.4,41 210.4,41 C211.5,41 212.4,40.1 212.4,39 C212.4,39 212.4,39 212.4,39 C212.4,37.9 211.5,37 210.4,37 M199.8,21.9 C200.9,21.9 201.8,21 201.8,19.9 C201.8,18.8 200.9,17.9 199.8,17.9 C198.7,17.9 197.8,18.8 197.8,19.9 C197.8,21 198.7,21.9 199.8,21.9 M204.7,23.4 C205.7,23.9 206.9,23.5 207.4,22.5 C207.9,21.5 207.5,20.3 206.5,19.8 C205.5,19.3 204.3,19.7 203.8,20.7 C203.3,21.7 203.7,22.9 204.7,23.4 M208.6,26.8 C209.7,26.8 210.6,25.9 210.6,24.8 C210.6,23.7 209.7,22.8 208.6,22.8 C207.5,22.8 206.6,23.7 206.6,24.8 C206.6,25.9 207.5,26.8 208.6,26.8 M194.6,22.4 C195.7,22.4 196.6,21.5 196.6,20.4 C196.6,19.3 195.7,18.4 194.6,18.4 C193.5,18.4 192.6,19.3 192.6,20.4 C192.6,21.5 193.5,22.4 194.6,22.4 M189.7,23.8 C190.8,23.8 191.7,22.9 191.7,21.8 C191.7,20.7 190.8,19.8 189.7,19.8 C188.6,19.8 187.7,20.7 187.7,21.8 C187.7,22.9 188.6,23.8 189.7,23.8 M183.1,24 C183.2,25.1 184.1,25.9 185.2,25.9 C186.2,25.8 187,25 187.1,24 C187.1,22.9 186.2,22 185.1,22 C184,22 183.1,22.9 183.1,24 M175.8,34.7 L178,34.7 L178,26.2 C177.2,26.1 176.5,25.9 175.8,25.5 L175.8,34.7 L175.8,34.7 Z M182.6,25.5 C181.9,25.8 181.2,26.1 180.4,26.2 L180.4,34.7 L182.6,34.7 L182.6,25.5 Z M177.9,16.2 L177.9,11.2 C175.4,11.7 173.5,13.7 173,16.2 L177.9,16.2 L177.9,16.2 Z M180.5,16.2 L185.3,16.2 C184.9,13.7 183,11.7 180.5,11.2 L180.5,16.2 L180.5,16.2 Z M173.1,18.6 C173.8,22 177.2,24.1 180.5,23.3 C182.9,22.8 184.7,20.9 185.2,18.6 L173.1,18.6 L173.1,18.6 Z M182.6,10.3 C181.2,9.2 180.1,7.6 179.9,5.9 C181.5,6.2 183.3,7.4 184.4,8.8 L184.4,2 C183.3,3.4 181.5,4.6 179.9,4.9 C180.1,3.2 181.1,1.7 182.5,2.84217094e-14 L175.9,2.84217094e-14 C177.3,1.7 178.3,3.2 178.5,4.9 C176.9,4.6 175.1,3.4 174,2 L174,8.8 C175.1,7.4 176.9,6.2 178.5,5.9 C178.3,7.6 177.2,9.2 175.8,10.3 L182.6,10.3 L182.6,10.3 Z M189.9,146.4 C183.7,144.8 176.2,142.2 169.3,139 L169.3,138.9 C169.5,137.5 169,135.9 167.9,134.7 C166.8,133.5 165.4,132.8 164,132.8 C163.4,132.8 162.7,132.9 162.1,133.2 C161.1,132.3 160.1,131.3 159.2,130.3 C156.6,127.2 154.5,123.6 153.1,119.7 C152.3,117.4 151.7,115.1 151.3,112.6 C151,114.6 148.7,117.3 144.8,117.3 C144.9,116.9 144.8,115.9 144.5,115.8 C143.5,116.9 141.9,118.2 138.4,116.9 C138.9,119.7 139.7,122.4 140.7,125 C142.7,130.5 145.8,135.6 149.7,140 C151,141.4 152.3,142.8 153.7,144 C153.7,144.3 153.7,144.5 153.7,144.8 C153.7,146.3 155.1,148.6 157.1,149.6 C158.8,150.4 160.6,150.2 162.2,149 C165.2,150.6 169.1,152.1 173.2,153.3 C177.9,154.6 182.4,155.3 185.9,155.3 C188.9,155.3 193,153.9 196.9,151.4 C198.5,150.4 200,149.3 201.1,148.2 C201.3,148.1 201.4,147.9 201.5,147.8 C198.4,148.3 193.7,147.4 189.9,146.4 M167.1,137.1 L166.4,136.6 C165.2,135.7 164.2,135.7 163.1,136.6 C162.6,137 162.1,137.6 161.7,138.1 L161,138.9 L161.5,139.3 C162.8,140.3 163,141.4 162.6,142.1 C162.5,142.4 162.2,142.5 161.9,142.6 C161.3,142.8 160.4,142.5 159.5,142 L159,141.7 L158.7,142.2 L158.5,142.6 C158.4,142.8 158.3,142.9 158.2,143.1 C157.7,144.1 157.4,144.8 157.4,145.4 C157.4,145.6 157.4,145.7 157.5,145.9 C157.7,146.6 158.3,146.9 158.7,147.2 L158.9,147.2 C159.5,147.6 160.3,148 160.9,148.4 C159.8,149 158.6,149.1 157.5,148.5 C155.8,147.7 154.7,145.7 154.7,144.7 C154.7,143.2 155.4,141.3 156.6,139.4 L156.8,139.1 L156.6,138.8 C156.3,138.3 156,137.7 155.7,137.1 C156.3,137.2 157,137.3 157.6,137.5 L157.9,137.6 L158.1,137.4 C158.9,136.6 161.5,133.9 163.9,133.9 C165,133.9 166.1,134.5 167,135.4 C167.6,136.1 168,137 168.1,137.8 C167.8,137.6 167.4,137.4 167.1,137.1 M171.1,148.9 C169.6,148.9 168.4,147.7 168.4,146.2 C168.4,144.7 169.6,143.5 171.1,143.5 C172.6,143.5 173.8,144.7 173.8,146.2 C173.8,147.7 172.6,148.9 171.1,148.9 M182.8,152.6 C181.4,152.6 180.4,151.4 180.4,150.1 C180.4,148.8 181.5,147.8 182.8,147.7 C184.1,147.7 185.2,148.8 185.2,150.1 C185.2,151.5 184.2,152.6 182.8,152.6 M186,164.9 C185.5,164.9 185.1,165 184.7,165.1 L184.7,157.6 C181,157.4 177.4,156.9 173.8,156 L173.8,165.1 C173.4,165 172.9,164.9 172.5,164.9 C169.9,164.9 168.3,167.1 168.3,169.1 C168.3,171 169.4,172.8 170.4,173.9 C170.9,172.7 171.3,171.8 172,171.8 C173.3,171.8 172.7,178.3 176.5,178.5 C176.4,178.8 176.3,179.2 176.3,179.5 C176.3,181.1 177.6,182.5 179.3,182.5 C180.9,182.5 182.3,181.2 182.3,179.5 C182.3,179.2 182.2,178.8 182.1,178.5 C185.9,178.3 185.3,171.8 186.6,171.8 C187.2,171.8 187.7,172.7 188.2,173.9 C189.2,172.8 190.3,171 190.3,169.1 C190.3,167.1 188.7,164.9 186,164.9 M179.3,181.2 C178.4,181.2 177.6,180.5 177.6,179.5 C177.6,178.6 178.3,177.8 179.3,177.8 C180.2,177.8 181,178.5 181,179.5 C180.9,180.4 180.2,181.2 179.3,181.2 M188.2,171.7 C187.8,170.9 187.1,170.4 186.5,170.4 C183.9,170.4 184.9,177.1 181.9,177.1 C180.6,177.1 179.9,176.2 179.9,175.3 C179.9,174.4 180.6,174.1 180.6,173.3 C180.6,172.5 180,172.3 179.3,172.3 C178.7,172.3 178,172.6 178,173.3 C178,174.1 178.7,174.3 178.7,175.3 C178.7,176.3 178,177.1 176.7,177.1 C173.7,177.1 174.7,170.4 172.1,170.4 C171.5,170.4 170.9,170.9 170.4,171.7 C169.9,170.7 169.6,169.8 169.6,169.1 C169.6,167.9 170.5,166.2 172.5,166.2 C175.9,166.2 175.1,170.8 176.7,170.8 C177.4,170.8 178,170.4 178,169.7 C178,168.4 175.6,167.1 175.6,165.2 C175.6,163.3 177.3,161.7 179.2,160.2 C181.1,161.7 182.8,163.3 182.8,165.2 C182.8,167.1 180.4,168.3 180.4,169.7 C180.4,170.4 180.9,170.8 181.6,170.8 C183.2,170.8 182.4,166.2 185.8,166.2 C187.8,166.2 188.7,167.9 188.7,169.1 C189,169.8 188.7,170.8 188.2,171.7" id="Shape"></path>
            <path d="M273.7,173.8 C273.6,173.4 273.1,173.2 272.7,173.3 C264,175.8 253.1,168.6 242.6,161.6 C233.8,155.7 225.4,150.2 218.3,150.2 C215.7,150.2 213.3,150.8 211.3,151.9 C208.8,153.3 206.9,155.4 205.8,158.3 C204.6,161.2 203.3,163.2 202.3,164.8 C201.1,166.7 200.2,168.1 200.2,169.8 C200.2,171.2 200.8,172.5 202,173.7 C203,174.7 204.5,175.7 206.6,176.8 C207.1,177 207.5,177.2 207.9,177.5 C209.6,178.3 210.7,178.9 210.9,179.9 C207.4,181.4 203,182.7 197.9,183.6 C192.2,184.6 185.9,185.1 179.2,185.1 C172.6,185.1 166.3,184.6 160.6,183.6 C155.5,182.7 151,181.5 147.6,179.9 C147.7,178.4 148.8,177.9 150.7,177 C151.2,176.8 151.6,176.6 152.1,176.3 C153.8,175.4 155.5,174.5 156.6,173.5 C157.8,172.4 158.4,171.2 158.4,169.8 C158.4,168.1 157.5,166.7 156.3,164.8 C155.3,163.2 154,161.2 152.8,158.3 C151.6,155.4 149.7,153.2 147.2,151.9 C145.2,150.8 142.8,150.2 140.2,150.2 C133.1,150.2 124.7,155.7 115.9,161.6 C105.4,168.6 94.6,175.8 85.8,173.3 C85.4,173.1 84.9,173.4 84.8,173.8 C84.6,174.2 84.9,174.7 85.3,174.8 L85.3,174.8 C88,176 90.3,177.8 92.6,179.6 C95.8,182.1 98.7,184.4 102,184.4 C105.1,184.4 108.4,183.4 112.5,181.3 C116,179.5 119.7,177 123.2,174.6 C130.1,169.9 137.2,165 144,164.5 C143.3,165.2 142.6,165.8 142,166.4 C140,168.2 138.3,169.7 138.3,172.9 C138.3,175.4 139.1,177.1 140.3,179.6 C140.6,180.3 141,181.1 141.4,182 C142.2,183.7 142.5,185 142.9,186.9 C143.1,187.7 143.3,188.6 143.6,189.7 C144,191.3 144.8,194.3 149.8,196.8 C155.6,199.7 165.5,201.2 179.3,201.2 C193.1,201.2 203,199.7 208.8,196.8 C213.8,194.3 214.6,191.3 215,189.7 C215.3,188.6 215.5,187.7 215.7,186.9 C216.2,185.1 216.5,183.7 217.2,182 C217.8,180.8 218.3,179.8 218.8,178.9 C219.8,177 220.7,175.4 220.7,173.2 C220.7,170.1 218.9,168.4 216.8,166.5 C216.1,165.9 215.4,165.2 214.7,164.5 C221.5,165 228.6,169.9 235.5,174.6 C239,177 242.7,179.5 246.2,181.3 C250.3,183.4 253.6,184.4 256.7,184.4 C260,184.4 262.9,182.1 266.1,179.6 C268.4,177.9 270.7,176 273.4,174.8 C273.6,174.7 273.8,174.2 273.7,173.8 M221.2,103.9 C220.2,103.2 218.7,101.7 217.8,100 C216.8,97.9 212.4,89.3 211.8,88.2 C211.2,87.3 210.9,86.4 210.9,85.7 C210.9,84.8 211.3,84.1 211.8,83.4 C212.1,83 213.1,82 213.4,81.5 C213.7,81.1 213.9,80.7 214.2,80.5 C212.6,77.8 211,75.7 208.9,73.4 C206.4,70.5 203.5,68.1 200.4,66.1 C202.1,65 203.7,63.5 203.7,60.9 C203.7,59.4 203.1,58.2 202,57.2 C203.7,51.6 206.9,44.9 209.6,41.9 L204,39.5 C205.5,41.7 205.6,44.3 205.2,45.8 C203.7,44.8 202.5,43.4 202.1,41.6 C201.8,43.3 200.9,46.1 200,47.7 C201.6,46.9 202.9,46.6 204.6,47.3 C203.7,48.6 201.2,50.5 197.5,49.7 C195.5,49.2 193.5,48.2 193.6,46.6 C193.6,45.7 194.3,44.6 195.6,44.7 C196.8,44.8 196.9,46.7 196.5,47.5 C198.1,46.6 199.8,41.9 197.3,41.2 C195.3,40.7 193.5,43.4 192.9,45.4 C192.5,42.9 191.5,40.5 189.5,40.6 C186.9,40.8 187.8,45.5 188.7,46.8 C188.9,45.1 189.8,44.2 190.5,44.3 C191.2,44.3 192.1,44.8 191.9,46.3 C191.7,47.8 189.6,48.8 187.1,48.8 C184.7,48.8 180.6,48.1 180.2,43.5 C181.7,43.8 184.2,45 185.2,46.5 C184.9,44 184.9,41.4 185.2,38.9 C183.9,40.7 181.8,41.6 180.3,41.9 C180.7,39.9 182.4,37.9 184.4,36.6 L174.2,36.6 C176.2,37.8 177.8,39.9 178.3,41.9 C176.8,41.6 174.7,40.7 173.5,38.9 C173.8,41.8 173.8,43.7 173.5,46.5 C174.5,45 176.9,43.8 178.4,43.5 C178,48.1 173.8,48.8 171.5,48.8 C169,48.8 166.9,47.9 166.7,46.3 C166.5,44.8 167.5,44.3 168.2,44.3 C169,44.2 169.9,45.1 170,46.8 C170.9,45.6 171.7,40.8 169.2,40.6 C167.2,40.5 166.2,42.9 165.8,45.4 C165.1,43.3 163.3,40.6 161.4,41.2 C158.9,41.9 160.6,46.6 162.2,47.5 C161.8,46.7 161.9,44.8 163.1,44.7 C164.4,44.6 165,45.7 165.1,46.6 C165.2,48.1 163.2,49.2 161.2,49.7 C157.5,50.6 155.1,48.6 154.1,47.4 C155.8,46.7 157.1,47 158.7,47.8 C157.8,46.2 156.9,43.4 156.6,41.7 C156.2,43.6 154.9,45 153.4,46 C153,43.8 153.4,41.5 154.6,39.6 L149,42 C151.7,45 154.8,51.7 156.6,57.3 C155.5,58.3 154.9,59.5 154.9,61 C154.9,63.6 156.6,65.2 158.2,66.2 C155.1,68.3 152.2,70.7 149.7,73.5 C145.8,77.9 142.8,82.9 140.7,88.4 C141.5,89.2 144.8,92.9 145.6,93.9 C147,95.7 147.8,97.4 147.9,98.8 C148,101.3 148.5,102.3 149.9,104.1 C150.3,104.6 150.9,106.6 151,107.9 L178.9,107.9 L178.9,138.2 C177.8,138.3 176.6,138.6 175.7,139.7 C178.9,141 182,142.2 185.1,143.1 C185.4,141.1 185.8,139.9 186.8,138.7 C186.8,138.7 182.8,138.3 180.6,138.2 L180.6,107.9 L207.8,107.9 C207.7,112 207,116.1 205.6,119.9 C204.2,123.8 202.1,127.4 199.5,130.5 C197,133.5 193.9,135.9 190.5,137.6 C190,137.9 190,138.3 189.4,138.5 C188.9,139 188.4,139.9 188.1,141 C187.8,141.9 187.6,142.5 187.5,143.8 C188.8,144.2 189.5,144.4 190.7,144.7 C200.3,147.1 202.6,146.4 203.2,146 L203.2,146 C205.4,144.3 207.4,142.4 209.2,140.4 C213.1,136 216.1,130.9 218.2,125.4 C220.4,119.6 221.5,113.4 221.5,107 C221.2,105.4 221.2,105.1 221.2,103.9 L221.2,103.9 Z M178.8,106 L150.9,106 C151,101.7 151.7,97.5 153.1,93.5 C154.5,89.6 156.6,86 159.2,82.9 C161.7,79.9 164.8,77.5 168.2,75.8 C171.5,74.2 175.1,73.3 178.7,73.2 L178.7,106 L178.8,106 Z M179.3,59.5 C170,59.5 163.6,62.2 159.9,64.7 C157.7,63.4 156.8,62.2 156.8,60.7 C156.8,55.4 171.7,54.9 179.3,54.9 L179.3,54.9 C186.9,54.9 201.8,55.4 201.8,60.7 C201.8,62.2 200.9,63.4 198.7,64.7 C195,62.3 188.6,59.5 179.3,59.5 L179.3,59.5 Z M180.4,106 L180.4,73.2 C183.8,73.4 187.1,74.2 190.3,75.7 C193.7,77.4 196.7,79.8 199.3,82.8 C201.9,85.9 204,89.5 205.4,93.4 C206.8,97.4 207.6,101.6 207.6,105.9 L180.4,106 L180.4,106 Z" id="Shape"></path>
            <path d="M203.4,100.6 C203.9,100.9 203.7,101.7 203.1,101.6 C202.5,96.6 200.7,91.9 197.9,87.8 C197.9,87.8 198,87.7 198,87.7 C198.6,87.5 199.1,86.9 199.2,86.3 C198.5,86.2 197.8,86.5 197.4,87.1 C197.2,86.8 197,86.6 196.8,86.3 C195.1,84.2 193.1,82.3 190.9,80.8 C188.9,79.4 186.7,78.4 184.3,77.8 C184.3,77.3 185,77.2 185.3,77.7 C185.4,76.8 184.6,76.4 184.2,76.6 C184,76.7 183.8,76.9 183.7,77.3 C183.4,76.9 182.9,76.7 182.5,76.6 C182.5,77.2 182.6,77.6 182.9,77.9 C182.5,77.9 182.3,78.1 182.2,78.3 C182,78.7 182.3,79.5 183.1,79.6 C182.7,79.3 182.9,78.6 183.4,78.6 L183.4,89.3 C182.8,89.1 182.1,89.3 181.6,89.8 C182.2,90.4 182.8,90.4 183.4,90.3 L183.4,101.9 C182.8,102 182.7,101.2 183.1,100.9 C182.2,100.9 181.9,101.7 182.1,102.1 C182.2,102.4 182.5,102.6 183,102.5 C182.7,102.8 182.5,103.3 182.5,103.7 C182.9,103.7 183.4,103.5 183.7,103.2 C183.6,103.7 183.9,104 184.1,104.1 C184.5,104.3 185.3,103.9 185.3,103.1 C185,103.5 184.3,103.4 184.3,102.9 L192.3,102.9 C192.1,103.5 192.3,104.2 192.8,104.7 C193.3,104.1 193.4,103.5 193.3,102.9 L202.3,102.9 C202.3,103.5 201.6,103.6 201.3,103.2 C201.3,104.1 202.1,104.4 202.5,104.2 C202.8,104.1 203,103.8 202.9,103.3 C203.2,103.6 203.7,103.7 204.1,103.7 C204.1,103.2 203.9,102.8 203.6,102.5 C204.1,102.5 204.4,102.3 204.5,102.1 C204.6,101.4 204.2,100.6 203.4,100.6 M195.6,86.5 C195.4,86.7 195.2,87 195.3,87.3 C195.4,87.6 195.6,87.8 196.1,87.8 C195.8,88.1 195.5,88.5 195.5,88.9 C196,89 196.5,88.8 196.8,88.6 C196.7,89.1 196.9,89.4 197.1,89.5 C197.3,89.6 197.6,89.6 197.8,89.5 C199.9,92.9 201.3,96.6 201.9,100.6 C201.6,100.4 201.2,100.3 200.9,100.3 C200.9,100.8 201.1,101.2 201.4,101.6 L194.6,101.6 C194.6,101.2 194.4,100.8 194.1,100.7 C193.8,100.6 193.5,100.6 193.2,101 C193.2,100.6 193,100.1 192.7,99.8 C192.4,100.1 192.2,100.5 192.2,101 C191.9,100.6 191.6,100.6 191.3,100.7 C191,100.8 190.8,101.2 190.9,101.6 L185.1,101.6 C185.4,101.3 185.5,100.9 185.5,100.4 C185.1,100.4 184.7,100.5 184.3,100.8 L184.3,91.4 C184.7,91.5 185.1,91.2 185.2,91 C185.3,90.7 185.3,90.4 184.9,90.1 C185.4,90.1 185.8,89.9 186.1,89.6 C185.8,89.3 185.4,89.1 184.9,89.1 C185.3,88.8 185.3,88.5 185.2,88.2 C185.1,87.9 184.7,87.7 184.3,87.8 L184.3,79.8 C184.5,80 184.9,80.2 185.3,80.2 C185.3,79.8 185.2,79.4 185,79.1 C186.8,79.7 188.6,80.6 190.3,81.7 C192.2,82.9 194,84.6 195.6,86.5" id="Shape"></path>
            <path d="M198.6,97.7 C198.9,97.6 199.2,97.3 199.4,97 C199,97.1 198.7,96.9 198.6,96.9 C198.9,96.7 199.2,96.9 198.9,96.4 C198.6,95.9 198.4,95.9 198,96.2 C197.7,96.5 195.5,96.1 195.5,94.5 C195.7,94.8 195.9,95 196.2,95.1 C196.3,95.1 196.4,95.2 196.5,95.2 C196.6,95.2 196.7,95.2 196.8,95.2 C197,95.3 197.2,95.3 197.4,95.3 L197.5,95.3 L197.5,95.2 C197.9,95.1 198.3,94.8 198.3,94.3 C198.4,93.4 197.5,93 196.6,92.2 C196.3,91.9 196,91.7 195.7,91.4 C195.4,90.8 195.6,90.2 194.8,89 C194.7,88.6 194.7,88.3 194.5,88 C193.9,89.1 194.1,90.5 195,91.4 C195.9,92.4 197.8,93.3 197.8,94.2 C197.8,94.4 197.6,94.6 197.3,94.6 C197.2,94.6 197.1,94.6 197,94.6 C196.9,94.6 196.9,94.6 196.8,94.5 C196.7,94.5 196.5,94.4 196.4,94.3 C196.2,94.2 195.9,94 195.7,93.8 C194.9,93 194.2,92 193.7,91.3 C192.8,90.2 193.2,89 193.4,88.1 C194,87.2 193,85.4 192.4,85 C192.4,85 192.5,84.6 192.4,84.1 C192.3,84.2 192,84.2 191.8,84.2 C191.6,83.9 191.6,83.8 191.3,83.8 C190.9,83.7 190.9,83.5 190.9,83.4 C190.7,83.6 190.6,83.8 190.4,83.8 C190.1,83.8 189.9,83.8 189.8,83.9 C189.6,84.1 189.5,84.2 189.1,84.1 C188.7,84.1 188.7,84.3 188.8,84.6 C188.8,84.8 188.8,85 189.1,85.1 C189.1,85.1 189.2,85.1 189.2,85.1 L189.5,85.4 L189.7,85 C189.9,84.9 190.3,84.8 190.4,85.2 C190.5,85.4 190.5,85.5 190.2,85.5 C189.9,85.5 189.7,85.5 189.4,85.6 C189.2,85.6 189.2,85.9 189.2,86 C189.2,86.2 189.4,86.3 189.9,86.2 C190.3,86.1 191.1,86 191.1,86.4 C191.1,87.4 190,87.3 189.8,88.5 C189.5,88.3 189.3,88.1 189.1,87.9 C188.9,87.5 188.6,87.2 188.3,86.9 C188.1,86.6 187.8,86.4 187.5,86.2 C187.1,86 187.1,85.8 187.1,85.4 C187.1,85.1 187.2,84.7 187.2,84.4 C187.2,84.4 187.1,84.2 187.1,84.1 C187,83.9 186.7,83.7 186.6,83.8 C186.7,83.9 186.8,83.9 186.8,84.1 C186.7,84.2 186.7,84.3 186.6,84.3 C186.5,84.4 186.5,84.5 186.6,84.6 C186.6,84.6 186.6,84.6 186.6,84.7 C186.6,84.8 186.6,84.8 186.6,84.9 C186.6,85 186.6,84.9 186.6,84.9 C186.5,84.7 186.4,84.3 186.2,84.3 C186.2,84.3 186.1,84.3 186,84.3 C186,84.3 186,84.3 186,84.3 C186,84.1 185.7,83.9 185.4,84.1 C185.5,84.1 185.6,84.1 185.6,84.2 C185.6,84.3 185.6,84.4 185.5,84.5 C185.5,84.7 185.7,84.9 185.9,84.9 C185.9,84.9 186,84.9 186,84.9 C186,84.9 186,85 186,85 C186,85 186,85 186,85 C185.6,84.8 185.4,85 185.4,85.2 C185.4,85.2 185.4,85.3 185.4,85.4 C185.2,85.5 185.2,85.7 185.5,85.9 C185.5,85.8 185.5,85.7 185.6,85.6 C185.6,85.6 185.6,85.6 185.7,85.6 C185.7,85.7 185.8,85.7 185.8,85.7 C185.8,85.7 185.9,85.7 186,85.6 C186,85.6 186.1,85.6 186.1,85.6 C186.1,85.6 186.2,85.7 186.2,85.7 C186.2,85.7 186.2,85.7 186.2,85.8 C185.9,86.1 186,86.3 186.3,86.4 C186.1,86.7 185.6,86.6 185.7,86.1 C185.3,86.7 185.9,87.1 186.5,86.9 C186.5,87.1 186.5,87.5 186.6,87.6 C186.6,87.6 186.6,87.5 186.7,87.5 C186.7,87.5 186.7,87.5 186.7,87.6 C186.7,87.7 186.8,87.9 187,87.9 C187,87.8 187,87.7 187.1,87.7 C187.2,87.8 187.3,88 187.4,88.1 C187.6,88.6 188.2,89.7 189.3,90.2 C188.7,90.5 188.3,91 187.9,91.5 C187.6,91.8 187.1,92.2 186.8,92 C186.7,91.9 186.6,91.8 186.5,91.7 C186.4,91.6 186.2,91.6 186.1,91.6 C186,91.6 186,91.6 185.9,91.7 C185.7,91.6 185.4,91.7 185.3,91.9 C185.4,91.9 185.5,91.8 185.7,92 C185.7,92.1 185.7,92.2 185.7,92.2 C185.7,92.3 185.8,92.5 186.4,92.5 C186.4,92.5 186.5,92.5 186.5,92.6 C186.4,92.7 186.3,92.7 186.2,92.7 C185.9,92.6 185.8,92.4 185.6,92.7 C185.6,92.8 185.5,92.8 185.5,92.9 C185.5,92.9 185.5,92.9 185.4,92.9 C185.2,93 184.9,93.4 185.2,93.6 C185.2,93.5 185.2,93.3 185.4,93.2 C185.4,93.3 185.5,93.3 185.5,93.3 C185.7,93.6 185.9,93.7 186.3,93.1 C186.3,93 186.4,93.1 186.3,93.1 C186.3,93.4 186,93.8 186.4,93.8 C186.4,93.8 186.5,93.8 186.6,93.8 L186.6,93.9 C186.7,94.2 187.1,94.3 187.3,94.2 C187.2,94.1 187,94.1 186.9,93.8 C187,93.8 187.1,93.8 187.1,93.8 C187.3,93.6 187.1,93.3 187.2,93.2 C187.2,93.1 187.3,93.2 187.3,93.2 C187.4,93.3 187.6,93.6 187.9,93.4 C188,93.3 188.1,93.2 188.1,93 C188.5,92.8 188.9,92.7 189.2,92.8 C189.1,92.6 189.4,92.3 189.8,92.2 C190.2,92.1 190.4,92.2 190.6,92.3 C190.7,92 190.8,91.8 191,91.6 C190.9,93.3 193.2,93.3 193.8,94.3 C193.1,94 192.3,93.8 191.9,93.9 C191.3,94 190.4,94.5 190.2,95.2 C190.1,95.7 190.6,96.6 191.2,97 C190.5,97.1 190.3,96.9 189.7,97.1 C189.7,97.1 189.7,97.1 189.6,97.1 C189.1,97.2 189,96.2 188.4,96.5 C188.3,96.5 188.3,96.6 188.2,96.6 L188.2,96.6 C188,96.6 187.6,96.9 187.7,97.1 C187.8,97 187.9,96.9 188.1,96.9 C188.1,97 188.1,97 188.1,97 C188.1,97.1 188.1,97.2 188.3,97.2 C188.4,97.2 188.5,97.1 188.5,97.1 C188.5,97.1 188.6,97.1 188.6,97.2 C188.6,97.4 187.8,97.1 188,97.7 C188,97.7 188.1,97.8 188.1,97.9 C188.1,98.1 188.2,98.3 188.6,98.2 C188.5,98.2 188.4,98.1 188.4,98 L188.5,98 C188.5,98 188.6,98 188.6,97.9 C188.6,97.9 188.6,97.9 188.6,97.9 C188.6,97.9 188.7,97.9 188.7,98 C188.7,98 188.7,98.1 188.7,98.1 C188.7,98.1 188.7,98.3 188.8,98.3 C188.8,98.5 189.1,98.8 189.5,98.5 C189.4,98.5 189.2,98.4 189.2,98.3 C189.3,98.3 189.3,98.3 189.4,98.2 C189.4,98.2 189.5,98.1 189.5,98 C189.5,97.9 189.5,97.9 189.6,97.9 C189.6,97.9 189.7,97.9 189.8,97.9 C189.9,97.9 189.9,97.9 189.9,98 C190,98.1 190.2,98.3 190.4,98.2 C190.5,98.2 190.6,98.1 190.6,98 C190.7,98.1 190.8,98.1 190.9,98.2 C190.8,98 191,97.8 191.5,98.1 L191.9,97.8 C191.9,97.8 192.4,98 192.6,97.8 C192.9,97.5 192.7,97.5 192.7,97.2 C192.5,96.7 192.3,96.7 192.2,96.2 C192,95.3 193.2,94.9 193.9,95 C194,95.5 194.8,97 196,97.4 C196.8,97.7 197.1,96.8 197.4,96.9 C197.5,96.9 197.5,97 197.5,97.1 C197.5,97.5 197.5,97.8 197.4,98 C197.3,98.2 196.9,98 196.6,98 C196.5,98 196.4,98 196.3,98.1 C196.1,98.1 195.8,98.4 195.8,98.6 C195.9,98.5 196,98.4 196.2,98.4 L196.2,98.5 C196.2,98.8 196.6,98.9 196.8,98.7 C196.8,98.7 196.9,98.7 196.9,98.7 C196.7,98.8 196.4,99.2 196.7,99.3 C196.7,99.3 196.8,99.4 196.9,99.4 C196.9,99.6 197,99.8 197.2,99.8 C197.1,99.7 197.1,99.6 197.2,99.4 C197.3,99.4 197.4,99.4 197.4,99.4 C197.6,99.4 197.5,99 197.8,98.9 C197.8,98.9 197.9,98.9 197.8,98.9 C197.7,99.1 197.7,99.4 197.9,99.5 C197.9,99.5 198,99.5 198.1,99.5 C198.2,99.7 198.4,99.8 198.7,99.7 C198.6,99.7 198.5,99.6 198.4,99.5 C198.5,99.4 198.5,99.3 198.6,99.3 C198.8,98.8 198.3,98.8 198.3,98.6 C198.3,98.3 198.8,98.5 198.8,98 C198.8,98 198.8,97.9 198.8,97.9 C199,97.8 199.3,97.6 199.3,97.4 C199,97.8 198.8,97.8 198.6,97.7 L198.6,97.7 L198.6,97.7 Z M175.6,113.1 L175.1,113.1 L175.1,112.7 C175.2,111.1 174.2,109.9 172.4,109.9 C170.8,109.9 167.8,111.9 163.6,111.9 C161.8,111.9 159.7,111 158.3,110.2 L157.8,111.5 C157.8,111.5 157.8,111.4 157.8,111.4 C157.8,110.8 157.3,110.4 156.8,110.4 C156.2,110.4 155.7,110.9 155.8,111.5 C155.8,112.1 156.3,112.6 156.9,112.5 C157.2,112.5 157.5,112.4 157.7,112.1 L157.2,113.4 C157.4,113.5 157.6,113.6 157.8,113.6 C157.2,120 161.9,128.2 170.3,130.7 C171.5,130.4 172.8,130.6 172.8,131.9 C172.8,132.7 172.4,133.1 171.6,133.1 C171.1,133.1 170.8,132.8 170.8,132.5 C170.8,131.9 171.8,132.3 171.9,131.9 C172,131.4 171.7,131.2 171.1,131.2 C170.5,131.2 169.6,131.6 169.6,132.6 C169.6,133.8 170.5,134.4 171.5,134.4 C172.4,134.4 174.4,133.9 174.1,131.6 C174.6,131.6 175.1,131.5 175.2,131.1 L175.3,129.8 L174.8,129.7 L175.2,115 L175.5,115 C176,115 176.5,114.8 176.5,114.2 C176.5,113.4 176.1,113.1 175.6,113.1 M160.5,114.2 L170.7,128.9 C165.2,126.8 159.8,121.9 160.5,114.2 M171,127.5 L161.7,114.1 C162,114.1 162.3,114.1 162.6,114.1 C163.1,114.1 163.6,114.1 164,114 L171.4,124.7 C171.2,125.8 171.1,126.7 171,127.5 M171.6,123.3 L165,113.9 C165.7,113.7 166.4,113.5 167.1,113.3 L172,120.3 L171.6,123.3 M173.2,112.9 L172.8,112.9 C172.4,112.9 171.8,113.1 171.8,113.7 C171.8,114.3 172.2,114.6 172.7,114.6 L173,114.6 L172.9,115 C172.8,115.8 172.6,117.2 172.3,118.8 L168.1,112.8 C170,112 171.6,111.2 172.5,111.2 C173.2,111.2 173.4,111.5 173.2,112.9 M173.8,83.4 C175.8,83.4 176.8,82.8 176.8,82.1 C176.8,79.9 171.3,81.3 171.3,79.9 C171.3,79.7 171.5,79.5 171.7,79.3 L171.8,79.3 C174.6,79 174.6,77.2 176.6,76.8 C174.2,76.5 173.9,78.3 172.9,78.4 C173.4,78.1 173.6,77.5 173.6,77.3 C173.1,77.9 172.1,78 171.5,78.7 C171.4,78.8 171.4,79 171.4,79.1 C171,79.3 170.8,79.6 170.8,79.9 C170.8,82 176.3,80.6 176.3,82.1 C176.3,82.6 175.3,83 173.8,83 C172.7,83 171.8,82.2 169.7,82.7 C169.7,82.4 170.4,81.7 170.1,81.3 C170.3,81.2 170.5,81.1 170.5,80.9 C170.4,80.8 170.2,80.7 170.1,80.7 C170.2,80.6 170.1,80.5 170,80.4 C170,80.4 169.9,80.1 169.9,80.1 C169.8,80 169.7,79.9 169.4,79.8 C169.2,79.7 169,79.7 168.9,79.7 C168.8,79.7 168.6,79.7 168.6,79.7 C168.5,79.7 168.3,79.7 168.3,79.8 C168.2,79.7 168.1,79.6 167.9,79.6 C167.8,79.8 167.8,80 167.8,80.2 C167.6,80.2 167.4,80.7 167.2,80.7 C167.3,80.8 167.3,80.9 167.4,80.9 C167.2,81.2 167.2,81.5 167,81.6 C167,81.7 167.1,81.7 167.1,81.8 C166.9,82.2 166.8,82.8 166.8,83.1 C166.7,83 166.5,82.8 166.3,82.7 C166,82.5 166,82.4 166.1,82 C166.1,81.7 166.3,81.5 166.3,81.2 C166.3,81.2 166.3,81 166.3,80.9 C166.3,80.7 166,80.6 165.9,80.6 C166,80.7 166.1,80.7 166,80.9 C165.9,81 165.9,81 165.8,81 C165.7,81.1 165.7,81.2 165.8,81.3 C165.8,81.3 165.8,81.3 165.8,81.4 C165.8,81.4 165.8,81.5 165.8,81.5 C165.8,81.6 165.8,81.5 165.8,81.5 C165.8,81.3 165.7,81 165.5,81 C165.5,81 165.4,81 165.3,81 C165.3,81 165.3,81 165.3,81 C165.3,80.8 165.1,80.6 164.8,80.9 C164.9,80.9 165,80.9 165,81 C164.9,81.1 164.9,81.2 164.9,81.2 C164.9,81.4 165,81.5 165.3,81.5 C165.4,81.5 165.4,81.5 165.4,81.5 C165.4,81.5 165.4,81.6 165.4,81.6 C165.4,81.6 165.4,81.6 165.4,81.6 C165,81.4 164.8,81.6 164.8,81.7 C164.8,81.7 164.8,81.8 164.8,81.9 C164.7,82 164.6,82.2 164.8,82.3 C164.8,82.2 164.8,82.1 164.9,82.1 C164.9,82.1 164.9,82.1 165,82.1 C165,82.1 165.1,82.2 165.1,82.2 C165.1,82.2 165.2,82.2 165.4,82.1 C165.4,82.1 165.5,82.1 165.5,82.1 C165.5,82.1 165.6,82.1 165.6,82.2 C165.6,82.2 165.6,82.2 165.6,82.3 C165.3,82.5 165.3,82.8 165.6,82.8 C165.6,82.8 165.7,82.8 165.6,82.9 C165.5,83.4 164.9,83.2 165,82.8 C164.6,83.3 165.1,83.7 165.7,83.4 C165.7,83.4 165.8,83.4 165.8,83.4 C165.8,83.5 165.9,83.6 165.9,83.6 C165.9,83.6 165.9,83.5 166,83.5 C166,83.5 166,83.5 166,83.6 C166,83.7 166,83.9 166.2,83.9 C166.2,83.8 166.2,83.7 166.3,83.7 C166.4,83.7 166.5,84.1 166.8,84.4 C166.4,84.6 166,84.7 165.6,84.8 C165.5,84.8 164.8,84.7 164.6,84.8 C164.3,85 163.5,85.3 163.3,84.9 C163.2,84.8 163.3,84.7 163.2,84.5 C163.1,84.4 163,84.3 163,84.3 C163,84.3 162.9,84.3 162.8,84.3 C162.7,84.2 162.4,84.1 162.3,84.2 C162.4,84.2 162.5,84.2 162.6,84.4 C162.6,84.5 162.5,84.5 162.5,84.6 C162.4,84.7 162.5,84.9 163,85 C163,85 163.1,85.1 163,85.1 C162.9,85.1 162.8,85.1 162.7,85.1 C162.5,84.9 162.5,84.7 162.3,84.9 C162.2,84.9 162.2,84.9 162.1,85 C162.1,85 162.1,85 162,85 C161.8,85 161.4,85.2 161.6,85.5 C161.6,85.4 161.7,85.3 161.9,85.3 C161.9,85.4 161.9,85.4 162,85.5 C162,85.8 162.2,85.9 162.7,85.6 C162.8,85.6 162.8,85.6 162.7,85.6 C162.6,85.8 162.2,86 162.5,86.2 C162.5,86.2 162.6,86.2 162.6,86.3 C162.6,86.3 162.6,86.3 162.6,86.3 C162.5,86.6 162.9,86.8 163,86.8 C162.9,86.7 162.8,86.5 162.8,86.4 L163,86.4 C163.2,86.3 163.1,86 163.3,85.9 C163.3,85.9 163.4,85.9 163.4,85.9 C163.4,86 163.5,86.3 163.8,86.3 C164.1,86.3 164.2,86 164.2,85.9 C164.2,85.9 164.2,85.9 164.2,85.9 C164.3,86 164.4,86.1 164.3,86.2 C164.4,86.2 164.5,86.1 164.5,86 C164.6,86.1 164.6,86.3 164.4,86.5 C164.5,86.5 164.8,86.3 164.9,86 C164.9,86 165,86.1 165,86.2 C165,86.2 165,86.2 165,86.2 C165.1,86.2 165.3,86.3 165.6,86.2 C165.6,86.2 165.6,86.2 165.6,86.2 C165.6,86.3 165.6,86.4 165.6,86.5 C165.6,86.5 165.7,86.4 165.7,86.4 C165.8,86.4 165.7,86.7 165.9,86.9 C166,86.2 166.4,86.4 166.8,86.1 C166.9,86.1 166.9,86.1 166.8,86.1 C166.8,86.2 166.7,86.3 166.6,86.3 C166.8,86.3 167.2,86.1 167.2,85.9 C167.2,85.8 167.3,85.8 167.5,85.7 C167.7,85.7 167.9,85.7 168,85.5 C168,85.6 168.1,85.8 168,85.9 C168.5,85.9 169,85.4 169.2,85.3 C170.2,85.1 168.6,84.3 170.7,84.5 C170.9,84.5 171.1,84.4 171.3,84.3 C171.1,84.6 171.1,85.3 171.5,85.3 C171.7,85.3 171.9,85.4 172,85.5 C172,85.5 172,85.5 172,85.6 C171.8,85.6 171.7,85.7 171.5,85.7 C171,86 171,84.9 170.4,85.1 C170.4,85.1 170.3,85.2 170.3,85.2 C170.1,85.2 169.8,85.5 169.8,85.7 C169.9,85.6 170,85.5 170.1,85.5 L170.1,85.6 C170.1,85.7 170.1,85.8 170.3,85.8 C170.4,85.8 170.4,85.8 170.5,85.8 C170.5,85.8 170.6,85.8 170.6,85.8 C170.6,86 170,85.7 170.1,86.2 C170.1,86.2 170.2,86.3 170.2,86.4 C170.2,86.6 170.3,86.7 170.6,86.6 C170.6,86.6 170.4,86.5 170.5,86.4 C170.6,86.4 170.6,86.4 170.6,86.4 C170.6,86.4 170.6,86.4 170.7,86.3 C170.7,86.3 170.7,86.3 170.7,86.3 C170.7,86.3 170.8,86.3 170.8,86.4 C170.8,86.4 170.7,86.5 170.7,86.5 C170.7,86.5 170.7,86.7 170.8,86.7 C170.8,86.9 171.1,87.1 171.4,86.9 C171.3,86.9 171.1,86.9 171.1,86.8 C171.1,86.8 171.2,86.8 171.2,86.7 C171.3,86.7 171.3,86.6 171.3,86.5 C171.3,86.5 171.3,86.5 171.4,86.5 C171.4,86.5 171.5,86.5 171.5,86.5 C171.6,86.5 171.6,86.5 171.6,86.5 C171.6,86.6 171.8,86.7 172,86.7 C172.4,86.6 172.1,86.3 172.3,86.2 C172.4,86.2 172.4,86.2 172.5,86.2 C172.8,86.3 173.2,86.3 173.3,86.1 C173.4,86 173.3,85.5 173,85.3 C172.8,85.2 173,85 172.8,84.7 C173.1,84.8 173.4,85 173.9,85 C174.7,85 173.9,84.9 174.3,84.7 C174.7,84.5 175.1,84.6 175.2,84.6 C175.3,84.6 175.4,84.7 175.4,84.8 C175.3,85.2 175.4,85.2 175.4,85.4 C175.3,85.6 175,85.4 174.8,85.4 C174.7,85.4 174.6,85.5 174.6,85.5 C174.4,85.5 174.2,85.7 174.2,85.9 C174.3,85.8 174.4,85.8 174.6,85.7 L174.6,85.8 C174.6,86.1 174.9,86.2 175.1,86 C175.1,86 175.2,86 175.2,86 C175,86.1 174.8,86.4 175,86.5 C175,86.5 175.1,86.5 175.1,86.6 C175.1,86.8 175.2,86.9 175.3,87 C175.3,86.9 175.2,86.9 175.3,86.7 C175.4,86.7 175.4,86.7 175.4,86.7 C175.6,86.7 175.5,86.4 175.7,86.3 C175.7,86.3 175.7,86.3 175.7,86.3 C175.6,86.5 175.6,86.7 175.8,86.8 C175.8,86.8 175.9,86.8 175.9,86.8 C176,87 176.1,87.1 176.4,86.9 C176.4,86.9 176.2,86.8 176.2,86.7 C176.2,86.6 176.3,86.6 176.3,86.5 C176.4,86.1 176.1,86.1 176.1,85.9 C176.1,85.7 176.5,85.8 176.5,85.4 C176.5,85.3 176.5,85.2 176.3,85.1 C176.3,85.1 176.3,85.1 176.3,85.1 L176.3,85.1 C176.4,85.1 176.5,85.1 176.6,85 C176.3,85 176.4,84.8 176.3,84.6 C176.3,84.6 176.3,84.6 176.3,84.5 C176.4,84.4 176.5,84.3 176.4,84.1 C176.3,84.2 176,84.4 175.9,84.1 C175.9,84.1 175.9,83.9 175.6,83.9 C175.1,83.9 174.8,83.6 173.8,83.4 C173.8,83.5 173.8,83.5 173.8,83.4 M169.2,80.9 C169.4,81 169.6,81.1 169.8,81.2 C169.5,81.3 169.6,81.4 169.4,81.4 C169.3,81.3 169.2,81 169.2,80.9 M168.8,80.7 C168.7,80.9 168.5,81 168.4,80.8 C168.2,80.7 168.4,80.6 168.2,80.3 C168.4,80.5 168.6,80.6 168.8,80.7 M168.2,82 C168.2,81.9 168.3,81.8 168.4,81.8 C168.5,81.8 168.6,81.8 168.6,81.7 C168.7,81.6 168.5,81.5 168.4,81.4 C168.5,81.4 168.6,81.3 168.5,81.3 C168.4,81.2 168.3,81.4 168.3,81.3 C168.3,81.2 168.4,81.2 168.4,81.2 C168.5,81.1 168.5,81.2 168.6,81.2 L169.1,81.5 C169.2,81.5 169.2,81.6 169.2,81.6 C169.2,81.7 169.2,81.7 169.2,81.8 C169.1,81.8 169.1,81.6 169.1,81.6 C169,81.6 169,81.7 169.1,81.8 C169,81.7 168.9,81.7 168.8,81.8 C168.7,81.9 168.8,82 168.8,82.1 C168.8,82.2 168.8,82.3 168.8,82.4 C168.8,82.5 168.6,82.7 168.4,82.6 C168.1,82.3 168.1,82.1 168.2,82 M176.6,90.9 C176.6,90.3 175.9,89.9 174,89.9 C172,89.9 167.7,90.6 167.7,89.5 C167.7,89 168.6,89 169.6,89.1 C169.7,89.2 169.8,89.3 170,89.3 C172.5,90 175.5,88.7 177,89.1 C175.2,87.7 173.7,89.2 171.8,88.7 C172.9,88.7 173.3,88.4 173.4,88.1 C172.5,88.7 170.9,87.8 169.9,88.5 C169.8,88.5 169.8,88.6 169.7,88.6 C168.3,88.6 167.2,88.6 167.2,89.5 C167.2,91.4 172.4,90.3 174.1,90.3 C175.7,90.3 176.1,90.5 176.1,90.8 C176.1,91.3 174.5,91.4 173.6,91.4 C172.2,91.4 167.9,90.7 165.3,91.2 C165.5,90.8 166,90.2 165.7,89.9 C165.9,89.8 166.1,89.6 166.1,89.4 C166,89.3 165.8,89.2 165.6,89.2 C165.7,89.1 165.6,89 165.5,88.9 C165.5,88.9 165.4,88.6 165.4,88.6 C165.3,88.5 165.1,88.3 164.8,88.2 C164.5,88.1 164.3,88.1 164.2,88 C164.1,88 163.9,88.1 163.8,88.1 C163.7,88.1 163.5,88.1 163.5,88.2 C163.4,88.1 163.2,88 163,88 C162.9,88.2 162.9,88.5 162.9,88.7 C162.7,88.7 162.4,89.3 162.2,89.2 C162.3,89.4 162.4,89.4 162.4,89.5 C162.2,89.8 162.1,90.3 161.9,90.3 C162,90.5 162.1,90.6 162.2,90.6 C162.2,90.8 162.2,91.1 162.1,91.4 L161.7,91.2 C161.7,91.2 161.6,91.2 161.6,91.2 C161.5,91.2 161.5,91.2 161.4,91.1 C161.5,91.1 161.5,91.1 161.6,91.1 L161.4,91 C161.2,90.8 160.9,90.5 160.5,90.3 C160.1,90.1 160.1,89.9 160.1,89.5 C160.1,89.1 160.3,88.8 160.3,88.5 C160.3,88.5 160.2,88.3 160.2,88.2 C160.2,88 159.9,87.8 159.7,87.9 C159.8,88 159.9,88 159.9,88.2 C159.8,88.3 159.8,88.3 159.7,88.4 C159.6,88.5 159.6,88.6 159.7,88.7 C159.7,88.7 159.7,88.7 159.7,88.8 C159.7,88.9 159.7,88.9 159.7,89 C159.7,89.1 159.7,89 159.7,89 C159.6,88.8 159.5,88.4 159.3,88.4 C159.3,88.4 159.2,88.4 159.1,88.4 C159.1,88.4 159.1,88.4 159.1,88.4 C159.1,88.1 158.8,87.9 158.5,88.3 C158.6,88.3 158.7,88.3 158.7,88.4 C158.7,88.5 158.6,88.6 158.6,88.7 C158.6,89 158.7,89 159,89.1 C159.1,89.1 159.1,89.1 159.1,89.1 C159.1,89.1 159.1,89.2 159.1,89.2 C159.1,89.2 159.1,89.2 159.1,89.2 C158.7,89 158.5,89.2 158.5,89.4 C158.5,89.4 158.5,89.5 158.5,89.6 C158.3,89.7 158.3,89.9 158.6,90.1 C158.6,90 158.6,89.9 158.7,89.8 C158.7,89.8 158.7,89.8 158.8,89.8 C158.8,89.8 158.9,89.9 158.9,89.9 C159,89.9 159,89.9 159.2,89.8 C159.2,89.8 159.3,89.8 159.3,89.8 C159.3,89.8 159.4,89.8 159.4,89.9 C159.4,89.9 159.4,90 159.4,90 C159.1,90.3 159.1,90.6 159.5,90.6 C159.6,90.6 159.6,90.6 159.6,90.7 C159.5,91.3 158.8,91.1 158.9,90.6 C158.5,91.2 159.1,91.7 159.7,91.4 C159.7,91.4 159.7,91.4 159.8,91.4 C159.8,91.5 159.9,91.6 160,91.6 C160,91.6 160,91.5 160.1,91.5 C160.1,91.5 160.1,91.5 160.1,91.6 C160.1,91.7 160.1,91.9 160.3,91.9 C160.3,91.8 160.3,91.7 160.4,91.7 C160.5,91.7 160.7,92.1 161.2,92.4 C161.6,92.6 161.8,93 162.1,92.7 C162.1,93.1 162.4,93.5 162.3,93.5 C162.2,93.5 161.2,93.4 160.9,93.6 C160.5,93.8 159.6,94.1 159.4,93.8 C159.3,93.7 159.3,93.6 159.2,93.3 C159.1,93.2 159,93.1 158.9,93.1 C158.9,93.1 158.8,93.1 158.7,93.1 C158.5,92.9 158.2,92.9 158.1,93 C158.2,93 158.3,93 158.4,93.2 C158.4,93.3 158.3,93.4 158.3,93.4 C158.2,93.5 158.3,93.7 158.8,93.9 C158.8,93.9 158.9,94 158.8,94 C158.7,94 158.6,94.1 158.5,94 C158.3,93.8 158.2,93.6 158,93.7 C158,93.7 157.9,93.8 157.8,93.8 C157.8,93.8 157.8,93.8 157.7,93.8 C157.5,93.8 157.1,94.1 157.2,94.4 C157.3,94.3 157.4,94.2 157.5,94.1 C157.5,94.2 157.6,94.3 157.6,94.3 C157.7,94.6 157.8,94.8 158.4,94.4 C158.5,94.3 158.5,94.4 158.4,94.4 C158.2,94.7 157.9,94.9 158.2,95.1 C158.2,95.1 158.3,95.2 158.3,95.2 C158.3,95.2 158.3,95.2 158.3,95.2 C158.2,95.5 158.6,95.8 158.8,95.8 C158.7,95.7 158.6,95.5 158.6,95.3 C158.7,95.3 158.8,95.3 158.8,95.3 C159.1,95.2 159,94.8 159.1,94.7 C159.2,94.7 159.2,94.7 159.2,94.7 C159.2,94.9 159.3,95.2 159.6,95.1 C159.9,95.1 160.1,94.8 160.1,94.6 C160.1,94.6 160.1,94.6 160.1,94.6 C160.2,94.7 160.3,94.8 160.3,95 C160.4,95 160.5,94.9 160.5,94.8 C160.6,95 160.6,95.2 160.4,95.4 C160.5,95.4 160.9,95.2 160.9,94.8 C160.9,94.9 161,94.9 161,95 C161,95 161,95 161,95 C161.1,95 161.3,95.1 161.7,95 C161.7,95 161.8,95 161.8,95 C161.8,95.1 161.8,95.3 161.8,95.3 C161.8,95.3 161.9,95.1 161.9,95.1 C162,95.1 161.9,95.4 162.1,95.6 C162.2,94.7 162.6,95.1 163.2,94.7 C163.3,94.7 163.3,94.7 163.2,94.7 C163.2,94.8 163.1,94.9 163,95 C163.6,95.1 164.5,94.2 164.7,93.8 C164.9,93.8 165.2,93.7 165.3,93.8 C167,94 165.8,92.3 168.6,92.7 C168.8,92.7 169.1,92.5 169.3,92.4 C169.1,92.8 169.1,93.5 169.5,93.6 C169.7,93.6 170,93.7 170.1,93.9 C170.1,93.9 170.1,93.9 170.1,94 C169.9,94 169.7,94.1 169.6,94.1 C169,94.5 169,93.2 168.4,93.5 C168.3,93.5 168.3,93.6 168.2,93.6 C168,93.6 167.6,93.9 167.7,94.1 C167.8,94 167.9,93.9 168.1,93.9 C168.1,94 168.1,94 168.1,94 C168.1,94.1 168.1,94.2 168.3,94.2 C168.4,94.2 168.4,94.1 168.5,94.1 C168.5,94.1 168.6,94.1 168.6,94.2 C168.6,94.4 167.8,94.1 168,94.7 C168,94.7 168.1,94.8 168.1,94.9 C168.1,95.1 168.2,95.3 168.6,95.2 C168.5,95.2 168.4,95.1 168.4,95 C168.5,95 168.5,95 168.6,95 C168.6,95 168.7,95 168.7,94.9 C168.7,94.9 168.7,94.9 168.7,94.9 C168.7,94.9 168.8,94.9 168.8,95 C168.8,95 168.8,95.1 168.8,95.1 C168.8,95.1 168.8,95.3 168.9,95.3 C168.9,95.5 169.2,95.8 169.5,95.5 C169.4,95.5 169.2,95.5 169.2,95.3 C169.3,95.3 169.4,95.2 169.4,95.2 C169.4,95.2 169.5,95.1 169.5,95 C169.5,95 169.5,94.9 169.6,94.9 C169.6,94.9 169.7,94.9 169.8,94.9 C169.9,94.9 169.9,94.9 169.9,94.9 C170,95.1 170.1,95.2 170.4,95.1 C170.8,95 170.5,94.6 170.8,94.5 C170.9,94.5 171,94.5 171,94.5 C171.3,94.6 171.8,94.6 171.9,94.4 C172,94.2 171.9,93.6 171.6,93.4 C171.4,93.3 171.6,93 171.4,92.8 C171.8,93 172.2,93.1 172.6,93.1 C173.5,93.1 173.7,93 174.1,92.7 C174.5,92.4 175,92.6 175.2,92.6 C175.3,92.6 175.4,92.7 175.4,92.8 C175.3,93.3 175.4,93.3 175.3,93.5 C175.2,93.7 174.8,93.5 174.6,93.5 C174.4,93.5 174.3,93.6 174.3,93.6 C174.1,93.6 173.8,93.8 173.8,94.1 C173.9,94 174,93.9 174.2,93.9 C174.2,93.9 174.2,94 174.2,94 C174.2,94.3 174.6,94.4 174.8,94.2 C174.8,94.2 174.9,94.2 174.9,94.2 C174.7,94.3 174.4,94.6 174.7,94.7 C174.7,94.7 174.8,94.8 174.9,94.8 C174.9,95 175,95.2 175.2,95.2 C175.1,95.1 175.1,95 175.2,94.8 C175.3,94.8 175.3,94.8 175.4,94.8 C175.6,94.8 175.5,94.4 175.7,94.3 C175.7,94.3 175.8,94.3 175.7,94.3 C175.6,94.5 175.6,94.8 175.8,94.9 C175.8,94.9 175.9,94.9 176,94.9 C176.1,95.1 176.3,95.2 176.5,95.1 C176.5,95.1 176.3,95 176.3,94.9 C176.3,94.8 176.4,94.7 176.4,94.7 C176.5,94.2 176.1,94.2 176.1,94 C176.1,93.8 176.6,93.9 176.6,93.4 C176.6,93.3 176.6,93.2 176.4,93.1 C176.4,93.1 176.4,93.1 176.4,93.1 L176.4,93.1 C176.5,93.1 176.7,93.1 176.7,92.9 C176.3,92.9 176.4,92.6 176.4,92.4 C176.4,92.4 176.4,92.3 176.4,92.3 C176.5,92.2 176.6,92.1 176.6,91.8 C176.5,92 176.1,92.1 176,91.8 C176,91.8 176,91.5 175.6,91.6 C175,91.7 174.6,91.5 173.5,91.4 C174.7,91.9 176.6,91.6 176.6,90.9 M164.5,89.2 C164.7,89.3 165,89.4 165.3,89.5 C164.9,89.6 165,89.7 164.8,89.7 C164.5,89.7 164.4,89.4 164.5,89.2 M164,89 C163.9,89.2 163.7,89.3 163.5,89.2 C163.3,89 163.5,89 163.3,88.7 C163.5,88.7 163.9,88.9 164,89 M163.3,90.5 C163.4,90.4 163.4,90.3 163.5,90.3 C163.6,90.3 163.7,90.3 163.7,90.2 C163.8,90 163.6,90 163.5,89.9 C163.6,89.9 163.7,89.8 163.6,89.7 C163.5,89.6 163.4,89.8 163.3,89.7 C163.3,89.6 163.4,89.6 163.4,89.5 C163.5,89.4 163.5,89.5 163.6,89.5 L164.2,89.8 C164.3,89.8 164.3,89.9 164.3,90 C164.3,90.1 164.3,90.2 164.3,90.2 C164.2,90.2 164.2,90 164.1,90 C164,90 164,90.1 164.1,90.2 C163.9,90.2 163.8,90.1 163.7,90.2 C163.6,90.3 163.7,90.4 163.7,90.5 C163.8,90.6 163.7,90.7 163.7,90.8 C163.6,90.9 163.5,91.1 163.3,91 C163.2,90.9 163.2,90.7 163.3,90.5 M175.7,99.4 C175.7,98.8 175.1,98.5 173.2,98.5 C171.4,98.5 165.6,99.2 165.6,98.1 C165.6,97.4 167.5,97.7 168.9,97.7 C169,97.8 169.1,97.9 169.3,98 C171.7,98.7 174.2,97.1 175.9,97.6 C174.5,96.4 172.8,97.7 171,97.4 C172.1,97.4 173.2,97.2 173.2,96.9 C172.4,97.4 170.1,96.5 169.1,97.1 C169,97.1 169,97.2 168.9,97.2 C167.1,97.2 165,97 165,98 C165,99.9 171.5,98.8 173.1,98.8 C174.7,98.8 175,99 175,99.3 C175,99.7 173.4,99.8 172.6,99.8 C171.2,99.8 165.1,99 162.7,99.7 C162.8,99.3 163.4,98.7 163.1,98.3 C163.3,98.2 163.5,98 163.5,97.8 C163.4,97.7 163.2,97.6 163,97.6 C163.1,97.5 163,97.4 162.9,97.3 C162.9,97.3 162.8,97 162.8,97 C162.7,96.9 162.5,96.8 162.2,96.6 C161.9,96.5 161.7,96.5 161.7,96.5 C161.6,96.5 161.4,96.6 161.4,96.5 C161.3,96.5 161.1,96.5 161.1,96.6 C161,96.5 160.8,96.4 160.7,96.4 C160.6,96.6 160.6,96.8 160.6,97.1 C160.4,97.1 160.1,97.7 159.9,97.6 C160,97.8 160,97.8 160.1,97.8 C159.9,98.1 159.8,98.5 159.6,98.5 C159.7,98.6 159.8,98.7 159.8,98.7 C159.8,98.9 159.7,99.1 159.7,99.3 L159.5,99.2 C159.4,99.2 159.2,99.2 159.2,99.2 C159.1,99.2 159,99.2 158.9,99.2 C158.6,99.2 158.4,98.7 157.9,98.4 C157.5,98.2 157.5,98 157.5,97.6 C157.5,97.3 157.7,97 157.6,96.7 C157.6,96.7 157.5,96.5 157.5,96.4 C157.4,96.2 157.2,96 157,96.1 C157.1,96.2 157.2,96.2 157.2,96.4 C157.1,96.5 157.1,96.5 157.1,96.6 C157,96.7 157,96.8 157.1,96.9 C157.1,96.9 157.1,96.9 157.1,97 C157.1,97 157.1,97.1 157.1,97.1 C157.1,97.2 157.1,97.1 157.1,97.1 C157,96.9 156.9,96.5 156.7,96.5 C156.7,96.5 156.6,96.5 156.5,96.5 C156.5,96.5 156.5,96.5 156.5,96.5 C156.5,96.3 156.2,96.1 156,96.4 C156.1,96.4 156.2,96.4 156.2,96.5 C156.2,96.6 156.2,96.7 156.1,96.7 C156.1,96.9 156.3,97 156.5,97 C156.6,97 156.6,97 156.6,97 C156.6,97 156.6,97.1 156.6,97.1 C156.6,97.1 156.6,97.1 156.6,97.1 C156.2,96.9 156,97.1 156,97.3 C156,97.3 156,97.4 156,97.5 C155.8,97.6 155.8,97.8 156.1,98 C156.1,97.9 156.1,97.8 156.2,97.7 C156.2,97.7 156.2,97.7 156.2,97.7 C156.2,97.7 156.3,97.8 156.3,97.8 C156.3,97.8 156.4,97.8 156.5,97.7 C156.5,97.7 156.6,97.7 156.6,97.7 L156.7,97.8 C156.7,97.8 156.7,97.9 156.7,97.9 C156.4,98.2 156.5,98.4 156.8,98.5 C156.8,98.5 156.9,98.5 156.9,98.6 C156.9,99.1 156.2,99 156.2,98.5 C155.8,99.1 156.5,99.6 157,99.3 C157,99.3 157.1,99.3 157.1,99.3 C157.1,99.4 157.2,99.5 157.3,99.5 C157.3,99.5 157.3,99.4 157.4,99.4 C157.4,99.4 157.4,99.4 157.4,99.5 C157.4,99.6 157.5,99.8 157.7,99.8 C157.7,99.7 157.7,99.6 157.8,99.6 C157.9,99.6 158.3,100.3 159,100.7 C159.1,100.7 159.4,100.7 159.4,100.5 C159.4,100.6 159.5,100.6 159.6,100.7 C159.6,101 159.8,101.5 159.8,101.5 C159.7,101.5 158.5,101.4 158.3,101.6 C158,101.8 157.1,102.1 156.9,101.7 C156.8,101.6 156.8,101.5 156.7,101.3 C156.6,101.2 156.5,101.1 156.4,101.1 C156.4,101.1 156.3,101.1 156.2,101.1 C156.1,100.9 155.7,100.9 155.6,101 C155.7,101 155.9,101.1 155.9,101.2 C155.9,101.3 155.8,101.4 155.8,101.4 C155.7,101.5 155.8,101.7 156.3,101.9 C156.3,101.9 156.4,102 156.3,102 C156.2,102 156.1,102.1 156,102 C155.8,101.8 155.8,101.6 155.5,101.7 C155.5,101.7 155.4,101.7 155.3,101.8 C155.3,101.8 155.3,101.8 155.2,101.8 C155,101.8 154.6,102.1 154.8,102.4 C154.8,102.3 154.9,102.2 155.1,102.1 C155.1,102.2 155.1,102.2 155.1,102.3 C155.2,102.6 155.3,102.8 155.9,102.4 C156,102.4 156,102.4 155.9,102.4 C155.8,102.6 155.4,102.9 155.7,103.1 C155.7,103.1 155.8,103.2 155.8,103.2 C155.8,103.2 155.8,103.2 155.8,103.2 C155.7,103.5 156.1,103.8 156.3,103.7 C156.2,103.6 156.1,103.4 156.1,103.2 C156.2,103.2 156.2,103.3 156.3,103.2 C156.6,103.1 156.5,102.8 156.6,102.7 C156.7,102.7 156.7,102.7 156.7,102.7 C156.7,102.8 156.8,103.1 157.1,103.1 C157.4,103.1 157.6,102.8 157.5,102.6 C157.5,102.6 157.5,102.6 157.5,102.6 C157.6,102.7 157.7,102.8 157.7,102.9 C157.8,102.8 157.9,102.8 157.9,102.7 C158,102.9 157.9,103.1 157.8,103.3 C157.9,103.3 158.3,103.1 158.3,102.8 C158.3,102.8 158.4,102.9 158.4,103 C158.4,103 158.4,103 158.4,103 C158.5,103.1 158.7,103.1 159,103 C159,103 159,103 159,103 C159,103.1 159,103.3 159,103.3 C159,103.3 159.1,103.1 159.1,103.1 C159.2,103.1 159.1,103.4 159.3,103.6 C159.4,102.8 160.3,103.2 160.9,102.9 C161,102.9 161,102.9 161,102.9 C161,103 160.9,103.1 160.8,103.2 C161,103.2 161.3,103.1 161.5,102.9 L161.4,103 L162.2,102.6 C162.2,102.5 162.2,102.4 162.2,102.4 C162.3,102.4 162.4,102.4 162.5,102.3 C162.5,102.3 162.5,102.3 162.5,102.3 C163,102.3 163,101.9 163.2,101.9 C166.2,102.3 164.5,100.6 168.1,100.9 C168.3,100.9 168.3,100.8 168.5,100.7 C168.3,101.1 168.3,101.6 168.7,101.7 C168.9,101.7 169.2,101.8 169.3,102 C169.3,102 169.3,102.1 169.3,102.1 C169.1,102.1 169,102.2 168.8,102.2 C168.2,102.6 168.2,101.4 167.6,101.6 C167.5,101.6 167.5,101.7 167.4,101.7 C167.2,101.7 166.8,102 166.9,102.2 C167,102.1 167.1,102 167.3,102 C167.3,102.1 167.3,102.1 167.3,102.1 C167.3,102.2 167.3,102.3 167.5,102.3 C167.6,102.3 167.7,102.2 167.7,102.2 C167.7,102.2 167.8,102.2 167.8,102.3 C167.8,102.5 167.1,102.2 167.2,102.8 C167.2,102.8 167.3,102.9 167.3,103 C167.3,103.2 167.4,103.4 167.8,103.3 C167.7,103.3 167.6,103.2 167.6,103.1 L167.8,103.1 C167.8,103.1 167.9,103.1 167.9,103 C167.9,103 167.9,103 167.9,103 C167.9,103 168,103 168,103.1 C168,103.1 168,103.2 168,103.2 C168,103.2 168,103.4 168.1,103.4 C168.1,103.6 168.4,103.9 168.7,103.6 C168.6,103.6 168.4,103.6 168.4,103.4 C168.4,103.4 168.5,103.3 168.5,103.3 C168.6,103.3 168.6,103.2 168.6,103.1 C168.6,103.1 168.6,103 168.7,103 L168.8,103 C168.9,103 168.9,103 168.9,103 C169,103.2 169.1,103.3 169.4,103.2 C169.8,103.1 169.5,102.7 169.8,102.6 C169.9,102.6 170,102.6 170,102.6 C170.3,102.7 170.8,102.7 170.9,102.5 C171,102.3 170.9,101.8 170.6,101.6 C170.4,101.5 170.6,101.3 170.4,101 C170.7,101.1 171.1,101.3 171.6,101.3 C172.5,101.3 172.7,101.2 173,100.9 C173.4,100.6 173.9,100.8 174,100.8 C174.1,100.8 174.2,100.9 174.2,101 C174.1,101.4 174.2,101.5 174.1,101.7 C174,101.9 173.6,101.7 173.4,101.7 C173.2,101.7 173.1,101.8 173.1,101.8 C172.9,101.8 172.6,102 172.7,102.3 C172.8,102.3 172.9,102.1 173.1,102.1 C173.1,102.1 173.1,102.2 173.1,102.2 C173.1,102.5 173.5,102.6 173.6,102.4 C173.6,102.4 173.7,102.4 173.7,102.4 C173.5,102.5 173.2,102.8 173.5,102.9 C173.5,102.9 173.6,102.9 173.7,103 C173.7,103.2 173.8,103.4 174,103.4 C173.9,103.3 173.9,103.2 174,103.1 L174.1,103.1 C174.3,103.1 174.2,102.7 174.4,102.6 C174.4,102.6 174.4,102.6 174.4,102.6 C174.3,102.8 174.3,103.1 174.5,103.1 C174.5,103.1 174.6,103.1 174.7,103.1 C174.8,103.3 175,103.4 175.2,103.3 C175.1,103.3 175,103.2 175,103.1 C175.1,103 175.1,103 175.1,102.9 C175.2,102.4 174.9,102.4 174.9,102.3 C174.9,102.1 175.4,102.2 175.4,101.8 C175.4,101.7 175.3,101.6 175.2,101.5 C175.2,101.5 175.2,101.5 175.2,101.5 C175.3,101.5 175.5,101.5 175.5,101.4 C175.2,101.4 175.3,101.1 175.2,100.9 C175.2,100.9 175.2,100.8 175.2,100.8 C175.3,100.7 175.4,100.6 175.3,100.3 C175.2,100.5 174.8,100.6 174.8,100.3 C174.8,100.3 174.8,100.1 174.4,100.1 C173.8,100.2 173.5,100 172.4,99.9 C173.8,100.3 175.7,100.1 175.7,99.4 M162.2,97.9 C162.3,98 162.7,98.1 162.9,98.2 C162.6,98.3 162.6,98.4 162.4,98.4 C162.2,98.4 162.1,98.1 162.2,97.9 M161.7,97.7 C161.6,97.9 161.4,98 161.2,97.8 C161,97.6 161.2,97.6 161,97.3 C161.3,97.5 161.5,97.6 161.7,97.7 M161,99.2 C161.1,99.1 161.1,99 161.2,99 C161.3,99 161.4,99 161.4,98.9 C161.5,98.8 161.3,98.7 161.2,98.6 C161.3,98.6 161.4,98.5 161.3,98.4 C161.2,98.3 161.1,98.5 161,98.4 C161,98.3 161.1,98.3 161.1,98.3 C161.2,98.2 161.2,98.3 161.3,98.3 L161.9,98.6 C162,98.6 162,98.7 162,98.8 C162,98.9 162,99 162,99 C161.9,99 161.9,98.8 161.8,98.8 C161.7,98.8 161.7,98.9 161.8,99 C161.7,99 161.5,98.9 161.5,99 C161.4,99.1 161.5,99.2 161.5,99.3 C161.5,99.4 161.5,99.5 161.5,99.6 C161.4,99.7 161.3,99.9 161.1,99.8 C160.9,99.5 161,99.3 161,99.2 M202.1,113.7 C202.1,113.7 202.1,113.7 202.1,113.7 C202.2,113.5 202.3,113.4 202.3,113.1 C202.2,113.3 201.8,113.5 201.8,113.1 C201.8,113.1 201.8,112.9 201.5,112.9 C200.9,113 200.4,112.9 199.3,112.8 C199.2,112.8 199.2,112.7 199.3,112.7 C200.4,112.6 202.3,112.5 202.3,111.8 C202.3,111.2 201.7,110.9 199.8,110.9 C198,110.9 192.2,111.6 192.2,110.5 C192.2,109.8 194.1,110.1 195.5,110.2 C195.6,110.3 195.7,110.4 195.9,110.4 C198.3,111.1 201,109.3 202.5,109.7 C200.6,109.1 199.4,110.2 197.6,109.8 C198.7,109.8 199.8,109.6 199.8,109.3 C199,109.8 196.7,108.9 195.7,109.5 C195.6,109.5 195.6,109.6 195.5,109.6 C193.7,109.6 191.6,109.4 191.6,110.4 C191.6,112.2 198.1,111.2 199.6,111.2 C201.2,111.2 201.5,111.4 201.5,111.7 C201.5,112.2 200,112.3 199.1,112.3 C197.6,112.3 191.6,111.5 189.2,112.2 C189.3,111.8 189.9,111.2 189.7,110.8 C189.9,110.7 190.1,110.5 190.1,110.3 C190,110.2 189.8,110.1 189.6,110.1 C189.7,110 189.6,109.9 189.5,109.8 C189.5,109.8 189.4,109.5 189.4,109.5 C189.2,109.3 189.1,109.2 188.9,109.1 C188.6,109 188.5,109 188.3,109 C188.2,109 188,109.1 188,109 C187.9,109 187.7,109 187.7,109.1 C187.6,109 187.4,108.9 187.3,108.9 C187.2,109.1 187.2,109.3 187.3,109.6 C187.1,109.6 186.8,110.2 186.6,110.1 C186.7,110.3 186.7,110.3 186.8,110.3 C186.6,110.6 186.5,111 186.3,111 C186.4,111.2 186.5,111.3 186.6,111.3 C186.6,111.5 186.6,111.7 186.6,111.9 L186.3,111.8 C186.2,111.8 186,111.8 186,111.8 C185.9,111.8 185.8,111.8 185.7,111.7 C185.4,111.7 185.2,111.2 184.7,110.9 C184.3,110.7 184.3,110.5 184.3,110.1 C184.3,109.8 184.5,109.5 184.4,109.2 C184.4,109.1 184.3,109 184.3,108.9 C184.2,108.7 184,108.5 183.8,108.6 C183.9,108.7 184,108.8 184,108.9 C183.9,109 183.9,109.1 183.8,109.1 C183.7,109.2 183.7,109.3 183.8,109.4 C183.8,109.4 183.8,109.4 183.8,109.5 C183.8,109.5 183.8,109.6 183.8,109.7 C183.8,109.8 183.8,109.7 183.8,109.7 C183.7,109.5 183.6,109.1 183.4,109.1 L183.2,109.1 C183.2,109.1 183.2,109.1 183.2,109.1 C183.2,108.9 182.9,108.7 182.7,109 C182.8,109 182.9,109 182.9,109.1 C182.9,109.2 182.8,109.3 182.8,109.3 C182.8,109.5 183,109.6 183.2,109.6 C183.3,109.6 183.3,109.6 183.3,109.7 C183.3,109.7 183.3,109.8 183.3,109.8 C183.3,109.8 183.3,109.8 183.3,109.8 C182.9,109.6 182.7,109.8 182.7,110 C182.7,110 182.7,110.1 182.7,110.2 C182.6,110.3 182.5,110.5 182.8,110.7 C182.8,110.6 182.8,110.5 182.9,110.4 C182.9,110.4 182.9,110.4 182.9,110.4 L183,110.5 C183,110.5 183.1,110.5 183.2,110.4 C183.2,110.4 183.3,110.4 183.3,110.4 C183.3,110.4 183.4,110.5 183.4,110.5 C183.4,110.5 183.4,110.6 183.4,110.6 C183.1,110.9 183.2,111.2 183.5,111.2 C183.5,111.2 183.6,111.2 183.6,111.3 C183.6,111.8 182.9,111.7 182.9,111.2 C182.5,111.8 183.2,112.3 183.7,112 C183.7,112 183.8,112 183.8,112 C183.8,112.1 183.9,112.2 184,112.2 C184,112.2 184,112.1 184.1,112.1 C184.1,112.1 184.1,112.1 184.1,112.2 C184.1,112.3 184.2,112.5 184.4,112.5 C184.4,112.4 184.4,112.3 184.5,112.3 C184.6,112.3 184.9,113.1 185.7,113.5 C185.7,113.4 186,113.3 186.1,113.2 C186.1,113.3 186.2,113.5 186.4,113.5 L186.5,113.4 C186.5,113.7 186.9,114.1 186.8,114.1 C186.7,114.1 186,114 185.7,114.1 C185.4,114.3 184.5,114.6 184.2,114.3 C184.1,114.2 184.1,114.1 184,113.9 C183.9,113.8 183.8,113.7 183.7,113.7 L183.9,113.7 C183.8,113.6 183.4,113.5 183.3,113.6 C183.4,113.6 183.5,113.6 183.6,113.8 L183.5,114 C183.4,114.1 183.5,114.3 184,114.5 C184,114.5 184.1,114.6 184,114.6 C183.9,114.6 183.8,114.7 183.7,114.6 C183.5,114.5 183.5,114.2 183.2,114.4 C183.2,114.4 183.1,114.4 183,114.5 L182.9,114.5 C182.7,114.5 182.3,114.8 182.5,115.1 C182.5,115 182.7,114.9 182.8,114.8 L182.9,115 C183,115.3 183.1,115.5 183.6,115.1 C183.7,115.1 183.7,115.1 183.6,115.1 C183.5,115.3 183.1,115.6 183.4,115.8 C183.4,115.8 183.5,115.9 183.5,115.9 L183.5,116 C183.5,116.3 183.8,116.6 184,116.5 C183.9,116.4 183.8,116.2 183.8,116 C183.9,116 183.9,116.1 184,116 C184.3,115.9 184.1,115.6 184.3,115.5 C184.3,115.5 184.4,115.5 184.4,115.5 C184.4,115.6 184.5,115.9 184.8,115.9 C185.1,115.9 185.3,115.6 185.2,115.5 C185.2,115.5 185.2,115.5 185.2,115.5 C185.3,115.6 185.4,115.7 185.3,115.9 C185.4,115.8 185.5,115.8 185.5,115.7 C185.6,115.9 185.6,116.1 185.4,116.3 C185.7,116.2 185.9,116 185.9,115.7 C186,115.7 186,115.8 186,115.9 C186,115.9 186,115.9 186,115.9 C186.1,116 186.3,116 186.6,115.9 C186.6,115.9 186.6,115.9 186.6,115.9 C186.6,116 186.6,116.2 186.6,116.2 C186.6,116.2 186.7,116 186.7,116 C186.8,116 186.7,116.3 186.9,116.5 C187,115.7 187.4,116 187.9,115.7 C188,115.7 188,115.7 188,115.7 C188,115.8 187.9,115.9 187.8,116 C188,116.2 188.7,115.7 188.7,115.4 C188.7,115.3 189,115.3 189.2,115.2 C189.7,115.2 189.7,114.8 189.9,114.8 C192.9,115.2 191.2,113.5 194.8,113.8 C195,113.8 195.1,113.6 195.2,113.5 C195,113.8 195,114.5 195.4,114.6 C195.6,114.6 195.8,114.7 196,114.9 C196,114.9 196,115 196,115 C195.8,115 195.7,115.1 195.5,115.1 C195,115.5 194.9,114.3 194.3,114.5 C194.2,114.5 194.2,114.6 194.1,114.6 C193.9,114.6 193.5,114.9 193.6,115.1 C193.7,115 193.8,114.9 194,114.9 L194,115 C194,115.1 194,115.2 194.2,115.2 C194.3,115.2 194.4,115.1 194.4,115.1 C194.4,115.1 194.5,115.1 194.5,115.2 C194.5,115.4 193.8,115.1 193.9,115.7 C193.9,115.8 194,115.8 194,115.9 C194,116.1 194.1,116.3 194.4,116.2 C194.3,116.2 194.2,116.1 194.3,116 C194.4,116 194.4,116 194.4,116 C194.4,116 194.5,116 194.5,115.9 C194.5,115.9 194.5,115.9 194.5,115.9 C194.5,115.9 194.6,115.9 194.6,116 C194.6,116 194.6,116.1 194.6,116.1 C194.6,116.1 194.6,116.3 194.6,116.3 C194.6,116.5 194.9,116.8 195.2,116.5 C195.1,116.5 194.9,116.4 194.9,116.3 L195.1,116.2 C195.2,116.2 195.2,116.1 195.2,116 C195.2,115.9 195.2,115.9 195.2,115.9 L195.4,115.9 C195.5,115.9 195.5,115.9 195.5,115.9 C195.6,116 195.7,116.2 196,116.1 C196.4,116 196.1,115.6 196.4,115.6 C196.5,115.6 196.6,115.6 196.6,115.6 C196.9,115.7 197.4,115.7 197.4,115.5 C197.5,115.3 197.4,114.8 197.1,114.6 C196.9,114.5 197.1,114.3 196.9,114 C197.2,114.1 197.6,114.3 198.1,114.3 C199,114.3 199.2,114.2 199.6,113.9 C200,113.6 200.5,113.8 200.6,113.8 C200.7,113.8 200.8,113.9 200.7,114 C200.6,114.4 200.7,114.5 200.6,114.7 C200.5,114.9 200.2,114.7 199.9,114.7 C199.8,114.7 199.7,114.7 199.6,114.8 C199.4,114.8 199.1,115 199.1,115.3 C199.2,115.2 199.3,115.1 199.5,115.1 L199.5,115.2 C199.5,115.5 199.8,115.6 200,115.4 C200,115.4 200.1,115.4 200.1,115.4 C199.9,115.5 199.6,115.8 199.8,115.9 L199.9,116 C199.9,116.2 200,116.4 200.1,116.4 C200.1,116.3 200,116.2 200.2,116 L200.9,116 C201.1,116 201,115.6 201.3,115.5 C201.3,115.5 201.3,115.5 201.3,115.5 C201.2,115.7 201.1,116 201.3,116 C201.3,116 201.4,116 201.4,116 C201.5,116.2 201.6,116.3 201.9,116.2 C201.8,116.2 201.7,116.1 201.7,116 C201.8,115.9 201.8,115.8 201.8,115.8 C202,115.3 201.6,115.3 201.6,115.2 C201.6,115 202.1,115.1 202.1,114.7 C202.1,114.6 202,114.5 201.9,114.4 C201.9,114.4 201.9,114.4 201.9,114.4 C202,114.4 202.2,114.4 202.2,114.3 C202.1,114.2 202.2,113.9 202.1,113.7 L202.1,113.7 Z M188.8,110.3 C189,110.4 189.3,110.5 189.5,110.6 C189.2,110.7 189.2,110.8 189,110.8 C188.8,110.7 188.7,110.4 188.8,110.3 Z M188.3,110 C188.2,110.2 188,110.3 187.8,110.2 C187.6,110 187.8,110 187.6,109.7 C187.9,109.8 188.2,110 188.3,110 L188.3,110 Z M187.6,111.5 C187.7,111.4 187.7,111.3 187.8,111.3 C187.9,111.3 188,111.3 188,111.2 C188,111.1 187.9,111 187.8,110.9 C187.9,110.9 188,110.8 187.9,110.7 C187.8,110.6 187.7,110.8 187.7,110.7 C187.7,110.6 187.8,110.6 187.8,110.5 C187.9,110.5 187.9,110.5 188,110.5 L188.6,110.8 C188.7,110.8 188.7,110.9 188.7,111 C188.7,111.1 188.7,111.2 188.7,111.2 C188.6,111.2 188.6,111 188.5,111 C188.4,111 188.4,111.1 188.5,111.2 C188.3,111.2 188.2,111.1 188.1,111.2 C188,111.3 188.1,111.4 188.2,111.5 C188.2,111.6 188.2,111.7 188.2,111.8 C188.1,111.9 188,112.1 187.8,112 C187.5,111.9 187.5,111.6 187.6,111.5 L187.6,111.5 Z M193.8,118.4 C193.9,118.5 194,118.6 194.2,118.7 C196.5,119.4 199.1,117.6 200.5,118 C198.7,117.4 197.6,118.5 195.8,118.1 C196.8,118.1 197.9,117.9 197.9,117.6 C197.1,118.1 194.9,117.3 194,117.8 C193.9,117.8 193.9,117.9 193.9,117.9 C192.6,117.9 191.6,117.9 191.6,118.7 C191.6,120.5 196.3,119.4 197.8,119.4 C199.3,119.4 199.1,119.6 199.1,119.8 C199.1,120.2 197.4,120.3 196.6,120.3 C195.3,120.3 191.5,119.6 189.1,120.1 C189.3,119.7 189.7,119.2 189.5,118.9 C189.7,118.8 189.9,118.6 189.9,118.4 C189.8,118.3 189.6,118.2 189.5,118.2 C189.6,118.1 189.5,118 189.4,117.9 C189.4,117.9 189.3,117.6 189.3,117.6 C189.2,117.5 189,117.3 188.8,117.2 C188.5,117.1 188.4,117.1 188.3,117 C188.2,117 188,117 188,117 C187.9,117 187.7,117 187.7,117.1 C187.6,117 187.5,116.9 187.3,116.9 C187.2,117.1 187.2,117.3 187.2,117.5 C187,117.5 186.8,118.1 186.6,118 C186.7,118.1 186.7,118.2 186.8,118.2 C186.6,118.5 186.5,118.9 186.4,118.9 C186.5,119 186.5,119 186.6,119.1 C186.5,119.3 186.5,119.5 186.5,119.8 L186.3,119.7 C186.3,119.7 186.2,119.7 186.2,119.7 C185.9,119.7 185.7,119.7 185.3,119.4 C184.9,119.2 184.9,119 184.9,118.7 C184.9,118.4 185,118.1 185,117.8 C185,117.7 185,117.6 184.9,117.5 C184.8,117.3 184.6,117.2 184.4,117.2 C184.5,117.3 184.6,117.4 184.6,117.5 C184.5,117.5 184.5,117.6 184.5,117.7 C184.4,117.8 184.4,117.9 184.5,118 C184.5,118 184.5,118 184.5,118.1 C184.5,118.1 184.5,118.2 184.5,118.2 C184.5,118.3 184.5,118.2 184.5,118.2 C184.4,118 184.3,117.7 184.1,117.7 C184.1,117.7 184,117.7 184,117.7 L184,117.7 C184,117.5 183.8,117.3 183.5,117.6 C183.6,117.6 183.7,117.6 183.7,117.7 C183.7,117.8 183.6,117.9 183.6,117.9 C183.6,118.1 183.8,118.2 184,118.2 C184,118.2 184.1,118.2 184.1,118.3 C184.1,118.3 184.1,118.4 184.1,118.4 C184.1,118.4 184.1,118.4 184.1,118.4 C183.7,118.2 183.5,118.4 183.5,118.6 C183.5,118.6 183.5,118.7 183.5,118.8 C183.4,118.9 183.3,119.1 183.6,119.3 C183.6,119.2 183.6,119.1 183.7,119.1 C183.7,119.1 183.7,119.1 183.8,119.1 C183.8,119.2 183.9,119.2 183.9,119.2 C183.9,119.2 184,119.2 184.1,119.1 C184.1,119.1 184.2,119.1 184.2,119.1 C184.2,119.1 184.3,119.2 184.3,119.2 C184.3,119.2 184.3,119.2 184.3,119.3 C184,119.6 184.1,119.8 184.4,119.9 C184.5,119.9 184.5,119.9 184.5,120 C184.5,120.5 183.8,120.4 183.8,119.9 C183.4,120.5 184.1,120.9 184.6,120.6 C184.6,120.6 184.6,120.6 184.6,120.6 C184.6,120.7 184.7,120.8 184.8,120.8 C184.8,120.8 184.8,120.7 184.9,120.7 C184.9,120.7 184.9,120.7 184.9,120.8 C184.9,120.9 185,121.1 185.1,121.1 C185.1,121 185.1,120.9 185.2,120.9 C185.3,120.9 185.3,120.7 185.9,121 C185.9,121.1 186,121.2 186.1,121.2 L186.6,121.1 C186.5,121.4 186.7,122 186.6,122 C186.5,122 185.8,121.9 185.6,122 C185.3,122.2 184.5,122.5 184.2,122.1 C184.1,122 184.1,121.9 184,121.7 C183.9,121.6 183.8,121.5 183.7,121.5 L183.5,121.5 C183.4,121.4 183.1,121.3 182.9,121.4 C183,121.4 183.1,121.4 183.2,121.6 C183.2,121.7 183.1,121.7 183.1,121.8 C183,121.9 183.1,122.1 183.6,122.3 C183.6,122.3 183.7,122.4 183.6,122.4 C183.5,122.4 183.4,122.4 183.3,122.4 C183.1,122.2 183.1,122 182.8,122.2 C182.8,122.2 182.7,122.2 182.6,122.3 C182.6,122.3 182.6,122.3 182.5,122.3 C182.3,122.3 181.9,122.6 182.1,122.8 C182.1,122.7 182.3,122.6 182.4,122.6 C182.4,122.7 182.4,122.7 182.4,122.8 C182.5,123.1 182.6,123.3 183.1,122.9 C183.2,122.9 183.2,122.9 183.2,122.9 C183.1,123.1 182.7,123.4 183,123.5 C183,123.5 183.1,123.6 183.1,123.6 C183.1,123.6 183.1,123.6 183.1,123.7 C183.1,124 183.4,124.2 183.6,124.2 C183.5,124.1 183.4,123.9 183.4,123.7 C183.5,123.7 183.5,123.8 183.6,123.7 C183.9,123.6 183.7,123.3 183.9,123.2 C183.9,123.2 184,123.2 184,123.2 C184,123.3 184.1,123.6 184.4,123.6 C184.7,123.6 184.8,123.3 184.8,123.2 C184.8,123.2 184.8,123.2 184.8,123.2 C184.9,123.3 185,123.4 184.9,123.5 C184.9,123.5 185.1,123.4 185.1,123.3 C185.2,123.4 185.2,123.6 185,123.8 C185.1,123.8 185.4,123.6 185.5,123.3 C185.6,123.3 185.6,123.4 185.6,123.5 C185.6,123.5 185.6,123.5 185.6,123.5 C185.7,123.5 185.9,123.6 186.2,123.5 C186.2,123.5 186.2,123.5 186.2,123.5 C186.2,123.6 186.2,123.7 186.2,123.8 C186.2,123.8 186.3,123.6 186.3,123.6 C186.4,123.6 186.3,123.9 186.5,124.1 C186.6,123.3 187.2,123.5 187.7,123.2 C187.8,123.2 187.8,123.2 187.8,123.2 C187.8,123.3 187.7,123.4 187.6,123.5 C188.1,123.8 188.7,123.1 188.8,122.7 C188.9,122.7 188.9,122.6 188.9,122.5 C188.9,122.6 188.9,122.7 188.8,122.7 C189.3,122.7 189.3,122.3 189.5,122.3 C191,122.4 189.9,121 192.3,121.4 C192.5,121.4 192.8,121.3 192.9,121.1 C192.7,121.4 192.7,122.1 193.1,122.2 C193.3,122.2 193.6,122.3 193.7,122.4 C193.7,122.4 193.7,122.5 193.7,122.5 C193.5,122.5 193.4,122.5 193.2,122.6 C192.7,122.9 192.7,121.8 192.1,122 C192,122 192,122.1 191.9,122.1 C191.7,122.1 191.4,122.4 191.4,122.6 C191.5,122.5 191.6,122.4 191.8,122.4 L191.8,122.5 C191.8,122.6 191.8,122.7 192,122.7 C192.1,122.7 192.2,122.6 192.2,122.6 C192.2,122.6 192.3,122.6 192.3,122.7 C192.3,122.9 191.6,122.6 191.7,123.2 C191.7,123.2 191.8,123.3 191.8,123.4 C191.8,123.6 191.9,123.8 192.2,123.7 C192.1,123.7 192,123.6 192.1,123.5 C192.1,123.5 192.2,123.5 192.2,123.5 C192.2,123.5 192.3,123.5 192.3,123.4 C192.3,123.4 192.3,123.4 192.3,123.4 C192.3,123.4 192.4,123.4 192.4,123.5 C192.4,123.5 192.4,123.6 192.4,123.6 C192.4,123.6 192.4,123.8 192.5,123.8 C192.5,124 192.8,124.2 193.1,124 C193,124 192.8,123.9 192.8,123.8 C192.9,123.8 192.9,123.7 192.9,123.7 C193,123.7 193,123.6 193,123.5 C193,123.5 193,123.5 193.1,123.5 C193.1,123.5 193.2,123.5 193.2,123.5 C193.3,123.5 193.3,123.5 193.3,123.5 C193.4,123.6 193.5,123.8 193.7,123.7 C194.1,123.6 193.7,123.2 194,123.2 C194.1,123.2 194.2,123.2 194.2,123.2 C194.5,123.3 194.9,123.3 195,123.1 C195.1,123 195,122.4 194.7,122.2 C194.5,122.1 194.7,121.9 194.5,121.6 C194.8,121.7 195.2,121.9 195.6,121.9 C196.4,121.9 196.8,121.8 197.2,121.6 C197.7,121.4 198.1,121.5 198.2,121.5 C198.3,121.5 198.4,121.6 198.3,121.7 C198.1,122.1 198.2,122.2 198.1,122.3 C198,122.5 197.7,122.3 197.4,122.3 C197.3,122.3 197.2,122.3 197.1,122.4 C196.9,122.5 196.6,122.6 196.6,122.9 C196.7,122.9 196.8,122.7 197,122.7 L197,122.8 C197,123.1 197.2,123.2 197.5,123 C197.5,123 197.6,123 197.6,123 C197.4,123.1 197,123.4 197.2,123.5 C197.2,123.5 197.3,123.5 197.3,123.6 C197.2,123.8 197.3,124 197.4,124 C197.4,123.9 197.4,123.8 197.5,123.7 C197.6,123.7 197.6,123.7 197.6,123.7 C197.8,123.7 197.8,123.3 198,123.2 C198,123.2 198.1,123.2 198,123.2 C197.9,123.4 197.8,123.7 197.9,123.7 C197.9,123.7 198,123.7 198,123.7 C198,123.9 198.2,124 198.5,123.8 C198.4,123.8 198.3,123.7 198.3,123.6 L198.5,123.4 C198.7,123 198.4,123 198.4,122.8 C198.5,122.6 198.8,122.7 199,122.3 C199,122.2 199,122.1 198.9,122 C198.9,122 198.9,122 198.9,122 L198.9,122 C199,122 199.1,122 199.3,121.8 C199,121.8 199.1,121.6 199.1,121.4 C199.1,121.4 199.1,121.3 199.1,121.3 C199.2,121.2 199.3,121.1 199.4,120.8 C199.3,121 198.9,121.1 198.9,120.8 C198.9,120.8 198.9,120.6 198.6,120.6 C198.1,120.6 197.3,120.5 196.3,120.4 C196.2,120.4 196.2,120.3 196.3,120.3 C197.3,120.2 199.4,120.1 199.4,119.4 C199.4,118.9 199.3,118.5 197.5,118.5 C195.7,118.5 191.7,119.1 191.7,118.2 C192.1,118.3 192.9,118.3 193.8,118.4 M188,118.3 C187.9,118.5 187.7,118.6 187.5,118.4 C187.4,118.2 187.5,118.2 187.3,117.9 C187.6,118 187.9,118.2 188,118.3 M188.4,119.3 C188.3,119.3 188.3,119.1 188.3,119.1 C188.2,119.1 188.2,119.2 188.3,119.3 C188.2,119.3 188,119.2 188,119.3 C187.9,119.4 188,119.5 188,119.6 C188.1,119.7 188,119.8 188,119.9 C188,120 187.8,120.2 187.6,120.1 C187.4,120 187.4,119.8 187.5,119.7 C187.6,119.6 187.6,119.5 187.7,119.5 C187.8,119.5 187.9,119.5 187.9,119.4 C187.9,119.3 187.8,119.2 187.7,119.1 C187.8,119.1 187.9,119 187.8,118.9 C187.7,118.8 187.6,118.9 187.6,118.9 C187.6,118.8 187.7,118.8 187.7,118.8 C187.7,118.8 187.8,118.8 187.9,118.8 L188.5,119.1 C188.6,119.1 188.6,119.2 188.6,119.3 C188.4,119.2 188.5,119.3 188.4,119.3 M188.7,118.9 C188.5,118.9 188.4,118.6 188.5,118.4 C188.7,118.5 188.9,118.6 189.2,118.7 C188.8,118.8 188.9,118.9 188.7,118.9 M191.9,126.6 C191.9,126.7 192.1,126.8 192.3,126.9 C194.6,127.5 197.2,125.8 198.6,126.2 C196.8,125.6 195.7,126.7 193.9,126.3 C194.9,126.3 196,126.1 196,125.8 C195.2,126.3 193,125.4 192.1,126 C192,126 192,126.1 191.9,126.2 C191.2,126.4 190.6,126.7 190.6,127.3 C190.6,128.8 196.4,127.6 196.4,128.1 C196.4,128.5 195.3,128.9 193.7,128.9 C192.5,128.9 190.5,128.1 188,128.8 L188,128.8 C188.2,128.4 188.7,127.7 188.5,127.4 C188.7,127.3 188.9,127.2 188.9,127 C188.8,126.9 188.6,126.8 188.5,126.8 C188.6,126.7 188.5,126.6 188.4,126.5 C188.4,126.5 188.3,126.3 188.3,126.2 C188.2,126.1 188.1,126 187.8,125.9 C187.6,125.8 187.4,125.8 187.3,125.7 C187.2,125.7 187,125.8 187,125.8 C186.9,125.8 186.7,125.8 186.7,125.9 C186.6,125.8 186.5,125.8 186.3,125.7 C186.2,125.9 186.2,126.1 186.2,126.3 C186,126.3 185.8,126.8 185.6,126.8 C185.7,127 185.7,127 185.8,127 C185.6,127.3 185.6,127.7 185.4,127.7 C185.5,127.8 185.6,127.9 185.6,127.9 C185.5,128.4 185.5,128.8 185.5,129.3 C185.1,128.9 184.6,128.1 184.3,127.9 C184,127.7 184,127.5 184,127.2 C184,126.9 184.1,126.7 184.1,126.4 C184.1,126.3 184.1,126.2 184,126.1 C183.9,125.9 183.7,125.8 183.6,125.8 C183.7,125.9 183.8,125.9 183.8,126.1 C183.7,126.2 183.7,126.2 183.7,126.3 C183.6,126.4 183.6,126.5 183.7,126.6 C183.7,126.6 183.7,126.6 183.7,126.7 C183.7,126.8 183.7,126.8 183.7,126.8 C183.7,126.9 183.7,126.8 183.7,126.8 C183.6,126.6 183.5,126.3 183.4,126.3 L183.3,126.3 C183.3,126.3 183.3,126.3 183.3,126.3 C183.3,126.1 183.1,125.9 182.8,126.2 C182.9,126.2 183,126.2 183,126.3 C183,126.4 183,126.5 183,126.5 C183,126.7 183.1,126.8 183.4,126.8 C183.4,126.8 183.5,126.8 183.5,126.8 C183.5,126.8 183.5,126.9 183.5,126.9 C183.5,126.9 183.5,126.9 183.5,126.9 C183.1,126.7 183,126.9 182.9,127.1 C182.9,127.1 182.9,127.2 182.9,127.3 C182.8,127.4 182.7,127.6 183,127.7 C183,127.6 183,127.5 183.1,127.5 C183.1,127.5 183.1,127.5 183.2,127.5 C183.2,127.5 183.3,127.6 183.3,127.6 C183.3,127.6 183.4,127.6 183.5,127.5 C183.5,127.5 183.5,127.5 183.6,127.5 C183.6,127.5 183.7,127.5 183.7,127.6 C183.7,127.6 183.7,127.6 183.7,127.7 C183.4,127.9 183.5,128.2 183.8,128.3 C183.8,128.3 183.9,128.3 183.9,128.4 C183.9,128.9 183.2,128.8 183.3,128.3 C183,128.8 183.6,129.3 184,129 C184,129 184,129 184.1,129 C184.1,129.1 184.2,129.2 184.3,129.2 C184.3,129.2 184.3,129.1 184.4,129.1 C184.4,129.1 184.4,129.1 184.4,129.2 C184.4,129.3 184.4,129.5 184.6,129.5 C184.6,129.4 184.6,129.3 184.7,129.3 C184.8,129.3 184.7,130 185.4,130.4 C185.5,130.8 185.8,131 186.2,131 C186.3,131.3 186.5,131.5 186.4,131.5 C186.3,131.5 185.5,131.4 185.3,131.5 C185.1,131.6 184.8,131.7 184.6,131.8 L184.6,131.9 C184.6,131.9 184.6,131.9 184.6,131.8 C184.4,131.8 184.2,131.8 184,131.7 C183.9,131.6 183.9,131.5 183.9,131.3 C183.8,131.2 183.7,131.1 183.7,131.1 L183.5,131.1 C183.4,131 183.1,130.9 183,131 C183.1,131 183.2,131 183.3,131.2 C183.3,131.3 183.2,131.3 183.2,131.4 C183.1,131.5 183.2,131.7 183.7,131.8 C183.7,131.8 183.8,131.9 183.7,131.9 C183.6,131.9 183.5,132 183.4,131.9 C183.2,131.8 183.2,131.5 182.9,131.7 C182.9,131.7 182.8,131.8 182.8,131.8 C182.8,131.8 182.8,131.8 182.7,131.8 C182.5,131.8 182.2,132 182.3,132.3 C182.3,132.2 182.4,132.1 182.6,132.1 C182.6,132.2 182.6,132.2 182.7,132.3 C182.7,132.5 182.8,132.8 183.3,132.4 C183.4,132.4 183.4,132.4 183.3,132.4 C183.2,132.6 182.8,132.8 183.1,133 C183.1,133 183.2,133 183.2,133.1 C183.2,133.1 183.2,133.1 183.2,133.2 C183.1,133.5 183.5,133.7 183.6,133.7 C183.5,133.6 183.4,133.5 183.4,133.3 C183.5,133.3 183.5,133.4 183.6,133.3 C183.8,133.2 183.7,132.9 183.9,132.8 C183.9,132.8 184,132.8 184,132.8 C184,132.9 184.1,133.2 184.4,133.2 C184.7,133.2 184.8,132.9 184.8,132.8 C184.8,132.8 184.8,132.8 184.8,132.8 C184.9,132.9 185,133 184.9,133.1 C185,133.1 185.1,133 185.1,132.9 C185.2,133 185.2,133.2 185,133.4 C185.2,133.3 185.4,133.1 185.5,132.9 C185.5,133 185.6,133 185.6,133.1 C185.6,133.1 185.6,133.1 185.6,133.1 C185.7,133.2 185.9,133.2 186.2,133.1 C186.2,133.1 186.2,133.1 186.2,133.1 C186.2,133.2 186.2,133.3 186.2,133.4 C186.2,133.4 186.3,133.2 186.3,133.2 C186.4,133.2 186.3,133.5 186.5,133.7 C186.6,133 187,133.3 187.4,132.9 C187.5,132.9 187.5,132.9 187.4,132.9 C187.4,133 187.3,133.1 187.2,133.1 C187.4,133.1 187.9,132.9 187.9,132.6 C187.9,132.5 188.2,132.2 188.3,131.3 C188.4,131.3 188.4,131.3 188.5,131.3 C189.1,131.3 189.4,130.8 190,130.8 C189.9,131 189.8,131.4 189.8,131.7 C189.8,132 190.2,132.4 190.4,132.5 C190.4,132.5 190.4,132.5 190.4,132.5 C190.2,132.5 190.1,132.6 190,132.6 C189.5,132.9 189.5,131.8 189,132 C188.9,132 188.9,132.1 188.9,132.1 C188.7,132.1 188.4,132.3 188.4,132.6 C188.5,132.5 188.6,132.4 188.7,132.4 L188.7,132.5 C188.7,132.6 188.7,132.7 188.9,132.7 C189,132.7 189,132.7 189.1,132.7 C189.1,132.7 189.2,132.7 189.2,132.8 C189.2,133 188.5,132.7 188.7,133.2 C188.7,133.2 188.8,133.3 188.8,133.4 C188.8,133.6 188.9,133.7 189.2,133.6 C189.1,133.5 189,133.5 189.1,133.4 C189.2,133.4 189.2,133.4 189.2,133.4 C189.2,133.4 189.3,133.4 189.3,133.3 C189.3,133.3 189.3,133.3 189.3,133.3 C189.3,133.3 189.4,133.3 189.4,133.4 C189.4,133.4 189.4,133.5 189.4,133.5 C189.4,133.5 189.4,133.7 189.4,133.7 C189.4,133.9 189.7,134.1 190,133.9 C189.9,133.9 189.7,133.9 189.7,133.8 C189.8,133.8 189.8,133.8 189.8,133.7 C189.8,133.7 189.9,133.6 189.9,133.5 C189.9,133.4 189.9,133.4 189.9,133.4 C189.9,133.4 190,133.4 190,133.4 C190.1,133.4 190.1,133.4 190.1,133.5 C190.2,133.6 190.3,133.7 190.5,133.7 C190.9,133.6 190.6,133.3 190.8,133.2 C190.9,133.2 190.9,133.2 191,133.2 C191.3,133.3 191.5,133.3 191.6,133.2 C191.7,133.1 191.6,132.6 191.3,132.4 C191.1,132.3 191.6,131.2 190.7,130.7 C191.1,130.8 192.4,131 192.6,130.7 C193,130.8 193.4,131.1 193.5,131.1 C193.5,131.2 193.6,131.3 193.5,131.3 C193.2,131.5 193.2,131.6 193,131.7 L193,131.7 C192.9,131.6 192.8,131.4 192.7,131.4 C192.6,131.3 192.5,131.4 192.4,131.4 C192.2,131.4 191.9,131.4 191.9,131.6 C192,131.6 192.1,131.5 192.3,131.6 C192.3,131.6 192.3,131.7 192.3,131.7 C192.3,131.8 192.3,131.8 192.4,131.9 L192.4,131.9 L192.4,131.9 C192.4,131.9 192.4,131.9 192.4,131.9 C192.4,131.9 192.4,131.9 192.4,131.9 C192.2,131.9 191.8,131.8 191.9,132.1 C191.9,132.1 191.9,132.2 191.9,132.3 C191.8,132.4 191.7,132.6 191.8,132.7 C191.8,132.6 191.9,132.6 192,132.5 C192,132.6 192.1,132.6 192.1,132.6 C192.2,132.7 192.4,132.4 192.6,132.5 C192.6,132.5 192.6,132.5 192.6,132.5 C192.4,132.6 192.2,132.7 192.3,132.9 C192.3,132.9 192.3,133 192.4,133 C192.3,133.1 192.4,133.4 192.6,133.4 C192.6,133.3 192.5,133.2 192.6,133.1 C192.7,133.1 192.8,133.1 192.8,133.1 C193.2,132.9 192.9,132.6 193.1,132.5 C193.2,132.4 193.4,132.7 193.7,132.5 C193.8,132.4 193.8,132.3 193.8,132.2 C193.8,132.2 193.8,132.2 193.8,132.2 C193.9,132.3 194,132.4 194.1,132.3 C193.9,132.1 194.1,132 194.2,131.8 C194.2,131.8 194.2,131.8 194.3,131.8 C194.4,131.8 194.6,131.8 194.7,131.6 C194.5,131.6 194.1,131.4 194.4,131.3 C194.8,131.2 194.9,130.9 194.7,130.7 C194.4,130.3 193.8,130.3 193.7,129.8 L193.9,129.8 C195.9,129.8 197.1,129.3 197.1,128.6 C197,127.3 191.2,128.7 191.2,127.7 C191.1,126.9 191.5,126.7 191.9,126.6 M187.7,126.8 C187.8,126.9 188.2,127 188.3,127.1 C188,127.2 188.1,127.3 187.9,127.3 C187.7,127.2 187.6,126.9 187.7,126.8 M187.3,126.6 C187.2,126.7 187,126.9 186.9,126.7 C186.8,126.6 186.9,126.5 186.7,126.3 C186.9,126.4 187.1,126.5 187.3,126.6 M186.6,127.9 C186.7,127.8 186.7,127.7 186.8,127.7 C186.9,127.7 187,127.7 187,127.6 C187,127.5 186.9,127.4 186.8,127.3 C186.9,127.3 187,127.2 186.9,127.1 C186.8,127 186.7,127.1 186.7,127.1 C186.7,127 186.8,127 186.8,126.9 C186.9,126.9 186.9,126.9 187,126.9 L187.5,127.2 C187.6,127.3 187.6,127.3 187.6,127.4 C187.6,127.5 187.6,127.6 187.6,127.6 C187.5,127.6 187.6,127.4 187.5,127.4 C187.4,127.4 187.4,127.5 187.5,127.6 C187.4,127.6 187.3,127.5 187.2,127.6 C187.1,127.7 187.2,127.8 187.3,127.9 C187.3,128 187.3,128.1 187.3,128.2 C187.3,128.3 187.1,128.5 186.9,128.4 C186.6,128.2 186.6,128 186.6,127.9 M96.7,24.1 C96.7,23.3 96.1,22.7 95.3,22.7 L95.3,22.7 C94.5,22.7 93.9,23.4 93.9,24.2 C93.9,24.9 94.5,25.5 95.3,25.6 C96.1,25.5 96.7,24.9 96.7,24.1 M96.2,20.3 C96.2,19.5 95.6,18.9 94.8,18.9 C94,19 93.4,19.7 93.5,20.4 C93.6,21.1 94.1,21.6 94.8,21.7 C95.6,21.7 96.2,21.1 96.2,20.3 C96.2,20.3 96.2,20.3 96.2,20.3 M97,18.6 C97.8,18.6 98.5,18 98.5,17.2 C98.5,16.4 97.9,15.7 97.1,15.7 C97.1,15.7 97,15.7 97,15.7 C96.2,15.8 95.6,16.5 95.7,17.2 C95.8,18 96.3,18.6 97,18.6 M100.8,18.4 C101.6,18.4 102.3,17.8 102.3,17 C102.3,16.2 101.7,15.5 100.9,15.5 C100.9,15.5 100.8,15.5 100.8,15.5 C100,15.6 99.4,16.3 99.5,17 C99.6,17.8 100.1,18.3 100.8,18.4 M117,15.8 C117.6,16.4 118.5,16.4 119,15.8 C119.6,15.2 119.6,14.3 119,13.8 L119,13.8 C118.4,13.2 117.5,13.2 117,13.8 C116.5,14.3 116.5,15.2 117,15.8 M116.7,12.7 C117.3,12.1 117.3,11.2 116.7,10.7 C116.1,10.1 115.2,10.1 114.7,10.7 C114.1,11.3 114.1,12.2 114.7,12.7 C115.3,13.2 116.1,13.3 116.7,12.7 M112.9,12.1 C113.4,11.5 113.4,10.6 112.9,10.1 C112.3,9.5 111.4,9.5 110.9,10.1 C110.4,10.7 110.3,11.6 110.9,12.1 C111.4,12.6 112.4,12.6 112.9,12.1 M109.7,14.5 C110.3,13.9 110.3,13 109.7,12.5 C109.1,12 108.2,12 107.7,12.5 C107.1,13.1 107.1,14 107.7,14.5 C108.2,15.1 109.1,15.1 109.7,14.5 M100.6,12.5 L101.7,15 L103.1,13.3 C103.2,13.3 103.2,13.4 103.3,13.4 C103.4,14.2 103.5,15.7 103.5,16.5 C103.5,17.5 104.3,18.3 105.3,18.3 C106.3,18.3 107.1,17.5 107.1,16.5 C107.1,15.8 106.7,15.2 106.2,14.9 C105.5,14.3 104.8,13.7 104.2,13 C104.2,12.9 104.3,12.9 104.3,12.8 L106.7,13 L105.7,10.4 L103.9,11.9 C103.9,11.9 103.8,11.9 103.8,11.8 L103.7,9.2 L101.2,10.2 L102.9,12.2 C102.9,12.3 102.8,12.3 102.8,12.4 L100.6,12.5 L100.6,12.5 Z M117.1,17 C117.7,17.9 117.9,18.3 117.9,19 C117.5,18.8 117,18.4 116.4,17.6 L116.7,20.9 C117.1,20.3 117.4,19.9 117.9,19.7 C117.8,21.9 116.9,22.8 116.2,22.9 C115.4,23.1 114.7,22.6 114.5,21.8 C114.5,21.8 114.5,21.8 114.5,21.8 C114.3,20.8 115.2,20.2 116,21.1 C116.2,19.1 114.5,19.1 113.9,20 C114.7,18.1 114.4,16.8 112.7,15.8 C111.6,17.6 112.1,18.8 113.4,20.2 C112.1,19.5 110.9,20.7 112.1,22.1 C112.3,20.8 113.5,21.1 113.7,22.1 C113.9,23 113.1,24.1 111.7,24.5 C109.7,25.1 109,23.8 108.5,22.7 C108.8,22.4 109.9,22.5 111.1,23.2 L110.1,20 C109.8,20.9 109.1,21.6 108.1,22 C108,21.1 108.7,19.2 108.7,19.2 L104.8,20.8 C104.8,20.8 106.6,21.7 107.2,22.4 C106.4,22.7 105.6,22.9 104.4,22.4 L106,25.4 C106.3,24.1 107,23.2 107.5,23.1 C107.9,24.2 108.4,25.6 106.5,26.6 C105.2,27.2 103.8,27 103.4,26.2 C102.9,25.3 103.5,24.3 104.5,25 C104.3,23.2 102.7,23.2 102.2,24.6 C102.2,22.7 101.7,21.5 99.7,21 C99.2,22.9 99.9,24.1 101.8,24.9 C100.7,24.8 99.5,25.9 101,27.2 C101,26 102,25.8 102.6,26.7 C103,27.3 102.8,28.2 102.2,28.6 C102.2,28.6 102.2,28.6 102.1,28.6 C101.5,29 100.2,29 98.6,27.5 C99.1,27.3 99.6,27.4 100.3,27.5 L98.2,24.9 C98.3,25.8 98.3,26.5 98.1,26.9 C97.7,26.4 97.5,25.9 97.3,24.9 L95.7,26.3 C97.2,27.2 99,28.7 101.1,31.6 C103.3,30.2 107.3,28.3 109.8,27.3 C112.3,26.3 116.5,24.9 119,24.3 C118.5,20.7 118.7,18.5 119.2,16.7 L117.1,17 L117.1,17 Z M148.4,107.6 C149,106.1 146.2,104.4 145.8,102.2 C145.5,100 145.7,97.9 143.2,95 C140.7,92.1 132.2,83 129.6,80.1 C130.2,80 131.8,79.7 133.3,81.2 C134.2,82.1 136,83.8 137.7,85.5 C140,79.7 142.8,75.4 146.8,71 C147.3,70.4 147.8,69.9 148.4,69.3 C146.9,69.7 144.7,70.1 143.3,71 C143.2,68.5 143.4,66.5 141.7,64.9 C142.4,61.4 141.8,57.2 133.9,52 C137.9,53 140.3,56.6 143.4,53.8 C140.6,53.7 140.6,47.7 130.6,42.7 C134.4,42.6 137.4,48.8 141.8,45.3 C137.6,44.8 136.3,37.4 128.8,35.2 C131.4,35.5 134.1,36.8 136.3,33.8 C133.7,34.4 132.2,32 129.4,31.8 C130.5,28.6 130.2,26.6 129.1,24.2 C127.2,24.3 125.2,24.9 123.7,26.1 C123.5,24.3 121.6,24.2 120,24.3 C120.1,25.1 120.5,26.2 119.6,26.3 C118.3,26.6 113.8,27.8 110.4,29.1 C107,30.4 103,32.9 101.9,33.7 C101.2,34.2 100.6,33.1 100.2,32.5 C99,33.5 97.8,34.9 98.7,36.2 C96.8,36.4 94.7,36.9 92.9,38.3 C92.9,40.5 94.7,42.7 97.5,43.9 C92.9,48.5 97.1,52.7 93,56.7 C98.7,56.9 97.7,49 100.6,47.8 C100.3,53.4 97.2,54.4 97.2,60.4 C97.2,63.6 99.1,67.1 97.4,69.2 C102.2,67.8 100.9,57.2 103.9,54 C104.4,55.8 104.1,57.6 103.5,59.4 C101.8,64.3 103.7,71.1 101.1,73.3 C106,72.8 106.6,65 110.6,62.1 C107.2,69.2 103.6,84.2 98.5,91.7 C90.2,102.9 85.3,116.6 77.7,116.6 C74.3,116.6 71.8,114.5 71.8,110.3 C71.8,97.5 93.7,88.8 93.7,75.2 C93.7,69.2 88.8,66.8 85.7,66.8 C83.6,66.8 81.1,67.8 79,69.6 C78.2,69.3 77.3,69.1 76.4,69 C68.7,69 70.7,82.9 64,82.8 C66.7,84.3 71.3,81.4 74,77.5 C72.9,86.5 59.9,84.1 60.9,94.9 C62.7,86.4 83.4,87.7 83.4,74.8 C83.4,73.3 82.7,72.1 81.6,71.2 C83.2,70.2 84.6,69.8 86,69.8 C88.5,69.8 90.7,71.6 90.7,75.3 C90.7,86.7 68.9,96.3 68.9,110.3 C68.9,112.7 69.6,114.6 70.7,116.2 C69.2,116.9 67.6,116.6 66.3,115 C66.2,118.6 71.3,120.9 74.6,119.1 C75.3,119.4 76.1,119.5 76.9,119.6 C75.9,122.3 72.6,123.1 70.9,123 C76.2,127.2 85.5,121.7 85,116.9 C89.2,113.5 91.9,107.7 95,103.8 C94.8,104.7 94.6,105.6 94.5,106.4 C91.4,112.1 88.5,117.1 87.6,124.6 C86.9,130.9 83.8,136.5 79.4,136.5 C78.4,136.5 76.9,135.2 76.1,135.9 C74.7,137.1 76,138.3 76,139.5 C76,141.3 72.6,143 72.6,148.5 C72.6,151 74,153.9 73.5,155.6 C74.9,154.9 76.8,152.5 77.5,149.5 C79,156.7 74.4,156.4 77.7,162.9 C78.1,160.8 80.2,159.9 81.5,160.8 C82.8,161.7 82.2,162.3 81.2,163.3 C80.2,164.3 79.3,169.1 83.7,168.8 C82.9,168.3 82.8,167 85,166.5 C88,165.9 88.9,167.3 92.1,167.3 C94.1,167.3 94.6,164.7 96.2,164.7 C97.8,164.7 97.8,165.9 97.2,166.8 C99.7,166.1 100.2,164.8 100.2,163.3 C100.2,161.9 99,161 99.9,160.4 C100.8,159.8 103.7,160.5 102.6,162.9 C104.1,162.6 104.9,161.5 104.9,159.7 C104.9,157.9 102.8,156.8 100.8,157.1 C100.5,155.9 98.7,155.3 97.2,155.3 C93.6,155.3 94.2,158.1 91.7,158.1 C87.8,158.1 84,153 84,144.4 C84,139.8 88.9,138.6 92.4,137.1 C95.9,135.6 102,131.8 105.7,125.7 C108.6,120.9 108.7,115.6 108.3,109.3 C113.2,112.1 113.8,116.2 113.8,119.2 C113.8,123 111.8,124.6 110.2,125.3 C108.9,125.9 108.4,125.7 108.3,126.4 C108.1,127.4 108.8,127.9 109.4,128.3 C111.2,129.2 110.8,130.9 111.3,132.8 C111.8,134.6 113.4,137.6 116.2,139.7 C116.5,138.6 116.4,136.7 116.2,134.3 C120,136.2 117,143.8 124.3,143.8 C122.9,143 123.3,141 124.1,140.7 C124.9,140.4 125.9,141.2 127.3,143.2 C128.7,145.2 128.3,145 131.8,145 C135.3,145 133.7,143.8 135.6,143.8 C137.4,143.8 137.3,145.9 136.3,147.5 C139.4,146.6 140.3,144.2 139.3,141.8 C142,140.3 143.5,142.4 143.9,143.9 C146.6,141.2 143.9,137.9 141.8,137.7 C141.9,136.7 140.9,135.6 139.8,135.6 C138.7,135.5 137.6,135.5 136.3,135.5 C135,135.6 134.3,137.4 132.8,137.4 C128.2,137.4 119.1,129 119.1,125.4 C119.1,121.8 127.8,119.6 127.8,114 C127.8,106.7 120.6,104.2 114.5,99.5 C116.7,97.1 123,96.5 126.6,98.3 C127,96.3 128.3,96.8 128.8,93.2 C130.1,96.3 128.8,99 130.1,100.3 C131.1,98.8 133.7,99 133.6,95.2 C134.4,97.6 132.6,101.3 134.4,102.9 C134.7,100.9 135.9,100.5 136.6,100.5 C137.3,100.5 138,101 138,102.2 C138,105.1 134.4,103.8 134.4,107.1 C134.4,108.5 136.2,109 136.2,109.9 C136.2,110.8 134.8,112.2 133,111 C133.6,112.3 134.7,113.4 136.2,113.4 C137.8,113.4 139.5,112.1 140.2,110.5 C141,112.6 140.4,114.9 138.9,115.2 C140.5,116 144.3,115.2 143.8,110.4 C145.9,110.8 147.1,112.2 145.8,114.8 C147.6,114.4 149.2,113.5 149.2,111.7 C149.2,109.9 147.7,109.5 148.4,107.6 M107,41.5 C105,41.7 105.1,39.8 101.5,38.9 C104,38.4 107.1,37.2 109.9,36.1 C110.5,38.5 109.6,41.3 107,41.5 M121.2,56.5 C118.6,57.6 116.6,55.4 116.1,53.8 C115.6,52.2 115.2,51 115.8,50.4 C116.9,49.3 117.3,48.5 116.6,47.1 C115.8,45.5 114.2,46.3 112.4,46.7 C113.2,45.2 113.3,44.1 112.2,44.3 C110.8,44.5 110.8,46.7 110.1,46.4 C109.3,46.1 109.8,44.9 109.8,44.2 C109.8,43.3 110.4,42.9 111.4,42.5 L118.8,39.7 C119.8,39.3 120.4,39.2 121.1,39.8 C121.6,40.3 122.8,40.9 122.4,41.6 C122,42.3 120.5,40.8 119.4,41.6 C118.5,42.3 119.3,43 120.9,43.5 C119.3,44.4 117.6,45.1 118.1,46.7 C118.6,48.1 119.4,48.5 121,48.5 C121.8,48.5 122.4,49.7 123.1,51.2 C123.7,52.7 123.9,55.4 121.2,56.5 M121.6,35.8 C119.6,37.4 117,35.9 115.8,33.9 C118.5,32.8 121.7,31.5 123.9,30.2 C121.9,33.2 123.2,34.6 121.6,35.8 M287.8,142.8 C287.9,146.2 290.7,148.9 294.1,148.8 C297.4,148.7 300,146.1 300.1,142.8 C300.1,139.4 297.3,136.6 294,136.6 C290.5,136.6 287.8,139.4 287.8,142.8 M289.4,142.8 C289.4,140.3 291.5,138.2 294,138.2 C296.5,138.2 298.6,140.2 298.6,142.8 C298.6,145.3 296.6,147.4 294,147.4 C291.4,147.4 289.4,145.3 289.4,142.8 M264.8,148.5 C264,149 263.5,149.8 263.3,150.8 C263.1,151.9 263.4,153 264.2,153.9 C265,154.7 266,155.3 267.3,155.6 C268.5,155.8 269.7,155.7 270.8,155.1 C271.9,154.5 272.6,153.6 272.8,152.6 C273.2,150.5 271.4,148.3 268.8,147.9 C267.3,147.5 265.9,147.7 264.8,148.5 M267.6,153.9 C265.8,153.6 264.6,152.3 264.8,151 C264.9,150.5 265.2,150 265.7,149.7 C266.4,149.2 267.4,149 268.4,149.2 C270,149.5 271.2,150.6 271.2,151.8 C271.2,151.9 271.2,152 271.2,152.1 C271,153.5 269.4,154.2 267.6,153.9 M231,62.2 C229.1,63.7 228.5,66.2 229.7,67.8 L229.7,67.8 C230.9,69.4 233.5,69.4 235.4,68 C236.4,67.2 237.1,66 237.3,64.9 C237.4,64 237.2,63.2 236.7,62.5 C236.2,61.8 235.4,61.4 234.5,61.3 C233.3,61 232,61.4 231,62.2 M230.6,65.8 C230.6,65 231.1,64.1 231.9,63.4 C232.6,62.9 233.5,62.6 234.2,62.7 C234.7,62.7 235.1,63 235.4,63.3 C235.7,63.7 235.8,64.1 235.7,64.6 C235.6,65.4 235.1,66.2 234.4,66.7 C233.2,67.6 231.6,67.7 230.9,66.8 C230.7,66.5 230.6,66.1 230.6,65.8 M257.6,138.2 C256.7,139.1 256.1,140.4 256.1,141.9 L256.1,142 C256.1,143.4 256.6,144.7 257.5,145.6 C258.2,146.3 259.1,146.7 260,146.7 C260.9,146.7 261.8,146.3 262.5,145.7 C263.4,144.8 264,143.4 264,142 C264,140.8 263.7,139.6 263,138.6 C262.3,137.6 261.3,137.1 260.2,137.1 C259.2,137.2 258.3,137.6 257.6,138.2 L257.6,138.2 Z M260,145.2 L260,145.2 C259.5,145.2 259,145 258.6,144.6 C258,144 257.6,143 257.7,142 C257.7,141 258.1,140 258.7,139.4 C259.1,139 259.6,138.8 260.1,138.8 C261.4,138.8 262.4,140.3 262.4,142.1 C262.4,143.1 262,144.1 261.4,144.7 C261,145 260.5,145.2 260,145.2 L260,145.2 Z M227.5,88.6 C226.6,88.9 225.8,89.6 225.4,90.4 C224.5,92.4 225.6,94.9 228,96 C229.3,96.6 230.8,96.7 232,96.3 C232.9,96 233.7,95.3 234.1,94.5 C234.5,93.7 234.5,92.7 234.2,91.8 C233.8,90.6 232.8,89.5 231.5,88.9 C230.2,88.3 228.7,88.1 227.5,88.6 M228.8,94.6 C227.2,93.8 226.4,92.3 226.9,91.1 C227.2,90.5 227.7,90.2 228.1,90.1 C228.9,89.8 229.9,89.9 230.9,90.3 C231.8,90.7 232.5,91.5 232.8,92.3 C232.9,92.7 233,93.3 232.8,93.8 C232.5,94.4 232,94.7 231.6,94.8 C230.7,95.1 229.7,95 228.8,94.6" id="Shape"></path>
            <path d="M292.1,82.2 C294.1,87.7 298.1,89.7 301.1,88.3 C294.3,87.5 299.8,75.9 291.1,75.9 C290.6,75.9 290.1,76 289.7,76.1 C288.2,74.5 286.5,73.9 284,73.9 C280.3,73.9 273.9,77.5 273.9,84.8 C273.9,100.7 292.3,102.1 292.3,116.1 C292.3,120.2 289.2,122.7 285.7,122.7 C282.6,122.7 280.1,119.2 277.5,113.8 C276.3,111.2 273.6,107.7 270.7,104 C271.5,104.6 272.5,104.9 273.4,105 C274.4,105 275.3,104.7 276,104.1 C276.7,103.5 277.1,102.6 277.1,101.6 L277.1,101.5 C277.1,100.2 276.6,98.9 275.6,97.9 C274.6,96.8 273.3,96.2 272,96.2 C271,96.2 270.1,96.5 269.4,97.1 C268.7,97.7 268.4,98.6 268.3,99.6 L268.3,99.7 C268.3,100.2 268.4,100.8 268.6,101.3 C264.6,96.1 260.9,91 260.9,88.3 C260.9,85.9 262.6,83.7 264.7,81.1 L265.4,81.5 L266,80.9 C266.7,80.1 268.3,78.4 271.5,75 L271.7,74.8 L271.7,74.8 L272.5,74 L270.5,72.4 C271,71.2 271.5,69.9 271.8,68.5 C272.4,71 273.7,72.7 275.5,72.2 C274.3,69.6 276.7,66 275.1,59.6 C276.6,62.1 278.8,63.4 280.3,62.9 C276.2,59.3 281.5,54.2 276.2,46.4 C277.9,47 279.1,46.7 279.9,45.8 C275,45.1 277.3,38.9 268.8,36.7 C270.9,36.3 272.2,35.1 271.8,34 C269.6,35.6 267.6,31 260.2,31.1 C259.7,28.3 257.2,25.4 254.3,24 C254.8,26.1 254.3,28.1 253.8,29.7 L229.8,6.1 C229.1,5.4 228.7,5.3 228.5,5.5 C228.3,5.7 228.3,6.2 228.8,6.7 L249.4,32.6 C247.8,33.1 246.3,33.8 244.7,34.4 C243.6,34.8 242.9,35.9 242.9,37.1 C239.1,39 235.7,41.4 234,42.9 C232.7,44.1 231.7,44.3 232.8,46.9 C233.2,47.9 231.9,50.3 234.9,48.5 C236.9,47.3 241.3,44.9 242,46.4 C242.4,47.2 240.2,48.2 238.6,48.8 C237.1,49.4 235.5,50.5 235.7,51.1 C235.9,51.7 237.1,51.1 237.2,51.7 C237.3,52.4 237.8,53 238.4,53 C239,53 239.8,51.7 240.3,52.1 C240.8,52.5 240.1,55.3 239.6,56.1 C241.9,55.8 243.4,53.6 243.5,51.9 C243.6,50.2 244,49.7 244.4,49.5 C244.8,49.3 245.2,51.4 244.7,52.6 C245.9,52.3 247.2,50.7 247,47.7 C247.6,47.2 248.3,46.8 248.7,46.8 C249.5,46.8 251,49 253.3,49 C257.4,49 259.7,45.7 259.9,44.1 C260.1,42.8 260,41.6 259.3,40.7 C260.8,41.9 261.2,43.7 261.2,45.1 C261.2,50.9 251,53.6 246.8,57.6 C246.6,57.7 246.5,57.9 246.3,58 L241.5,56.1 L241.2,57.2 C240.4,59.9 239.6,62.5 238.7,65.1 C238.7,65.1 238.4,65.9 238.4,65.9 L238.8,66.2 C235.9,70 233.7,74.2 233.1,78.6 C231.9,77.4 230.8,76.4 229.6,75.4 C229.7,75 229.8,74.5 229.9,74.1 C230,72.8 229.6,71.6 228.8,70.7 C228.2,70 227.4,69.6 226.6,69.6 C225.7,69.6 224.9,69.9 224.3,70.5 C224.1,70.6 224,70.8 223.9,70.9 C223.7,70.8 223.6,70.6 223.4,70.5 C221.8,69.3 219.9,67.8 218.7,66.5 C218.2,65.9 217.7,65.6 216.6,65.6 C216.2,65.6 215.2,65.6 214.5,65.6 C213.8,65.6 213.4,66.1 212.6,66.9 C212.2,67.2 211.1,68.1 209.9,69 C210.5,69.6 211.1,70.2 211.6,70.9 C211.9,71.2 212.2,71.6 212.5,72 L213.3,71.4 C213.8,71 214.5,70.9 215.1,70.9 C215.7,70.9 216.6,71.4 217.2,72.3 C219.6,75.5 222.1,78.6 224.7,81.6 C224.4,81.7 224,81.8 223.7,82 C222.3,82.6 219.2,82.5 217.8,82.3 C216.4,82.2 216.1,81.8 215.2,83.3 C214.8,83.9 214.4,84.5 213.9,85.1 C213.4,85.7 213.1,86.3 214.1,88 C215.5,90.4 219,96.7 220.2,99.6 C221.4,102.4 222.7,102.9 225,103.8 C227.3,104.7 231.1,106.9 231.5,107.4 L231.7,105.2 C231,104.5 228.9,103.7 228.1,103.4 C227.3,103.1 227.1,102.8 228,102.8 C229,102.8 231.7,103.8 233.5,104.5 C232.9,102.4 230.9,100 229.7,98.7 C228.1,98.2 226.4,98.2 225.8,98.7 C225.9,99.2 225.5,99.6 225,99.7 C224.9,99.7 224.9,99.7 224.8,99.7 C224.2,99.7 223.8,99.2 223.9,98.6 C224.1,98 225.1,97.7 224.9,96.5 C224.7,95.3 223.2,95.1 222.2,95 C220.8,93 219.2,90.1 218.5,88.9 C217.8,87.7 218.2,87.1 218.7,86.7 C219.9,85.7 222.3,87.2 227.2,87.5 C228.9,87.6 231,87.7 233.2,87.8 C233.8,93.5 236.1,98.9 244,100.8 C247.9,101.8 251.8,104.6 253.2,108.3 C237.4,108 234.9,114.2 234.9,120 C234.9,126.6 240.5,126.2 240.5,131.2 C240.5,135.5 227.2,137.3 223.2,137.9 C219.8,138.4 217.9,139.2 216.2,140.8 C214.6,142.4 212.9,144 210,147 C210,147 211.3,147.3 212.5,147.2 L214.7,144.3 C215.4,143.3 215.8,142.5 216.3,142.6 C216.7,142.7 216.4,143.4 215.9,144.5 L214.1,147.6 C221.9,148.1 222.4,145.2 222.4,144.1 C222.4,142.9 220.5,142.1 221.6,141.4 C222.7,140.7 223.7,141.2 224.6,142.2 C225.5,143.2 225.8,144.1 227.9,143.3 C227.9,143.3 244.9,136.3 247,135.3 C248.9,134.4 248.4,133.6 247.2,132.6 C245.9,131.6 245.7,129.9 245.7,128.1 C245.7,123 248.8,121.4 254.3,121.5 C254.2,122.4 254.1,123.2 254.1,124 C254.1,132 266.2,139.8 269.5,139.8 C271,139.8 272.9,138.7 273,143.5 C273.1,147 273.8,149.6 273.2,153.7 C272.6,157.8 271.4,158.4 268.9,160.2 C266.4,161.9 264.1,167.4 263.1,168.5 C264.2,169.2 265.4,169.3 266.3,166.7 C267.1,164.5 267.9,163 268.9,162.4 C267.9,164.8 267.2,168.3 266.8,169.4 C269.9,169.9 274.9,167.1 274.9,164.9 C274.9,162.7 273.2,162.9 273.2,161.4 C273.2,160.8 274,160 274.9,160 C276.1,160 277.1,161 277.2,161.4 C278.6,160.7 279.4,159.3 279.4,156.1 C279.4,154.9 279.3,153.6 279.3,152.2 C279.4,152.4 279.5,152.6 279.6,152.7 C280.2,153.6 281.2,154.2 282.4,154.3 C283.5,154.4 284.7,154.1 285.8,153.4 C287,152.6 287.9,151.4 288.1,150.2 C288.2,149.9 288.2,149.7 288.2,149.4 C288.2,148.7 288,148.1 287.6,147.5 C287.1,146.7 286.3,146.2 285.3,146 C284,145.7 282.6,146 281.4,146.8 C280.3,147.5 279.5,148.6 279.1,149.8 C278.9,145.4 278.5,141.3 278.7,139.7 C278.9,137.2 279,136.2 278.1,135.8 C277.3,135.4 276.4,136.8 275.2,136.8 C274,136.8 270.4,133.5 270.4,130.1 C270.4,126.6 274.1,122.2 274,117.4 C273.9,115.9 274.9,115.1 275.5,116.5 C276.2,118.1 277.3,120.3 278.9,122.1 C277.9,128.1 284.5,133.9 289.9,129.6 C287.2,130 285.4,127.6 284.2,125.2 C284.7,125.3 285.1,125.3 285.7,125.3 C286,125.3 286.2,125.3 286.5,125.3 C288.4,127.6 294.4,127.4 296,121.6 C294.9,122.8 292.8,123.7 291.2,123.5 C293.5,121.7 294.6,118.9 294.6,115.8 C294.6,100.7 276.3,98.9 276.3,85.2 C276.3,80.1 280.8,76.8 283.9,76.8 C285.1,76.8 286,77.2 286.7,77.7 C285.5,78.9 284.9,80.7 285,82.9 C285.5,93.8 303.2,93.2 303.5,98.4 C305.9,90.4 292.6,92.8 292.1,82.2 L292.1,82.2 Z M244.9,40.6 C245.8,39 244.9,36.5 247.9,36.5 C249.4,36.5 250.7,38 252.5,38.5 C249.6,38.7 247,39.4 244.9,40.6 Z M228.7,73.9 C228.7,74.7 228.3,75.5 227.8,76.1 C227.5,76.4 227.1,76.6 226.6,76.6 C225.6,76.5 224.8,75.4 224.8,74 L224.8,73.8 C224.8,72.9 225.2,72.1 225.7,71.6 C226,71.3 226.5,71.1 226.9,71.1 C227.4,71.1 227.8,71.4 228,71.7 C228.5,72.2 228.8,73 228.7,73.9 L228.7,73.9 Z M281.1,150.2 C281.3,149.4 281.9,148.5 282.7,147.9 C283.6,147.3 284.6,147.1 285.4,147.3 C285.8,147.4 286.3,147.6 286.7,148.1 L286.7,148.1 C287,148.6 287,149.2 286.9,149.6 C286.7,150.5 286.1,151.3 285.3,151.9 C283.8,152.9 282,152.8 281.3,151.7 C281.1,151.2 281,150.7 281.1,150.2 L281.1,150.2 Z M270.1,99.5 C270.1,99 270.3,98.5 270.7,98.1 C271.1,97.8 271.6,97.6 272.1,97.6 C273,97.6 273.9,98.1 274.6,98.8 C275.3,99.6 275.7,100.5 275.7,101.4 C275.7,101.9 275.5,102.4 275.1,102.8 L275.1,102.8 C274.7,103.1 274.2,103.3 273.7,103.3 C272.8,103.3 271.9,102.8 271.2,102.1 C270.5,101.4 270.1,100.4 270.1,99.5 L270.1,99.5 Z M240,65.4 C240.9,62.7 242.5,57.4 242.5,57.4 L245.3,58.5 C244.5,58.8 243.5,59.6 242.6,60.4 C243.2,60.7 244.4,60.7 245.1,60.2 L244,63 C243.7,62.6 243,61.5 242.2,61.4 C241.6,63.7 243,64.5 244.1,65 C245.8,65.9 246.9,66 247.4,65.2 C247.9,64.2 246.8,62.9 245.4,63.5 C245.2,62 246.1,61.3 247,61.3 C247.8,61.3 248.4,62 248.6,62.9 C248.5,60.5 249.6,58.7 251.8,58 C252.6,60.3 251.9,61.9 250.2,63.5 C251.1,63.1 252.2,63.2 252.6,63.8 C253.1,64.6 252.9,65.7 251.6,66.4 C251.3,64.9 249.5,64.7 249,65.7 C248.5,66.7 249.3,67.6 250.8,68.5 C252.6,69.5 254.1,68.9 255,67.3 C254.4,67.1 253.4,67.2 252.4,67.8 L254.3,64.3 C254.4,64.8 254.7,65.7 255.5,66.3 C255.8,65.5 256.2,64.2 255.6,62.9 L259.6,65.2 C258.2,65.3 257.3,66.3 256.7,67 C257.7,67.3 258.6,67.2 259.1,67 L257,70.3 C257,69.2 256.6,68.2 256.2,67.8 C255.3,69.4 255.5,71 257.3,72.1 C258.9,73 260,73.2 260.6,72.3 C261.2,71.4 260.2,69.9 258.7,70.4 C258.6,68.9 259.5,68.2 260.5,68.3 C261.3,68.4 261.8,69.2 262,70.2 C262.6,67.9 263.6,66.5 266,66.1 C266.5,68.3 265.4,70.2 263.3,71.3 C264.2,71 265.1,71.2 265.5,71.8 C266,72.6 265.7,73.7 264.4,74.3 C264.2,72.8 262.5,72.5 261.9,73.4 C261.5,74.2 262.1,75.1 263.7,76.1 C264.7,76.7 266.1,77.5 267.8,75.9 C267.2,75.3 266,75.1 265.5,75.1 L267.4,72.7 C267.3,73.6 268,74.6 268.5,75 C268.8,73.8 268.9,72.6 268.8,71.7 L271.1,73.6 C271.1,73.6 267.3,77.6 265.5,79.7 L240,65.4 L240,65.4 Z M264.9,128 C263.9,129.4 262.2,129.9 261,129.1 C259.9,128.3 259.8,126.5 260.8,125.1 C261.8,123.7 263.5,123.2 264.6,123.9 C265.8,124.8 265.9,126.6 264.9,128 L264.9,128 Z M272.1,116.6 C271.1,118 269.4,118.5 268.3,117.7 C267.2,116.9 267.1,115.1 268.1,113.7 C269.1,112.3 270.8,111.8 271.9,112.6 C273,113.3 273.1,115.1 272.1,116.6 L272.1,116.6 Z" id="Shape"></path>
        </g>
    </g>
</svg>