<?xml version="1.0" encoding="UTF-8"?>
<svg width="123px" height="25px" viewBox="0 0 123 25" version="1.1" xmlns="http://www.w3.org/2000/svg" xmlns:xlink="http://www.w3.org/1999/xlink">
    <title>R29_Logo_B_BLACK</title>
    <defs>
        <polygon id="path-1" points="0 0 122.552 0 122.552 24.265 0 24.265"></polygon>
    </defs>
    <g id="Page-1" stroke="none" stroke-width="1" fill="none" fill-rule="evenodd">
        <g id="R29_Logo_B_BLACK">
            <path d="M33.416,12.857 L33.416,17.585 L31.357,17.585 L31.357,6.908 L35.245,6.908 C36.344,6.908 37.045,7.214 37.579,7.702 C38.159,8.251 38.525,9.029 38.525,9.883 C38.525,10.737 38.159,11.515 37.579,12.064 C37.29,12.339 36.939,12.552 36.512,12.689 L40.508,17.585 L37.96,17.585 L34.163,12.857 L33.416,12.857 Z M35.123,11.026 C35.718,11.026 35.978,10.904 36.161,10.706 C36.344,10.508 36.466,10.202 36.466,9.898 C36.466,9.578 36.344,9.272 36.161,9.075 C35.978,8.876 35.718,8.739 35.123,8.739 L33.416,8.739 L33.416,11.026 L35.123,11.026 L35.123,11.026 Z" id="Fill-1" fill="#0A0B09"></path>
            <polyline id="Fill-2" fill="#0A0B09" points="43.967 8.739 43.967 10.95 47.246 10.95 47.246 12.78 43.967 12.78 43.967 15.755 48.467 15.755 48.467 17.585 41.908 17.585 41.908 6.908 48.314 6.908 48.314 8.739 43.967 8.739"></polyline>
            <polyline id="Fill-3" fill="#0A0B09" points="53.221 8.739 53.221 10.95 56.5 10.95 56.5 12.78 53.221 12.78 53.221 17.585 51.162 17.585 51.162 6.908 57.568 6.908 57.568 8.739 53.221 8.739"></polyline>
            <polygon id="Fill-4" fill="#0A0B09" points="59.723 17.585 61.782 17.585 61.782 6.908 59.723 6.908"></polygon>
            <polyline id="Fill-5" fill="#0A0B09" points="64.742 6.908 66.191 6.908 72.139 13.863 72.139 6.908 74.198 6.908 74.198 17.585 72.749 17.585 66.801 10.63 66.801 17.585 64.742 17.585 64.742 6.908"></polyline>
            <polyline id="Fill-6" fill="#0A0B09" points="79.393 8.739 79.393 10.95 82.672 10.95 82.672 12.78 79.393 12.78 79.393 15.755 83.892 15.755 83.892 17.585 77.334 17.585 77.334 6.908 83.74 6.908 83.74 8.739 79.393 8.739"></polyline>
            <path d="M88.647,12.857 L88.647,17.585 L86.587,17.585 L86.587,6.908 L90.477,6.908 C91.575,6.908 92.277,7.214 92.81,7.702 C93.39,8.251 93.756,9.029 93.756,9.883 C93.756,10.737 93.39,11.515 92.81,12.064 C92.521,12.339 92.17,12.552 91.743,12.689 L95.739,17.585 L93.192,17.585 L89.394,12.857 L88.647,12.857 Z M90.355,11.026 C90.95,11.026 91.209,10.904 91.392,10.706 C91.575,10.508 91.697,10.202 91.697,9.898 C91.697,9.578 91.575,9.272 91.392,9.075 C91.209,8.876 90.95,8.739 90.355,8.739 L88.647,8.739 L88.647,11.026 L90.355,11.026 L90.355,11.026 Z" id="Fill-7" fill="#0A0B09"></path>
            <polyline id="Fill-8" fill="#0A0B09" points="101.037 12.75 101.037 17.585 98.978 17.585 98.978 12.75 95.317 6.908 97.666 6.908 100.015 10.661 102.348 6.908 104.698 6.908 101.037 12.75"></polyline>
            <path d="M109.523,15.718 L111.755,13.026 C112.501,12.063 112.923,11.223 112.923,9.899 L112.922,9.899 C112.922,7.939 111.263,6.539 109.432,6.539 L109.371,6.539 C107.542,6.539 106.001,7.9 105.875,9.869 L107.933,9.869 C107.933,9.106 108.594,8.406 109.402,8.406 C110.21,8.406 110.864,9.106 110.864,9.869 C110.864,10.429 110.789,11.006 110.017,12 L105.422,17.585 L113.311,17.585 L113.311,15.718 L109.523,15.718" id="Fill-9" fill="#0A0B09"></path>
            <g id="Group-13">
                <mask id="mask-2" fill="white">
                    <use xlink:href="#path-1"></use>
                </mask>
                <g id="Clip-11"></g>
                <path d="M118.647,6.539 C116.572,6.539 114.849,8.251 114.849,10.367 C114.849,12.545 116.557,14.115 118.586,14.115 L118.723,14.115 L116.71,17.585 L118.982,17.585 L121.499,13.26 C122.063,12.296 122.552,11.331 122.552,10.257 C122.552,7.986 120.644,6.539 118.647,6.539 M118.704,12.256 C117.645,12.256 116.784,11.397 116.784,10.336 C116.784,9.276 117.645,8.416 118.704,8.416 C119.766,8.416 120.625,9.276 120.625,10.336 C120.625,11.397 119.766,12.256 118.704,12.256" id="Fill-10" fill="#0A0B09" mask="url(#mask-2)"></path>
                <path d="M22.635,12.162 C22.635,17.97 17.91,22.695 12.102,22.695 C6.294,22.695 1.569,17.97 1.569,12.162 C1.569,6.355 6.294,1.63 12.102,1.63 C17.91,1.63 22.635,6.355 22.635,12.162 Z M12.102,0 C5.396,0 -0.06,5.456 -0.06,12.162 C-0.06,18.869 5.396,24.325 12.102,24.325 C18.808,24.325 24.264,18.869 24.264,12.162 C24.264,5.456 18.808,0 12.102,0 L12.102,0 Z" id="Fill-12" fill="#0A0B09" mask="url(#mask-2)"></path>
            </g>
            <path d="M15.424,10.413 C15.415,10.484 15.41,10.555 15.41,10.629 C15.41,11.545 16.046,12.209 16.922,12.209 C17.798,12.209 18.434,11.545 18.434,10.629 C18.434,9.7 17.812,9.05 16.922,9.05 C16.137,9.05 15.537,9.582 15.429,10.373 L15.424,10.413 Z M12.564,13.982 L14.723,16.772 L16.81,13.834 C15.859,13.806 15.025,13.423 14.438,12.743 C13.961,13.299 13.332,13.715 12.564,13.982 Z M17.374,20.197 L15.184,20.197 L15.155,20.158 L10.683,14.319 C10.556,14.325 10.426,14.329 10.293,14.329 L9.447,14.329 L7.871,16.635 L11.585,16.635 L11.585,18.263 L4.85,18.263 L4.956,18.106 L7.539,14.329 L6.088,14.329 L6.088,12.702 L8.652,12.702 L9.229,11.856 C9.622,11.289 9.975,10.737 9.975,10.199 C9.975,9.458 9.556,9.05 8.797,9.05 C8.074,9.05 7.606,9.506 7.606,10.213 L7.606,10.313 L5.871,10.313 L5.871,10.213 C5.871,8.674 7.184,7.423 8.797,7.423 C10.595,7.423 11.712,8.471 11.712,10.159 C11.712,10.928 11.209,11.738 10.695,12.502 L10.559,12.7 C12.579,12.646 13.733,11.518 13.733,9.586 C13.733,7.606 12.52,6.47 10.407,6.47 L6.088,6.47 L6.088,4.843 L10.293,4.843 C12.86,4.843 14.606,5.915 15.228,7.866 C15.728,7.576 16.311,7.423 16.922,7.423 C18.778,7.423 20.177,8.801 20.177,10.629 C20.177,11.866 19.399,12.957 18.712,13.92 L18.585,14.098 L15.802,18.165 L17.374,20.197 L17.374,20.197 Z" id="Fill-14" fill="#0A0B09"></path>
        </g>
    </g>
</svg>