<?xml version="1.0" encoding="UTF-8"?>
<svg width="123px" height="31px" viewBox="0 0 123 31" version="1.1" xmlns="http://www.w3.org/2000/svg" xmlns:xlink="http://www.w3.org/1999/xlink">
    <title>Group</title>
    <defs>
        <polygon id="path-1" points="2.57971141e-15 0 79.2203684 0 79.2203684 25 2.57971141e-15 25"></polygon>
        <polygon id="path-3" points="2.57971141e-15 0 79.2203684 0 79.2203684 25 2.57971141e-15 25"></polygon>
    </defs>
    <g id="Page-1" stroke="none" stroke-width="1" fill="none" fill-rule="evenodd">
        <g id="Group">
            <g id="vice_logo" transform="translate(22.000000, 3.000000)">
                <path d="M52.1518309,6.23110777 C52.8092413,6.98288149 54.254448,6.94764209 55.1119399,7.49972592 C53.9529554,7.79730301 52.4960023,7.79730301 51.447043,8.20451377 C51.6937188,7.55845824 51.9169016,6.88499428 52.1518309,6.23110777" id="Fill-1" fill="#0A0B09" fill-rule="nonzero"></path>
                <g id="Group-5">
                    <g id="Fill-2-Clipped">
                        <mask id="mask-2" fill="white">
                            <use xlink:href="#path-1"></use>
                        </mask>
                        <g id="path-1"></g>
                        <path d="M43.9798157,8.83882285 C43.6356443,10.42068 42.9073635,12.2296355 42.5001527,13.9837742 C44.7398119,14.0150981 47.1008512,13.5612931 49.4031582,13.4199439 C49.7163973,13.0049022 49.8687098,12.4293254 50.0374673,11.8694106 C50.4994949,12.5232972 50.8244804,13.7449294 50.3898612,14.6889536 C46.8933304,14.6415762 44.379587,17.503798 40.9496194,17.5077135 C39.4147481,17.5077135 38.1069752,16.6267287 38.835256,14.90039 C39.8650292,12.4645648 42.4100965,10.7613275 43.9798157,8.83882285" id="Fill-2" fill="#0A0B09" fill-rule="nonzero" mask="url(#mask-2)"></path>
                    </g>
                    <g id="Fill-4-Clipped">
                        <mask id="mask-4" fill="white">
                            <use xlink:href="#path-3"></use>
                        </mask>
                        <g id="path-1"></g>
                        <path d="M54.6890672,3.41195633 C53.7963359,3.52159 53.1581113,4.49654654 52.5747036,4.82153205 C52.617774,4.81761656 52.6569288,4.80978559 52.6447908,4.75105327 C52.7509006,4.26944823 52.9584214,3.8857304 52.9975763,3.34147755 C48.30643,1.68914157 43.7452779,4.10499773 40.3857891,5.94919263 C37.6997644,7.42141615 35.3034857,9.15597738 33.6198258,10.8827076 C34.2267265,9.84510329 34.872782,8.8231609 35.5932318,7.85211985 C36.3215126,6.86933233 37.1359342,5.98051653 37.7780742,5.1034472 C36.372414,4.73539131 34.9667537,4.34775799 33.5493471,4.04626541 C31.5367862,3.6194772 28.7372122,2.90685837 27.0688227,3.83482905 C26.5876092,4.10108224 26.1921449,4.76279973 25.7301173,4.82153205 C25.350315,4.8724334 24.7199214,4.59051825 24.2500628,4.53961691 C22.527248,4.34775799 20.9453908,4.508293 19.3870266,4.82153205 C17.930465,5.11519366 14.8489759,5.63203809 14.4535116,7.00637441 C14.1990048,7.88735924 14.7628351,8.74485113 14.6649479,9.61408949 C14.5670607,10.4715814 13.7448082,11.6070729 13.325851,12.2922834 C12.8129221,13.1301978 12.2921621,13.8745321 11.4229238,14.2660809 C10.8943329,11.6423123 11.4699096,9.30476593 11.9162753,7.08076869 C12.1942749,5.71034785 12.7502742,4.30468762 12.2686692,2.92252032 C10.9256568,2.73457689 9.79408072,3.79958966 8.46281477,4.33209604 C5.96473336,5.33054551 3.18082133,6.24285423 2.82451191,9.12465348 C2.62482202,10.7456656 3.23563816,11.7793544 3.67025734,12.9305079 C4.60214349,15.4054879 5.75290545,17.4998825 7.12332629,19.4145562 C6.75174646,20.0997666 5.87076164,20.2798791 5.7846209,21.2430892 C6.18400069,21.8069195 7.00977713,21.8817053 7.82850569,21.8773982 C10.1934605,21.8734827 12.1316271,20.6831744 13.8857658,19.6925559 C17.7111977,17.5433445 20.2797579,14.2308415 22.9775292,11.0980595 C23.4513032,10.5463672 23.842852,9.88425817 24.4575837,9.54752619 C25.0644843,12.3314382 23.8859224,13.8193237 23.0476164,16.0981378 C22.7269379,16.9752071 21.7049955,19.7281868 22.2022625,21.0277373 C22.7465154,22.460806 27.3859772,22.5234538 28.615832,21.5954831 C29.2344792,21.1256245 29.4811549,20.0684427 29.8139714,19.4106407 C30.2368441,18.5648953 30.6049,17.832699 30.941632,17.0852323 C30.9612094,20.170637 33.25177,21.0786387 35.7341894,21.7368322 C41.0044362,23.1303544 46.3177536,20.640104 49.1917219,18.9172892 C48.831497,21.2039343 49.7203128,21.4349481 51.5171303,21.8069195 C56.1652062,22.766214 60.8442145,21.6581309 64.6226605,20.7497377 C68.0878675,19.9157387 70.875695,19.3245 71.3882324,15.8867014 C70.8326246,15.4090119 69.4461503,15.4677442 68.4989937,15.6047863 C65.7033352,16.0119971 62.9977329,17.4254883 59.2697967,17.1553196 C58.5888933,17.1048098 57.1205853,16.869489 57.0144756,16.4509233 C56.8504166,15.8005607 58.0172321,15.3463641 58.9917971,15.1819136 C61.7878471,14.7081395 65.8282393,15.1858291 68.0796449,14.3361681 C69.1607112,13.9289574 70.4645687,12.7503955 70.3353576,11.4465379 C70.2488254,10.5655531 69.1019789,10.107441 68.0095577,10.0369622 C64.927677,9.84510329 62.7236488,11.6423123 59.4855401,11.0236652 C59.8884438,10.5107363 59.9632297,9.66890633 60.4722431,9.26169556 C62.8371979,9.21079422 65.1391134,9.68065279 67.3791641,9.54361071 C70.4915856,9.3478363 72.2500313,8.03614779 73.7218633,6.30158656 C73.8788744,6.11364313 74.2743387,5.91395323 74.144736,5.5967987 C68.729616,4.77454619 61.3567519,2.59361932 54.6890672,3.41195633 Z M79.2078537,3.69387148 C79.2939944,4.03451894 78.9141921,4.35950446 78.7184177,4.61009569 C77.0582507,6.69313537 75.2214952,9.15989287 73.009636,10.7378346 C73.1697795,11.5679181 73.0840303,12.6681702 72.7981997,13.2750709 C73.3776919,14.0150981 73.9924235,14.7159705 74.3487329,15.6713496 C73.8788744,18.169431 72.7864532,20.1115131 71.0401455,21.3801312 C69.3326011,22.617817 67.0306857,23.102946 64.4151396,23.7059312 C59.3602445,24.8727466 51.0433562,26.0199847 47.2923186,23.0011433 C43.2319574,25.3817601 35.0254861,25.6993062 31.2274626,22.8605773 C28.5257758,26.2784069 17.8795637,25.9773058 19.4614209,19.1952889 C17.4880148,20.6913969 14.5670607,22.7505521 11.7792332,23.9173675 C8.5489555,25.2642954 2.42904761,25.1155069 3.03986376,20.5343858 C3.11425803,19.9905245 3.34527183,19.681201 3.60369404,19.1952889 C2.66006141,17.5468684 2.06099173,16.4000219 1.48933047,14.9669533 C0.941162133,13.5922254 0.107163165,12.0260302 0.00927596211,10.107441 C-0.194329419,6.0235869 2.98857086,3.43153378 6.14093032,2.21773246 C7.75019593,1.59516985 9.05757741,0.698523078 10.6515726,0.244326458 C13.0321894,-0.433052984 15.0760742,0.874720043 15.2287782,3.06347789 C17.9970283,2.24122539 21.3682636,1.33674764 25.0253294,1.86533853 C27.9345371,-0.397813591 33.6198258,1.00001566 37.3552015,2.07677489 C38.2009469,2.31953515 39.3364383,2.94992874 39.9629164,2.92252032 C40.4911158,2.89902739 41.4504103,2.18249307 42.0064097,1.93581732 C44.6301782,0.772917352 48.0562303,-0.464376889 51.8033524,0.173847672 C52.5116642,0.295227803 53.1620268,0.671114661 53.9173245,0.737677959 C54.430645,0.784663816 55.0567315,0.624128804 55.6092069,0.596720387 C64.3599312,0.166016696 71.6505701,2.51530956 79.2078537,3.69387148 L79.2078537,3.69387148 Z" id="Fill-4" fill="#0A0B09" fill-rule="nonzero" mask="url(#mask-4)"></path>
                    </g>
                </g>
            </g>
            <rect id="Rectangle" x="0" y="0" width="123" height="31"></rect>
        </g>
    </g>
</svg>