<?xml version="1.0" encoding="UTF-8"?>
<svg width="66px" height="55px" viewBox="0 0 66 55" version="1.1" xmlns="http://www.w3.org/2000/svg" xmlns:xlink="http://www.w3.org/1999/xlink">
    <title>B850AE42-224A-424D-A978-2D196C994C4D</title>
    <defs>
        <polygon id="path-1" points="0 0.106333333 65.5998 0.106333333 65.5998 55 0 55"></polygon>
    </defs>
    <g id="Page-1" stroke="none" stroke-width="1" fill="none" fill-rule="evenodd">
        <g id="1103793-Teaching-–-Welcome-:-Landing-(1024)" transform="translate(-477.000000, -7299.000000)">
            <g id="DID-YOU-KNOW" transform="translate(-312.000000, 5292.000000)">
                <g id="Group-9" transform="translate(0.000000, 1345.000000)">
                    <g id="Group-8" transform="translate(384.000000, 578.000000)">
                        <g id="Group-7-Copy-2" transform="translate(347.000000, 0.000000)">
                            <g id="Icon-–-Training-Provider" transform="translate(58.000000, 84.000000)">
                                <g id="Group-3">
                                    <mask id="mask-2" fill="white">
                                        <use xlink:href="#path-1"></use>
                                    </mask>
                                    <g id="Clip-2"></g>
                                    <path d="M61.1538,50.6160417 L19.4930308,50.6160417 L19.4930308,38.26625 L29.4728769,32.8015417 L29.4728769,32.8015417 C30.6234923,32.5237917 31.7427231,32.0915833 32.7996462,31.5667917 L32.7996462,31.5667917 C33.8565692,32.1222917 35.0071846,32.5549583 36.1882615,32.83225 L36.1887231,32.83225 C37.4944154,33.1723333 38.8624154,33.3575 40.2922615,33.3575 C41.9404154,33.3575 43.5571846,33.1104583 45.0493385,32.67825 L45.0493385,32.67825 C46.2308769,32.3074583 47.3496462,31.8445417 48.4070308,31.2890417 C48.4070308,31.2890417 48.4074923,31.2890417 48.4074923,31.2890417 L61.1538,38.26625 L61.1538,50.6160417 Z M4.44595385,50.6160417 L4.44595385,38.26625 L17.1608769,31.2885833 C17.1613385,31.2890417 17.1613385,31.2890417 17.1613385,31.2890417 C18.2187231,31.87525 19.3374923,32.338625 20.5190308,32.67825 C20.5190308,32.67825 20.5194923,32.67825 20.5194923,32.67825 L15.0474923,35.673 L15.0474923,50.6160417 L4.44595385,50.6160417 Z M12.9331846,16.7163333 C12.9331846,9.98570833 18.4670308,4.49029167 25.2447231,4.49029167 C26.3639538,4.49029167 27.4522615,4.64475 28.5091846,4.95320833 C28.5091846,4.95320833 28.5091846,4.95320833 28.5091846,4.95320833 C25.4625692,7.94795833 23.5656462,12.1160417 23.5656462,16.7163333 C23.5656462,18.6615 23.9081077,20.5447917 24.5607231,22.3043333 L24.5607231,22.3043333 L24.5607231,22.3043333 C25.1104154,23.8567083 25.8941077,25.3055 26.8633385,26.6099167 C27.3207231,27.2254583 27.8159538,27.8112083 28.3536462,28.3557083 C28.3693385,28.3864167 28.3928769,28.4097917 28.4201077,28.4327083 C28.4473385,28.4560833 28.4782615,28.479 28.5091846,28.5101667 C28.4468769,28.5101667 28.3850308,28.540875 28.3536462,28.540875 C28.3296462,28.54775 28.3088769,28.551875 28.2853385,28.5582917 L28.0901077,28.606875 L28.0730308,28.6114583 C27.9668769,28.6366667 27.8644154,28.661875 27.7633385,28.6953333 L27.7319538,28.6953333 C26.9238,28.8497917 26.0842615,28.942375 25.2447231,28.942375 C24.1878,28.942375 23.1618,28.8190833 22.1671846,28.540875 C21.7596462,28.4414167 21.3608769,28.318125 20.9704154,28.1774167 C19.8474923,27.7727083 18.7993385,27.2020833 17.8430308,26.4916667 C17.6865692,26.37525 17.5310308,26.2565417 17.3791846,26.1327917 C14.6741077,23.8791667 12.9331846,20.4829167 12.9331846,16.7163333 L12.9331846,16.7163333 Z M40.2922615,4.49029167 C47.1008769,4.49029167 52.6038,9.98570833 52.6038,16.7163333 C52.6038,20.4829167 50.8942615,23.8484583 48.1891846,26.1020833 C48.1891846,26.1020833 48.1891846,26.1020833 48.1891846,26.1020833 L48.1891846,26.1020833 C47.5748769,26.6149583 46.9084154,27.0618333 46.1994923,27.4445417 C45.4541077,27.8469583 44.6602615,28.1742083 43.8230308,28.4203333 C43.6827231,28.4615833 43.5438,28.5042083 43.4011846,28.540875 C42.4065692,28.8190833 41.3496462,28.9428333 40.2922615,28.9428333 C39.4531846,28.9428333 38.6450308,28.8497917 37.8364154,28.6953333 C37.8364154,28.6953333 37.8364154,28.6953333 37.8359538,28.6953333 L37.8050308,28.6953333 C37.6656462,28.6724167 37.5119538,28.6307083 37.3638,28.5857917 C37.3134923,28.5706667 37.2618,28.5564583 37.2147231,28.540875 L37.2147231,28.540875 L37.2147231,28.540875 L37.2142615,28.540875 C37.2142615,28.540875 37.2142615,28.540875 37.2142615,28.540875 C37.1524154,28.540875 37.0901077,28.540875 37.0591846,28.5101667 C36.6290308,28.3928333 36.2085692,28.25075 35.7982615,28.089875 C35.6316462,28.0243333 35.4659538,27.9569583 35.3025692,27.8845417 C34.9998,27.75025 34.7048769,27.6026667 34.4164154,27.4459167 C34.2442615,27.352875 34.0748769,27.2557083 33.9082615,27.154875 C33.6336462,26.9889583 33.3664154,26.8134167 33.1079538,26.62825 C32.9939538,26.5462083 32.8794923,26.4650833 32.7687231,26.3798333 C32.7281077,26.3495833 32.6948769,26.3252917 32.6598,26.2991667 C32.6214923,26.2712083 32.5831846,26.239125 32.5485692,26.2107083 C32.5181077,26.1859583 32.4871846,26.162125 32.4576462,26.1327917 C32.1156462,25.8243333 31.8045692,25.546125 31.4939538,25.2376667 C29.3178,23.01475 28.0116462,20.02 28.0116462,16.7163333 C28.0116462,12.7952917 29.8771846,9.30645833 32.7687231,7.05283333 C34.0121077,6.09583333 35.4733385,5.35470833 37.0591846,4.95320833 C38.0847231,4.64475 39.1730308,4.49029167 40.2922615,4.49029167 L40.2922615,4.49029167 Z M52.2622615,28.3557083 L52.2618,28.3557083 C55.2470308,25.33025 57.0498,21.2240417 57.0498,16.7163333 C57.0498,7.54645833 49.5262615,0.106333333 40.2922615,0.106333333 C37.5876462,0.106333333 35.0381077,0.723708333 32.7996462,1.89704167 L32.7996462,1.89704167 L32.7996462,1.89704167 C30.5302615,0.754416667 27.9807231,0.106333333 25.2447231,0.106333333 C16.0111846,0.106333333 8.48718462,7.54645833 8.48718462,16.7163333 C8.48718462,21.2240417 10.2908769,25.33025 13.3061077,28.3557083 L13.3061077,28.3557083 L13.3061077,28.3557083 L-4.61538462e-05,35.673 L-4.61538462e-05,55 L15.0474923,55 L50.5213385,55 L65.5998,55 L65.5998,35.673 L52.2622615,28.3557083 Z" id="Fill-1" fill="#000000" mask="url(#mask-2)"></path>
                                </g>
                                <polygon id="Fill-4" fill="#000000" points="37.5526676 15.7125451 38.1673507 21.8868387 40.7779298 20.0045517 41.5152759 21.1603935 43.2968536 24 45.7232102 22.2500613 43.2968536 18.3869612 46 17.0330871 41.7300502 13.6979097 37 10 37.5221158 15.3488323"></polygon>
                            </g>
                        </g>
                    </g>
                </g>
            </g>
        </g>
    </g>
</svg>