<?xml version="1.0" encoding="UTF-8"?>
<svg width="68px" height="46px" viewBox="0 0 68 46" version="1.1" xmlns="http://www.w3.org/2000/svg" xmlns:xlink="http://www.w3.org/1999/xlink">
    <title>EA7978B7-46E9-4957-8B4F-03AF2565494F</title>
    <g id="Page-1" stroke="none" stroke-width="1" fill="none" fill-rule="evenodd">
        <g id="1103793-Teaching-–-Welcome-:-Landing-(1024)" transform="translate(-305.000000, -7308.000000)" fill="#000000">
            <g id="DID-YOU-KNOW" transform="translate(-312.000000, 5292.000000)">
                <g id="Group-9" transform="translate(0.000000, 1345.000000)">
                    <g id="Group-8" transform="translate(384.000000, 578.000000)">
                        <g id="Group-7-Copy" transform="translate(192.000000, 39.000000)">
                            <g id="Icon-–-Funding" transform="translate(41.000000, 54.000000)">
                                <path d="M-9.09494702e-13,0 L-9.09494702e-13,37.1847477 L7.90591723,37.1847477 L7.90591723,46 L68,46 L68,8.81485568 L60.0940828,8.81485568 L60.0940828,0 L-9.09494702e-13,0 Z M4.53010791,4.4526363 L55.5667971,4.4526363 L55.5667971,8.81485568 L55.5365588,8.81485568 L55.5365588,32.7309218 L4.53010791,32.7309218 L4.53010791,4.4526363 Z M12.4332029,37.2061623 L60.0670698,37.2061623 L60.0670698,37.1847477 L60.0940828,37.1847477 L60.0940828,13.2682851 L63.4698921,13.2682851 L63.4698921,41.5465706 L12.4332029,41.5465706 L12.4332029,37.2061623 Z" id="Fill-1"></path>
                                <path d="M29.6834628,19.8580724 L34.1956049,19.8580724 L34.1956049,16.1066371 L29.6834628,16.1066371 L29.6834628,13.3013856 C29.6834628,12.4325193 29.9059325,11.8086198 30.3423154,11.450356 C30.8088499,11.0660645 31.3906938,10.8804256 32.1237029,10.8804256 C33.0950725,10.8804256 33.8745314,11.3623211 34.5113815,12.3552017 L34.8487532,12.878818 L38,10.5244584 L37.7473787,10.1225599 C36.4492313,8.05182577 34.4840821,7 31.9065301,7 C29.9772369,7 28.3853154,7.52323356 27.1776226,8.55745235 C25.9564839,9.6016229 25.335932,11.249024 25.335932,13.4560208 L25.335932,16.1066371 L23,16.1066371 L23,19.8580724 L25.335932,19.8580724 L25.335932,23.2458853 L23.1100125,23.2458853 L23.1100125,27 L37.7722334,27 L37.7722334,23.2458853 L29.6834628,23.2458853 L29.6834628,19.8580724 Z" id="Fill-2"></path>
                            </g>
                        </g>
                    </g>
                </g>
            </g>
        </g>
    </g>
</svg>