<?xml version="1.0" encoding="UTF-8"?>
<svg width="66px" height="58px" viewBox="0 0 66 58" version="1.1" xmlns="http://www.w3.org/2000/svg" xmlns:xlink="http://www.w3.org/1999/xlink">
    <title>3ADF6BB9-91BD-4DD3-9856-BB4E47854646</title>
    <g id="Page-1" stroke="none" stroke-width="1" fill="none" fill-rule="evenodd">
        <g id="1103793-Teaching-–-Welcome-:-Landing-(1024)" transform="translate(-650.000000, -7299.000000)" fill="#000000">
            <g id="DID-YOU-KNOW" transform="translate(-312.000000, 5292.000000)">
                <g id="Group-9" transform="translate(0.000000, 1345.000000)">
                    <g id="Group-8" transform="translate(384.000000, 578.000000)">
                        <g id="Group-7-Copy-3" transform="translate(521.000000, 0.000000)">
                            <g id="Icon-–-Application" transform="translate(57.000000, 84.000000)">
                                <path d="M10.4368643,0 L10.4368643,47.4982716 L32.092865,47.4982716 L32.092865,53.5746144 L4.46926005,53.5746144 L4.46926005,14.923614 L10.4333269,14.923614 L10.4333269,10.5007284 L0,10.5007284 L0,58 L36.5631357,58 L36.5631357,47.4982716 L47,47.4982716 L47,0 L10.4368643,0 Z M14.905619,43.072886 L42.5297293,43.072886 L42.5297293,4.42138565 L14.905619,4.42138565 L14.905619,43.072886 Z" id="Fill-1"></path>
                                <polygon id="Fill-2" points="20 16 37 16 37 11 20 11"></polygon>
                                <polygon id="Fill-3" points="20 26 37 26 37 21 20 21"></polygon>
                                <polygon id="Fill-4" points="20 35 37 35 37 30 20 30"></polygon>
                                <path d="M52,18.5040662 L52,42.9795836 L52,47.4252455 L52,54 L66,54 L66,18.5040662 L59.000253,4 L52,18.5040662 Z M56.4781179,19.5128218 L59.000253,14.2855879 L61.5223881,19.5128218 L61.5223881,42.9795836 L56.4781179,42.9795836 L56.4781179,19.5128218 Z" id="Fill-5"></path>
                            </g>
                        </g>
                    </g>
                </g>
            </g>
        </g>
    </g>
</svg>