<?xml version="1.0" encoding="UTF-8"?>
<svg width="64px" height="67px" viewBox="0 0 64 67" version="1.1" xmlns="http://www.w3.org/2000/svg" xmlns:xlink="http://www.w3.org/1999/xlink">
    <title>12AA929B-45FD-4377-8E82-39D556A393CC</title>
    <g id="Page-1" stroke="none" stroke-width="1" fill="none" fill-rule="evenodd">
        <g id="1103793-Teaching-–-Welcome-:-Landing-(1024)" transform="translate(-825.000000, -7293.000000)" fill="#000000">
            <g id="DID-YOU-KNOW" transform="translate(-312.000000, 5292.000000)">
                <g id="Group-9" transform="translate(0.000000, 1345.000000)">
                    <g id="Group-8" transform="translate(384.000000, 578.000000)">
                        <g id="Group-7-Copy-4" transform="translate(694.000000, 1.000000)">
                            <path d="M123,77 L59,77 L59,135.206494 L65.4193719,135.206494 L65.4193719,144 L116.580144,144 L116.580144,135.206494 L123,135.206494 L123,77 Z M118,130 L116.835968,130 L116.835968,124.141521 L103.800245,116.877375 C104.886515,115.823003 105.817261,114.57293 106.593443,113.24506 L111.86975,113.24506 L111.86975,108.011376 L108.64982,108.011376 C108.882627,106.840066 109.037671,105.629134 109.037671,104.418201 C109.037671,103.754266 108.882627,103.168611 108.843745,102.543816 L111.86975,102.543816 L111.86975,97.3101324 L107.524669,97.3101324 C106.593443,95.2400463 105.352128,93.4048019 103.761364,91.8425731 L111.86975,91.8425731 L111.86975,86.6088891 L71.0940561,86.6088891 L71.0940561,91.8425731 L79.2029215,91.8425731 C77.6510384,93.4048019 76.3703628,95.2400463 75.4396169,97.3101324 L71.0940561,97.3101324 L71.0940561,102.543816 L74.1200602,102.543816 C74.0816592,103.168611 73.9650159,103.754266 73.9650159,104.418201 C73.9650159,105.629134 74.0816592,106.840066 74.3139856,108.011376 L71.0940561,108.011376 L71.0940561,113.24506 L76.3703628,113.24506 C77.1465444,114.57293 78.0777702,115.783863 79.1640404,116.877375 L66.1278381,124.141521 L66.1278381,130 L64,130 L64,82 L118,82 L118,130 Z M112,135.191743 L112,139 L71,139 L71,135.191743 L71,132.561759 L71,129.931774 L71,126.987551 L83.5733913,120 C85.955118,121.255982 88.6494161,121.962653 91.5388903,121.962653 C94.3897157,121.962653 97.044882,121.255982 99.4266087,120 L112,126.987551 L112,129.931774 L112,132.561759 L112,135.191743 Z M82.6888669,113.38931 L82.8068601,113.38931 C81.3550091,111.936973 80.2168356,110.132114 79.5885095,108.130113 C79.5098473,107.777104 79.3923397,107.384765 79.3136775,107.031271 C79.1175077,106.20726 79,105.38325 79,104.519423 C79,103.852251 79.0786622,103.263742 79.1961698,102.635901 L79.2355009,102.635901 C79.5098473,100.673232 80.2556812,98.9072175 81.3550091,97.3767043 L81.276347,97.3767043 C81.4725168,97.1018724 81.6686866,96.8275259 81.9041875,96.592025 C82.1396885,96.2778619 82.4145205,95.9636989 82.728198,95.728198 C83.0030299,95.3751894 83.2778619,95.1003574 83.5915394,94.9041875 C84.8083751,93.8446762 86.2213806,93.0595113 87.7912248,92.6278406 C88.1835645,92.4710018 88.5759041,92.3530086 89.0075749,92.3136775 C89.7927398,92.0786622 90.6560813,92 91.5194228,92 C92.3832498,92 93.2461057,92.0786622 94.0312706,92.3136775 C96.0721167,92.6671717 97.8774618,93.6091753 99.407975,94.9041875 C100.310648,95.5713592 101.056481,96.4351863 101.723653,97.3767043 L101.644991,97.3767043 C102.743833,98.9072175 103.489667,100.673232 103.764499,102.635901 L103.803345,102.635901 C103.921338,103.263742 104,103.852251 104,104.519423 C104,105.775104 103.764499,106.99194 103.411005,108.130113 L103.371674,108.130113 C102.783164,110.132114 101.684322,111.936973 100.19314,113.38931 L100.310648,113.38931 C99.957639,113.742318 99.5648137,114.095812 99.133143,114.370159 L99.0549664,114.331313 C98.3091326,114.959154 97.4846366,115.469487 96.5824496,115.822495 C95.5224527,116.332828 94.3454337,116.646506 93.1285981,116.803345 L93.2072602,116.882007 C92.6575962,116.960669 92.1079323,117 91.5194228,117 C90.9309133,117 90.3419182,116.960669 89.7534087,116.842676 L89.8714019,116.803345 C88.6545663,116.646506 87.5163928,116.332828 86.4175504,115.822495 C85.5148778,115.469487 84.6903819,114.959154 83.9450336,114.331313 L83.866857,114.370159 C83.4347007,114.095812 83.042361,113.742318 82.6888669,113.38931 L82.6888669,113.38931 Z" id="Icon-–-Interviews"></path>
                        </g>
                    </g>
                </g>
            </g>
        </g>
    </g>
</svg>