<?xml version="1.0" encoding="UTF-8"?>
<svg width="66px" height="55px" viewBox="0 0 66 55" version="1.1" xmlns="http://www.w3.org/2000/svg" xmlns:xlink="http://www.w3.org/1999/xlink">
    <title>8633CC0B-25C8-4785-AA5F-CC3F956EF5F3</title>
    <g id="Page-1" stroke="none" stroke-width="1" fill="none" fill-rule="evenodd">
        <g id="1103793-Teaching-–-Welcome-:-Landing-(1024)" transform="translate(-129.000000, -7299.000000)" fill="#000000">
            <g id="DID-YOU-KNOW" transform="translate(-312.000000, 5292.000000)">
                <g id="Group-9" transform="translate(0.000000, 1345.000000)">
                    <g id="Group-8" transform="translate(384.000000, 578.000000)">
                        <g id="Group-7" transform="translate(0.000000, 21.000000)">
                            <path d="M90,63 L69.4864865,70.9581994 L69.4864865,91.6495177 L57,91.6495177 L57,118 L69.4864865,118 L74.8378378,118 L105.162162,118 L110.513514,118 L123,118 L123,91.6495177 L110.513514,91.6495177 L110.513514,70.9581994 L90,63 Z M75,91.8870968 L75,74.8548387 L90,69 L105,74.8548387 L105,91.8870968 L105,113 L96.1764706,113 L96.1764706,99.5166374 L83.8235294,99.5166374 L83.8235294,113 L75,113 L75,91.8870968 Z M111,113 L118,113 L118,97 L111,97 L111,113 Z M62,113 L69,113 L69,97 L62,97 L62,113 Z" id="Icon-–-Get-Expereince"></path>
                        </g>
                    </g>
                </g>
            </g>
        </g>
    </g>
</svg>