<svg xmlns="http://www.w3.org/2000/svg" width="59.866" height="61.801" viewBox="0 0 59.866 61.801">
  <g id="Group_1230" data-name="Group 1230" transform="translate(19706.999 2469.002)">
    <path id="Path_1311" data-name="Path 1311" d="M1478.6,404.257h49.72v39.857h-30.69l-10.458,7.029v-7.029H1478.6Zm-5.144-5.143v50.143h8.573v11.657l17.317-11.657h33.977V399.114Z" transform="translate(-21180.453 -2868.115)" fill="#0b0c0c"/>
    <path id="Path_1475" data-name="Path 1475" d="M6.528-52.745h4.658v-1.477c0-4.09,6.59-4.81,6.59-11.058,0-4.469-3.976-7.12-8.256-7.12A10.383,10.383,0,0,0,2.4-69.673l2.651,3.295A7.236,7.236,0,0,1,9.1-67.969c2.083,0,3.673,1.363,3.673,3.143,0,3.9-6.249,4.772-6.249,10.263Zm0,7.763h4.658V-49.45H6.528Z" transform="translate(-19686.684 -2385.618)"/>
  </g>
</svg>
